%TF.GenerationSoftware,KiCad,Pcbnew,7.0.5*%
%TF.CreationDate,2023-07-30T11:04:12+02:00*%
%TF.ProjectId,TeensyRPR,5465656e-7379-4525-9052-2e6b69636164,rev?*%
%TF.SameCoordinates,Original*%
%TF.FileFunction,Copper,L2,Bot*%
%TF.FilePolarity,Positive*%
%FSLAX46Y46*%
G04 Gerber Fmt 4.6, Leading zero omitted, Abs format (unit mm)*
G04 Created by KiCad (PCBNEW 7.0.5) date 2023-07-30 11:04:12*
%MOMM*%
%LPD*%
G01*
G04 APERTURE LIST*
%TA.AperFunction,ComponentPad*%
%ADD10C,1.501140*%
%TD*%
%TA.AperFunction,ComponentPad*%
%ADD11C,3.700780*%
%TD*%
%TA.AperFunction,ComponentPad*%
%ADD12R,1.700000X1.700000*%
%TD*%
%TA.AperFunction,ComponentPad*%
%ADD13O,1.700000X1.700000*%
%TD*%
%TA.AperFunction,ComponentPad*%
%ADD14R,1.600000X1.600000*%
%TD*%
%TA.AperFunction,ComponentPad*%
%ADD15O,1.600000X1.600000*%
%TD*%
%TA.AperFunction,ComponentPad*%
%ADD16C,1.524000*%
%TD*%
%TA.AperFunction,ComponentPad*%
%ADD17C,0.500000*%
%TD*%
%TA.AperFunction,SMDPad,CuDef*%
%ADD18R,1.650000X1.650000*%
%TD*%
%TA.AperFunction,ComponentPad*%
%ADD19C,2.250000*%
%TD*%
%TA.AperFunction,ComponentPad*%
%ADD20R,1.800000X1.800000*%
%TD*%
%TA.AperFunction,ComponentPad*%
%ADD21C,1.800000*%
%TD*%
%TA.AperFunction,ComponentPad*%
%ADD22C,2.100000*%
%TD*%
%TA.AperFunction,ComponentPad*%
%ADD23C,1.750000*%
%TD*%
%TA.AperFunction,ComponentPad*%
%ADD24R,1.900000X1.900000*%
%TD*%
%TA.AperFunction,ComponentPad*%
%ADD25C,1.900000*%
%TD*%
%TA.AperFunction,ViaPad*%
%ADD26C,0.800000*%
%TD*%
%TA.AperFunction,Conductor*%
%ADD27C,0.200000*%
%TD*%
%TA.AperFunction,Conductor*%
%ADD28C,0.250000*%
%TD*%
G04 APERTURE END LIST*
D10*
%TO.P,J2,1*%
%TO.N,TxAudio*%
X173288640Y-114080260D03*
%TO.P,J2,2*%
%TO.N,GND*%
X173288640Y-116681220D03*
%TO.P,J2,3*%
%TO.N,TxPTT*%
X173288640Y-112030480D03*
%TO.P,J2,4*%
%TO.N,RxAudio*%
X173288640Y-118731000D03*
%TO.P,J2,5*%
%TO.N,+12V*%
X170796900Y-112030480D03*
%TO.P,J2,6*%
%TO.N,unconnected-(J2-Pad6)*%
X170796900Y-118731000D03*
D11*
%TO.P,J2,SHD*%
%TO.N,N/C*%
X176288380Y-108621800D03*
X177098640Y-115380740D03*
X176288380Y-122139680D03*
%TD*%
D12*
%TO.P,J6,1,Pin_1*%
%TO.N,+3V3*%
X144018000Y-112522000D03*
D13*
%TO.P,J6,2,Pin_2*%
%TO.N,GND*%
X144018000Y-115062000D03*
%TO.P,J6,3,Pin_3*%
%TO.N,CS*%
X144018000Y-117602000D03*
%TO.P,J6,4,Pin_4*%
%TO.N,+3V3*%
X144018000Y-120142000D03*
%TO.P,J6,5,Pin_5*%
%TO.N,DC*%
X144018000Y-122682000D03*
%TO.P,J6,6,Pin_6*%
%TO.N,MOSI*%
X144018000Y-125222000D03*
%TO.P,J6,7,Pin_7*%
%TO.N,SCK*%
X144018000Y-127762000D03*
%TO.P,J6,8,Pin_8*%
%TO.N,+3V3*%
X144018000Y-130302000D03*
%TO.P,J6,9,Pin_9*%
%TO.N,MISO*%
X144018000Y-132842000D03*
%TD*%
D14*
%TO.P,U4,1,GND*%
%TO.N,GND*%
X180499499Y-126473501D03*
D15*
%TO.P,U4,2,0_RX1_CRX2_CS1*%
%TO.N,RXD*%
X177959499Y-126473501D03*
%TO.P,U4,3,1_TX1_CTX2_MISO1*%
%TO.N,TXD*%
X175419499Y-126473501D03*
%TO.P,U4,4,2_OUT2*%
%TO.N,FIX*%
X172879499Y-126473501D03*
%TO.P,U4,5,3_LRCLK2*%
%TO.N,DCD*%
X170339499Y-126473501D03*
%TO.P,U4,6,4_BCLK2*%
%TO.N,KISS*%
X167799499Y-126473501D03*
%TO.P,U4,7,5_IN2*%
%TO.N,CONN*%
X165259499Y-126473501D03*
%TO.P,U4,8,6_OUT1D*%
%TO.N,DC*%
X162719499Y-126473501D03*
%TO.P,U4,9,7_RX2_OUT1A*%
%TO.N,DIN*%
X160179499Y-126473501D03*
%TO.P,U4,10,8_TX2_IN1*%
%TO.N,DOUT*%
X157639499Y-126473501D03*
%TO.P,U4,11,9_OUT1C*%
%TO.N,PTT*%
X155099499Y-126473501D03*
%TO.P,U4,12,10_CS_MQSR*%
%TO.N,CS*%
X152559499Y-126473501D03*
%TO.P,U4,13,11_MOSI_CTX1*%
%TO.N,MOSI*%
X150019499Y-126473501D03*
%TO.P,U4,14,12_MISO_MQSL*%
%TO.N,MISO*%
X147479499Y-126473501D03*
%TO.P,U4,15,13_SCK_CRX1_LED*%
%TO.N,SCK*%
X147479499Y-141713501D03*
%TO.P,U4,16,14_A0_TX3_SPDIF_OUT*%
%TO.N,BLE-RX*%
X150019499Y-141713501D03*
%TO.P,U4,17,15_A1_RX3_SPDIF_IN*%
%TO.N,BLE-TX*%
X152559499Y-141713501D03*
%TO.P,U4,18,16_A2_RX4_SCL1*%
%TO.N,PDL-l*%
X155099499Y-141713501D03*
%TO.P,U4,19,17_A3_TX4_SDA1*%
%TO.N,PDL-r*%
X157639499Y-141713501D03*
%TO.P,U4,20,18_A4_SDA0*%
%TO.N,SDA*%
X160179499Y-141713501D03*
%TO.P,U4,21,19_A5_SCL0*%
%TO.N,SCL*%
X162719499Y-141713501D03*
%TO.P,U4,22,20_A6_TX5_LRCLK1*%
%TO.N,LRCLK*%
X165259499Y-141713501D03*
%TO.P,U4,23,21_A7_RX5_BCLK1*%
%TO.N,SCLK*%
X167799499Y-141713501D03*
%TO.P,U4,24,22_A8_CTX1*%
%TO.N,unconnected-(U4-22_A8_CTX1-Pad24)*%
X170339499Y-141713501D03*
%TO.P,U4,25,23_A9_CRX1_MCLK1*%
%TO.N,MCLK*%
X172879499Y-141713501D03*
%TO.P,U4,26,3V3*%
%TO.N,+3V3*%
X175419499Y-141713501D03*
%TO.P,U4,27,GND*%
%TO.N,GND*%
X177959499Y-141713501D03*
%TO.P,U4,28,VIN*%
%TO.N,V-Ext*%
X180499499Y-141713501D03*
D16*
%TO.P,U4,29,Vusb*%
%TO.N,Net-(D9-A)*%
X177959499Y-139173501D03*
D15*
%TO.P,U4,S1,Vbat*%
%TO.N,unconnected-(U4-Vbat-PadS1)*%
X147479499Y-129013501D03*
%TO.P,U4,S2,3.3V*%
%TO.N,unconnected-(U4-3.3V-PadS2)*%
X147479499Y-131553501D03*
%TO.P,U4,S3,GND*%
%TO.N,GND*%
X147479499Y-134093501D03*
%TO.P,U4,S4,Program*%
%TO.N,Net-(U4-Program)*%
X147479499Y-136633501D03*
%TO.P,U4,S5,ON/OFF*%
%TO.N,unconnected-(U4-ON{slash}OFF-PadS5)*%
X147479499Y-139173501D03*
%TD*%
D17*
%TO.P,U3,21,GND*%
%TO.N,GND*%
X164869500Y-133713500D03*
X163719500Y-133713500D03*
D18*
X164294500Y-134288500D03*
D17*
X164869500Y-134863500D03*
X163719500Y-134863500D03*
%TD*%
D19*
%TO.P,J5,1,In*%
%TO.N,Net-(J5-In)*%
X177312000Y-99808000D03*
%TO.P,J5,2,Ext*%
%TO.N,GND*%
X179852000Y-97268000D03*
X174772000Y-97268000D03*
X179852000Y-102348000D03*
X174772000Y-102348000D03*
%TD*%
D20*
%TO.P,D2,1,A1*%
%TO.N,KISS*%
X137400000Y-111000000D03*
D21*
%TO.P,D2,2,K*%
%TO.N,Net-(D2-K)*%
X137400000Y-113540000D03*
%TO.P,D2,3,A2*%
%TO.N,CONN*%
X137400000Y-116080000D03*
%TD*%
D20*
%TO.P,D3,1,A1*%
%TO.N,DCD*%
X137414000Y-120000000D03*
D21*
%TO.P,D3,2,K*%
%TO.N,Net-(D3-K)*%
X137414000Y-122540000D03*
%TO.P,D3,3,A2*%
%TO.N,PTT*%
X137414000Y-125080000D03*
%TD*%
D20*
%TO.P,D4,1,K*%
%TO.N,Net-(D4-K)*%
X137414000Y-105918000D03*
D21*
%TO.P,D4,2,A*%
%TO.N,FIX*%
X137414000Y-103378000D03*
%TD*%
D20*
%TO.P,D5,1,K*%
%TO.N,GND*%
X137414000Y-132750000D03*
D21*
%TO.P,D5,2,A*%
%TO.N,Net-(D5-A)*%
X137414000Y-130210000D03*
%TD*%
D22*
%TO.P,SW1,*%
%TO.N,*%
X140158000Y-142474000D03*
X140158000Y-135464000D03*
D23*
%TO.P,SW1,1,1*%
%TO.N,Net-(U4-Program)*%
X137668000Y-141224000D03*
%TO.P,SW1,2,2*%
%TO.N,GND*%
X137668000Y-136724000D03*
%TD*%
D24*
%TO.P,J1,R*%
%TO.N,Net-(C24-Pad1)*%
X145438000Y-93254000D03*
D25*
%TO.P,J1,S*%
%TO.N,GND*%
X145438000Y-97754000D03*
%TO.P,J1,T*%
%TO.N,Net-(C23-Pad2)*%
X137938000Y-92604000D03*
X137938000Y-98404000D03*
%TD*%
D12*
%TO.P,J4,1,Pin_1*%
%TO.N,TxPTT*%
X166624000Y-121158000D03*
D13*
%TO.P,J4,2,Pin_2*%
%TO.N,Net-(J4-Pin_2)*%
X164084000Y-121158000D03*
%TD*%
D12*
%TO.P,J3,1,Pin_1*%
%TO.N,BLE-TX*%
X157470000Y-118364000D03*
D13*
%TO.P,J3,2,Pin_2*%
%TO.N,BLE-RX*%
X154930000Y-118364000D03*
%TO.P,J3,3,Pin_3*%
%TO.N,GND*%
X152390000Y-118364000D03*
%TO.P,J3,4,Pin_4*%
%TO.N,+3V3*%
X149850000Y-118364000D03*
%TD*%
D26*
%TO.N,GND*%
X159193500Y-115825500D03*
X167575500Y-117349500D03*
X152908000Y-133604000D03*
X176022000Y-139446000D03*
X139700000Y-110998000D03*
X141986000Y-106172000D03*
X145542000Y-109728000D03*
X157161500Y-107443500D03*
X159447500Y-114555500D03*
X142748000Y-143510000D03*
X178816000Y-129794000D03*
X168676000Y-131304000D03*
X157734000Y-121920000D03*
X163322000Y-96774000D03*
X150876000Y-139192000D03*
X141732000Y-139192000D03*
X179324000Y-133858000D03*
X171216000Y-130034000D03*
X168167500Y-112269500D03*
X161310000Y-132574000D03*
X158790000Y-144050000D03*
X140208000Y-125222000D03*
X140462000Y-116078000D03*
X173482000Y-105410000D03*
X156907500Y-116079500D03*
X152843500Y-114301500D03*
X155637500Y-109221500D03*
X166051500Y-107697500D03*
X160463500Y-109221500D03*
X154432000Y-121666000D03*
X164846000Y-128778000D03*
X162749500Y-117095500D03*
X159512000Y-139192000D03*
X168910000Y-103124000D03*
X167321500Y-114301500D03*
X177546000Y-132334000D03*
X176022000Y-135382000D03*
X151638000Y-135128000D03*
X169672000Y-139700000D03*
X139700000Y-120142000D03*
%TO.N,PTT*%
X154686000Y-128524000D03*
%TO.N,SDA*%
X167198773Y-137667384D03*
%TO.N,SCL*%
X168422000Y-134860000D03*
%TO.N,DOUT*%
X165818500Y-136955500D03*
%TO.N,DIN*%
X167025000Y-135685500D03*
%TO.N,V-Ext*%
X154367500Y-113538000D03*
%TD*%
D27*
%TO.N,+3V3*%
X146050000Y-132334000D02*
X146050000Y-134620000D01*
X146050000Y-134620000D02*
X146812000Y-135382000D01*
X148082000Y-135382000D02*
X148590000Y-135890000D01*
X148590000Y-135890000D02*
X148590000Y-142240000D01*
X144018000Y-130302000D02*
X146050000Y-132334000D01*
X146812000Y-135382000D02*
X148082000Y-135382000D01*
X148590000Y-142240000D02*
X149352000Y-143002000D01*
X149352000Y-143002000D02*
X174131000Y-143002000D01*
X174131000Y-143002000D02*
X175419499Y-141713501D01*
%TO.N,DC*%
X162719499Y-126473501D02*
X162719499Y-125342131D01*
X145503978Y-124167978D02*
X144018000Y-122682000D01*
X154655431Y-124898033D02*
X153925376Y-124167978D01*
X153925376Y-124167978D02*
X145503978Y-124167978D01*
X162719499Y-125342131D02*
X162275401Y-124898033D01*
X162275401Y-124898033D02*
X154655431Y-124898033D01*
D28*
%TO.N,MISO*%
X143451850Y-129090150D02*
X142748000Y-129794000D01*
X147479499Y-126473501D02*
X144862850Y-129090150D01*
X144862850Y-129090150D02*
X143451850Y-129090150D01*
X142748000Y-129794000D02*
X142748000Y-131572000D01*
X142748000Y-131572000D02*
X144018000Y-132842000D01*
D27*
%TO.N,PTT*%
X155099499Y-126473501D02*
X155099499Y-128110501D01*
X145034000Y-126492000D02*
X146558000Y-124968000D01*
X137414000Y-125080000D02*
X137414000Y-125222000D01*
X138684000Y-126492000D02*
X145034000Y-126492000D01*
X146558000Y-124968000D02*
X153593998Y-124968000D01*
X137414000Y-125222000D02*
X138684000Y-126492000D01*
X155099499Y-128110501D02*
X154686000Y-128524000D01*
X153593998Y-124968000D02*
X155099499Y-126473501D01*
%TO.N,SDA*%
X160179499Y-141713501D02*
X163648489Y-138244511D01*
X163648489Y-138244511D02*
X166621646Y-138244511D01*
X166798774Y-138067383D02*
X167198773Y-137667384D01*
X166621646Y-138244511D02*
X166798774Y-138067383D01*
%TO.N,SCL*%
X165699500Y-138733500D02*
X167850500Y-138733500D01*
X168422000Y-138162000D02*
X167850500Y-138733500D01*
X168422000Y-134860000D02*
X168422000Y-138162000D01*
X162719499Y-141713501D02*
X165699500Y-138733500D01*
%TO.N,DCD*%
X169063000Y-127750000D02*
X170339499Y-126473501D01*
X161038044Y-125298044D02*
X161390000Y-125650000D01*
X141986000Y-123952000D02*
X144722300Y-123952000D01*
X145338289Y-124567989D02*
X153759687Y-124567989D01*
X153759687Y-124567989D02*
X154489742Y-125298044D01*
X161390000Y-125650000D02*
X161390000Y-126950000D01*
X144722300Y-123952000D02*
X145338289Y-124567989D01*
X138034000Y-120000000D02*
X141986000Y-123952000D01*
X162190000Y-127750000D02*
X169063000Y-127750000D01*
X137414000Y-120000000D02*
X138034000Y-120000000D01*
X161390000Y-126950000D02*
X162190000Y-127750000D01*
X154489742Y-125298044D02*
X161038044Y-125298044D01*
%TO.N,FIX*%
X172879499Y-126473501D02*
X170103998Y-123698000D01*
X147663664Y-122967978D02*
X145796000Y-121100314D01*
X145034000Y-116332000D02*
X143256000Y-116332000D01*
X145796000Y-121100314D02*
X145796000Y-117094000D01*
X154717978Y-122967978D02*
X147663664Y-122967978D01*
X141732000Y-107696000D02*
X137414000Y-103378000D01*
X141732000Y-114808000D02*
X141732000Y-107696000D01*
X170103998Y-123698000D02*
X155448000Y-123698000D01*
X143256000Y-116332000D02*
X141732000Y-114808000D01*
X155448000Y-123698000D02*
X154717978Y-122967978D01*
X145796000Y-117094000D02*
X145034000Y-116332000D01*
%TO.N,DOUT*%
X162332000Y-128550000D02*
X166590000Y-132808000D01*
X166590000Y-132808000D02*
X166590000Y-135084498D01*
X166590000Y-135084498D02*
X166324999Y-135349499D01*
X159699000Y-128550000D02*
X162332000Y-128550000D01*
X157639499Y-126490499D02*
X159699000Y-128550000D01*
X157639499Y-126473501D02*
X157639499Y-126490499D01*
X166324999Y-135349499D02*
X166324999Y-136449001D01*
X166324999Y-136449001D02*
X165818500Y-136955500D01*
%TO.N,DIN*%
X167025000Y-135685500D02*
X167025000Y-132481000D01*
X162694000Y-128150000D02*
X161855998Y-128150000D01*
X167025000Y-132481000D02*
X162694000Y-128150000D01*
X161855998Y-128150000D02*
X160179499Y-126473501D01*
%TO.N,KISS*%
X165424009Y-124098011D02*
X167799499Y-126473501D01*
X144526000Y-118872000D02*
X145288000Y-119634000D01*
X147497978Y-123367978D02*
X154482978Y-123367978D01*
X137400000Y-111000000D02*
X139192000Y-112792000D01*
X154482978Y-123367978D02*
X155213011Y-124098011D01*
X145288000Y-121158000D02*
X147497978Y-123367978D01*
X155213011Y-124098011D02*
X165424009Y-124098011D01*
X145288000Y-119634000D02*
X145288000Y-121158000D01*
X139192000Y-116840000D02*
X141224000Y-118872000D01*
X141224000Y-118872000D02*
X144526000Y-118872000D01*
X139192000Y-112792000D02*
X139192000Y-116840000D01*
%TO.N,CONN*%
X154247978Y-123767978D02*
X147332292Y-123767978D01*
X147332292Y-123767978D02*
X144976314Y-121412000D01*
X163284020Y-124498022D02*
X154978022Y-124498022D01*
X144976314Y-121412000D02*
X142732000Y-121412000D01*
X154978022Y-124498022D02*
X154247978Y-123767978D01*
X165259499Y-126473501D02*
X163284020Y-124498022D01*
X142732000Y-121412000D02*
X137400000Y-116080000D01*
D28*
%TO.N,V-Ext*%
X180499499Y-133255499D02*
X180499499Y-141713501D01*
X154367500Y-113802805D02*
X155194000Y-114629305D01*
X156801000Y-123273000D02*
X171344000Y-123273000D01*
X155194000Y-116078000D02*
X156115000Y-116999000D01*
X154367500Y-113538000D02*
X154367500Y-113802805D01*
X156115000Y-116999000D02*
X156115000Y-122587000D01*
X171344000Y-123273000D02*
X174244000Y-126173000D01*
X156115000Y-122587000D02*
X156801000Y-123273000D01*
X174244000Y-126173000D02*
X174244000Y-127000000D01*
X174244000Y-127000000D02*
X180499499Y-133255499D01*
X155194000Y-114629305D02*
X155194000Y-116078000D01*
D27*
%TO.N,Net-(U4-Program)*%
X147479499Y-136633501D02*
X142258499Y-136633501D01*
X142258499Y-136633501D02*
X137668000Y-141224000D01*
%TD*%
%TA.AperFunction,Conductor*%
%TO.N,GND*%
G36*
X146754121Y-96032002D02*
G01*
X146800614Y-96085658D01*
X146812000Y-96138000D01*
X146812000Y-96796670D01*
X146791998Y-96864791D01*
X146738342Y-96911284D01*
X146673003Y-96921998D01*
X146633325Y-96917883D01*
X146002429Y-97548779D01*
X145962099Y-97451412D01*
X145865925Y-97326075D01*
X145740588Y-97229901D01*
X145643219Y-97189569D01*
X146274947Y-96557842D01*
X146238184Y-96529228D01*
X146238181Y-96529227D01*
X146025678Y-96414225D01*
X146025676Y-96414224D01*
X145797149Y-96335771D01*
X145797140Y-96335769D01*
X145558809Y-96296000D01*
X145317191Y-96296000D01*
X145078859Y-96335769D01*
X145078850Y-96335771D01*
X144850325Y-96414224D01*
X144637808Y-96529233D01*
X144601052Y-96557841D01*
X144601051Y-96557842D01*
X145232779Y-97189570D01*
X145135412Y-97229901D01*
X145010075Y-97326075D01*
X144913901Y-97451411D01*
X144873570Y-97548779D01*
X144242674Y-96917883D01*
X144242673Y-96917883D01*
X144151332Y-97057690D01*
X144054273Y-97278962D01*
X144054270Y-97278969D01*
X143994958Y-97513186D01*
X143994956Y-97513195D01*
X143975003Y-97754000D01*
X143994956Y-97994804D01*
X143994958Y-97994813D01*
X144054270Y-98229030D01*
X144054273Y-98229037D01*
X144151331Y-98450306D01*
X144242672Y-98590114D01*
X144873569Y-97959218D01*
X144913901Y-98056588D01*
X145010075Y-98181925D01*
X145135412Y-98278099D01*
X145232779Y-98318429D01*
X144601052Y-98950157D01*
X144637808Y-98978766D01*
X144637818Y-98978772D01*
X144850321Y-99093774D01*
X144850323Y-99093775D01*
X145078850Y-99172228D01*
X145078859Y-99172230D01*
X145317191Y-99212000D01*
X145558809Y-99212000D01*
X145797140Y-99172230D01*
X145797149Y-99172228D01*
X146025676Y-99093775D01*
X146025678Y-99093774D01*
X146238187Y-98978769D01*
X146274946Y-98950157D01*
X146274947Y-98950156D01*
X145643220Y-98318429D01*
X145740588Y-98278099D01*
X145865925Y-98181925D01*
X145962099Y-98056589D01*
X146002429Y-97959220D01*
X146633324Y-98590115D01*
X146673002Y-98586000D01*
X146742822Y-98598868D01*
X146794602Y-98647441D01*
X146812000Y-98711327D01*
X146812000Y-99568000D01*
X161544000Y-99568000D01*
X161544000Y-96392000D01*
X161564002Y-96323879D01*
X161617658Y-96277386D01*
X161670000Y-96266000D01*
X173245809Y-96266000D01*
X173313930Y-96286002D01*
X173360423Y-96339658D01*
X173370527Y-96409932D01*
X173353242Y-96457834D01*
X173312488Y-96524338D01*
X173214121Y-96761816D01*
X173154117Y-97011753D01*
X173133950Y-97267999D01*
X173154117Y-97524246D01*
X173214121Y-97774183D01*
X173312486Y-98011657D01*
X173446791Y-98230824D01*
X173448253Y-98232536D01*
X174093099Y-97587689D01*
X174118059Y-97645553D01*
X174222756Y-97786185D01*
X174357062Y-97898882D01*
X174452430Y-97946777D01*
X173807462Y-98591745D01*
X173807462Y-98591746D01*
X173809174Y-98593207D01*
X174028342Y-98727513D01*
X174265816Y-98825878D01*
X174515753Y-98885882D01*
X174772000Y-98906049D01*
X175028246Y-98885882D01*
X175278183Y-98825878D01*
X175515657Y-98727513D01*
X175734825Y-98593207D01*
X175736535Y-98591746D01*
X175736536Y-98591744D01*
X175093799Y-97949007D01*
X175110891Y-97942787D01*
X175257373Y-97846445D01*
X175377688Y-97718918D01*
X175452517Y-97589308D01*
X176095745Y-98232536D01*
X176095746Y-98232535D01*
X176097207Y-98230825D01*
X176231513Y-98011657D01*
X176329878Y-97774183D01*
X176389882Y-97524246D01*
X176410049Y-97268000D01*
X176389882Y-97011753D01*
X176329878Y-96761816D01*
X176231511Y-96524338D01*
X176190758Y-96457834D01*
X176172220Y-96389301D01*
X176193677Y-96321624D01*
X176248316Y-96276291D01*
X176298191Y-96266000D01*
X178325809Y-96266000D01*
X178393930Y-96286002D01*
X178440423Y-96339658D01*
X178450527Y-96409932D01*
X178433242Y-96457834D01*
X178392488Y-96524338D01*
X178294121Y-96761816D01*
X178234117Y-97011753D01*
X178213950Y-97268000D01*
X178234117Y-97524246D01*
X178294121Y-97774183D01*
X178392486Y-98011657D01*
X178526791Y-98230824D01*
X178528253Y-98232536D01*
X179173099Y-97587689D01*
X179198059Y-97645553D01*
X179302756Y-97786185D01*
X179437062Y-97898882D01*
X179532430Y-97946777D01*
X178887462Y-98591745D01*
X178887462Y-98591746D01*
X178889174Y-98593207D01*
X179108342Y-98727513D01*
X179345816Y-98825878D01*
X179595753Y-98885882D01*
X179852000Y-98906049D01*
X180108246Y-98885882D01*
X180358183Y-98825878D01*
X180595657Y-98727513D01*
X180814825Y-98593207D01*
X180816535Y-98591746D01*
X180816536Y-98591744D01*
X180173799Y-97949007D01*
X180190891Y-97942787D01*
X180337373Y-97846445D01*
X180457688Y-97718918D01*
X180532517Y-97589308D01*
X181175745Y-98232536D01*
X181175746Y-98232535D01*
X181177207Y-98230825D01*
X181311513Y-98011657D01*
X181387591Y-97827989D01*
X181432139Y-97772708D01*
X181499503Y-97750287D01*
X181568294Y-97767845D01*
X181616672Y-97819807D01*
X181630000Y-97876207D01*
X181630000Y-101739792D01*
X181609998Y-101807913D01*
X181556342Y-101854406D01*
X181486068Y-101864510D01*
X181421488Y-101835016D01*
X181387591Y-101788010D01*
X181311513Y-101604342D01*
X181177207Y-101385174D01*
X181175745Y-101383462D01*
X180530899Y-102028307D01*
X180505941Y-101970447D01*
X180401244Y-101829815D01*
X180266938Y-101717118D01*
X180171568Y-101669221D01*
X180816536Y-101024253D01*
X180814824Y-101022791D01*
X180595657Y-100888486D01*
X180358183Y-100790121D01*
X180108246Y-100730117D01*
X179852000Y-100709950D01*
X179595753Y-100730117D01*
X179345816Y-100790121D01*
X179108342Y-100888486D01*
X178889177Y-101022790D01*
X178889174Y-101022793D01*
X178887462Y-101024253D01*
X179530201Y-101666992D01*
X179513109Y-101673213D01*
X179366627Y-101769555D01*
X179246312Y-101897082D01*
X179171482Y-102026691D01*
X178528253Y-101383462D01*
X178526793Y-101385174D01*
X178526790Y-101385177D01*
X178392486Y-101604342D01*
X178294121Y-101841816D01*
X178234117Y-102091753D01*
X178213950Y-102347999D01*
X178234117Y-102604246D01*
X178294121Y-102854183D01*
X178392486Y-103091657D01*
X178526791Y-103310824D01*
X178528253Y-103312536D01*
X179173099Y-102667690D01*
X179198059Y-102725553D01*
X179302756Y-102866185D01*
X179437062Y-102978882D01*
X179532430Y-103026777D01*
X178887462Y-103671745D01*
X178887462Y-103671746D01*
X178889174Y-103673207D01*
X179108342Y-103807513D01*
X179345816Y-103905878D01*
X179595753Y-103965882D01*
X179852000Y-103986049D01*
X180108246Y-103965882D01*
X180358183Y-103905878D01*
X180595657Y-103807513D01*
X180814825Y-103673207D01*
X180816535Y-103671746D01*
X180816536Y-103671745D01*
X180173798Y-103029007D01*
X180190891Y-103022787D01*
X180337373Y-102926445D01*
X180457688Y-102798918D01*
X180532517Y-102669308D01*
X181175745Y-103312536D01*
X181175746Y-103312535D01*
X181177207Y-103310825D01*
X181311513Y-103091657D01*
X181387591Y-102907989D01*
X181432139Y-102852708D01*
X181499503Y-102830287D01*
X181568294Y-102847845D01*
X181616672Y-102899807D01*
X181630000Y-102956207D01*
X181630000Y-125073112D01*
X181609998Y-125141233D01*
X181556342Y-125187726D01*
X181486068Y-125197830D01*
X181459968Y-125191168D01*
X181408593Y-125172006D01*
X181348096Y-125165501D01*
X180753499Y-125165501D01*
X180753499Y-126161815D01*
X180737544Y-126145860D01*
X180624647Y-126088336D01*
X180530980Y-126073501D01*
X180468018Y-126073501D01*
X180374351Y-126088336D01*
X180261454Y-126145860D01*
X180245499Y-126161815D01*
X180245499Y-125165501D01*
X179650901Y-125165501D01*
X179590405Y-125172006D01*
X179453534Y-125223056D01*
X179453533Y-125223056D01*
X179336594Y-125310596D01*
X179249054Y-125427535D01*
X179249054Y-125427536D01*
X179198003Y-125564409D01*
X179196936Y-125574333D01*
X179169763Y-125639923D01*
X179111442Y-125680411D01*
X179040491Y-125682940D01*
X178979435Y-125646709D01*
X178968445Y-125633125D01*
X178965701Y-125629206D01*
X178965694Y-125629198D01*
X178803801Y-125467305D01*
X178803795Y-125467300D01*
X178616248Y-125335978D01*
X178408745Y-125239218D01*
X178408739Y-125239216D01*
X178315270Y-125214171D01*
X178187586Y-125179958D01*
X177959499Y-125160003D01*
X177731412Y-125179958D01*
X177510258Y-125239216D01*
X177510252Y-125239218D01*
X177302749Y-125335978D01*
X177115202Y-125467300D01*
X177115196Y-125467305D01*
X176953303Y-125629198D01*
X176953298Y-125629204D01*
X176821976Y-125816751D01*
X176803694Y-125855958D01*
X176756777Y-125909243D01*
X176688500Y-125928704D01*
X176620540Y-125908162D01*
X176575304Y-125855958D01*
X176568531Y-125841434D01*
X176557022Y-125816752D01*
X176425697Y-125629201D01*
X176263799Y-125467303D01*
X176076248Y-125335978D01*
X175977482Y-125289923D01*
X175868745Y-125239218D01*
X175868739Y-125239216D01*
X175775270Y-125214171D01*
X175647586Y-125179958D01*
X175419499Y-125160003D01*
X175191412Y-125179958D01*
X174970258Y-125239216D01*
X174970252Y-125239218D01*
X174762749Y-125335978D01*
X174578879Y-125464726D01*
X174511605Y-125487414D01*
X174442744Y-125470129D01*
X174417513Y-125450608D01*
X171851244Y-122884339D01*
X171841279Y-122871901D01*
X171841052Y-122872090D01*
X171836001Y-122865984D01*
X171836000Y-122865982D01*
X171785626Y-122818678D01*
X171784237Y-122817332D01*
X171773990Y-122807085D01*
X171763776Y-122796870D01*
X171763772Y-122796866D01*
X171758225Y-122792563D01*
X171753717Y-122788712D01*
X171719325Y-122756417D01*
X171719319Y-122756413D01*
X171701563Y-122746651D01*
X171685047Y-122735802D01*
X171669041Y-122723386D01*
X171638289Y-122710078D01*
X171625740Y-122704648D01*
X171620408Y-122702036D01*
X171579061Y-122679305D01*
X171559436Y-122674266D01*
X171540736Y-122667864D01*
X171522145Y-122659819D01*
X171522143Y-122659818D01*
X171522142Y-122659818D01*
X171475542Y-122652437D01*
X171469729Y-122651233D01*
X171424030Y-122639500D01*
X171403776Y-122639500D01*
X171384066Y-122637949D01*
X171364057Y-122634780D01*
X171364056Y-122634780D01*
X171317083Y-122639220D01*
X171311150Y-122639500D01*
X167857506Y-122639500D01*
X167789385Y-122619498D01*
X167742892Y-122565842D01*
X167732788Y-122495568D01*
X167762282Y-122430988D01*
X167781996Y-122412632D01*
X167795282Y-122402686D01*
X167837261Y-122371261D01*
X167924889Y-122254204D01*
X167967604Y-122139683D01*
X173924429Y-122139683D01*
X173944652Y-122448233D01*
X173944654Y-122448248D01*
X173985031Y-122651233D01*
X174004011Y-122746651D01*
X174004979Y-122751514D01*
X174004981Y-122751524D01*
X174104371Y-123044317D01*
X174104377Y-123044331D01*
X174241135Y-123321653D01*
X174412934Y-123578765D01*
X174616813Y-123811246D01*
X174849294Y-124015125D01*
X175106406Y-124186924D01*
X175286417Y-124275694D01*
X175383735Y-124323686D01*
X175676544Y-124423081D01*
X175938693Y-124475226D01*
X175979811Y-124483405D01*
X175979813Y-124483405D01*
X175979822Y-124483407D01*
X176156140Y-124494963D01*
X176288377Y-124503631D01*
X176288380Y-124503631D01*
X176288383Y-124503631D01*
X176404089Y-124496047D01*
X176596938Y-124483407D01*
X176900216Y-124423081D01*
X177193025Y-124323686D01*
X177419673Y-124211916D01*
X177470353Y-124186924D01*
X177470356Y-124186922D01*
X177727462Y-124015128D01*
X177959946Y-123811246D01*
X178163828Y-123578762D01*
X178335622Y-123321656D01*
X178335622Y-123321655D01*
X178335624Y-123321653D01*
X178389369Y-123212668D01*
X178472386Y-123044325D01*
X178571781Y-122751516D01*
X178632107Y-122448238D01*
X178652331Y-122139680D01*
X178650857Y-122117196D01*
X178639474Y-121943519D01*
X178632107Y-121831122D01*
X178571781Y-121527844D01*
X178472386Y-121235035D01*
X178335622Y-120957705D01*
X178163828Y-120700598D01*
X178163827Y-120700596D01*
X177959946Y-120468113D01*
X177727465Y-120264234D01*
X177470353Y-120092435D01*
X177193031Y-119955677D01*
X177193025Y-119955674D01*
X177193020Y-119955672D01*
X177193017Y-119955671D01*
X176900224Y-119856281D01*
X176900218Y-119856279D01*
X176900216Y-119856279D01*
X176813227Y-119838975D01*
X176596948Y-119795954D01*
X176596933Y-119795952D01*
X176288383Y-119775729D01*
X176288377Y-119775729D01*
X175979826Y-119795952D01*
X175979811Y-119795954D01*
X175720038Y-119847627D01*
X175676544Y-119856279D01*
X175676542Y-119856279D01*
X175676535Y-119856281D01*
X175383742Y-119955671D01*
X175383728Y-119955677D01*
X175106407Y-120092436D01*
X174849302Y-120264228D01*
X174849296Y-120264232D01*
X174616813Y-120468113D01*
X174412932Y-120700596D01*
X174412928Y-120700602D01*
X174241136Y-120957707D01*
X174104377Y-121235028D01*
X174104371Y-121235042D01*
X174004981Y-121527835D01*
X174004979Y-121527845D01*
X173944654Y-121831111D01*
X173944652Y-121831126D01*
X173924429Y-122139676D01*
X173924429Y-122139683D01*
X167967604Y-122139683D01*
X167975989Y-122117201D01*
X167977800Y-122100362D01*
X167982499Y-122056649D01*
X167982500Y-122056632D01*
X167982500Y-120259367D01*
X167982499Y-120259350D01*
X167975990Y-120198803D01*
X167975988Y-120198795D01*
X167924889Y-120061797D01*
X167924887Y-120061792D01*
X167837261Y-119944738D01*
X167720207Y-119857112D01*
X167720202Y-119857110D01*
X167583204Y-119806011D01*
X167583196Y-119806009D01*
X167522649Y-119799500D01*
X167522638Y-119799500D01*
X165725362Y-119799500D01*
X165725350Y-119799500D01*
X165664803Y-119806009D01*
X165664795Y-119806011D01*
X165527797Y-119857110D01*
X165527792Y-119857112D01*
X165410738Y-119944738D01*
X165323112Y-120061792D01*
X165323111Y-120061795D01*
X165279000Y-120180058D01*
X165236453Y-120236893D01*
X165169932Y-120261703D01*
X165100558Y-120246611D01*
X165068246Y-120221363D01*
X165007240Y-120155094D01*
X165007239Y-120155093D01*
X165007237Y-120155091D01*
X164887372Y-120061796D01*
X164829576Y-120016811D01*
X164631574Y-119909658D01*
X164631572Y-119909657D01*
X164631571Y-119909656D01*
X164418639Y-119836557D01*
X164418630Y-119836555D01*
X164352679Y-119825550D01*
X164196569Y-119799500D01*
X163971431Y-119799500D01*
X163823210Y-119824233D01*
X163749369Y-119836555D01*
X163749360Y-119836557D01*
X163536428Y-119909656D01*
X163536426Y-119909658D01*
X163338426Y-120016810D01*
X163338424Y-120016811D01*
X163160762Y-120155091D01*
X163008279Y-120320729D01*
X163008275Y-120320734D01*
X162885141Y-120509206D01*
X162794703Y-120715386D01*
X162794702Y-120715387D01*
X162739437Y-120933624D01*
X162739436Y-120933630D01*
X162739436Y-120933632D01*
X162720844Y-121158000D01*
X162736827Y-121350886D01*
X162739437Y-121382375D01*
X162794702Y-121600612D01*
X162794703Y-121600613D01*
X162794704Y-121600616D01*
X162885140Y-121806791D01*
X162885141Y-121806793D01*
X163008275Y-121995265D01*
X163008279Y-121995270D01*
X163160762Y-122160908D01*
X163249592Y-122230047D01*
X163338424Y-122299189D01*
X163529671Y-122402686D01*
X163580062Y-122452699D01*
X163595414Y-122522016D01*
X163570853Y-122588629D01*
X163514178Y-122631389D01*
X163469702Y-122639500D01*
X157115595Y-122639500D01*
X157047474Y-122619498D01*
X157026499Y-122602595D01*
X156785404Y-122361499D01*
X156751379Y-122299187D01*
X156748500Y-122272404D01*
X156748500Y-119848500D01*
X156768502Y-119780379D01*
X156822158Y-119733886D01*
X156874500Y-119722500D01*
X158368632Y-119722500D01*
X158368638Y-119722500D01*
X158368645Y-119722499D01*
X158368649Y-119722499D01*
X158429196Y-119715990D01*
X158429199Y-119715989D01*
X158429201Y-119715989D01*
X158566204Y-119664889D01*
X158636399Y-119612342D01*
X158683261Y-119577261D01*
X158770887Y-119460207D01*
X158770887Y-119460206D01*
X158770889Y-119460204D01*
X158821989Y-119323201D01*
X158828500Y-119262638D01*
X158828500Y-118731000D01*
X169533021Y-118731000D01*
X169552222Y-118950473D01*
X169582883Y-119064899D01*
X169609242Y-119163272D01*
X169626960Y-119201268D01*
X169702348Y-119362938D01*
X169702349Y-119362940D01*
X169828706Y-119543397D01*
X169828710Y-119543402D01*
X169828713Y-119543406D01*
X169984494Y-119699187D01*
X169984498Y-119699190D01*
X169984502Y-119699193D01*
X170008491Y-119715990D01*
X170164960Y-119825551D01*
X170364628Y-119918658D01*
X170577430Y-119975678D01*
X170796900Y-119994879D01*
X171016370Y-119975678D01*
X171229172Y-119918658D01*
X171428840Y-119825551D01*
X171609306Y-119699187D01*
X171765087Y-119543406D01*
X171891451Y-119362940D01*
X171928575Y-119283326D01*
X171975492Y-119230042D01*
X172043769Y-119210581D01*
X172111729Y-119231123D01*
X172156965Y-119283327D01*
X172194088Y-119362938D01*
X172194089Y-119362940D01*
X172320446Y-119543397D01*
X172320450Y-119543402D01*
X172320453Y-119543406D01*
X172476234Y-119699187D01*
X172476238Y-119699190D01*
X172476242Y-119699193D01*
X172500231Y-119715990D01*
X172656700Y-119825551D01*
X172856368Y-119918658D01*
X173069170Y-119975678D01*
X173288640Y-119994879D01*
X173508110Y-119975678D01*
X173720912Y-119918658D01*
X173920580Y-119825551D01*
X174101046Y-119699187D01*
X174256827Y-119543406D01*
X174383191Y-119362940D01*
X174476298Y-119163272D01*
X174533318Y-118950470D01*
X174552519Y-118731000D01*
X174533318Y-118511530D01*
X174476298Y-118298728D01*
X174383191Y-118099061D01*
X174256827Y-117918594D01*
X174101046Y-117762813D01*
X174101042Y-117762810D01*
X174101037Y-117762806D01*
X173920580Y-117636449D01*
X173920572Y-117636445D01*
X173873405Y-117614450D01*
X173837560Y-117589351D01*
X173371585Y-117123376D01*
X173422653Y-117115679D01*
X173544758Y-117056876D01*
X173644106Y-116964695D01*
X173711869Y-116847325D01*
X173730840Y-116764209D01*
X174340247Y-117373617D01*
X174382759Y-117312904D01*
X174475825Y-117113323D01*
X174475827Y-117113319D01*
X174532823Y-116900606D01*
X174552017Y-116681219D01*
X174532823Y-116461833D01*
X174475827Y-116249120D01*
X174475825Y-116249116D01*
X174382756Y-116049530D01*
X174340247Y-115988820D01*
X173733092Y-116595975D01*
X173731899Y-116580049D01*
X173682385Y-116453891D01*
X173597886Y-116347932D01*
X173485909Y-116271587D01*
X173373680Y-116236969D01*
X173981037Y-115629611D01*
X173920328Y-115587102D01*
X173723265Y-115495210D01*
X173669980Y-115448292D01*
X173650727Y-115380743D01*
X174734689Y-115380743D01*
X174754912Y-115689293D01*
X174754914Y-115689308D01*
X174815239Y-115992574D01*
X174815241Y-115992584D01*
X174914631Y-116285377D01*
X174914637Y-116285391D01*
X175051395Y-116562713D01*
X175223194Y-116819825D01*
X175427073Y-117052306D01*
X175659554Y-117256185D01*
X175659556Y-117256186D01*
X175659558Y-117256188D01*
X175676932Y-117267797D01*
X175916666Y-117427984D01*
X176096677Y-117516754D01*
X176193995Y-117564746D01*
X176486804Y-117664141D01*
X176713275Y-117709189D01*
X176790071Y-117724465D01*
X176790073Y-117724465D01*
X176790082Y-117724467D01*
X176966400Y-117736023D01*
X177098637Y-117744691D01*
X177098640Y-117744691D01*
X177098643Y-117744691D01*
X177214349Y-117737107D01*
X177407198Y-117724467D01*
X177710476Y-117664141D01*
X178003285Y-117564746D01*
X178201250Y-117467121D01*
X178280613Y-117427984D01*
X178309728Y-117408530D01*
X178537722Y-117256188D01*
X178770206Y-117052306D01*
X178974088Y-116819822D01*
X179145882Y-116562716D01*
X179145882Y-116562715D01*
X179145884Y-116562713D01*
X179227236Y-116397745D01*
X179282646Y-116285385D01*
X179382041Y-115992576D01*
X179442367Y-115689298D01*
X179455088Y-115495209D01*
X179462591Y-115380743D01*
X179462591Y-115380736D01*
X179442367Y-115072186D01*
X179442367Y-115072182D01*
X179437639Y-115048415D01*
X179417556Y-114947451D01*
X179382041Y-114768904D01*
X179282646Y-114476095D01*
X179145882Y-114198765D01*
X178974088Y-113941658D01*
X178974087Y-113941656D01*
X178770206Y-113709173D01*
X178537725Y-113505294D01*
X178280613Y-113333495D01*
X178003291Y-113196737D01*
X178003285Y-113196734D01*
X178003280Y-113196732D01*
X178003277Y-113196731D01*
X177710484Y-113097341D01*
X177710478Y-113097339D01*
X177710476Y-113097339D01*
X177623487Y-113080035D01*
X177407208Y-113037014D01*
X177407193Y-113037012D01*
X177098643Y-113016789D01*
X177098637Y-113016789D01*
X176790086Y-113037012D01*
X176790071Y-113037014D01*
X176530298Y-113088687D01*
X176486804Y-113097339D01*
X176486802Y-113097339D01*
X176486795Y-113097341D01*
X176194002Y-113196731D01*
X176193988Y-113196737D01*
X175916667Y-113333496D01*
X175659562Y-113505288D01*
X175659556Y-113505292D01*
X175427073Y-113709173D01*
X175223192Y-113941656D01*
X175223188Y-113941662D01*
X175051396Y-114198767D01*
X174914637Y-114476088D01*
X174914631Y-114476102D01*
X174815241Y-114768895D01*
X174815239Y-114768902D01*
X174815239Y-114768904D01*
X174807462Y-114808000D01*
X174754914Y-115072171D01*
X174754912Y-115072186D01*
X174734689Y-115380736D01*
X174734689Y-115380743D01*
X173650727Y-115380743D01*
X173650519Y-115380015D01*
X173671061Y-115312055D01*
X173723263Y-115266821D01*
X173920580Y-115174811D01*
X174101046Y-115048447D01*
X174256827Y-114892666D01*
X174383191Y-114712200D01*
X174476298Y-114512532D01*
X174533318Y-114299730D01*
X174552519Y-114080260D01*
X174533318Y-113860790D01*
X174476298Y-113647988D01*
X174383191Y-113448321D01*
X174256827Y-113267854D01*
X174133436Y-113144463D01*
X174099412Y-113082152D01*
X174104478Y-113011336D01*
X174133434Y-112966278D01*
X174256827Y-112842886D01*
X174383191Y-112662420D01*
X174476298Y-112462752D01*
X174533318Y-112249950D01*
X174552519Y-112030480D01*
X174533318Y-111811010D01*
X174476298Y-111598208D01*
X174383191Y-111398541D01*
X174256827Y-111218074D01*
X174101046Y-111062293D01*
X174101042Y-111062290D01*
X174101037Y-111062286D01*
X173920580Y-110935929D01*
X173920578Y-110935928D01*
X173720914Y-110842823D01*
X173720909Y-110842821D01*
X173508113Y-110785802D01*
X173288640Y-110766601D01*
X173069166Y-110785802D01*
X172856370Y-110842821D01*
X172856365Y-110842823D01*
X172656700Y-110935929D01*
X172476237Y-111062290D01*
X172476231Y-111062295D01*
X172320455Y-111218071D01*
X172320450Y-111218077D01*
X172194087Y-111398542D01*
X172156963Y-111478154D01*
X172110045Y-111531439D01*
X172041768Y-111550899D01*
X171973808Y-111530356D01*
X171928575Y-111478153D01*
X171891451Y-111398541D01*
X171765087Y-111218074D01*
X171609306Y-111062293D01*
X171609302Y-111062290D01*
X171609297Y-111062286D01*
X171428840Y-110935929D01*
X171428838Y-110935928D01*
X171229174Y-110842823D01*
X171229169Y-110842821D01*
X171016373Y-110785802D01*
X170851767Y-110771401D01*
X170796900Y-110766601D01*
X170796899Y-110766601D01*
X170577426Y-110785802D01*
X170364630Y-110842821D01*
X170364625Y-110842823D01*
X170164960Y-110935929D01*
X169984497Y-111062290D01*
X169984491Y-111062295D01*
X169828715Y-111218071D01*
X169828710Y-111218077D01*
X169702349Y-111398540D01*
X169609243Y-111598205D01*
X169609241Y-111598210D01*
X169552222Y-111811006D01*
X169533021Y-112030480D01*
X169552222Y-112249953D01*
X169609241Y-112462749D01*
X169609243Y-112462754D01*
X169702348Y-112662418D01*
X169702349Y-112662420D01*
X169828706Y-112842877D01*
X169828709Y-112842881D01*
X169828713Y-112842886D01*
X169984494Y-112998667D01*
X169984498Y-112998670D01*
X169984502Y-112998673D01*
X170039259Y-113037014D01*
X170164960Y-113125031D01*
X170364628Y-113218138D01*
X170577430Y-113275158D01*
X170796900Y-113294359D01*
X171016370Y-113275158D01*
X171229172Y-113218138D01*
X171428840Y-113125031D01*
X171609306Y-112998667D01*
X171765087Y-112842886D01*
X171891451Y-112662420D01*
X171928575Y-112582806D01*
X171975492Y-112529522D01*
X172043769Y-112510061D01*
X172111729Y-112530603D01*
X172156965Y-112582807D01*
X172194088Y-112662418D01*
X172194089Y-112662420D01*
X172320446Y-112842877D01*
X172320455Y-112842888D01*
X172443842Y-112966275D01*
X172477868Y-113028587D01*
X172472803Y-113099402D01*
X172443842Y-113144465D01*
X172320455Y-113267851D01*
X172320450Y-113267857D01*
X172194089Y-113448320D01*
X172100983Y-113647985D01*
X172100981Y-113647990D01*
X172043962Y-113860786D01*
X172024761Y-114080259D01*
X172043962Y-114299733D01*
X172100981Y-114512529D01*
X172100983Y-114512534D01*
X172194088Y-114712198D01*
X172194089Y-114712200D01*
X172320446Y-114892657D01*
X172320450Y-114892662D01*
X172320453Y-114892666D01*
X172476234Y-115048447D01*
X172476238Y-115048450D01*
X172476242Y-115048453D01*
X172517997Y-115077690D01*
X172656700Y-115174811D01*
X172854014Y-115266820D01*
X172907299Y-115313737D01*
X172926760Y-115382015D01*
X172906218Y-115449974D01*
X172854015Y-115495209D01*
X172656952Y-115587102D01*
X172596240Y-115629611D01*
X173205693Y-116239064D01*
X173154627Y-116246761D01*
X173032522Y-116305564D01*
X172933174Y-116397745D01*
X172865411Y-116515115D01*
X172846440Y-116598229D01*
X172237031Y-115988820D01*
X172194523Y-116049530D01*
X172101454Y-116249116D01*
X172101452Y-116249120D01*
X172044456Y-116461833D01*
X172025262Y-116681220D01*
X172044456Y-116900606D01*
X172101452Y-117113319D01*
X172101454Y-117113323D01*
X172194522Y-117312908D01*
X172237031Y-117373617D01*
X172844187Y-116766461D01*
X172845381Y-116782391D01*
X172894895Y-116908549D01*
X172979394Y-117014508D01*
X173091371Y-117090853D01*
X173203599Y-117125470D01*
X172739714Y-117589354D01*
X172703872Y-117614451D01*
X172656702Y-117636448D01*
X172656696Y-117636451D01*
X172476242Y-117762806D01*
X172476231Y-117762815D01*
X172320455Y-117918591D01*
X172320450Y-117918597D01*
X172194087Y-118099062D01*
X172156963Y-118178674D01*
X172110045Y-118231959D01*
X172041768Y-118251419D01*
X171973808Y-118230876D01*
X171928575Y-118178673D01*
X171891451Y-118099061D01*
X171765087Y-117918594D01*
X171609306Y-117762813D01*
X171609302Y-117762810D01*
X171609297Y-117762806D01*
X171428840Y-117636449D01*
X171428838Y-117636448D01*
X171229174Y-117543343D01*
X171229169Y-117543341D01*
X171016373Y-117486322D01*
X170851767Y-117471921D01*
X170796900Y-117467121D01*
X170796899Y-117467121D01*
X170577426Y-117486322D01*
X170364630Y-117543341D01*
X170364625Y-117543343D01*
X170164960Y-117636449D01*
X169984497Y-117762810D01*
X169984491Y-117762815D01*
X169828715Y-117918591D01*
X169828710Y-117918597D01*
X169702349Y-118099060D01*
X169609243Y-118298725D01*
X169609241Y-118298730D01*
X169552222Y-118511526D01*
X169533021Y-118731000D01*
X158828500Y-118731000D01*
X158828500Y-117465362D01*
X158828499Y-117465350D01*
X158821990Y-117404803D01*
X158821988Y-117404795D01*
X158787715Y-117312908D01*
X158770889Y-117267796D01*
X158770888Y-117267794D01*
X158770887Y-117267792D01*
X158683261Y-117150738D01*
X158566207Y-117063112D01*
X158566202Y-117063110D01*
X158429204Y-117012011D01*
X158429196Y-117012009D01*
X158368649Y-117005500D01*
X158368638Y-117005500D01*
X156870139Y-117005500D01*
X156802018Y-116985498D01*
X156755525Y-116931842D01*
X156747950Y-116906710D01*
X156747887Y-116906729D01*
X156746027Y-116900329D01*
X156745691Y-116899213D01*
X156745676Y-116899121D01*
X156745674Y-116899114D01*
X156745674Y-116899111D01*
X156740017Y-116879642D01*
X156736012Y-116860298D01*
X156733474Y-116840203D01*
X156716100Y-116796322D01*
X156714181Y-116790716D01*
X156713137Y-116787124D01*
X156701018Y-116745407D01*
X156690706Y-116727970D01*
X156682010Y-116710221D01*
X156674552Y-116691383D01*
X156646812Y-116653203D01*
X156643564Y-116648258D01*
X156619542Y-116607638D01*
X156605214Y-116593310D01*
X156592384Y-116578289D01*
X156580472Y-116561893D01*
X156580469Y-116561891D01*
X156580469Y-116561890D01*
X156544113Y-116531813D01*
X156539721Y-116527817D01*
X155864404Y-115852499D01*
X155830379Y-115790187D01*
X155827500Y-115763404D01*
X155827500Y-114713159D01*
X155829249Y-114697317D01*
X155828956Y-114697290D01*
X155829702Y-114689397D01*
X155827531Y-114620316D01*
X155827500Y-114618337D01*
X155827500Y-114589455D01*
X155827500Y-114589449D01*
X155826620Y-114582487D01*
X155826156Y-114576598D01*
X155824674Y-114529416D01*
X155819020Y-114509957D01*
X155815012Y-114490602D01*
X155812474Y-114470508D01*
X155795103Y-114426634D01*
X155793189Y-114421045D01*
X155780019Y-114375712D01*
X155769703Y-114358269D01*
X155761005Y-114340514D01*
X155753552Y-114321688D01*
X155725818Y-114283515D01*
X155722558Y-114278552D01*
X155698542Y-114237943D01*
X155684214Y-114223615D01*
X155671384Y-114208594D01*
X155659472Y-114192198D01*
X155659469Y-114192196D01*
X155659469Y-114192195D01*
X155623107Y-114162113D01*
X155618726Y-114158127D01*
X155296641Y-113836042D01*
X155262615Y-113773730D01*
X155260426Y-113733776D01*
X155261040Y-113727934D01*
X155261042Y-113727928D01*
X155281004Y-113538000D01*
X155261042Y-113348072D01*
X155202027Y-113166444D01*
X155106540Y-113001056D01*
X155106538Y-113001054D01*
X155106534Y-113001048D01*
X154978755Y-112859135D01*
X154824252Y-112746882D01*
X154649788Y-112669206D01*
X154462987Y-112629500D01*
X154272013Y-112629500D01*
X154085211Y-112669206D01*
X153910747Y-112746882D01*
X153756244Y-112859135D01*
X153628465Y-113001048D01*
X153628458Y-113001058D01*
X153532976Y-113166438D01*
X153532973Y-113166445D01*
X153473957Y-113348072D01*
X153453996Y-113538000D01*
X153473957Y-113727927D01*
X153488840Y-113773730D01*
X153532973Y-113909556D01*
X153532976Y-113909561D01*
X153628458Y-114074941D01*
X153628465Y-114074951D01*
X153756244Y-114216864D01*
X153756243Y-114216864D01*
X153900524Y-114321690D01*
X153910748Y-114329118D01*
X154046525Y-114389569D01*
X154084372Y-114415581D01*
X154523595Y-114854804D01*
X154557621Y-114917116D01*
X154560500Y-114943899D01*
X154560500Y-115994146D01*
X154558751Y-116009988D01*
X154559044Y-116010016D01*
X154558298Y-116017908D01*
X154560469Y-116086974D01*
X154560500Y-116088953D01*
X154560500Y-116117851D01*
X154560501Y-116117872D01*
X154561378Y-116124820D01*
X154561844Y-116130732D01*
X154563326Y-116177888D01*
X154563327Y-116177893D01*
X154568977Y-116197339D01*
X154572986Y-116216697D01*
X154575525Y-116236793D01*
X154575526Y-116236799D01*
X154592893Y-116280662D01*
X154594816Y-116286279D01*
X154607982Y-116331593D01*
X154618294Y-116349031D01*
X154626988Y-116366779D01*
X154634444Y-116385609D01*
X154634450Y-116385620D01*
X154662177Y-116423783D01*
X154665437Y-116428746D01*
X154689460Y-116469365D01*
X154703779Y-116483684D01*
X154716617Y-116498714D01*
X154726156Y-116511843D01*
X154728528Y-116515107D01*
X154756794Y-116538491D01*
X154764886Y-116545185D01*
X154769267Y-116549171D01*
X154901314Y-116681218D01*
X155010501Y-116790405D01*
X155044527Y-116852717D01*
X155039462Y-116923532D01*
X154996915Y-116980368D01*
X154930395Y-117005179D01*
X154921406Y-117005500D01*
X154817431Y-117005500D01*
X154672971Y-117029606D01*
X154595369Y-117042555D01*
X154595360Y-117042557D01*
X154382428Y-117115656D01*
X154382426Y-117115658D01*
X154301624Y-117159386D01*
X154184426Y-117222810D01*
X154184424Y-117222811D01*
X154006762Y-117361091D01*
X153854279Y-117526729D01*
X153765183Y-117663101D01*
X153711179Y-117709189D01*
X153640831Y-117718764D01*
X153576474Y-117688786D01*
X153554217Y-117663100D01*
X153465327Y-117527044D01*
X153312902Y-117361465D01*
X153135301Y-117223232D01*
X153135300Y-117223231D01*
X152937371Y-117116117D01*
X152937369Y-117116116D01*
X152724512Y-117043043D01*
X152724501Y-117043040D01*
X152644000Y-117029606D01*
X152644000Y-117930325D01*
X152532315Y-117879320D01*
X152425763Y-117864000D01*
X152354237Y-117864000D01*
X152247685Y-117879320D01*
X152136000Y-117930325D01*
X152136000Y-117029607D01*
X152135999Y-117029606D01*
X152055498Y-117043040D01*
X152055487Y-117043043D01*
X151842630Y-117116116D01*
X151842628Y-117116117D01*
X151644699Y-117223231D01*
X151644698Y-117223232D01*
X151467097Y-117361465D01*
X151314670Y-117527045D01*
X151225780Y-117663101D01*
X151171776Y-117709189D01*
X151101428Y-117718764D01*
X151037071Y-117688786D01*
X151014816Y-117663101D01*
X150950555Y-117564742D01*
X150925724Y-117526734D01*
X150925720Y-117526729D01*
X150784768Y-117373617D01*
X150773240Y-117361094D01*
X150773239Y-117361093D01*
X150773237Y-117361091D01*
X150638454Y-117256185D01*
X150595576Y-117222811D01*
X150397574Y-117115658D01*
X150397572Y-117115657D01*
X150397571Y-117115656D01*
X150184639Y-117042557D01*
X150184630Y-117042555D01*
X150107029Y-117029606D01*
X149962569Y-117005500D01*
X149737431Y-117005500D01*
X149592971Y-117029606D01*
X149515369Y-117042555D01*
X149515360Y-117042557D01*
X149302428Y-117115656D01*
X149302426Y-117115658D01*
X149221624Y-117159386D01*
X149104426Y-117222810D01*
X149104424Y-117222811D01*
X148926762Y-117361091D01*
X148774279Y-117526729D01*
X148774275Y-117526734D01*
X148651141Y-117715206D01*
X148560703Y-117921386D01*
X148560702Y-117921387D01*
X148505437Y-118139624D01*
X148505436Y-118139630D01*
X148505436Y-118139632D01*
X148486844Y-118364000D01*
X148504232Y-118573844D01*
X148505437Y-118588375D01*
X148560702Y-118806612D01*
X148560703Y-118806613D01*
X148560704Y-118806616D01*
X148641495Y-118990803D01*
X148651141Y-119012793D01*
X148774275Y-119201265D01*
X148774279Y-119201270D01*
X148926762Y-119366908D01*
X148981331Y-119409381D01*
X149104424Y-119505189D01*
X149302426Y-119612342D01*
X149302427Y-119612342D01*
X149302428Y-119612343D01*
X149363425Y-119633283D01*
X149515365Y-119685444D01*
X149737431Y-119722500D01*
X149737435Y-119722500D01*
X149962565Y-119722500D01*
X149962569Y-119722500D01*
X150184635Y-119685444D01*
X150397574Y-119612342D01*
X150595576Y-119505189D01*
X150773240Y-119366906D01*
X150925722Y-119201268D01*
X150925927Y-119200955D01*
X151014816Y-119064899D01*
X151068819Y-119018810D01*
X151139167Y-119009235D01*
X151203524Y-119039212D01*
X151225782Y-119064898D01*
X151314674Y-119200958D01*
X151467097Y-119366534D01*
X151644698Y-119504767D01*
X151644699Y-119504768D01*
X151842628Y-119611882D01*
X151842630Y-119611883D01*
X152055483Y-119684955D01*
X152055492Y-119684957D01*
X152136000Y-119698391D01*
X152136000Y-118797674D01*
X152247685Y-118848680D01*
X152354237Y-118864000D01*
X152425763Y-118864000D01*
X152532315Y-118848680D01*
X152644000Y-118797674D01*
X152644000Y-119698391D01*
X152724507Y-119684957D01*
X152724516Y-119684955D01*
X152937369Y-119611883D01*
X152937371Y-119611882D01*
X153135300Y-119504768D01*
X153135301Y-119504767D01*
X153312902Y-119366534D01*
X153465327Y-119200955D01*
X153554217Y-119064899D01*
X153608220Y-119018810D01*
X153678568Y-119009235D01*
X153742925Y-119039212D01*
X153765183Y-119064898D01*
X153854279Y-119201270D01*
X154006762Y-119366908D01*
X154061331Y-119409381D01*
X154184424Y-119505189D01*
X154382426Y-119612342D01*
X154382427Y-119612342D01*
X154382428Y-119612343D01*
X154443425Y-119633283D01*
X154595365Y-119685444D01*
X154817431Y-119722500D01*
X154817435Y-119722500D01*
X155042565Y-119722500D01*
X155042569Y-119722500D01*
X155264635Y-119685444D01*
X155314588Y-119668294D01*
X155385510Y-119665093D01*
X155446907Y-119700744D01*
X155479282Y-119763929D01*
X155481500Y-119787467D01*
X155481500Y-122503146D01*
X155479751Y-122518988D01*
X155480044Y-122519016D01*
X155479297Y-122526909D01*
X155480393Y-122561759D01*
X155462540Y-122630474D01*
X155410371Y-122678629D01*
X155340449Y-122690935D01*
X155274974Y-122663485D01*
X155265360Y-122654811D01*
X155230047Y-122619498D01*
X155179368Y-122568819D01*
X155173941Y-122562631D01*
X155151965Y-122533991D01*
X155120052Y-122509503D01*
X155120052Y-122509502D01*
X155024860Y-122436458D01*
X155024852Y-122436453D01*
X154876829Y-122375140D01*
X154857436Y-122372585D01*
X154857436Y-122372586D01*
X154754919Y-122359089D01*
X154754876Y-122359085D01*
X154717981Y-122354228D01*
X154717977Y-122354228D01*
X154682197Y-122358938D01*
X154673966Y-122359478D01*
X147967903Y-122359478D01*
X147899782Y-122339476D01*
X147878808Y-122322573D01*
X146441405Y-120885170D01*
X146407379Y-120822858D01*
X146404500Y-120796075D01*
X146404500Y-117138011D01*
X146405040Y-117129779D01*
X146409750Y-117094000D01*
X146409750Y-117093999D01*
X146404500Y-117054121D01*
X146404500Y-117054120D01*
X146404500Y-117054115D01*
X146388838Y-116935150D01*
X146384567Y-116924837D01*
X146327524Y-116787124D01*
X146327519Y-116787117D01*
X146252901Y-116689873D01*
X146252871Y-116689836D01*
X146229986Y-116660012D01*
X146201346Y-116638035D01*
X146195153Y-116632604D01*
X145495390Y-115932841D01*
X145489963Y-115926653D01*
X145467987Y-115898013D01*
X145436074Y-115873525D01*
X145436074Y-115873524D01*
X145340882Y-115800480D01*
X145340878Y-115800477D01*
X145340876Y-115800476D01*
X145340873Y-115800475D01*
X145340872Y-115800474D01*
X145321012Y-115792248D01*
X145265732Y-115747699D01*
X145243312Y-115680336D01*
X145253845Y-115625225D01*
X145306822Y-115504451D01*
X145306823Y-115504449D01*
X145354544Y-115316000D01*
X144449116Y-115316000D01*
X144477493Y-115271844D01*
X144518000Y-115133889D01*
X144518000Y-114990111D01*
X144477493Y-114852156D01*
X144449116Y-114808000D01*
X145354544Y-114808000D01*
X145354544Y-114807999D01*
X145306823Y-114619550D01*
X145306820Y-114619543D01*
X145216419Y-114413451D01*
X145093325Y-114225041D01*
X144950018Y-114069367D01*
X144918598Y-114005702D01*
X144926585Y-113935156D01*
X144971444Y-113880127D01*
X144998679Y-113865977D01*
X145114204Y-113822889D01*
X145231261Y-113735261D01*
X145250790Y-113709173D01*
X145318887Y-113618207D01*
X145318887Y-113618206D01*
X145318889Y-113618204D01*
X145369989Y-113481201D01*
X145376500Y-113420638D01*
X145376500Y-111623362D01*
X145373796Y-111598208D01*
X145369990Y-111562803D01*
X145369988Y-111562795D01*
X145318889Y-111425797D01*
X145318887Y-111425792D01*
X145231261Y-111308738D01*
X145114207Y-111221112D01*
X145114202Y-111221110D01*
X144977204Y-111170011D01*
X144977196Y-111170009D01*
X144916649Y-111163500D01*
X144916638Y-111163500D01*
X143119362Y-111163500D01*
X143119350Y-111163500D01*
X143058803Y-111170009D01*
X143058795Y-111170011D01*
X142921797Y-111221110D01*
X142921792Y-111221112D01*
X142804738Y-111308738D01*
X142717112Y-111425792D01*
X142717110Y-111425797D01*
X142666011Y-111562795D01*
X142666009Y-111562803D01*
X142659500Y-111623350D01*
X142659500Y-113420649D01*
X142666009Y-113481196D01*
X142666011Y-113481204D01*
X142717110Y-113618202D01*
X142717112Y-113618207D01*
X142804738Y-113735261D01*
X142921792Y-113822887D01*
X142921796Y-113822889D01*
X143037312Y-113865975D01*
X143094148Y-113908522D01*
X143118958Y-113975042D01*
X143103866Y-114044416D01*
X143085981Y-114069367D01*
X142942674Y-114225041D01*
X142819580Y-114413451D01*
X142729179Y-114619543D01*
X142729177Y-114619547D01*
X142717927Y-114663975D01*
X142681814Y-114725101D01*
X142618387Y-114756999D01*
X142547783Y-114749542D01*
X142506688Y-114722138D01*
X142377405Y-114592855D01*
X142343379Y-114530543D01*
X142340500Y-114503760D01*
X142340500Y-108621803D01*
X173924429Y-108621803D01*
X173944652Y-108930353D01*
X173944654Y-108930368D01*
X174004979Y-109233634D01*
X174004981Y-109233644D01*
X174104371Y-109526437D01*
X174104377Y-109526451D01*
X174241135Y-109803773D01*
X174412934Y-110060885D01*
X174616813Y-110293366D01*
X174849294Y-110497245D01*
X175106406Y-110669044D01*
X175286417Y-110757814D01*
X175383735Y-110805806D01*
X175676544Y-110905201D01*
X175938693Y-110957346D01*
X175979811Y-110965525D01*
X175979813Y-110965525D01*
X175979822Y-110965527D01*
X176156140Y-110977083D01*
X176288377Y-110985751D01*
X176288380Y-110985751D01*
X176288383Y-110985751D01*
X176404089Y-110978167D01*
X176596938Y-110965527D01*
X176900216Y-110905201D01*
X177193025Y-110805806D01*
X177377912Y-110714629D01*
X177470353Y-110669044D01*
X177470356Y-110669042D01*
X177727462Y-110497248D01*
X177959946Y-110293366D01*
X178163828Y-110060882D01*
X178335622Y-109803776D01*
X178335622Y-109803775D01*
X178335624Y-109803773D01*
X178381209Y-109711332D01*
X178472386Y-109526445D01*
X178571781Y-109233636D01*
X178632107Y-108930358D01*
X178652331Y-108621800D01*
X178632107Y-108313242D01*
X178571781Y-108009964D01*
X178472386Y-107717155D01*
X178335622Y-107439825D01*
X178221406Y-107268889D01*
X178163831Y-107182722D01*
X178163827Y-107182716D01*
X177959946Y-106950233D01*
X177727465Y-106746354D01*
X177470353Y-106574555D01*
X177193031Y-106437797D01*
X177193025Y-106437794D01*
X177193020Y-106437792D01*
X177193017Y-106437791D01*
X176900224Y-106338401D01*
X176900218Y-106338399D01*
X176900216Y-106338399D01*
X176813227Y-106321095D01*
X176596948Y-106278074D01*
X176596933Y-106278072D01*
X176288383Y-106257849D01*
X176288377Y-106257849D01*
X175979826Y-106278072D01*
X175979811Y-106278074D01*
X175720038Y-106329747D01*
X175676544Y-106338399D01*
X175676542Y-106338399D01*
X175676535Y-106338401D01*
X175383742Y-106437791D01*
X175383728Y-106437797D01*
X175106407Y-106574556D01*
X174849302Y-106746348D01*
X174849296Y-106746352D01*
X174616813Y-106950233D01*
X174412932Y-107182716D01*
X174412928Y-107182722D01*
X174241136Y-107439827D01*
X174104377Y-107717148D01*
X174104371Y-107717162D01*
X174004981Y-108009955D01*
X174004979Y-108009965D01*
X173944654Y-108313231D01*
X173944652Y-108313246D01*
X173924429Y-108621796D01*
X173924429Y-108621803D01*
X142340500Y-108621803D01*
X142340500Y-107740011D01*
X142341040Y-107731779D01*
X142345750Y-107696000D01*
X142345750Y-107695999D01*
X142340500Y-107656121D01*
X142340500Y-107656120D01*
X142340500Y-107656115D01*
X142324838Y-107537150D01*
X142286668Y-107444998D01*
X142286668Y-107444997D01*
X142286668Y-107444996D01*
X142263526Y-107389129D01*
X142263524Y-107389124D01*
X142215470Y-107326499D01*
X142188583Y-107291459D01*
X142188556Y-107291425D01*
X142165988Y-107262013D01*
X142137346Y-107240035D01*
X142131153Y-107234604D01*
X138797879Y-103901330D01*
X138763853Y-103839018D01*
X138764830Y-103781304D01*
X138808049Y-103610633D01*
X138808051Y-103610626D01*
X138827327Y-103378000D01*
X138808051Y-103145374D01*
X138750749Y-102919093D01*
X138656984Y-102705331D01*
X138565019Y-102564567D01*
X138529314Y-102509916D01*
X138380259Y-102348000D01*
X173133950Y-102348000D01*
X173154117Y-102604246D01*
X173214121Y-102854183D01*
X173312486Y-103091657D01*
X173446791Y-103310824D01*
X173448253Y-103312536D01*
X174093099Y-102667690D01*
X174118059Y-102725553D01*
X174222756Y-102866185D01*
X174357062Y-102978882D01*
X174452430Y-103026777D01*
X173807462Y-103671745D01*
X173807462Y-103671746D01*
X173809174Y-103673207D01*
X174028342Y-103807513D01*
X174265816Y-103905878D01*
X174515753Y-103965882D01*
X174772000Y-103986049D01*
X175028246Y-103965882D01*
X175278183Y-103905878D01*
X175515657Y-103807513D01*
X175734825Y-103673207D01*
X175736535Y-103671746D01*
X175736536Y-103671745D01*
X175093798Y-103029007D01*
X175110891Y-103022787D01*
X175257373Y-102926445D01*
X175377688Y-102798918D01*
X175452517Y-102669308D01*
X176095744Y-103312536D01*
X176095746Y-103312535D01*
X176097207Y-103310825D01*
X176231513Y-103091657D01*
X176329878Y-102854183D01*
X176389882Y-102604246D01*
X176410049Y-102347999D01*
X176389882Y-102091753D01*
X176329878Y-101841816D01*
X176231513Y-101604342D01*
X176097207Y-101385174D01*
X176095745Y-101383462D01*
X175450899Y-102028307D01*
X175425941Y-101970447D01*
X175321244Y-101829815D01*
X175186938Y-101717118D01*
X175091568Y-101669221D01*
X175736536Y-101024253D01*
X175734824Y-101022791D01*
X175515657Y-100888486D01*
X175278183Y-100790121D01*
X175028246Y-100730117D01*
X174772000Y-100709950D01*
X174515753Y-100730117D01*
X174265816Y-100790121D01*
X174028342Y-100888486D01*
X173809177Y-101022790D01*
X173809174Y-101022793D01*
X173807462Y-101024253D01*
X174450201Y-101666992D01*
X174433109Y-101673213D01*
X174286627Y-101769555D01*
X174166312Y-101897082D01*
X174091482Y-102026691D01*
X173448253Y-101383462D01*
X173446793Y-101385174D01*
X173446790Y-101385177D01*
X173312486Y-101604342D01*
X173214121Y-101841816D01*
X173154117Y-102091753D01*
X173133950Y-102348000D01*
X138380259Y-102348000D01*
X138371225Y-102338186D01*
X138371221Y-102338182D01*
X138215368Y-102216877D01*
X138187017Y-102194810D01*
X137981727Y-102083713D01*
X137981724Y-102083712D01*
X137981723Y-102083711D01*
X137760955Y-102007921D01*
X137760948Y-102007919D01*
X137662411Y-101991476D01*
X137530712Y-101969500D01*
X137297288Y-101969500D01*
X137182066Y-101988727D01*
X137067051Y-102007919D01*
X137067044Y-102007921D01*
X136846276Y-102083711D01*
X136846273Y-102083713D01*
X136640985Y-102194809D01*
X136640983Y-102194810D01*
X136456778Y-102338182D01*
X136456774Y-102338186D01*
X136298685Y-102509916D01*
X136171015Y-102705331D01*
X136077252Y-102919089D01*
X136077249Y-102919096D01*
X136019950Y-103145366D01*
X136000673Y-103377999D01*
X136019950Y-103610633D01*
X136077249Y-103836903D01*
X136077252Y-103836910D01*
X136171015Y-104050668D01*
X136171016Y-104050669D01*
X136298686Y-104246083D01*
X136383842Y-104338587D01*
X136415263Y-104402251D01*
X136407276Y-104472797D01*
X136362417Y-104527826D01*
X136335175Y-104541979D01*
X136267795Y-104567111D01*
X136267792Y-104567112D01*
X136150738Y-104654738D01*
X136063112Y-104771792D01*
X136063110Y-104771797D01*
X136012011Y-104908795D01*
X136012009Y-104908803D01*
X136005500Y-104969350D01*
X136005500Y-106866649D01*
X136012009Y-106927196D01*
X136012011Y-106927204D01*
X136063110Y-107064202D01*
X136063112Y-107064207D01*
X136150738Y-107181261D01*
X136267792Y-107268887D01*
X136267794Y-107268888D01*
X136267796Y-107268889D01*
X136326875Y-107290924D01*
X136404795Y-107319988D01*
X136404803Y-107319990D01*
X136465350Y-107326499D01*
X136465355Y-107326499D01*
X136465362Y-107326500D01*
X136465368Y-107326500D01*
X138362632Y-107326500D01*
X138362638Y-107326500D01*
X138362645Y-107326499D01*
X138362649Y-107326499D01*
X138423196Y-107319990D01*
X138423199Y-107319989D01*
X138423201Y-107319989D01*
X138560204Y-107268889D01*
X138569390Y-107262013D01*
X138677261Y-107181261D01*
X138764887Y-107064207D01*
X138764887Y-107064206D01*
X138764889Y-107064204D01*
X138815989Y-106927201D01*
X138822500Y-106866638D01*
X138822500Y-105951239D01*
X138842502Y-105883118D01*
X138896158Y-105836625D01*
X138966432Y-105826521D01*
X139031012Y-105856015D01*
X139037595Y-105862144D01*
X141086595Y-107911144D01*
X141120621Y-107973456D01*
X141123500Y-108000239D01*
X141123500Y-114763988D01*
X141122960Y-114772219D01*
X141118250Y-114807998D01*
X141118250Y-114808000D01*
X141123107Y-114844898D01*
X141123111Y-114844941D01*
X141136607Y-114947451D01*
X141139162Y-114966851D01*
X141200475Y-115114874D01*
X141200477Y-115114877D01*
X141273522Y-115210071D01*
X141273525Y-115210074D01*
X141298014Y-115241988D01*
X141326651Y-115263962D01*
X141332844Y-115269393D01*
X142794605Y-116731154D01*
X142800037Y-116737348D01*
X142827040Y-116772538D01*
X142825983Y-116773348D01*
X142855931Y-116828192D01*
X142850866Y-116899007D01*
X142838295Y-116923887D01*
X142819145Y-116953199D01*
X142819140Y-116953208D01*
X142728703Y-117159386D01*
X142728702Y-117159387D01*
X142673437Y-117377624D01*
X142673436Y-117377630D01*
X142673436Y-117377632D01*
X142654844Y-117602000D01*
X142668169Y-117762810D01*
X142673437Y-117826375D01*
X142728702Y-118044612D01*
X142728705Y-118044619D01*
X142747245Y-118086886D01*
X142756292Y-118157304D01*
X142725831Y-118221434D01*
X142665535Y-118258916D01*
X142631858Y-118263500D01*
X141528238Y-118263500D01*
X141460117Y-118243498D01*
X141439143Y-118226595D01*
X139837405Y-116624856D01*
X139803379Y-116562544D01*
X139800500Y-116535761D01*
X139800500Y-112836018D01*
X139801040Y-112827786D01*
X139805751Y-112792000D01*
X139805751Y-112791999D01*
X139789585Y-112669206D01*
X139784838Y-112633149D01*
X139723524Y-112485124D01*
X139706359Y-112462754D01*
X139648901Y-112387873D01*
X139648871Y-112387836D01*
X139625987Y-112358013D01*
X139616703Y-112350889D01*
X139597346Y-112336035D01*
X139591153Y-112330604D01*
X138845404Y-111584856D01*
X138811379Y-111522544D01*
X138808500Y-111495761D01*
X138808500Y-110051367D01*
X138808499Y-110051350D01*
X138801990Y-109990803D01*
X138801988Y-109990795D01*
X138750889Y-109853797D01*
X138750887Y-109853792D01*
X138663261Y-109736738D01*
X138546207Y-109649112D01*
X138546202Y-109649110D01*
X138409204Y-109598011D01*
X138409196Y-109598009D01*
X138348649Y-109591500D01*
X138348638Y-109591500D01*
X136451362Y-109591500D01*
X136451350Y-109591500D01*
X136390803Y-109598009D01*
X136390795Y-109598011D01*
X136253797Y-109649110D01*
X136253792Y-109649112D01*
X136136738Y-109736738D01*
X136049112Y-109853792D01*
X136049110Y-109853797D01*
X135998011Y-109990795D01*
X135998009Y-109990803D01*
X135991500Y-110051350D01*
X135991500Y-111948649D01*
X135998009Y-112009196D01*
X135998011Y-112009204D01*
X136049110Y-112146202D01*
X136049112Y-112146207D01*
X136136738Y-112263261D01*
X136253791Y-112350886D01*
X136253792Y-112350886D01*
X136253796Y-112350889D01*
X136321176Y-112376020D01*
X136378009Y-112418566D01*
X136402820Y-112485087D01*
X136387728Y-112554461D01*
X136369842Y-112579412D01*
X136284685Y-112671916D01*
X136157015Y-112867331D01*
X136063252Y-113081089D01*
X136063249Y-113081096D01*
X136005950Y-113307366D01*
X136005949Y-113307372D01*
X136005949Y-113307374D01*
X135986673Y-113540000D01*
X136002245Y-113727928D01*
X136005950Y-113772633D01*
X136063249Y-113998903D01*
X136063252Y-113998910D01*
X136157015Y-114212668D01*
X136284685Y-114408083D01*
X136442774Y-114579813D01*
X136442778Y-114579817D01*
X136493818Y-114619543D01*
X136610767Y-114710568D01*
X136652237Y-114768192D01*
X136655971Y-114839091D01*
X136620781Y-114900753D01*
X136610767Y-114909430D01*
X136442780Y-115040181D01*
X136442774Y-115040186D01*
X136284685Y-115211916D01*
X136157015Y-115407331D01*
X136063252Y-115621089D01*
X136063249Y-115621096D01*
X136005950Y-115847366D01*
X136005949Y-115847372D01*
X136005949Y-115847374D01*
X135986673Y-116080000D01*
X136003692Y-116285391D01*
X136005950Y-116312633D01*
X136063249Y-116538903D01*
X136063252Y-116538910D01*
X136157015Y-116752668D01*
X136284685Y-116948083D01*
X136442774Y-117119813D01*
X136442778Y-117119817D01*
X136493618Y-117159387D01*
X136626983Y-117263190D01*
X136832273Y-117374287D01*
X137053049Y-117450080D01*
X137283288Y-117488500D01*
X137283292Y-117488500D01*
X137516708Y-117488500D01*
X137516712Y-117488500D01*
X137746951Y-117450080D01*
X137793589Y-117434068D01*
X137864513Y-117430867D01*
X137923597Y-117464146D01*
X142270605Y-121811154D01*
X142276037Y-121817348D01*
X142298012Y-121845986D01*
X142327836Y-121868871D01*
X142327873Y-121868901D01*
X142425117Y-121943519D01*
X142425124Y-121943524D01*
X142573149Y-122004838D01*
X142619261Y-122010908D01*
X142651142Y-122015106D01*
X142716070Y-122043828D01*
X142755161Y-122103094D01*
X142756006Y-122174085D01*
X142750084Y-122190640D01*
X142728705Y-122239380D01*
X142728702Y-122239387D01*
X142673437Y-122457624D01*
X142673436Y-122457630D01*
X142673436Y-122457632D01*
X142654844Y-122682000D01*
X142672462Y-122894617D01*
X142673437Y-122906375D01*
X142728702Y-123124612D01*
X142728705Y-123124619D01*
X142747245Y-123166886D01*
X142756292Y-123237304D01*
X142725831Y-123301434D01*
X142665535Y-123338916D01*
X142631858Y-123343500D01*
X142290239Y-123343500D01*
X142222118Y-123323498D01*
X142201144Y-123306595D01*
X138859405Y-119964856D01*
X138825379Y-119902544D01*
X138822500Y-119875761D01*
X138822500Y-119051367D01*
X138822499Y-119051350D01*
X138815990Y-118990803D01*
X138815988Y-118990795D01*
X138764889Y-118853797D01*
X138764887Y-118853792D01*
X138677261Y-118736738D01*
X138560207Y-118649112D01*
X138560202Y-118649110D01*
X138423204Y-118598011D01*
X138423196Y-118598009D01*
X138362649Y-118591500D01*
X138362638Y-118591500D01*
X136465362Y-118591500D01*
X136465350Y-118591500D01*
X136404803Y-118598009D01*
X136404795Y-118598011D01*
X136267797Y-118649110D01*
X136267792Y-118649112D01*
X136150738Y-118736738D01*
X136063112Y-118853792D01*
X136063110Y-118853797D01*
X136012011Y-118990795D01*
X136012009Y-118990803D01*
X136005500Y-119051350D01*
X136005500Y-120948649D01*
X136012009Y-121009196D01*
X136012011Y-121009204D01*
X136063110Y-121146202D01*
X136063112Y-121146207D01*
X136150738Y-121263261D01*
X136267791Y-121350886D01*
X136267792Y-121350886D01*
X136267796Y-121350889D01*
X136335176Y-121376020D01*
X136392009Y-121418566D01*
X136416820Y-121485087D01*
X136401728Y-121554461D01*
X136383842Y-121579412D01*
X136298685Y-121671916D01*
X136171015Y-121867331D01*
X136077252Y-122081089D01*
X136077249Y-122081096D01*
X136019950Y-122307366D01*
X136019949Y-122307372D01*
X136019949Y-122307374D01*
X136000673Y-122540000D01*
X136018200Y-122751524D01*
X136019950Y-122772633D01*
X136077249Y-122998903D01*
X136077252Y-122998910D01*
X136171015Y-123212668D01*
X136298685Y-123408083D01*
X136456774Y-123579813D01*
X136456785Y-123579823D01*
X136624766Y-123710569D01*
X136666237Y-123768194D01*
X136669970Y-123839092D01*
X136634780Y-123900754D01*
X136624766Y-123909431D01*
X136456785Y-124040176D01*
X136456774Y-124040186D01*
X136298685Y-124211916D01*
X136171015Y-124407331D01*
X136077252Y-124621089D01*
X136077249Y-124621096D01*
X136019950Y-124847366D01*
X136019949Y-124847372D01*
X136019949Y-124847374D01*
X136000673Y-125080000D01*
X136013866Y-125239218D01*
X136019950Y-125312633D01*
X136077249Y-125538903D01*
X136077252Y-125538910D01*
X136171015Y-125752668D01*
X136298685Y-125948083D01*
X136456774Y-126119813D01*
X136456778Y-126119817D01*
X136505258Y-126157550D01*
X136640983Y-126263190D01*
X136846273Y-126374287D01*
X137067049Y-126450080D01*
X137297288Y-126488500D01*
X137297292Y-126488500D01*
X137530714Y-126488500D01*
X137674889Y-126464441D01*
X137714615Y-126457812D01*
X137785099Y-126466328D01*
X137824449Y-126492998D01*
X138222605Y-126891154D01*
X138228037Y-126897348D01*
X138250014Y-126925988D01*
X138279425Y-126948556D01*
X138279459Y-126948583D01*
X138377122Y-127023523D01*
X138377124Y-127023524D01*
X138438438Y-127048920D01*
X138525150Y-127084838D01*
X138644115Y-127100500D01*
X138644122Y-127100500D01*
X138684000Y-127105750D01*
X138684000Y-127105749D01*
X138684001Y-127105750D01*
X138719781Y-127101040D01*
X138728012Y-127100500D01*
X142631858Y-127100500D01*
X142699979Y-127120502D01*
X142746472Y-127174158D01*
X142756576Y-127244432D01*
X142747245Y-127277114D01*
X142728705Y-127319380D01*
X142728702Y-127319387D01*
X142673437Y-127537624D01*
X142673436Y-127537630D01*
X142673436Y-127537632D01*
X142654844Y-127762000D01*
X142664288Y-127875976D01*
X142673437Y-127986375D01*
X142728702Y-128204612D01*
X142728703Y-128204613D01*
X142728704Y-128204616D01*
X142796203Y-128358499D01*
X142819141Y-128410793D01*
X142927627Y-128576844D01*
X142948140Y-128644812D01*
X142928651Y-128713081D01*
X142911239Y-128734854D01*
X142359336Y-129286757D01*
X142346901Y-129296721D01*
X142347089Y-129296948D01*
X142340979Y-129302002D01*
X142293694Y-129352355D01*
X142292319Y-129353774D01*
X142271863Y-129374231D01*
X142267560Y-129379777D01*
X142263714Y-129384279D01*
X142231417Y-129418674D01*
X142231411Y-129418683D01*
X142221651Y-129436435D01*
X142210803Y-129452950D01*
X142198386Y-129468958D01*
X142179645Y-129512264D01*
X142177034Y-129517594D01*
X142154305Y-129558939D01*
X142154303Y-129558944D01*
X142149267Y-129578559D01*
X142142864Y-129597262D01*
X142134819Y-129615852D01*
X142127437Y-129662456D01*
X142126233Y-129668268D01*
X142114500Y-129713968D01*
X142114500Y-129734223D01*
X142112949Y-129753933D01*
X142109780Y-129773942D01*
X142109780Y-129773943D01*
X142114220Y-129820917D01*
X142114500Y-129826850D01*
X142114500Y-131488146D01*
X142112751Y-131503988D01*
X142113044Y-131504016D01*
X142112298Y-131511908D01*
X142114469Y-131580974D01*
X142114500Y-131582953D01*
X142114500Y-131611851D01*
X142114501Y-131611872D01*
X142115378Y-131618820D01*
X142115844Y-131624732D01*
X142117326Y-131671888D01*
X142117327Y-131671893D01*
X142122977Y-131691339D01*
X142126986Y-131710697D01*
X142129525Y-131730793D01*
X142129526Y-131730799D01*
X142146893Y-131774662D01*
X142148816Y-131780279D01*
X142161982Y-131825593D01*
X142172294Y-131843031D01*
X142180988Y-131860779D01*
X142188444Y-131879609D01*
X142188450Y-131879620D01*
X142216177Y-131917783D01*
X142219437Y-131922746D01*
X142243460Y-131963365D01*
X142257779Y-131977684D01*
X142270617Y-131992714D01*
X142277903Y-132002741D01*
X142282528Y-132009107D01*
X142298743Y-132022521D01*
X142318886Y-132039185D01*
X142323267Y-132043171D01*
X142556572Y-132276476D01*
X142668132Y-132388036D01*
X142702158Y-132450348D01*
X142701182Y-132508061D01*
X142673436Y-132617628D01*
X142662068Y-132754815D01*
X142654844Y-132842000D01*
X142672912Y-133060049D01*
X142673437Y-133066375D01*
X142728702Y-133284612D01*
X142728703Y-133284613D01*
X142728704Y-133284616D01*
X142785852Y-133414902D01*
X142819141Y-133490793D01*
X142942275Y-133679265D01*
X142942279Y-133679270D01*
X143094762Y-133844908D01*
X143102444Y-133850887D01*
X143272424Y-133983189D01*
X143470426Y-134090342D01*
X143470427Y-134090342D01*
X143470428Y-134090343D01*
X143560959Y-134121422D01*
X143683365Y-134163444D01*
X143905431Y-134200500D01*
X143905435Y-134200500D01*
X144130565Y-134200500D01*
X144130569Y-134200500D01*
X144352635Y-134163444D01*
X144565574Y-134090342D01*
X144763576Y-133983189D01*
X144941240Y-133844906D01*
X145093722Y-133679268D01*
X145210017Y-133501264D01*
X145264020Y-133455176D01*
X145334368Y-133445601D01*
X145398726Y-133475578D01*
X145436659Y-133535591D01*
X145441500Y-133570180D01*
X145441500Y-134575988D01*
X145440960Y-134584219D01*
X145436250Y-134619998D01*
X145436250Y-134620000D01*
X145441090Y-134656763D01*
X145441095Y-134656814D01*
X145446933Y-134701151D01*
X145457161Y-134778849D01*
X145518475Y-134926874D01*
X145518480Y-134926882D01*
X145592718Y-135023631D01*
X145592719Y-135023631D01*
X145616013Y-135053987D01*
X145644651Y-135075962D01*
X145650844Y-135081393D01*
X146350606Y-135781155D01*
X146356039Y-135787350D01*
X146361788Y-135794843D01*
X146387387Y-135861064D01*
X146373121Y-135930612D01*
X146365039Y-135943813D01*
X146345815Y-135971269D01*
X146290359Y-136015599D01*
X146242600Y-136025001D01*
X142302511Y-136025001D01*
X142294280Y-136024461D01*
X142258500Y-136019751D01*
X142258497Y-136019751D01*
X142221747Y-136024589D01*
X142221683Y-136024596D01*
X142119040Y-136038109D01*
X142119039Y-136038108D01*
X142099650Y-136040662D01*
X142099646Y-136040663D01*
X141951620Y-136101978D01*
X141899302Y-136142125D01*
X141824510Y-136199515D01*
X141802531Y-136228157D01*
X141797093Y-136234358D01*
X141781904Y-136249546D01*
X141719592Y-136283572D01*
X141648777Y-136278507D01*
X141591941Y-136235960D01*
X141567130Y-136169440D01*
X141576399Y-136112237D01*
X141644805Y-135947092D01*
X141702072Y-135708557D01*
X141721319Y-135464000D01*
X141702072Y-135219443D01*
X141644805Y-134980908D01*
X141550927Y-134754268D01*
X141422752Y-134545104D01*
X141263433Y-134358567D01*
X141076896Y-134199248D01*
X141076894Y-134199246D01*
X141076892Y-134199245D01*
X140899176Y-134090342D01*
X140867732Y-134071073D01*
X140641092Y-133977195D01*
X140402557Y-133919928D01*
X140158000Y-133900681D01*
X140157999Y-133900681D01*
X139913443Y-133919928D01*
X139674907Y-133977195D01*
X139588699Y-134012904D01*
X139468671Y-134062622D01*
X139448266Y-134071074D01*
X139239107Y-134199245D01*
X139052567Y-134358567D01*
X138893245Y-134545107D01*
X138767689Y-134749999D01*
X138765073Y-134754268D01*
X138757107Y-134773500D01*
X138671195Y-134980907D01*
X138620841Y-135190649D01*
X138613928Y-135219443D01*
X138597040Y-135434035D01*
X138595617Y-135452110D01*
X138570331Y-135518451D01*
X138513193Y-135560591D01*
X138442343Y-135565150D01*
X138410036Y-135553038D01*
X138225448Y-135453145D01*
X138225445Y-135453143D01*
X138008674Y-135378725D01*
X138008665Y-135378723D01*
X137782595Y-135341000D01*
X137553405Y-135341000D01*
X137327334Y-135378723D01*
X137327325Y-135378725D01*
X137110554Y-135453143D01*
X137110551Y-135453144D01*
X136908978Y-135562230D01*
X136908969Y-135562236D01*
X136884496Y-135581285D01*
X136884496Y-135581286D01*
X137544829Y-136241619D01*
X137527108Y-136244167D01*
X137397631Y-136303298D01*
X137290057Y-136396511D01*
X137213102Y-136516255D01*
X137187667Y-136602877D01*
X136526859Y-135942069D01*
X136526858Y-135942069D01*
X136447523Y-136063500D01*
X136447519Y-136063508D01*
X136355451Y-136273403D01*
X136299188Y-136495580D01*
X136280260Y-136724000D01*
X136299188Y-136952419D01*
X136355451Y-137174596D01*
X136447519Y-137384490D01*
X136526858Y-137505928D01*
X137187666Y-136845120D01*
X137213102Y-136931745D01*
X137290057Y-137051489D01*
X137397631Y-137144702D01*
X137527108Y-137203833D01*
X137544827Y-137206380D01*
X136884495Y-137866712D01*
X136908976Y-137885767D01*
X136908981Y-137885770D01*
X137110551Y-137994855D01*
X137110554Y-137994856D01*
X137327325Y-138069274D01*
X137327334Y-138069276D01*
X137553405Y-138107000D01*
X137782595Y-138107000D01*
X138008665Y-138069276D01*
X138008674Y-138069274D01*
X138225445Y-137994856D01*
X138225448Y-137994854D01*
X138427018Y-137885771D01*
X138451502Y-137866712D01*
X137791170Y-137206380D01*
X137808892Y-137203833D01*
X137938369Y-137144702D01*
X138045943Y-137051489D01*
X138122898Y-136931745D01*
X138148332Y-136845122D01*
X138809138Y-137505929D01*
X138809139Y-137505929D01*
X138888480Y-137384490D01*
X138980548Y-137174596D01*
X139036811Y-136952419D01*
X139047324Y-136825551D01*
X139072883Y-136759314D01*
X139130195Y-136717411D01*
X139201063Y-136713144D01*
X139238728Y-136728522D01*
X139283368Y-136755877D01*
X139448268Y-136856927D01*
X139674908Y-136950805D01*
X139913443Y-137008072D01*
X140158000Y-137027319D01*
X140402557Y-137008072D01*
X140641092Y-136950805D01*
X140806236Y-136882399D01*
X140876822Y-136874811D01*
X140940309Y-136906590D01*
X140976537Y-136967648D01*
X140974003Y-137038599D01*
X140943546Y-137087904D01*
X138171920Y-139859530D01*
X138109608Y-139893556D01*
X138041914Y-139889608D01*
X138008801Y-139878240D01*
X138008794Y-139878238D01*
X138008793Y-139878238D01*
X138008790Y-139878237D01*
X138008788Y-139878237D01*
X137963821Y-139870733D01*
X137782640Y-139840500D01*
X137553360Y-139840500D01*
X137402411Y-139865688D01*
X137327211Y-139878237D01*
X137327202Y-139878239D01*
X137110352Y-139952683D01*
X137110350Y-139952685D01*
X136908704Y-140061809D01*
X136908703Y-140061810D01*
X136727766Y-140202639D01*
X136572479Y-140371327D01*
X136447080Y-140563267D01*
X136447073Y-140563279D01*
X136354978Y-140773235D01*
X136354975Y-140773242D01*
X136298693Y-140995495D01*
X136298692Y-140995501D01*
X136298692Y-140995503D01*
X136279758Y-141224000D01*
X136293170Y-141385860D01*
X136298693Y-141452504D01*
X136354975Y-141674757D01*
X136354978Y-141674764D01*
X136447073Y-141884720D01*
X136447075Y-141884724D01*
X136447078Y-141884730D01*
X136484225Y-141941588D01*
X136549266Y-142041142D01*
X136572482Y-142076676D01*
X136651710Y-142162741D01*
X136713113Y-142229443D01*
X136727769Y-142245363D01*
X136908704Y-142386190D01*
X137110350Y-142495315D01*
X137110351Y-142495315D01*
X137110352Y-142495316D01*
X137224208Y-142534402D01*
X137327207Y-142569762D01*
X137553360Y-142607500D01*
X137553364Y-142607500D01*
X137782636Y-142607500D01*
X137782640Y-142607500D01*
X138008793Y-142569762D01*
X138225650Y-142495315D01*
X138410837Y-142395096D01*
X138480263Y-142380268D01*
X138546689Y-142405328D01*
X138589022Y-142462323D01*
X138596414Y-142496026D01*
X138605744Y-142614567D01*
X138613928Y-142718557D01*
X138671195Y-142957092D01*
X138765073Y-143183732D01*
X138765074Y-143183733D01*
X138893245Y-143392892D01*
X138893246Y-143392894D01*
X138893248Y-143392896D01*
X139052567Y-143579433D01*
X139239104Y-143738752D01*
X139448268Y-143866927D01*
X139674908Y-143960805D01*
X139913443Y-144018072D01*
X140158000Y-144037319D01*
X140402557Y-144018072D01*
X140641092Y-143960805D01*
X140867732Y-143866927D01*
X141076896Y-143738752D01*
X141263433Y-143579433D01*
X141422752Y-143392896D01*
X141550927Y-143183732D01*
X141644805Y-142957092D01*
X141702072Y-142718557D01*
X141721319Y-142474000D01*
X141702072Y-142229443D01*
X141644805Y-141990908D01*
X141550927Y-141764268D01*
X141422752Y-141555104D01*
X141263433Y-141368567D01*
X141076896Y-141209248D01*
X141076894Y-141209246D01*
X141076892Y-141209245D01*
X140919243Y-141112639D01*
X140867732Y-141081073D01*
X140641092Y-140987195D01*
X140402557Y-140929928D01*
X140158000Y-140910681D01*
X139913443Y-140929928D01*
X139674907Y-140987195D01*
X139448266Y-141081074D01*
X139238417Y-141209668D01*
X139169883Y-141228206D01*
X139102207Y-141206749D01*
X139056874Y-141152110D01*
X139047014Y-141112646D01*
X139037308Y-140995503D01*
X139015828Y-140910681D01*
X138998252Y-140841272D01*
X139000919Y-140770326D01*
X139031299Y-140721248D01*
X142473642Y-137278906D01*
X142535954Y-137244880D01*
X142562737Y-137242001D01*
X146242601Y-137242001D01*
X146310722Y-137262003D01*
X146345814Y-137295731D01*
X146473294Y-137477792D01*
X146473298Y-137477797D01*
X146473301Y-137477801D01*
X146635199Y-137639699D01*
X146822750Y-137771024D01*
X146854579Y-137785866D01*
X146861956Y-137789306D01*
X146915241Y-137836223D01*
X146934702Y-137904500D01*
X146914160Y-137972460D01*
X146861956Y-138017696D01*
X146822749Y-138035978D01*
X146635202Y-138167300D01*
X146635196Y-138167305D01*
X146473303Y-138329198D01*
X146473298Y-138329204D01*
X146341976Y-138516751D01*
X146245216Y-138724254D01*
X146245214Y-138724260D01*
X146210715Y-138853011D01*
X146185956Y-138945414D01*
X146166001Y-139173501D01*
X146185377Y-139394964D01*
X146185956Y-139401587D01*
X146245214Y-139622741D01*
X146245216Y-139622747D01*
X146341976Y-139830250D01*
X146456132Y-139993282D01*
X146473301Y-140017801D01*
X146635199Y-140179699D01*
X146822750Y-140311024D01*
X146857858Y-140327395D01*
X146861956Y-140329306D01*
X146915241Y-140376223D01*
X146934702Y-140444500D01*
X146914160Y-140512460D01*
X146861956Y-140557696D01*
X146822749Y-140575978D01*
X146635202Y-140707300D01*
X146635196Y-140707305D01*
X146473303Y-140869198D01*
X146473298Y-140869204D01*
X146341976Y-141056751D01*
X146245216Y-141264254D01*
X146245214Y-141264260D01*
X146188624Y-141475456D01*
X146185956Y-141485414D01*
X146166001Y-141713501D01*
X146185956Y-141941588D01*
X146209499Y-142029451D01*
X146245214Y-142162741D01*
X146245216Y-142162747D01*
X146341976Y-142370250D01*
X146430045Y-142496026D01*
X146473301Y-142557801D01*
X146635199Y-142719699D01*
X146822750Y-142851024D01*
X147030256Y-142947785D01*
X147251412Y-143007044D01*
X147479499Y-143026999D01*
X147707586Y-143007044D01*
X147928742Y-142947785D01*
X148136248Y-142851024D01*
X148169759Y-142827558D01*
X148237031Y-142804869D01*
X148305892Y-142822152D01*
X148331126Y-142841675D01*
X148890605Y-143401154D01*
X148896037Y-143407348D01*
X148918012Y-143435986D01*
X148918013Y-143435987D01*
X148947836Y-143458871D01*
X148947873Y-143458901D01*
X149045117Y-143533519D01*
X149045124Y-143533524D01*
X149193149Y-143594838D01*
X149212543Y-143597391D01*
X149312115Y-143610500D01*
X149312120Y-143610500D01*
X149352000Y-143615750D01*
X149387792Y-143611038D01*
X149396014Y-143610500D01*
X174086988Y-143610500D01*
X174095219Y-143611040D01*
X174107549Y-143612662D01*
X174131000Y-143615750D01*
X174170880Y-143610500D01*
X174170885Y-143610500D01*
X174248791Y-143600243D01*
X174270457Y-143597391D01*
X174270457Y-143597392D01*
X174270461Y-143597390D01*
X174289851Y-143594838D01*
X174437876Y-143533524D01*
X174533072Y-143460477D01*
X174533072Y-143460476D01*
X174541291Y-143454170D01*
X174541300Y-143454162D01*
X174564987Y-143435987D01*
X174586965Y-143407344D01*
X174592384Y-143401163D01*
X174978369Y-143015178D01*
X175040679Y-142981154D01*
X175100072Y-142982568D01*
X175191412Y-143007044D01*
X175419499Y-143026999D01*
X175647586Y-143007044D01*
X175868742Y-142947785D01*
X176076248Y-142851024D01*
X176263799Y-142719699D01*
X176425697Y-142557801D01*
X176557022Y-142370250D01*
X176575580Y-142330451D01*
X176622494Y-142277168D01*
X176690771Y-142257706D01*
X176758731Y-142278246D01*
X176803968Y-142330450D01*
X176822410Y-142369998D01*
X176953683Y-142557475D01*
X176953688Y-142557481D01*
X177115518Y-142719311D01*
X177115524Y-142719316D01*
X177303000Y-142850588D01*
X177510425Y-142947312D01*
X177510430Y-142947314D01*
X177705499Y-142999582D01*
X177705499Y-142025187D01*
X177721454Y-142041142D01*
X177834351Y-142098666D01*
X177928018Y-142113501D01*
X177990980Y-142113501D01*
X178084647Y-142098666D01*
X178197544Y-142041142D01*
X178213499Y-142025187D01*
X178213499Y-142999582D01*
X178408567Y-142947314D01*
X178408572Y-142947312D01*
X178615997Y-142850588D01*
X178803473Y-142719316D01*
X178803479Y-142719311D01*
X178965309Y-142557481D01*
X178965314Y-142557475D01*
X179096586Y-142369999D01*
X179115028Y-142330452D01*
X179161945Y-142277167D01*
X179230222Y-142257706D01*
X179298182Y-142278248D01*
X179343418Y-142330452D01*
X179361976Y-142370250D01*
X179450045Y-142496026D01*
X179493301Y-142557801D01*
X179655199Y-142719699D01*
X179842750Y-142851024D01*
X180050256Y-142947785D01*
X180271412Y-143007044D01*
X180499499Y-143026999D01*
X180727586Y-143007044D01*
X180948742Y-142947785D01*
X181156248Y-142851024D01*
X181343799Y-142719699D01*
X181414908Y-142648589D01*
X181477216Y-142614567D01*
X181548032Y-142619631D01*
X181604868Y-142662177D01*
X181629679Y-142728697D01*
X181630000Y-142737687D01*
X181630000Y-145655914D01*
X181609998Y-145724035D01*
X181556342Y-145770528D01*
X181503915Y-145781914D01*
X134515915Y-145750085D01*
X134447807Y-145730037D01*
X134401351Y-145676350D01*
X134390000Y-145624085D01*
X134390000Y-130210000D01*
X136000673Y-130210000D01*
X136008296Y-130302000D01*
X136019950Y-130442633D01*
X136077249Y-130668903D01*
X136077252Y-130668910D01*
X136171015Y-130882668D01*
X136171016Y-130882669D01*
X136298686Y-131078083D01*
X136384209Y-131170985D01*
X136415629Y-131234648D01*
X136407642Y-131305194D01*
X136362784Y-131360223D01*
X136335541Y-131374376D01*
X136268037Y-131399554D01*
X136268034Y-131399555D01*
X136151095Y-131487095D01*
X136063555Y-131604034D01*
X136063555Y-131604035D01*
X136012505Y-131740906D01*
X136006000Y-131801402D01*
X136006000Y-132496000D01*
X137041032Y-132496000D01*
X136990375Y-132583740D01*
X136960190Y-132715992D01*
X136970327Y-132851265D01*
X137019887Y-132977541D01*
X137040987Y-133004000D01*
X136006000Y-133004000D01*
X136006000Y-133698597D01*
X136012505Y-133759093D01*
X136063555Y-133895964D01*
X136063555Y-133895965D01*
X136151095Y-134012904D01*
X136268034Y-134100444D01*
X136404906Y-134151494D01*
X136465402Y-134157999D01*
X136465415Y-134158000D01*
X137160000Y-134158000D01*
X137160000Y-133121462D01*
X137216547Y-133160016D01*
X137346173Y-133200000D01*
X137447724Y-133200000D01*
X137548138Y-133184865D01*
X137668000Y-133127142D01*
X137668000Y-134158000D01*
X138362585Y-134158000D01*
X138362597Y-134157999D01*
X138423093Y-134151494D01*
X138559964Y-134100444D01*
X138559965Y-134100444D01*
X138676904Y-134012904D01*
X138764444Y-133895965D01*
X138764444Y-133895964D01*
X138815494Y-133759093D01*
X138821999Y-133698597D01*
X138822000Y-133698585D01*
X138822000Y-133004000D01*
X137786968Y-133004000D01*
X137837625Y-132916260D01*
X137867810Y-132784008D01*
X137857673Y-132648735D01*
X137808113Y-132522459D01*
X137787013Y-132496000D01*
X138822000Y-132496000D01*
X138822000Y-131801414D01*
X138821999Y-131801402D01*
X138815494Y-131740906D01*
X138764444Y-131604035D01*
X138764444Y-131604034D01*
X138676904Y-131487095D01*
X138559965Y-131399555D01*
X138559960Y-131399553D01*
X138492459Y-131374376D01*
X138435623Y-131331829D01*
X138410813Y-131265309D01*
X138425905Y-131195935D01*
X138443784Y-131170991D01*
X138529314Y-131078083D01*
X138656984Y-130882669D01*
X138750749Y-130668907D01*
X138808051Y-130442626D01*
X138827327Y-130210000D01*
X138808051Y-129977374D01*
X138778173Y-129859387D01*
X138750750Y-129751096D01*
X138750747Y-129751089D01*
X138736189Y-129717901D01*
X138656984Y-129537331D01*
X138640607Y-129512264D01*
X138529314Y-129341916D01*
X138371225Y-129170186D01*
X138371221Y-129170182D01*
X138230868Y-129060941D01*
X138187017Y-129026810D01*
X137981727Y-128915713D01*
X137981724Y-128915712D01*
X137981723Y-128915711D01*
X137760955Y-128839921D01*
X137760948Y-128839919D01*
X137662411Y-128823476D01*
X137530712Y-128801500D01*
X137297288Y-128801500D01*
X137182066Y-128820727D01*
X137067051Y-128839919D01*
X137067044Y-128839921D01*
X136846276Y-128915711D01*
X136846273Y-128915713D01*
X136640985Y-129026809D01*
X136640983Y-129026810D01*
X136456778Y-129170182D01*
X136456774Y-129170186D01*
X136298685Y-129341916D01*
X136171015Y-129537331D01*
X136077252Y-129751089D01*
X136077249Y-129751096D01*
X136019950Y-129977366D01*
X136019949Y-129977372D01*
X136019949Y-129977374D01*
X136000673Y-130210000D01*
X134390000Y-130210000D01*
X134390000Y-98404000D01*
X136474501Y-98404000D01*
X136494461Y-98644887D01*
X136494463Y-98644896D01*
X136553795Y-98879193D01*
X136553798Y-98879200D01*
X136650889Y-99100545D01*
X136650891Y-99100549D01*
X136697723Y-99172230D01*
X136783095Y-99302902D01*
X136946792Y-99480725D01*
X136946797Y-99480729D01*
X136946799Y-99480731D01*
X137137541Y-99629191D01*
X137137542Y-99629192D01*
X137350119Y-99744233D01*
X137350121Y-99744234D01*
X137470150Y-99785439D01*
X137578732Y-99822716D01*
X137817145Y-99862500D01*
X137817149Y-99862500D01*
X138058851Y-99862500D01*
X138058855Y-99862500D01*
X138297268Y-99822716D01*
X138340137Y-99807999D01*
X175673449Y-99807999D01*
X175693622Y-100064325D01*
X175753644Y-100314338D01*
X175753645Y-100314340D01*
X175852040Y-100551887D01*
X175948901Y-100709950D01*
X175986385Y-100771117D01*
X175986386Y-100771119D01*
X176153368Y-100966631D01*
X176348880Y-101133613D01*
X176348884Y-101133616D01*
X176568113Y-101267960D01*
X176805660Y-101366355D01*
X177055674Y-101426378D01*
X177312000Y-101446551D01*
X177568326Y-101426378D01*
X177818340Y-101366355D01*
X178055887Y-101267960D01*
X178275116Y-101133616D01*
X178470631Y-100966631D01*
X178637616Y-100771116D01*
X178771960Y-100551887D01*
X178870355Y-100314340D01*
X178930378Y-100064326D01*
X178950551Y-99808000D01*
X178930378Y-99551674D01*
X178870355Y-99301660D01*
X178771960Y-99064113D01*
X178637616Y-98844884D01*
X178637613Y-98844880D01*
X178470631Y-98649368D01*
X178275119Y-98482386D01*
X178275117Y-98482385D01*
X178275116Y-98482384D01*
X178055887Y-98348040D01*
X177947832Y-98303282D01*
X177818338Y-98249644D01*
X177647310Y-98208584D01*
X177568326Y-98189622D01*
X177312000Y-98169449D01*
X177055674Y-98189622D01*
X176805661Y-98249644D01*
X176568114Y-98348039D01*
X176348882Y-98482385D01*
X176348880Y-98482386D01*
X176153368Y-98649368D01*
X175986386Y-98844880D01*
X175986385Y-98844882D01*
X175852039Y-99064114D01*
X175753644Y-99301661D01*
X175693622Y-99551674D01*
X175673449Y-99807999D01*
X138340137Y-99807999D01*
X138525881Y-99744233D01*
X138738458Y-99629192D01*
X138929201Y-99480731D01*
X139092906Y-99302900D01*
X139225109Y-99100549D01*
X139322203Y-98879197D01*
X139380403Y-98649369D01*
X139381536Y-98644896D01*
X139381538Y-98644887D01*
X139381539Y-98644884D01*
X139401499Y-98404000D01*
X139381539Y-98163116D01*
X139374472Y-98135210D01*
X139352371Y-98047935D01*
X140683669Y-98047935D01*
X140714135Y-98220711D01*
X140726616Y-98249645D01*
X140783624Y-98381807D01*
X140888387Y-98522527D01*
X140888389Y-98522528D01*
X140888390Y-98522530D01*
X140944268Y-98569417D01*
X141022784Y-98635301D01*
X141022786Y-98635302D01*
X141179567Y-98714040D01*
X141350279Y-98754500D01*
X141350281Y-98754500D01*
X141481712Y-98754500D01*
X141579618Y-98743055D01*
X141612255Y-98739241D01*
X141777117Y-98679237D01*
X141923696Y-98582830D01*
X142044092Y-98455218D01*
X142131812Y-98303281D01*
X142182130Y-98135210D01*
X142192331Y-97960065D01*
X142161865Y-97787289D01*
X142092377Y-97626196D01*
X142092376Y-97626195D01*
X142092375Y-97626192D01*
X141987612Y-97485472D01*
X141986533Y-97484567D01*
X141947020Y-97451411D01*
X141853215Y-97372698D01*
X141696434Y-97293960D01*
X141633152Y-97278962D01*
X141525721Y-97253500D01*
X141394291Y-97253500D01*
X141394288Y-97253500D01*
X141263745Y-97268758D01*
X141263743Y-97268759D01*
X141098887Y-97328761D01*
X141098874Y-97328768D01*
X140952306Y-97425167D01*
X140831909Y-97552780D01*
X140831906Y-97552784D01*
X140744188Y-97704717D01*
X140693870Y-97872791D01*
X140685413Y-98018000D01*
X140683669Y-98047935D01*
X139352371Y-98047935D01*
X139322204Y-97928806D01*
X139322201Y-97928799D01*
X139251600Y-97767845D01*
X139225109Y-97707451D01*
X139092906Y-97505100D01*
X139092905Y-97505099D01*
X139092904Y-97505097D01*
X138929207Y-97327274D01*
X138909462Y-97311906D01*
X138738458Y-97178808D01*
X138738457Y-97178807D01*
X138525880Y-97063766D01*
X138525878Y-97063765D01*
X138297272Y-96985285D01*
X138297265Y-96985283D01*
X138195230Y-96968256D01*
X138058855Y-96945500D01*
X137817145Y-96945500D01*
X137697832Y-96965409D01*
X137578734Y-96985283D01*
X137578727Y-96985285D01*
X137350121Y-97063765D01*
X137350119Y-97063766D01*
X137137542Y-97178807D01*
X137137541Y-97178808D01*
X136946792Y-97327274D01*
X136783095Y-97505097D01*
X136650889Y-97707454D01*
X136553798Y-97928799D01*
X136553795Y-97928806D01*
X136494463Y-98163103D01*
X136494461Y-98163112D01*
X136474501Y-98404000D01*
X134390000Y-98404000D01*
X134390000Y-96138000D01*
X134410002Y-96069879D01*
X134463658Y-96023386D01*
X134516000Y-96012000D01*
X146686000Y-96012000D01*
X146754121Y-96032002D01*
G37*
%TD.AperFunction*%
%TA.AperFunction,Conductor*%
G36*
X171678457Y-127038838D02*
G01*
X171723694Y-127091044D01*
X171730551Y-127105750D01*
X171741976Y-127130250D01*
X171873301Y-127317801D01*
X172035199Y-127479699D01*
X172222750Y-127611024D01*
X172430256Y-127707785D01*
X172651412Y-127767044D01*
X172879499Y-127786999D01*
X173107586Y-127767044D01*
X173328742Y-127707785D01*
X173536248Y-127611024D01*
X173698362Y-127497509D01*
X173765632Y-127474823D01*
X173834493Y-127492108D01*
X173859725Y-127511629D01*
X179829093Y-133480997D01*
X179863119Y-133543309D01*
X179865998Y-133570092D01*
X179865998Y-140494107D01*
X179845996Y-140562228D01*
X179812269Y-140597320D01*
X179655202Y-140707300D01*
X179655196Y-140707305D01*
X179493303Y-140869198D01*
X179493298Y-140869204D01*
X179361974Y-141056753D01*
X179343417Y-141096550D01*
X179296500Y-141149834D01*
X179228223Y-141169295D01*
X179160263Y-141148753D01*
X179115029Y-141096550D01*
X179096588Y-141057004D01*
X178965314Y-140869526D01*
X178965309Y-140869520D01*
X178803479Y-140707690D01*
X178803473Y-140707685D01*
X178615995Y-140576411D01*
X178531491Y-140537006D01*
X178478207Y-140490089D01*
X178458746Y-140421812D01*
X178479288Y-140353852D01*
X178531491Y-140308617D01*
X178597176Y-140277989D01*
X178779280Y-140150478D01*
X178936476Y-139993282D01*
X179063987Y-139811178D01*
X179157939Y-139609697D01*
X179215477Y-139394964D01*
X179234852Y-139173501D01*
X179215477Y-138952038D01*
X179157939Y-138737305D01*
X179063987Y-138535825D01*
X178936476Y-138353720D01*
X178779280Y-138196524D01*
X178779276Y-138196521D01*
X178779271Y-138196517D01*
X178597176Y-138069013D01*
X178597174Y-138069012D01*
X178395698Y-137975062D01*
X178395692Y-137975060D01*
X178353573Y-137963774D01*
X178180962Y-137917523D01*
X177959499Y-137898148D01*
X177959498Y-137898148D01*
X177898324Y-137903500D01*
X177738036Y-137917523D01*
X177657074Y-137939217D01*
X177523305Y-137975060D01*
X177523300Y-137975062D01*
X177321822Y-138069013D01*
X177139721Y-138196521D01*
X177139715Y-138196526D01*
X176982524Y-138353717D01*
X176982519Y-138353723D01*
X176855011Y-138535824D01*
X176767143Y-138724258D01*
X176761059Y-138737305D01*
X176703521Y-138952038D01*
X176684146Y-139173501D01*
X176703521Y-139394964D01*
X176749772Y-139567575D01*
X176761058Y-139609694D01*
X176761060Y-139609700D01*
X176855010Y-139811176D01*
X176855011Y-139811178D01*
X176982515Y-139993273D01*
X176982519Y-139993278D01*
X176982522Y-139993282D01*
X177139718Y-140150478D01*
X177139722Y-140150481D01*
X177139726Y-140150484D01*
X177214211Y-140202639D01*
X177321822Y-140277989D01*
X177321823Y-140277989D01*
X177321827Y-140277992D01*
X177387504Y-140308617D01*
X177440790Y-140355534D01*
X177460251Y-140423811D01*
X177439710Y-140491771D01*
X177387506Y-140537006D01*
X177303002Y-140576411D01*
X177115524Y-140707685D01*
X177115518Y-140707690D01*
X176953688Y-140869520D01*
X176953683Y-140869526D01*
X176822409Y-141057005D01*
X176803967Y-141096552D01*
X176757049Y-141149836D01*
X176688771Y-141169295D01*
X176620812Y-141148751D01*
X176575579Y-141096548D01*
X176557140Y-141057005D01*
X176557022Y-141056752D01*
X176425697Y-140869201D01*
X176263799Y-140707303D01*
X176240497Y-140690987D01*
X176076248Y-140575978D01*
X175868745Y-140479218D01*
X175868739Y-140479216D01*
X175775270Y-140454171D01*
X175647586Y-140419958D01*
X175419499Y-140400003D01*
X175191412Y-140419958D01*
X174970258Y-140479216D01*
X174970252Y-140479218D01*
X174762749Y-140575978D01*
X174575202Y-140707300D01*
X174575196Y-140707305D01*
X174413303Y-140869198D01*
X174413298Y-140869204D01*
X174281976Y-141056751D01*
X174263694Y-141095958D01*
X174216777Y-141149243D01*
X174148500Y-141168704D01*
X174080540Y-141148162D01*
X174035304Y-141095958D01*
X174028363Y-141081073D01*
X174017022Y-141056752D01*
X173885697Y-140869201D01*
X173723799Y-140707303D01*
X173700497Y-140690987D01*
X173536248Y-140575978D01*
X173328745Y-140479218D01*
X173328739Y-140479216D01*
X173235270Y-140454171D01*
X173107586Y-140419958D01*
X172879499Y-140400003D01*
X172651412Y-140419958D01*
X172430258Y-140479216D01*
X172430252Y-140479218D01*
X172222749Y-140575978D01*
X172035202Y-140707300D01*
X172035196Y-140707305D01*
X171873303Y-140869198D01*
X171873298Y-140869204D01*
X171741976Y-141056751D01*
X171723694Y-141095958D01*
X171676777Y-141149243D01*
X171608500Y-141168704D01*
X171540540Y-141148162D01*
X171495304Y-141095958D01*
X171488363Y-141081073D01*
X171477022Y-141056752D01*
X171345697Y-140869201D01*
X171183799Y-140707303D01*
X171160497Y-140690987D01*
X170996248Y-140575978D01*
X170788745Y-140479218D01*
X170788739Y-140479216D01*
X170695270Y-140454171D01*
X170567586Y-140419958D01*
X170339499Y-140400003D01*
X170111412Y-140419958D01*
X169890258Y-140479216D01*
X169890252Y-140479218D01*
X169682749Y-140575978D01*
X169495202Y-140707300D01*
X169495196Y-140707305D01*
X169333303Y-140869198D01*
X169333298Y-140869204D01*
X169201976Y-141056751D01*
X169183694Y-141095958D01*
X169136777Y-141149243D01*
X169068500Y-141168704D01*
X169000540Y-141148162D01*
X168955304Y-141095958D01*
X168948363Y-141081073D01*
X168937022Y-141056752D01*
X168805697Y-140869201D01*
X168643799Y-140707303D01*
X168620497Y-140690987D01*
X168456248Y-140575978D01*
X168248745Y-140479218D01*
X168248739Y-140479216D01*
X168155270Y-140454171D01*
X168027586Y-140419958D01*
X167799499Y-140400003D01*
X167571412Y-140419958D01*
X167350258Y-140479216D01*
X167350252Y-140479218D01*
X167142749Y-140575978D01*
X166955202Y-140707300D01*
X166955196Y-140707305D01*
X166793303Y-140869198D01*
X166793298Y-140869204D01*
X166661976Y-141056751D01*
X166643694Y-141095958D01*
X166596777Y-141149243D01*
X166528500Y-141168704D01*
X166460540Y-141148162D01*
X166415304Y-141095958D01*
X166408363Y-141081073D01*
X166397022Y-141056752D01*
X166265697Y-140869201D01*
X166103799Y-140707303D01*
X166080497Y-140690987D01*
X165916248Y-140575978D01*
X165708745Y-140479218D01*
X165708739Y-140479216D01*
X165615270Y-140454171D01*
X165487586Y-140419958D01*
X165259499Y-140400003D01*
X165259498Y-140400003D01*
X165227982Y-140402760D01*
X165203320Y-140404917D01*
X165133716Y-140390928D01*
X165082724Y-140341529D01*
X165066534Y-140272403D01*
X165090287Y-140205497D01*
X165103231Y-140190316D01*
X165914646Y-139378902D01*
X165976956Y-139344879D01*
X166003739Y-139342000D01*
X167806488Y-139342000D01*
X167814719Y-139342540D01*
X167827049Y-139344162D01*
X167850500Y-139347250D01*
X167890380Y-139342000D01*
X167890385Y-139342000D01*
X167968291Y-139331743D01*
X167989957Y-139328891D01*
X167989957Y-139328892D01*
X167989961Y-139328890D01*
X168009351Y-139326338D01*
X168157376Y-139265024D01*
X168252572Y-139191977D01*
X168252572Y-139191976D01*
X168260791Y-139185670D01*
X168260800Y-139185662D01*
X168284487Y-139167487D01*
X168306465Y-139138844D01*
X168311884Y-139132663D01*
X168821160Y-138623387D01*
X168827341Y-138617966D01*
X168855987Y-138595987D01*
X168874163Y-138572298D01*
X168874170Y-138572291D01*
X168902152Y-138535825D01*
X168953524Y-138468876D01*
X169014838Y-138320851D01*
X169027294Y-138226234D01*
X169030500Y-138201885D01*
X169030500Y-138201879D01*
X169035750Y-138162000D01*
X169031040Y-138126219D01*
X169030500Y-138117988D01*
X169030500Y-135590290D01*
X169050502Y-135522169D01*
X169062860Y-135505983D01*
X169161040Y-135396944D01*
X169256527Y-135231556D01*
X169315542Y-135049928D01*
X169335504Y-134860000D01*
X169315542Y-134670072D01*
X169256527Y-134488444D01*
X169161040Y-134323056D01*
X169161038Y-134323054D01*
X169161034Y-134323048D01*
X169033255Y-134181135D01*
X168878752Y-134068882D01*
X168704288Y-133991206D01*
X168517487Y-133951500D01*
X168326513Y-133951500D01*
X168139711Y-133991206D01*
X167965247Y-134068882D01*
X167833561Y-134164558D01*
X167766693Y-134188417D01*
X167697541Y-134172336D01*
X167648061Y-134121422D01*
X167633500Y-134062622D01*
X167633500Y-132525011D01*
X167634040Y-132516779D01*
X167638750Y-132481000D01*
X167638750Y-132480999D01*
X167633500Y-132441121D01*
X167633500Y-132441120D01*
X167633500Y-132441115D01*
X167617838Y-132322150D01*
X167598920Y-132276476D01*
X167556524Y-132174124D01*
X167556521Y-132174120D01*
X167483477Y-132078928D01*
X167458991Y-132047017D01*
X167458987Y-132047013D01*
X167451250Y-132041076D01*
X167430338Y-132025029D01*
X167424141Y-132019593D01*
X163978144Y-128573595D01*
X163944118Y-128511283D01*
X163949183Y-128440467D01*
X163991730Y-128383632D01*
X164058250Y-128358821D01*
X164067239Y-128358500D01*
X169018988Y-128358500D01*
X169027219Y-128359040D01*
X169039549Y-128360662D01*
X169063000Y-128363750D01*
X169102880Y-128358500D01*
X169102885Y-128358500D01*
X169180791Y-128348243D01*
X169202457Y-128345391D01*
X169202457Y-128345392D01*
X169202461Y-128345390D01*
X169221851Y-128342838D01*
X169369876Y-128281524D01*
X169465072Y-128208477D01*
X169465072Y-128208476D01*
X169473291Y-128202170D01*
X169473300Y-128202162D01*
X169496987Y-128183987D01*
X169518965Y-128155344D01*
X169524384Y-128149163D01*
X169898369Y-127775178D01*
X169960679Y-127741154D01*
X170020072Y-127742568D01*
X170111412Y-127767044D01*
X170339499Y-127786999D01*
X170567586Y-127767044D01*
X170788742Y-127707785D01*
X170996248Y-127611024D01*
X171183799Y-127479699D01*
X171345697Y-127317801D01*
X171477022Y-127130250D01*
X171495303Y-127091044D01*
X171542220Y-127037759D01*
X171610497Y-127018297D01*
X171678457Y-127038838D01*
G37*
%TD.AperFunction*%
%TA.AperFunction,Conductor*%
G36*
X156438457Y-127038838D02*
G01*
X156483694Y-127091044D01*
X156490551Y-127105750D01*
X156501976Y-127130250D01*
X156633301Y-127317801D01*
X156795199Y-127479699D01*
X156982750Y-127611024D01*
X157190256Y-127707785D01*
X157411412Y-127767044D01*
X157639499Y-127786999D01*
X157867586Y-127767044D01*
X157945519Y-127746161D01*
X158016491Y-127747849D01*
X158067223Y-127778772D01*
X159237605Y-128949154D01*
X159243037Y-128955348D01*
X159258959Y-128976098D01*
X159265014Y-128983988D01*
X159294425Y-129006556D01*
X159294459Y-129006583D01*
X159392122Y-129081523D01*
X159392124Y-129081524D01*
X159453438Y-129106920D01*
X159540150Y-129142838D01*
X159659115Y-129158500D01*
X159659122Y-129158500D01*
X159699000Y-129163750D01*
X159699000Y-129163749D01*
X159699001Y-129163750D01*
X159734781Y-129159040D01*
X159743012Y-129158500D01*
X162027761Y-129158500D01*
X162095882Y-129178502D01*
X162116856Y-129195405D01*
X165944595Y-133023144D01*
X165978621Y-133085456D01*
X165981500Y-133112239D01*
X165981500Y-134780257D01*
X165961498Y-134848378D01*
X165944593Y-134869355D01*
X165925844Y-134888102D01*
X165919646Y-134893539D01*
X165891012Y-134915511D01*
X165865520Y-134948729D01*
X165865440Y-134948837D01*
X165856818Y-134960072D01*
X165799482Y-135001941D01*
X165728611Y-135006165D01*
X165666707Y-134971402D01*
X165633424Y-134908690D01*
X165631647Y-134869260D01*
X165632296Y-134863501D01*
X165627896Y-134824450D01*
X165627500Y-134817391D01*
X165627500Y-134542500D01*
X164548500Y-134542500D01*
X164548500Y-135621500D01*
X164823391Y-135621500D01*
X164830450Y-135621896D01*
X164869500Y-135626295D01*
X164908550Y-135621896D01*
X164915609Y-135621500D01*
X165168085Y-135621500D01*
X165168097Y-135621499D01*
X165228593Y-135614994D01*
X165365464Y-135563944D01*
X165365465Y-135563944D01*
X165482403Y-135476404D01*
X165489630Y-135466751D01*
X165546465Y-135424204D01*
X165617281Y-135419138D01*
X165679594Y-135453163D01*
X165713619Y-135515475D01*
X165716499Y-135542259D01*
X165716499Y-135946351D01*
X165696497Y-136014472D01*
X165642841Y-136060965D01*
X165616697Y-136069597D01*
X165536215Y-136086704D01*
X165361747Y-136164382D01*
X165207244Y-136276635D01*
X165079465Y-136418548D01*
X165079458Y-136418558D01*
X164983976Y-136583938D01*
X164983973Y-136583945D01*
X164924957Y-136765572D01*
X164904996Y-136955499D01*
X164924957Y-137145427D01*
X164934435Y-137174596D01*
X164983973Y-137327056D01*
X164983976Y-137327061D01*
X165053229Y-137447011D01*
X165069967Y-137516006D01*
X165046747Y-137583098D01*
X164990940Y-137626985D01*
X164944110Y-137636011D01*
X163692508Y-137636011D01*
X163684276Y-137635471D01*
X163648490Y-137630760D01*
X163648489Y-137630760D01*
X163489639Y-137651672D01*
X163341614Y-137712986D01*
X163341606Y-137712991D01*
X163246636Y-137785866D01*
X163246593Y-137785898D01*
X163214500Y-137810524D01*
X163192524Y-137839164D01*
X163187086Y-137845364D01*
X160620629Y-140411820D01*
X160558317Y-140445846D01*
X160498923Y-140444432D01*
X160407586Y-140419958D01*
X160179499Y-140400003D01*
X159951412Y-140419958D01*
X159730258Y-140479216D01*
X159730252Y-140479218D01*
X159522749Y-140575978D01*
X159335202Y-140707300D01*
X159335196Y-140707305D01*
X159173303Y-140869198D01*
X159173298Y-140869204D01*
X159041976Y-141056751D01*
X159023694Y-141095958D01*
X158976777Y-141149243D01*
X158908500Y-141168704D01*
X158840540Y-141148162D01*
X158795304Y-141095958D01*
X158788363Y-141081073D01*
X158777022Y-141056752D01*
X158645697Y-140869201D01*
X158483799Y-140707303D01*
X158460497Y-140690987D01*
X158296248Y-140575978D01*
X158088745Y-140479218D01*
X158088739Y-140479216D01*
X157995270Y-140454171D01*
X157867586Y-140419958D01*
X157639499Y-140400003D01*
X157411412Y-140419958D01*
X157190258Y-140479216D01*
X157190252Y-140479218D01*
X156982749Y-140575978D01*
X156795202Y-140707300D01*
X156795196Y-140707305D01*
X156633303Y-140869198D01*
X156633298Y-140869204D01*
X156501976Y-141056751D01*
X156483694Y-141095958D01*
X156436777Y-141149243D01*
X156368500Y-141168704D01*
X156300540Y-141148162D01*
X156255304Y-141095958D01*
X156248363Y-141081073D01*
X156237022Y-141056752D01*
X156105697Y-140869201D01*
X155943799Y-140707303D01*
X155920497Y-140690987D01*
X155756248Y-140575978D01*
X155548745Y-140479218D01*
X155548739Y-140479216D01*
X155455270Y-140454171D01*
X155327586Y-140419958D01*
X155099499Y-140400003D01*
X154871412Y-140419958D01*
X154650258Y-140479216D01*
X154650252Y-140479218D01*
X154442749Y-140575978D01*
X154255202Y-140707300D01*
X154255196Y-140707305D01*
X154093303Y-140869198D01*
X154093298Y-140869204D01*
X153961976Y-141056751D01*
X153943694Y-141095958D01*
X153896777Y-141149243D01*
X153828500Y-141168704D01*
X153760540Y-141148162D01*
X153715304Y-141095958D01*
X153708363Y-141081073D01*
X153697022Y-141056752D01*
X153565697Y-140869201D01*
X153403799Y-140707303D01*
X153380497Y-140690987D01*
X153216248Y-140575978D01*
X153008745Y-140479218D01*
X153008739Y-140479216D01*
X152915270Y-140454171D01*
X152787586Y-140419958D01*
X152559499Y-140400003D01*
X152331412Y-140419958D01*
X152110258Y-140479216D01*
X152110252Y-140479218D01*
X151902749Y-140575978D01*
X151715202Y-140707300D01*
X151715196Y-140707305D01*
X151553303Y-140869198D01*
X151553298Y-140869204D01*
X151421976Y-141056751D01*
X151403694Y-141095958D01*
X151356777Y-141149243D01*
X151288500Y-141168704D01*
X151220540Y-141148162D01*
X151175304Y-141095958D01*
X151168363Y-141081073D01*
X151157022Y-141056752D01*
X151025697Y-140869201D01*
X150863799Y-140707303D01*
X150840497Y-140690987D01*
X150676248Y-140575978D01*
X150468745Y-140479218D01*
X150468739Y-140479216D01*
X150375270Y-140454171D01*
X150247586Y-140419958D01*
X150019499Y-140400003D01*
X149791412Y-140419958D01*
X149570258Y-140479216D01*
X149570248Y-140479220D01*
X149377749Y-140568983D01*
X149307558Y-140579644D01*
X149242745Y-140550664D01*
X149203889Y-140491244D01*
X149198500Y-140454788D01*
X149198500Y-135934010D01*
X149199040Y-135925778D01*
X149200383Y-135915566D01*
X149203750Y-135890000D01*
X149198500Y-135850122D01*
X149198500Y-135850115D01*
X149182838Y-135731150D01*
X149121524Y-135583125D01*
X149064146Y-135508349D01*
X149048477Y-135487928D01*
X149048474Y-135487925D01*
X149023987Y-135456013D01*
X149020273Y-135453163D01*
X148995346Y-135434035D01*
X148989153Y-135428604D01*
X148565308Y-135004759D01*
X148531282Y-134942447D01*
X148536347Y-134871632D01*
X148540622Y-134863499D01*
X162956704Y-134863499D01*
X162961104Y-134902549D01*
X162961500Y-134909608D01*
X162961500Y-135162097D01*
X162968005Y-135222593D01*
X163019055Y-135359464D01*
X163019055Y-135359465D01*
X163106595Y-135476404D01*
X163223534Y-135563944D01*
X163360406Y-135614994D01*
X163420902Y-135621499D01*
X163420915Y-135621500D01*
X163673391Y-135621500D01*
X163680450Y-135621896D01*
X163719500Y-135626295D01*
X163758550Y-135621896D01*
X163765609Y-135621500D01*
X164040500Y-135621500D01*
X164040500Y-134542500D01*
X162961500Y-134542500D01*
X162961500Y-134817391D01*
X162961104Y-134824450D01*
X162956704Y-134863499D01*
X148540622Y-134863499D01*
X148551191Y-134843392D01*
X148616586Y-134749999D01*
X148616587Y-134749998D01*
X148713310Y-134542574D01*
X148713312Y-134542569D01*
X148765581Y-134347501D01*
X147763533Y-134347501D01*
X147802870Y-134304770D01*
X147853947Y-134188324D01*
X147864448Y-134061603D01*
X147833233Y-133938339D01*
X147768659Y-133839501D01*
X148765581Y-133839501D01*
X148731819Y-133713499D01*
X162956704Y-133713499D01*
X162961104Y-133752549D01*
X162961500Y-133759608D01*
X162961500Y-134034500D01*
X164040500Y-134034500D01*
X164548500Y-134034500D01*
X165627500Y-134034500D01*
X165627500Y-133759608D01*
X165627896Y-133752549D01*
X165632295Y-133713499D01*
X165627896Y-133674450D01*
X165627500Y-133667391D01*
X165627500Y-133414914D01*
X165627499Y-133414902D01*
X165620994Y-133354406D01*
X165569944Y-133217535D01*
X165569944Y-133217534D01*
X165482404Y-133100595D01*
X165365465Y-133013055D01*
X165228593Y-132962005D01*
X165168097Y-132955500D01*
X164915609Y-132955500D01*
X164908550Y-132955104D01*
X164869500Y-132950704D01*
X164830450Y-132955104D01*
X164823391Y-132955500D01*
X164548500Y-132955500D01*
X164548500Y-134034500D01*
X164040500Y-134034500D01*
X164040500Y-132955500D01*
X163765609Y-132955500D01*
X163758550Y-132955104D01*
X163719500Y-132950704D01*
X163680450Y-132955104D01*
X163673391Y-132955500D01*
X163420902Y-132955500D01*
X163360406Y-132962005D01*
X163223535Y-133013055D01*
X163223534Y-133013055D01*
X163106595Y-133100595D01*
X163019055Y-133217534D01*
X163019055Y-133217535D01*
X162968005Y-133354406D01*
X162961500Y-133414902D01*
X162961500Y-133667391D01*
X162961104Y-133674450D01*
X162956704Y-133713499D01*
X148731819Y-133713499D01*
X148713312Y-133644432D01*
X148713310Y-133644427D01*
X148616586Y-133437002D01*
X148485314Y-133249526D01*
X148485309Y-133249520D01*
X148323479Y-133087690D01*
X148323473Y-133087685D01*
X148135996Y-132956412D01*
X148096448Y-132937970D01*
X148043164Y-132891052D01*
X148023704Y-132822774D01*
X148044247Y-132754815D01*
X148096449Y-132709582D01*
X148136248Y-132691024D01*
X148323799Y-132559699D01*
X148485697Y-132397801D01*
X148617022Y-132210250D01*
X148713783Y-132002744D01*
X148773042Y-131781588D01*
X148792997Y-131553501D01*
X148773042Y-131325414D01*
X148713783Y-131104258D01*
X148617022Y-130896752D01*
X148485697Y-130709201D01*
X148323799Y-130547303D01*
X148323795Y-130547300D01*
X148136246Y-130415976D01*
X148097040Y-130397694D01*
X148043755Y-130350777D01*
X148024295Y-130282499D01*
X148044837Y-130214540D01*
X148097041Y-130169306D01*
X148136248Y-130151024D01*
X148323799Y-130019699D01*
X148485697Y-129857801D01*
X148617022Y-129670250D01*
X148713783Y-129462744D01*
X148773042Y-129241588D01*
X148792997Y-129013501D01*
X148773042Y-128785414D01*
X148713783Y-128564258D01*
X148617022Y-128356752D01*
X148485697Y-128169201D01*
X148323799Y-128007303D01*
X148323795Y-128007300D01*
X148136246Y-127875976D01*
X148097040Y-127857694D01*
X148043755Y-127810777D01*
X148024295Y-127742499D01*
X148044837Y-127674540D01*
X148097041Y-127629306D01*
X148136248Y-127611024D01*
X148323799Y-127479699D01*
X148485697Y-127317801D01*
X148617022Y-127130250D01*
X148635303Y-127091044D01*
X148682220Y-127037759D01*
X148750497Y-127018297D01*
X148818457Y-127038838D01*
X148863694Y-127091044D01*
X148870551Y-127105750D01*
X148881976Y-127130250D01*
X149013301Y-127317801D01*
X149175199Y-127479699D01*
X149362750Y-127611024D01*
X149570256Y-127707785D01*
X149791412Y-127767044D01*
X150019499Y-127786999D01*
X150247586Y-127767044D01*
X150468742Y-127707785D01*
X150676248Y-127611024D01*
X150863799Y-127479699D01*
X151025697Y-127317801D01*
X151157022Y-127130250D01*
X151175303Y-127091044D01*
X151222220Y-127037759D01*
X151290497Y-127018297D01*
X151358457Y-127038838D01*
X151403694Y-127091044D01*
X151410551Y-127105750D01*
X151421976Y-127130250D01*
X151553301Y-127317801D01*
X151715199Y-127479699D01*
X151902750Y-127611024D01*
X152110256Y-127707785D01*
X152331412Y-127767044D01*
X152559499Y-127786999D01*
X152787586Y-127767044D01*
X153008742Y-127707785D01*
X153216248Y-127611024D01*
X153403799Y-127479699D01*
X153565697Y-127317801D01*
X153697022Y-127130250D01*
X153715303Y-127091044D01*
X153762220Y-127037759D01*
X153830497Y-127018297D01*
X153898457Y-127038838D01*
X153943694Y-127091044D01*
X153950551Y-127105750D01*
X153961976Y-127130250D01*
X154093301Y-127317801D01*
X154255199Y-127479699D01*
X154255202Y-127479701D01*
X154283719Y-127499669D01*
X154328047Y-127555126D01*
X154335356Y-127625745D01*
X154303326Y-127689106D01*
X154262699Y-127717988D01*
X154229248Y-127732882D01*
X154074744Y-127845135D01*
X153946965Y-127987048D01*
X153946958Y-127987058D01*
X153851687Y-128152073D01*
X153851473Y-128152444D01*
X153841224Y-128183987D01*
X153792457Y-128334072D01*
X153772496Y-128524000D01*
X153792457Y-128713927D01*
X153799257Y-128734854D01*
X153851473Y-128895556D01*
X153851476Y-128895561D01*
X153946958Y-129060941D01*
X153946965Y-129060951D01*
X154074744Y-129202864D01*
X154074747Y-129202866D01*
X154229248Y-129315118D01*
X154403712Y-129392794D01*
X154590513Y-129432500D01*
X154781487Y-129432500D01*
X154968288Y-129392794D01*
X155142752Y-129315118D01*
X155297253Y-129202866D01*
X155303971Y-129195405D01*
X155425034Y-129060951D01*
X155425035Y-129060949D01*
X155425040Y-129060944D01*
X155520527Y-128895556D01*
X155579542Y-128713928D01*
X155599504Y-128524000D01*
X155598699Y-128516342D01*
X155611471Y-128446504D01*
X155624046Y-128426468D01*
X155631023Y-128417377D01*
X155692337Y-128269352D01*
X155700351Y-128208477D01*
X155700352Y-128208474D01*
X155703575Y-128183987D01*
X155707999Y-128150386D01*
X155707999Y-128150380D01*
X155713249Y-128110501D01*
X155708539Y-128074720D01*
X155707999Y-128066489D01*
X155707999Y-127710400D01*
X155728001Y-127642279D01*
X155761728Y-127607187D01*
X155836078Y-127555126D01*
X155943799Y-127479699D01*
X156105697Y-127317801D01*
X156237022Y-127130250D01*
X156255303Y-127091044D01*
X156302220Y-127037759D01*
X156370497Y-127018297D01*
X156438457Y-127038838D01*
G37*
%TD.AperFunction*%
%TA.AperFunction,Conductor*%
G36*
X180753499Y-127781501D02*
G01*
X181348084Y-127781501D01*
X181348096Y-127781500D01*
X181408593Y-127774995D01*
X181459966Y-127755834D01*
X181530782Y-127750768D01*
X181593095Y-127784793D01*
X181627120Y-127847105D01*
X181630000Y-127873889D01*
X181630000Y-140689313D01*
X181609998Y-140757434D01*
X181556342Y-140803927D01*
X181486068Y-140814031D01*
X181421488Y-140784537D01*
X181414905Y-140778409D01*
X181393930Y-140757434D01*
X181343799Y-140707303D01*
X181343795Y-140707300D01*
X181186728Y-140597320D01*
X181142400Y-140541863D01*
X181132999Y-140494107D01*
X181132999Y-133339353D01*
X181134748Y-133323511D01*
X181134455Y-133323484D01*
X181135201Y-133315591D01*
X181133030Y-133246510D01*
X181132999Y-133244531D01*
X181132999Y-133215649D01*
X181132999Y-133215643D01*
X181132119Y-133208681D01*
X181131655Y-133202792D01*
X181130173Y-133155610D01*
X181124519Y-133136151D01*
X181120511Y-133116796D01*
X181117973Y-133096702D01*
X181100602Y-133052828D01*
X181098688Y-133047239D01*
X181085518Y-133001906D01*
X181075202Y-132984463D01*
X181066504Y-132966708D01*
X181059051Y-132947882D01*
X181031317Y-132909709D01*
X181028057Y-132904746D01*
X181004041Y-132864137D01*
X180989713Y-132849809D01*
X180976883Y-132834788D01*
X180964971Y-132818392D01*
X180964968Y-132818390D01*
X180964968Y-132818389D01*
X180928606Y-132788307D01*
X180924225Y-132784321D01*
X175981626Y-127841721D01*
X175947600Y-127779409D01*
X175952665Y-127708594D01*
X175995212Y-127651758D01*
X176017465Y-127638434D01*
X176076248Y-127611024D01*
X176263799Y-127479699D01*
X176425697Y-127317801D01*
X176557022Y-127130250D01*
X176575303Y-127091044D01*
X176622220Y-127037759D01*
X176690497Y-127018297D01*
X176758457Y-127038838D01*
X176803694Y-127091044D01*
X176810551Y-127105750D01*
X176821976Y-127130250D01*
X176953301Y-127317801D01*
X177115199Y-127479699D01*
X177302750Y-127611024D01*
X177510256Y-127707785D01*
X177731412Y-127767044D01*
X177959499Y-127786999D01*
X178187586Y-127767044D01*
X178408742Y-127707785D01*
X178616248Y-127611024D01*
X178803799Y-127479699D01*
X178965697Y-127317801D01*
X178968442Y-127313879D01*
X179023895Y-127269549D01*
X179094514Y-127262235D01*
X179157877Y-127294262D01*
X179193866Y-127355461D01*
X179196936Y-127372669D01*
X179198003Y-127382591D01*
X179198003Y-127382592D01*
X179249054Y-127519465D01*
X179249054Y-127519466D01*
X179336594Y-127636405D01*
X179453533Y-127723945D01*
X179590405Y-127774995D01*
X179650901Y-127781500D01*
X179650914Y-127781501D01*
X180245499Y-127781501D01*
X180245499Y-126785187D01*
X180261454Y-126801142D01*
X180374351Y-126858666D01*
X180468018Y-126873501D01*
X180530980Y-126873501D01*
X180624647Y-126858666D01*
X180737544Y-126801142D01*
X180753499Y-126785187D01*
X180753499Y-127781501D01*
G37*
%TD.AperFunction*%
%TA.AperFunction,Conductor*%
G36*
X138785443Y-121612546D02*
G01*
X138792744Y-121619292D01*
X141524605Y-124351154D01*
X141530037Y-124357348D01*
X141552014Y-124385988D01*
X141581425Y-124408556D01*
X141581459Y-124408583D01*
X141679117Y-124483519D01*
X141679124Y-124483524D01*
X141827149Y-124544838D01*
X141846543Y-124547391D01*
X141946115Y-124560500D01*
X141946120Y-124560500D01*
X141986000Y-124565750D01*
X142021781Y-124561040D01*
X142030012Y-124560500D01*
X142631858Y-124560500D01*
X142699979Y-124580502D01*
X142746472Y-124634158D01*
X142756576Y-124704432D01*
X142747245Y-124737114D01*
X142728705Y-124779380D01*
X142728702Y-124779387D01*
X142673437Y-124997624D01*
X142673436Y-124997630D01*
X142673436Y-124997632D01*
X142654844Y-125222000D01*
X142671875Y-125427535D01*
X142673437Y-125446375D01*
X142728702Y-125664612D01*
X142728705Y-125664619D01*
X142747245Y-125706886D01*
X142756292Y-125777304D01*
X142725831Y-125841434D01*
X142665535Y-125878916D01*
X142631858Y-125883500D01*
X138988239Y-125883500D01*
X138920118Y-125863498D01*
X138899144Y-125846595D01*
X138763053Y-125710504D01*
X138729027Y-125648192D01*
X138734092Y-125577377D01*
X138736753Y-125570812D01*
X138750749Y-125538907D01*
X138808051Y-125312626D01*
X138827327Y-125080000D01*
X138808051Y-124847374D01*
X138781725Y-124743416D01*
X138750750Y-124621096D01*
X138750747Y-124621089D01*
X138656984Y-124407331D01*
X138529314Y-124211916D01*
X138371225Y-124040186D01*
X138371221Y-124040182D01*
X138267979Y-123959826D01*
X138203232Y-123909430D01*
X138161762Y-123851807D01*
X138158028Y-123780908D01*
X138193218Y-123719246D01*
X138203232Y-123710569D01*
X138371220Y-123579818D01*
X138372190Y-123578765D01*
X138529314Y-123408083D01*
X138640889Y-123237304D01*
X138656984Y-123212669D01*
X138750749Y-122998907D01*
X138808051Y-122772626D01*
X138827327Y-122540000D01*
X138808051Y-122307374D01*
X138770961Y-122160908D01*
X138750750Y-122081096D01*
X138750747Y-122081089D01*
X138726473Y-122025751D01*
X138656984Y-121867331D01*
X138598166Y-121777303D01*
X138577653Y-121709335D01*
X138597142Y-121641066D01*
X138650447Y-121594171D01*
X138720643Y-121583539D01*
X138785443Y-121612546D01*
G37*
%TD.AperFunction*%
%TD*%
M02*
