M48
INCH
T1C0.0079
T2C0.0157
T3C0.0300
T4C0.0315
T5C0.0354
T6C0.0354
T7C0.0390
T8C0.0394
T9C0.0472
T10C0.0512
T11C0.0591
T12C0.0906
%
G90
G05
T1
X6.4456Y-5.2643
X6.4456Y-5.3096
X6.4909Y-5.2643
X6.4909Y-5.3096
T2
X5.5Y-4.37
X5.5Y-4.73
X5.52Y-4.93
X5.53Y-4.57
X5.58Y-5.48
X5.59Y-4.18
X5.62Y-5.65
X5.73Y-4.32
X5.94Y-5.48
X5.97Y-5.32
X6.0175Y-4.5001
X6.02Y-5.26
X6.0775Y-4.47
X6.08Y-4.79
X6.09Y-5.06
X6.1275Y-4.3001
X6.1775Y-4.5701
X6.1875Y-4.2301
X6.21Y-4.8
X6.2516Y-5.6713
X6.2675Y-4.5601
X6.2775Y-4.5101
X6.28Y-5.48
X6.3175Y-4.3001
X6.3508Y-5.2194
X6.4075Y-4.6101
X6.43Y-3.81
X6.49Y-5.07
X6.5283Y-5.3919
X6.5375Y-4.2401
X6.5758Y-5.3419
X6.5826Y-5.42
X6.5875Y-4.5001
X6.5975Y-4.6201
X6.6208Y-4.4201
X6.6308Y-5.3094
X6.6408Y-5.1694
X6.65Y-4.06
X6.68Y-5.5
X6.7408Y-5.1194
X6.83Y-4.15
X6.93Y-5.33
X6.93Y-5.49
X6.99Y-5.21
X7.04Y-5.11
X7.06Y-5.27
T3
X5.8063Y-5.0793
X5.8063Y-5.1793
X5.8063Y-5.2793
X5.8063Y-5.3793
X5.8063Y-5.4793
X7.0063Y-5.4793
T4
X5.8063Y-4.9793
X5.8063Y-5.5793
X5.9063Y-4.9793
X5.9063Y-5.5793
X6.0063Y-4.9793
X6.0063Y-5.5793
X6.1063Y-4.9793
X6.1063Y-5.5793
X6.2063Y-4.9793
X6.2063Y-5.5793
X6.3063Y-4.9793
X6.3063Y-5.5793
X6.4063Y-4.9793
X6.4063Y-5.5793
X6.5063Y-4.9793
X6.5063Y-5.5793
X6.6063Y-4.9793
X6.6063Y-5.5793
X6.7063Y-4.9793
X6.7063Y-5.5793
X6.8063Y-4.9793
X6.8063Y-5.5793
X6.9063Y-4.9793
X6.9063Y-5.5793
X7.0063Y-4.9793
X7.0063Y-5.5793
X7.1063Y-4.9793
X7.1063Y-5.5793
T5
X6.7243Y-4.4106
X6.7243Y-4.6744
X6.8224Y-4.4106
X6.8224Y-4.4913
X6.8224Y-4.5937
X6.8224Y-4.6744
T6
X5.4094Y-4.3701
X5.4094Y-4.4701
X5.4094Y-4.5701
X5.41Y-4.07
X5.41Y-4.17
X5.41Y-4.7244
X5.41Y-4.8244
X5.41Y-4.9244
X5.41Y-5.1264
X5.41Y-5.2264
T7
X5.42Y-5.3828
X5.42Y-5.56
T8
X5.67Y-4.43
X5.67Y-4.53
X5.67Y-4.63
X5.67Y-4.73
X5.67Y-4.83
X5.67Y-4.93
X5.67Y-5.03
X5.67Y-5.13
X5.67Y-5.23
X5.8996Y-4.66
X5.9996Y-4.66
X6.0996Y-4.66
X6.1996Y-4.66
X6.46Y-4.77
X6.56Y-4.77
T9
X5.4306Y-3.6458
X5.4306Y-3.8742
X5.7259Y-3.6714
X5.7259Y-3.8486
T10
X5.518Y-5.3332
X5.518Y-5.6092
T11
X6.8808Y-3.8294
X6.8808Y-4.0294
X6.9808Y-3.9294
X7.0808Y-3.8294
X7.0808Y-4.0294
T12
X6.9405Y-4.2764
X6.9405Y-4.8086
X6.9724Y-4.5425
T0
M30
