%TF.GenerationSoftware,KiCad,Pcbnew,7.0.5*%
%TF.CreationDate,2023-07-30T11:04:12+02:00*%
%TF.ProjectId,TeensyRPR,5465656e-7379-4525-9052-2e6b69636164,rev?*%
%TF.SameCoordinates,Original*%
%TF.FileFunction,Legend,Top*%
%TF.FilePolarity,Positive*%
%FSLAX46Y46*%
G04 Gerber Fmt 4.6, Leading zero omitted, Abs format (unit mm)*
G04 Created by KiCad (PCBNEW 7.0.5) date 2023-07-30 11:04:12*
%MOMM*%
%LPD*%
G01*
G04 APERTURE LIST*
G04 Aperture macros list*
%AMRoundRect*
0 Rectangle with rounded corners*
0 $1 Rounding radius*
0 $2 $3 $4 $5 $6 $7 $8 $9 X,Y pos of 4 corners*
0 Add a 4 corners polygon primitive as box body*
4,1,4,$2,$3,$4,$5,$6,$7,$8,$9,$2,$3,0*
0 Add four circle primitives for the rounded corners*
1,1,$1+$1,$2,$3*
1,1,$1+$1,$4,$5*
1,1,$1+$1,$6,$7*
1,1,$1+$1,$8,$9*
0 Add four rect primitives between the rounded corners*
20,1,$1+$1,$2,$3,$4,$5,0*
20,1,$1+$1,$4,$5,$6,$7,0*
20,1,$1+$1,$6,$7,$8,$9,0*
20,1,$1+$1,$8,$9,$2,$3,0*%
G04 Aperture macros list end*
%ADD10C,0.100000*%
%ADD11C,0.125000*%
%ADD12C,0.120000*%
%ADD13C,0.500380*%
%ADD14C,1.501140*%
%ADD15C,3.700780*%
%ADD16RoundRect,0.250000X0.650000X-0.325000X0.650000X0.325000X-0.650000X0.325000X-0.650000X-0.325000X0*%
%ADD17RoundRect,0.140000X-0.140000X-0.170000X0.140000X-0.170000X0.140000X0.170000X-0.140000X0.170000X0*%
%ADD18RoundRect,0.140000X-0.170000X0.140000X-0.170000X-0.140000X0.170000X-0.140000X0.170000X0.140000X0*%
%ADD19RoundRect,0.250000X-0.325000X-0.650000X0.325000X-0.650000X0.325000X0.650000X-0.325000X0.650000X0*%
%ADD20RoundRect,0.250000X0.250000X0.475000X-0.250000X0.475000X-0.250000X-0.475000X0.250000X-0.475000X0*%
%ADD21RoundRect,0.250000X0.475000X-0.250000X0.475000X0.250000X-0.475000X0.250000X-0.475000X-0.250000X0*%
%ADD22RoundRect,0.250000X-0.475000X0.250000X-0.475000X-0.250000X0.475000X-0.250000X0.475000X0.250000X0*%
%ADD23RoundRect,0.140000X0.170000X-0.140000X0.170000X0.140000X-0.170000X0.140000X-0.170000X-0.140000X0*%
%ADD24C,3.721100*%
%ADD25R,1.700000X1.700000*%
%ADD26O,1.700000X1.700000*%
%ADD27RoundRect,0.250000X-0.375000X-1.075000X0.375000X-1.075000X0.375000X1.075000X-0.375000X1.075000X0*%
%ADD28RoundRect,0.150000X-0.587500X-0.150000X0.587500X-0.150000X0.587500X0.150000X-0.587500X0.150000X0*%
%ADD29RoundRect,0.200000X-0.275000X0.200000X-0.275000X-0.200000X0.275000X-0.200000X0.275000X0.200000X0*%
%ADD30RoundRect,0.200000X-0.200000X-0.275000X0.200000X-0.275000X0.200000X0.275000X-0.200000X0.275000X0*%
%ADD31RoundRect,0.200000X0.200000X0.275000X-0.200000X0.275000X-0.200000X-0.275000X0.200000X-0.275000X0*%
%ADD32RoundRect,0.150000X-0.150000X0.587500X-0.150000X-0.587500X0.150000X-0.587500X0.150000X0.587500X0*%
%ADD33R,1.600000X1.600000*%
%ADD34O,1.600000X1.600000*%
%ADD35C,1.524000*%
%ADD36RoundRect,0.200000X0.275000X-0.200000X0.275000X0.200000X-0.275000X0.200000X-0.275000X-0.200000X0*%
%ADD37RoundRect,0.050000X-0.050000X0.375000X-0.050000X-0.375000X0.050000X-0.375000X0.050000X0.375000X0*%
%ADD38RoundRect,0.050000X-0.375000X0.050000X-0.375000X-0.050000X0.375000X-0.050000X0.375000X0.050000X0*%
%ADD39R,1.650000X1.650000*%
%ADD40C,2.250000*%
%ADD41RoundRect,0.225000X-0.375000X0.225000X-0.375000X-0.225000X0.375000X-0.225000X0.375000X0.225000X0*%
%ADD42RoundRect,0.250000X-0.550000X1.500000X-0.550000X-1.500000X0.550000X-1.500000X0.550000X1.500000X0*%
%ADD43R,1.800000X1.800000*%
%ADD44C,1.800000*%
%ADD45C,2.100000*%
%ADD46C,1.750000*%
%ADD47RoundRect,0.112500X0.187500X0.112500X-0.187500X0.112500X-0.187500X-0.112500X0.187500X-0.112500X0*%
%ADD48RoundRect,0.112500X-0.187500X-0.112500X0.187500X-0.112500X0.187500X0.112500X-0.187500X0.112500X0*%
%ADD49C,1.000000*%
%ADD50R,1.900000X1.900000*%
%ADD51C,1.900000*%
%ADD52RoundRect,0.225000X0.225000X0.250000X-0.225000X0.250000X-0.225000X-0.250000X0.225000X-0.250000X0*%
%ADD53RoundRect,0.225000X-0.225000X-0.250000X0.225000X-0.250000X0.225000X0.250000X-0.225000X0.250000X0*%
%ADD54RoundRect,0.225000X-0.250000X0.225000X-0.250000X-0.225000X0.250000X-0.225000X0.250000X0.225000X0*%
%ADD55R,0.800000X2.700000*%
%ADD56RoundRect,0.150000X-0.512500X-0.150000X0.512500X-0.150000X0.512500X0.150000X-0.512500X0.150000X0*%
%ADD57RoundRect,0.225000X0.375000X-0.225000X0.375000X0.225000X-0.375000X0.225000X-0.375000X-0.225000X0*%
%ADD58RoundRect,0.250000X0.362500X1.075000X-0.362500X1.075000X-0.362500X-1.075000X0.362500X-1.075000X0*%
%ADD59RoundRect,0.147500X0.172500X-0.147500X0.172500X0.147500X-0.172500X0.147500X-0.172500X-0.147500X0*%
%ADD60RoundRect,0.200000X-0.700000X-0.200000X0.700000X-0.200000X0.700000X0.200000X-0.700000X0.200000X0*%
G04 APERTURE END LIST*
D10*
X135457509Y-115447046D02*
X135433700Y-115423237D01*
X135433700Y-115423237D02*
X135409890Y-115351808D01*
X135409890Y-115351808D02*
X135409890Y-115304189D01*
X135409890Y-115304189D02*
X135433700Y-115232761D01*
X135433700Y-115232761D02*
X135481319Y-115185142D01*
X135481319Y-115185142D02*
X135528938Y-115161332D01*
X135528938Y-115161332D02*
X135624176Y-115137523D01*
X135624176Y-115137523D02*
X135695604Y-115137523D01*
X135695604Y-115137523D02*
X135790842Y-115161332D01*
X135790842Y-115161332D02*
X135838461Y-115185142D01*
X135838461Y-115185142D02*
X135886080Y-115232761D01*
X135886080Y-115232761D02*
X135909890Y-115304189D01*
X135909890Y-115304189D02*
X135909890Y-115351808D01*
X135909890Y-115351808D02*
X135886080Y-115423237D01*
X135886080Y-115423237D02*
X135862271Y-115447046D01*
X135909890Y-115756570D02*
X135909890Y-115851808D01*
X135909890Y-115851808D02*
X135886080Y-115899427D01*
X135886080Y-115899427D02*
X135838461Y-115947046D01*
X135838461Y-115947046D02*
X135743223Y-115970856D01*
X135743223Y-115970856D02*
X135576557Y-115970856D01*
X135576557Y-115970856D02*
X135481319Y-115947046D01*
X135481319Y-115947046D02*
X135433700Y-115899427D01*
X135433700Y-115899427D02*
X135409890Y-115851808D01*
X135409890Y-115851808D02*
X135409890Y-115756570D01*
X135409890Y-115756570D02*
X135433700Y-115708951D01*
X135433700Y-115708951D02*
X135481319Y-115661332D01*
X135481319Y-115661332D02*
X135576557Y-115637523D01*
X135576557Y-115637523D02*
X135743223Y-115637523D01*
X135743223Y-115637523D02*
X135838461Y-115661332D01*
X135838461Y-115661332D02*
X135886080Y-115708951D01*
X135886080Y-115708951D02*
X135909890Y-115756570D01*
X135409890Y-116185142D02*
X135909890Y-116185142D01*
X135909890Y-116185142D02*
X135409890Y-116470856D01*
X135409890Y-116470856D02*
X135909890Y-116470856D01*
X135409890Y-116708952D02*
X135909890Y-116708952D01*
X135909890Y-116708952D02*
X135409890Y-116994666D01*
X135409890Y-116994666D02*
X135909890Y-116994666D01*
X135409890Y-110017810D02*
X135909890Y-110017810D01*
X135409890Y-110303524D02*
X135695604Y-110089239D01*
X135909890Y-110303524D02*
X135624176Y-110017810D01*
X135409890Y-110517810D02*
X135909890Y-110517810D01*
X135433700Y-110732096D02*
X135409890Y-110803524D01*
X135409890Y-110803524D02*
X135409890Y-110922572D01*
X135409890Y-110922572D02*
X135433700Y-110970191D01*
X135433700Y-110970191D02*
X135457509Y-110994000D01*
X135457509Y-110994000D02*
X135505128Y-111017810D01*
X135505128Y-111017810D02*
X135552747Y-111017810D01*
X135552747Y-111017810D02*
X135600366Y-110994000D01*
X135600366Y-110994000D02*
X135624176Y-110970191D01*
X135624176Y-110970191D02*
X135647985Y-110922572D01*
X135647985Y-110922572D02*
X135671795Y-110827334D01*
X135671795Y-110827334D02*
X135695604Y-110779715D01*
X135695604Y-110779715D02*
X135719414Y-110755905D01*
X135719414Y-110755905D02*
X135767033Y-110732096D01*
X135767033Y-110732096D02*
X135814652Y-110732096D01*
X135814652Y-110732096D02*
X135862271Y-110755905D01*
X135862271Y-110755905D02*
X135886080Y-110779715D01*
X135886080Y-110779715D02*
X135909890Y-110827334D01*
X135909890Y-110827334D02*
X135909890Y-110946381D01*
X135909890Y-110946381D02*
X135886080Y-111017810D01*
X135433700Y-111208286D02*
X135409890Y-111279714D01*
X135409890Y-111279714D02*
X135409890Y-111398762D01*
X135409890Y-111398762D02*
X135433700Y-111446381D01*
X135433700Y-111446381D02*
X135457509Y-111470190D01*
X135457509Y-111470190D02*
X135505128Y-111494000D01*
X135505128Y-111494000D02*
X135552747Y-111494000D01*
X135552747Y-111494000D02*
X135600366Y-111470190D01*
X135600366Y-111470190D02*
X135624176Y-111446381D01*
X135624176Y-111446381D02*
X135647985Y-111398762D01*
X135647985Y-111398762D02*
X135671795Y-111303524D01*
X135671795Y-111303524D02*
X135695604Y-111255905D01*
X135695604Y-111255905D02*
X135719414Y-111232095D01*
X135719414Y-111232095D02*
X135767033Y-111208286D01*
X135767033Y-111208286D02*
X135814652Y-111208286D01*
X135814652Y-111208286D02*
X135862271Y-111232095D01*
X135862271Y-111232095D02*
X135886080Y-111255905D01*
X135886080Y-111255905D02*
X135909890Y-111303524D01*
X135909890Y-111303524D02*
X135909890Y-111422571D01*
X135909890Y-111422571D02*
X135886080Y-111494000D01*
X135671795Y-102620000D02*
X135671795Y-102453333D01*
X135409890Y-102453333D02*
X135909890Y-102453333D01*
X135909890Y-102453333D02*
X135909890Y-102691428D01*
X135409890Y-102881904D02*
X135743223Y-102881904D01*
X135909890Y-102881904D02*
X135886080Y-102858095D01*
X135886080Y-102858095D02*
X135862271Y-102881904D01*
X135862271Y-102881904D02*
X135886080Y-102905714D01*
X135886080Y-102905714D02*
X135909890Y-102881904D01*
X135909890Y-102881904D02*
X135862271Y-102881904D01*
X135409890Y-103072380D02*
X135743223Y-103334285D01*
X135743223Y-103072380D02*
X135409890Y-103334285D01*
X135409890Y-124964095D02*
X135909890Y-124964095D01*
X135909890Y-124964095D02*
X135909890Y-125154571D01*
X135909890Y-125154571D02*
X135886080Y-125202190D01*
X135886080Y-125202190D02*
X135862271Y-125226000D01*
X135862271Y-125226000D02*
X135814652Y-125249809D01*
X135814652Y-125249809D02*
X135743223Y-125249809D01*
X135743223Y-125249809D02*
X135695604Y-125226000D01*
X135695604Y-125226000D02*
X135671795Y-125202190D01*
X135671795Y-125202190D02*
X135647985Y-125154571D01*
X135647985Y-125154571D02*
X135647985Y-124964095D01*
X135909890Y-125392667D02*
X135909890Y-125678381D01*
X135409890Y-125535524D02*
X135909890Y-125535524D01*
X135909890Y-125773619D02*
X135909890Y-126059333D01*
X135409890Y-125916476D02*
X135909890Y-125916476D01*
X148687503Y-121083704D02*
X148758931Y-121107514D01*
X148758931Y-121107514D02*
X148782741Y-121131323D01*
X148782741Y-121131323D02*
X148806550Y-121178942D01*
X148806550Y-121178942D02*
X148806550Y-121250371D01*
X148806550Y-121250371D02*
X148782741Y-121297990D01*
X148782741Y-121297990D02*
X148758931Y-121321800D01*
X148758931Y-121321800D02*
X148711312Y-121345609D01*
X148711312Y-121345609D02*
X148520836Y-121345609D01*
X148520836Y-121345609D02*
X148520836Y-120845609D01*
X148520836Y-120845609D02*
X148687503Y-120845609D01*
X148687503Y-120845609D02*
X148735122Y-120869419D01*
X148735122Y-120869419D02*
X148758931Y-120893228D01*
X148758931Y-120893228D02*
X148782741Y-120940847D01*
X148782741Y-120940847D02*
X148782741Y-120988466D01*
X148782741Y-120988466D02*
X148758931Y-121036085D01*
X148758931Y-121036085D02*
X148735122Y-121059895D01*
X148735122Y-121059895D02*
X148687503Y-121083704D01*
X148687503Y-121083704D02*
X148520836Y-121083704D01*
X149258931Y-121345609D02*
X149020836Y-121345609D01*
X149020836Y-121345609D02*
X149020836Y-120845609D01*
X149425598Y-121083704D02*
X149592265Y-121083704D01*
X149663693Y-121345609D02*
X149425598Y-121345609D01*
X149425598Y-121345609D02*
X149425598Y-120845609D01*
X149425598Y-120845609D02*
X149663693Y-120845609D01*
X150258931Y-121345609D02*
X150258931Y-120845609D01*
X150258931Y-121083704D02*
X150544645Y-121083704D01*
X150544645Y-121345609D02*
X150544645Y-120845609D01*
X151068455Y-121297990D02*
X151044646Y-121321800D01*
X151044646Y-121321800D02*
X150973217Y-121345609D01*
X150973217Y-121345609D02*
X150925598Y-121345609D01*
X150925598Y-121345609D02*
X150854170Y-121321800D01*
X150854170Y-121321800D02*
X150806551Y-121274180D01*
X150806551Y-121274180D02*
X150782741Y-121226561D01*
X150782741Y-121226561D02*
X150758932Y-121131323D01*
X150758932Y-121131323D02*
X150758932Y-121059895D01*
X150758932Y-121059895D02*
X150782741Y-120964657D01*
X150782741Y-120964657D02*
X150806551Y-120917038D01*
X150806551Y-120917038D02*
X150854170Y-120869419D01*
X150854170Y-120869419D02*
X150925598Y-120845609D01*
X150925598Y-120845609D02*
X150973217Y-120845609D01*
X150973217Y-120845609D02*
X151044646Y-120869419D01*
X151044646Y-120869419D02*
X151068455Y-120893228D01*
X151282741Y-121155133D02*
X151663694Y-121155133D01*
X151997027Y-120845609D02*
X152044646Y-120845609D01*
X152044646Y-120845609D02*
X152092265Y-120869419D01*
X152092265Y-120869419D02*
X152116075Y-120893228D01*
X152116075Y-120893228D02*
X152139884Y-120940847D01*
X152139884Y-120940847D02*
X152163694Y-121036085D01*
X152163694Y-121036085D02*
X152163694Y-121155133D01*
X152163694Y-121155133D02*
X152139884Y-121250371D01*
X152139884Y-121250371D02*
X152116075Y-121297990D01*
X152116075Y-121297990D02*
X152092265Y-121321800D01*
X152092265Y-121321800D02*
X152044646Y-121345609D01*
X152044646Y-121345609D02*
X151997027Y-121345609D01*
X151997027Y-121345609D02*
X151949408Y-121321800D01*
X151949408Y-121321800D02*
X151925599Y-121297990D01*
X151925599Y-121297990D02*
X151901789Y-121250371D01*
X151901789Y-121250371D02*
X151877980Y-121155133D01*
X151877980Y-121155133D02*
X151877980Y-121036085D01*
X151877980Y-121036085D02*
X151901789Y-120940847D01*
X151901789Y-120940847D02*
X151925599Y-120893228D01*
X151925599Y-120893228D02*
X151949408Y-120869419D01*
X151949408Y-120869419D02*
X151997027Y-120845609D01*
X152449408Y-121059895D02*
X152401789Y-121036085D01*
X152401789Y-121036085D02*
X152377979Y-121012276D01*
X152377979Y-121012276D02*
X152354170Y-120964657D01*
X152354170Y-120964657D02*
X152354170Y-120940847D01*
X152354170Y-120940847D02*
X152377979Y-120893228D01*
X152377979Y-120893228D02*
X152401789Y-120869419D01*
X152401789Y-120869419D02*
X152449408Y-120845609D01*
X152449408Y-120845609D02*
X152544646Y-120845609D01*
X152544646Y-120845609D02*
X152592265Y-120869419D01*
X152592265Y-120869419D02*
X152616074Y-120893228D01*
X152616074Y-120893228D02*
X152639884Y-120940847D01*
X152639884Y-120940847D02*
X152639884Y-120964657D01*
X152639884Y-120964657D02*
X152616074Y-121012276D01*
X152616074Y-121012276D02*
X152592265Y-121036085D01*
X152592265Y-121036085D02*
X152544646Y-121059895D01*
X152544646Y-121059895D02*
X152449408Y-121059895D01*
X152449408Y-121059895D02*
X152401789Y-121083704D01*
X152401789Y-121083704D02*
X152377979Y-121107514D01*
X152377979Y-121107514D02*
X152354170Y-121155133D01*
X152354170Y-121155133D02*
X152354170Y-121250371D01*
X152354170Y-121250371D02*
X152377979Y-121297990D01*
X152377979Y-121297990D02*
X152401789Y-121321800D01*
X152401789Y-121321800D02*
X152449408Y-121345609D01*
X152449408Y-121345609D02*
X152544646Y-121345609D01*
X152544646Y-121345609D02*
X152592265Y-121321800D01*
X152592265Y-121321800D02*
X152616074Y-121297990D01*
X152616074Y-121297990D02*
X152639884Y-121250371D01*
X152639884Y-121250371D02*
X152639884Y-121155133D01*
X152639884Y-121155133D02*
X152616074Y-121107514D01*
X152616074Y-121107514D02*
X152592265Y-121083704D01*
X152592265Y-121083704D02*
X152544646Y-121059895D01*
X161290572Y-92938895D02*
X161023905Y-92557942D01*
X160833429Y-92938895D02*
X160833429Y-92138895D01*
X160833429Y-92138895D02*
X161138191Y-92138895D01*
X161138191Y-92138895D02*
X161214381Y-92176990D01*
X161214381Y-92176990D02*
X161252476Y-92215085D01*
X161252476Y-92215085D02*
X161290572Y-92291276D01*
X161290572Y-92291276D02*
X161290572Y-92405561D01*
X161290572Y-92405561D02*
X161252476Y-92481752D01*
X161252476Y-92481752D02*
X161214381Y-92519847D01*
X161214381Y-92519847D02*
X161138191Y-92557942D01*
X161138191Y-92557942D02*
X160833429Y-92557942D01*
X161633429Y-92938895D02*
X161633429Y-92138895D01*
X161633429Y-92138895D02*
X161938191Y-92138895D01*
X161938191Y-92138895D02*
X162014381Y-92176990D01*
X162014381Y-92176990D02*
X162052476Y-92215085D01*
X162052476Y-92215085D02*
X162090572Y-92291276D01*
X162090572Y-92291276D02*
X162090572Y-92405561D01*
X162090572Y-92405561D02*
X162052476Y-92481752D01*
X162052476Y-92481752D02*
X162014381Y-92519847D01*
X162014381Y-92519847D02*
X161938191Y-92557942D01*
X161938191Y-92557942D02*
X161633429Y-92557942D01*
X162890572Y-92938895D02*
X162623905Y-92557942D01*
X162433429Y-92938895D02*
X162433429Y-92138895D01*
X162433429Y-92138895D02*
X162738191Y-92138895D01*
X162738191Y-92138895D02*
X162814381Y-92176990D01*
X162814381Y-92176990D02*
X162852476Y-92215085D01*
X162852476Y-92215085D02*
X162890572Y-92291276D01*
X162890572Y-92291276D02*
X162890572Y-92405561D01*
X162890572Y-92405561D02*
X162852476Y-92481752D01*
X162852476Y-92481752D02*
X162814381Y-92519847D01*
X162814381Y-92519847D02*
X162738191Y-92557942D01*
X162738191Y-92557942D02*
X162433429Y-92557942D01*
X163728667Y-92138895D02*
X164185810Y-92138895D01*
X163957238Y-92938895D02*
X163957238Y-92138895D01*
X164452477Y-92938895D02*
X164452477Y-92405561D01*
X164452477Y-92557942D02*
X164490572Y-92481752D01*
X164490572Y-92481752D02*
X164528667Y-92443657D01*
X164528667Y-92443657D02*
X164604858Y-92405561D01*
X164604858Y-92405561D02*
X164681048Y-92405561D01*
X165290572Y-92938895D02*
X165290572Y-92519847D01*
X165290572Y-92519847D02*
X165252477Y-92443657D01*
X165252477Y-92443657D02*
X165176286Y-92405561D01*
X165176286Y-92405561D02*
X165023905Y-92405561D01*
X165023905Y-92405561D02*
X164947715Y-92443657D01*
X165290572Y-92900800D02*
X165214381Y-92938895D01*
X165214381Y-92938895D02*
X165023905Y-92938895D01*
X165023905Y-92938895D02*
X164947715Y-92900800D01*
X164947715Y-92900800D02*
X164909619Y-92824609D01*
X164909619Y-92824609D02*
X164909619Y-92748419D01*
X164909619Y-92748419D02*
X164947715Y-92672228D01*
X164947715Y-92672228D02*
X165023905Y-92634133D01*
X165023905Y-92634133D02*
X165214381Y-92634133D01*
X165214381Y-92634133D02*
X165290572Y-92596038D01*
X166014382Y-92900800D02*
X165938191Y-92938895D01*
X165938191Y-92938895D02*
X165785810Y-92938895D01*
X165785810Y-92938895D02*
X165709620Y-92900800D01*
X165709620Y-92900800D02*
X165671525Y-92862704D01*
X165671525Y-92862704D02*
X165633429Y-92786514D01*
X165633429Y-92786514D02*
X165633429Y-92557942D01*
X165633429Y-92557942D02*
X165671525Y-92481752D01*
X165671525Y-92481752D02*
X165709620Y-92443657D01*
X165709620Y-92443657D02*
X165785810Y-92405561D01*
X165785810Y-92405561D02*
X165938191Y-92405561D01*
X165938191Y-92405561D02*
X166014382Y-92443657D01*
X166357239Y-92938895D02*
X166357239Y-92138895D01*
X166433429Y-92634133D02*
X166662001Y-92938895D01*
X166662001Y-92405561D02*
X166357239Y-92710323D01*
X167309620Y-92900800D02*
X167233429Y-92938895D01*
X167233429Y-92938895D02*
X167081048Y-92938895D01*
X167081048Y-92938895D02*
X167004858Y-92900800D01*
X167004858Y-92900800D02*
X166966762Y-92824609D01*
X166966762Y-92824609D02*
X166966762Y-92519847D01*
X166966762Y-92519847D02*
X167004858Y-92443657D01*
X167004858Y-92443657D02*
X167081048Y-92405561D01*
X167081048Y-92405561D02*
X167233429Y-92405561D01*
X167233429Y-92405561D02*
X167309620Y-92443657D01*
X167309620Y-92443657D02*
X167347715Y-92519847D01*
X167347715Y-92519847D02*
X167347715Y-92596038D01*
X167347715Y-92596038D02*
X166966762Y-92672228D01*
X167690572Y-92938895D02*
X167690572Y-92405561D01*
X167690572Y-92557942D02*
X167728667Y-92481752D01*
X167728667Y-92481752D02*
X167766762Y-92443657D01*
X167766762Y-92443657D02*
X167842953Y-92405561D01*
X167842953Y-92405561D02*
X167919143Y-92405561D01*
X168757238Y-92100800D02*
X168071524Y-93129371D01*
X168909619Y-92138895D02*
X169366762Y-92138895D01*
X169138190Y-92938895D02*
X169138190Y-92138895D01*
X169633429Y-92938895D02*
X169633429Y-92138895D01*
X169633429Y-92138895D02*
X170090572Y-92938895D01*
X170090572Y-92938895D02*
X170090572Y-92138895D01*
X170928667Y-92862704D02*
X170890571Y-92900800D01*
X170890571Y-92900800D02*
X170776286Y-92938895D01*
X170776286Y-92938895D02*
X170700095Y-92938895D01*
X170700095Y-92938895D02*
X170585809Y-92900800D01*
X170585809Y-92900800D02*
X170509619Y-92824609D01*
X170509619Y-92824609D02*
X170471524Y-92748419D01*
X170471524Y-92748419D02*
X170433428Y-92596038D01*
X170433428Y-92596038D02*
X170433428Y-92481752D01*
X170433428Y-92481752D02*
X170471524Y-92329371D01*
X170471524Y-92329371D02*
X170509619Y-92253180D01*
X170509619Y-92253180D02*
X170585809Y-92176990D01*
X170585809Y-92176990D02*
X170700095Y-92138895D01*
X170700095Y-92138895D02*
X170776286Y-92138895D01*
X170776286Y-92138895D02*
X170890571Y-92176990D01*
X170890571Y-92176990D02*
X170928667Y-92215085D01*
X161595332Y-93617371D02*
X161519141Y-93579276D01*
X161519141Y-93579276D02*
X161366760Y-93579276D01*
X161366760Y-93579276D02*
X161290570Y-93617371D01*
X161290570Y-93617371D02*
X161214379Y-93693561D01*
X161214379Y-93693561D02*
X161176284Y-93769752D01*
X161176284Y-93769752D02*
X161176284Y-93922133D01*
X161176284Y-93922133D02*
X161214379Y-93998323D01*
X161214379Y-93998323D02*
X161290570Y-94074514D01*
X161290570Y-94074514D02*
X161366760Y-94112609D01*
X161366760Y-94112609D02*
X161519141Y-94112609D01*
X161519141Y-94112609D02*
X161595332Y-94074514D01*
X161442951Y-93312609D02*
X161252475Y-93350704D01*
X161252475Y-93350704D02*
X161061998Y-93464990D01*
X161061998Y-93464990D02*
X160947713Y-93655466D01*
X160947713Y-93655466D02*
X160909617Y-93845942D01*
X160909617Y-93845942D02*
X160947713Y-94036419D01*
X160947713Y-94036419D02*
X161061998Y-94226895D01*
X161061998Y-94226895D02*
X161252475Y-94341180D01*
X161252475Y-94341180D02*
X161442951Y-94379276D01*
X161442951Y-94379276D02*
X161633427Y-94341180D01*
X161633427Y-94341180D02*
X161823903Y-94226895D01*
X161823903Y-94226895D02*
X161938189Y-94036419D01*
X161938189Y-94036419D02*
X161976284Y-93845942D01*
X161976284Y-93845942D02*
X161938189Y-93655466D01*
X161938189Y-93655466D02*
X161823903Y-93464990D01*
X161823903Y-93464990D02*
X161633427Y-93350704D01*
X161633427Y-93350704D02*
X161442951Y-93312609D01*
X162890570Y-93503085D02*
X162928666Y-93464990D01*
X162928666Y-93464990D02*
X163004856Y-93426895D01*
X163004856Y-93426895D02*
X163195332Y-93426895D01*
X163195332Y-93426895D02*
X163271523Y-93464990D01*
X163271523Y-93464990D02*
X163309618Y-93503085D01*
X163309618Y-93503085D02*
X163347713Y-93579276D01*
X163347713Y-93579276D02*
X163347713Y-93655466D01*
X163347713Y-93655466D02*
X163309618Y-93769752D01*
X163309618Y-93769752D02*
X162852475Y-94226895D01*
X162852475Y-94226895D02*
X163347713Y-94226895D01*
X163842952Y-93426895D02*
X163919142Y-93426895D01*
X163919142Y-93426895D02*
X163995333Y-93464990D01*
X163995333Y-93464990D02*
X164033428Y-93503085D01*
X164033428Y-93503085D02*
X164071523Y-93579276D01*
X164071523Y-93579276D02*
X164109618Y-93731657D01*
X164109618Y-93731657D02*
X164109618Y-93922133D01*
X164109618Y-93922133D02*
X164071523Y-94074514D01*
X164071523Y-94074514D02*
X164033428Y-94150704D01*
X164033428Y-94150704D02*
X163995333Y-94188800D01*
X163995333Y-94188800D02*
X163919142Y-94226895D01*
X163919142Y-94226895D02*
X163842952Y-94226895D01*
X163842952Y-94226895D02*
X163766761Y-94188800D01*
X163766761Y-94188800D02*
X163728666Y-94150704D01*
X163728666Y-94150704D02*
X163690571Y-94074514D01*
X163690571Y-94074514D02*
X163652475Y-93922133D01*
X163652475Y-93922133D02*
X163652475Y-93731657D01*
X163652475Y-93731657D02*
X163690571Y-93579276D01*
X163690571Y-93579276D02*
X163728666Y-93503085D01*
X163728666Y-93503085D02*
X163766761Y-93464990D01*
X163766761Y-93464990D02*
X163842952Y-93426895D01*
X164414380Y-93503085D02*
X164452476Y-93464990D01*
X164452476Y-93464990D02*
X164528666Y-93426895D01*
X164528666Y-93426895D02*
X164719142Y-93426895D01*
X164719142Y-93426895D02*
X164795333Y-93464990D01*
X164795333Y-93464990D02*
X164833428Y-93503085D01*
X164833428Y-93503085D02*
X164871523Y-93579276D01*
X164871523Y-93579276D02*
X164871523Y-93655466D01*
X164871523Y-93655466D02*
X164833428Y-93769752D01*
X164833428Y-93769752D02*
X164376285Y-94226895D01*
X164376285Y-94226895D02*
X164871523Y-94226895D01*
X165138190Y-93426895D02*
X165633428Y-93426895D01*
X165633428Y-93426895D02*
X165366762Y-93731657D01*
X165366762Y-93731657D02*
X165481047Y-93731657D01*
X165481047Y-93731657D02*
X165557238Y-93769752D01*
X165557238Y-93769752D02*
X165595333Y-93807847D01*
X165595333Y-93807847D02*
X165633428Y-93884038D01*
X165633428Y-93884038D02*
X165633428Y-94074514D01*
X165633428Y-94074514D02*
X165595333Y-94150704D01*
X165595333Y-94150704D02*
X165557238Y-94188800D01*
X165557238Y-94188800D02*
X165481047Y-94226895D01*
X165481047Y-94226895D02*
X165252476Y-94226895D01*
X165252476Y-94226895D02*
X165176285Y-94188800D01*
X165176285Y-94188800D02*
X165138190Y-94150704D01*
X166014381Y-94188800D02*
X166014381Y-94226895D01*
X166014381Y-94226895D02*
X165976286Y-94303085D01*
X165976286Y-94303085D02*
X165938190Y-94341180D01*
X166966762Y-94226895D02*
X166966762Y-93426895D01*
X166966762Y-93426895D02*
X167157238Y-93426895D01*
X167157238Y-93426895D02*
X167271524Y-93464990D01*
X167271524Y-93464990D02*
X167347714Y-93541180D01*
X167347714Y-93541180D02*
X167385809Y-93617371D01*
X167385809Y-93617371D02*
X167423905Y-93769752D01*
X167423905Y-93769752D02*
X167423905Y-93884038D01*
X167423905Y-93884038D02*
X167385809Y-94036419D01*
X167385809Y-94036419D02*
X167347714Y-94112609D01*
X167347714Y-94112609D02*
X167271524Y-94188800D01*
X167271524Y-94188800D02*
X167157238Y-94226895D01*
X167157238Y-94226895D02*
X166966762Y-94226895D01*
X167766762Y-94226895D02*
X167766762Y-93426895D01*
X167766762Y-93426895D02*
X168033428Y-93998323D01*
X168033428Y-93998323D02*
X168300095Y-93426895D01*
X168300095Y-93426895D02*
X168300095Y-94226895D01*
X169023905Y-93693561D02*
X169023905Y-94226895D01*
X168833429Y-93388800D02*
X168642952Y-93960228D01*
X168642952Y-93960228D02*
X169138191Y-93960228D01*
X169900096Y-94226895D02*
X169633429Y-93845942D01*
X169442953Y-94226895D02*
X169442953Y-93426895D01*
X169442953Y-93426895D02*
X169747715Y-93426895D01*
X169747715Y-93426895D02*
X169823905Y-93464990D01*
X169823905Y-93464990D02*
X169862000Y-93503085D01*
X169862000Y-93503085D02*
X169900096Y-93579276D01*
X169900096Y-93579276D02*
X169900096Y-93693561D01*
X169900096Y-93693561D02*
X169862000Y-93769752D01*
X169862000Y-93769752D02*
X169823905Y-93807847D01*
X169823905Y-93807847D02*
X169747715Y-93845942D01*
X169747715Y-93845942D02*
X169442953Y-93845942D01*
X170166762Y-93426895D02*
X170357238Y-94226895D01*
X170357238Y-94226895D02*
X170509619Y-93655466D01*
X170509619Y-93655466D02*
X170662000Y-94226895D01*
X170662000Y-94226895D02*
X170852477Y-93426895D01*
X135409890Y-119003047D02*
X135909890Y-119003047D01*
X135909890Y-119003047D02*
X135909890Y-119122095D01*
X135909890Y-119122095D02*
X135886080Y-119193523D01*
X135886080Y-119193523D02*
X135838461Y-119241142D01*
X135838461Y-119241142D02*
X135790842Y-119264952D01*
X135790842Y-119264952D02*
X135695604Y-119288761D01*
X135695604Y-119288761D02*
X135624176Y-119288761D01*
X135624176Y-119288761D02*
X135528938Y-119264952D01*
X135528938Y-119264952D02*
X135481319Y-119241142D01*
X135481319Y-119241142D02*
X135433700Y-119193523D01*
X135433700Y-119193523D02*
X135409890Y-119122095D01*
X135409890Y-119122095D02*
X135409890Y-119003047D01*
X135457509Y-119788761D02*
X135433700Y-119764952D01*
X135433700Y-119764952D02*
X135409890Y-119693523D01*
X135409890Y-119693523D02*
X135409890Y-119645904D01*
X135409890Y-119645904D02*
X135433700Y-119574476D01*
X135433700Y-119574476D02*
X135481319Y-119526857D01*
X135481319Y-119526857D02*
X135528938Y-119503047D01*
X135528938Y-119503047D02*
X135624176Y-119479238D01*
X135624176Y-119479238D02*
X135695604Y-119479238D01*
X135695604Y-119479238D02*
X135790842Y-119503047D01*
X135790842Y-119503047D02*
X135838461Y-119526857D01*
X135838461Y-119526857D02*
X135886080Y-119574476D01*
X135886080Y-119574476D02*
X135909890Y-119645904D01*
X135909890Y-119645904D02*
X135909890Y-119693523D01*
X135909890Y-119693523D02*
X135886080Y-119764952D01*
X135886080Y-119764952D02*
X135862271Y-119788761D01*
X135409890Y-120003047D02*
X135909890Y-120003047D01*
X135909890Y-120003047D02*
X135909890Y-120122095D01*
X135909890Y-120122095D02*
X135886080Y-120193523D01*
X135886080Y-120193523D02*
X135838461Y-120241142D01*
X135838461Y-120241142D02*
X135790842Y-120264952D01*
X135790842Y-120264952D02*
X135695604Y-120288761D01*
X135695604Y-120288761D02*
X135624176Y-120288761D01*
X135624176Y-120288761D02*
X135528938Y-120264952D01*
X135528938Y-120264952D02*
X135481319Y-120241142D01*
X135481319Y-120241142D02*
X135433700Y-120193523D01*
X135433700Y-120193523D02*
X135409890Y-120122095D01*
X135409890Y-120122095D02*
X135409890Y-120003047D01*
X162744836Y-119313609D02*
X162744836Y-118813609D01*
X162744836Y-118813609D02*
X162935312Y-118813609D01*
X162935312Y-118813609D02*
X162982931Y-118837419D01*
X162982931Y-118837419D02*
X163006741Y-118861228D01*
X163006741Y-118861228D02*
X163030550Y-118908847D01*
X163030550Y-118908847D02*
X163030550Y-118980276D01*
X163030550Y-118980276D02*
X163006741Y-119027895D01*
X163006741Y-119027895D02*
X162982931Y-119051704D01*
X162982931Y-119051704D02*
X162935312Y-119075514D01*
X162935312Y-119075514D02*
X162744836Y-119075514D01*
X163173408Y-118813609D02*
X163459122Y-118813609D01*
X163316265Y-119313609D02*
X163316265Y-118813609D01*
X163554360Y-118813609D02*
X163840074Y-118813609D01*
X163697217Y-119313609D02*
X163697217Y-118813609D01*
X164340073Y-118980276D02*
X164459121Y-119313609D01*
X164459121Y-119313609D02*
X164578168Y-118980276D01*
X164768644Y-119313609D02*
X164768644Y-118980276D01*
X164768644Y-118813609D02*
X164744835Y-118837419D01*
X164744835Y-118837419D02*
X164768644Y-118861228D01*
X164768644Y-118861228D02*
X164792454Y-118837419D01*
X164792454Y-118837419D02*
X164768644Y-118813609D01*
X164768644Y-118813609D02*
X164768644Y-118861228D01*
X165221025Y-119313609D02*
X165221025Y-119051704D01*
X165221025Y-119051704D02*
X165197215Y-119004085D01*
X165197215Y-119004085D02*
X165149596Y-118980276D01*
X165149596Y-118980276D02*
X165054358Y-118980276D01*
X165054358Y-118980276D02*
X165006739Y-119004085D01*
X165221025Y-119289800D02*
X165173406Y-119313609D01*
X165173406Y-119313609D02*
X165054358Y-119313609D01*
X165054358Y-119313609D02*
X165006739Y-119289800D01*
X165006739Y-119289800D02*
X164982930Y-119242180D01*
X164982930Y-119242180D02*
X164982930Y-119194561D01*
X164982930Y-119194561D02*
X165006739Y-119146942D01*
X165006739Y-119146942D02*
X165054358Y-119123133D01*
X165054358Y-119123133D02*
X165173406Y-119123133D01*
X165173406Y-119123133D02*
X165221025Y-119099323D01*
X165816263Y-119170752D02*
X166054358Y-119170752D01*
X165768644Y-119313609D02*
X165935310Y-118813609D01*
X165935310Y-118813609D02*
X166101977Y-119313609D01*
X166435310Y-119051704D02*
X166268643Y-119051704D01*
X166268643Y-119313609D02*
X166268643Y-118813609D01*
X166268643Y-118813609D02*
X166506738Y-118813609D01*
X135298747Y-129063810D02*
X135298747Y-129301905D01*
X135155890Y-129016191D02*
X135655890Y-129182857D01*
X135655890Y-129182857D02*
X135155890Y-129349524D01*
X135179700Y-129730476D02*
X135155890Y-129682857D01*
X135155890Y-129682857D02*
X135155890Y-129587619D01*
X135155890Y-129587619D02*
X135179700Y-129540000D01*
X135179700Y-129540000D02*
X135203509Y-129516190D01*
X135203509Y-129516190D02*
X135251128Y-129492381D01*
X135251128Y-129492381D02*
X135393985Y-129492381D01*
X135393985Y-129492381D02*
X135441604Y-129516190D01*
X135441604Y-129516190D02*
X135465414Y-129540000D01*
X135465414Y-129540000D02*
X135489223Y-129587619D01*
X135489223Y-129587619D02*
X135489223Y-129682857D01*
X135489223Y-129682857D02*
X135465414Y-129730476D01*
X135489223Y-129873333D02*
X135489223Y-130063809D01*
X135655890Y-129944761D02*
X135227319Y-129944761D01*
X135227319Y-129944761D02*
X135179700Y-129968571D01*
X135179700Y-129968571D02*
X135155890Y-130016190D01*
X135155890Y-130016190D02*
X135155890Y-130063809D01*
%TO.C,C4*%
X179248490Y-135033333D02*
X179272300Y-135057142D01*
X179272300Y-135057142D02*
X179296109Y-135128571D01*
X179296109Y-135128571D02*
X179296109Y-135176190D01*
X179296109Y-135176190D02*
X179272300Y-135247618D01*
X179272300Y-135247618D02*
X179224680Y-135295237D01*
X179224680Y-135295237D02*
X179177061Y-135319047D01*
X179177061Y-135319047D02*
X179081823Y-135342856D01*
X179081823Y-135342856D02*
X179010395Y-135342856D01*
X179010395Y-135342856D02*
X178915157Y-135319047D01*
X178915157Y-135319047D02*
X178867538Y-135295237D01*
X178867538Y-135295237D02*
X178819919Y-135247618D01*
X178819919Y-135247618D02*
X178796109Y-135176190D01*
X178796109Y-135176190D02*
X178796109Y-135128571D01*
X178796109Y-135128571D02*
X178819919Y-135057142D01*
X178819919Y-135057142D02*
X178843728Y-135033333D01*
X178962776Y-134604761D02*
X179296109Y-134604761D01*
X178772300Y-134723809D02*
X179129442Y-134842856D01*
X179129442Y-134842856D02*
X179129442Y-134533333D01*
%TO.C,C5*%
X172706666Y-140028490D02*
X172682857Y-140052300D01*
X172682857Y-140052300D02*
X172611428Y-140076109D01*
X172611428Y-140076109D02*
X172563809Y-140076109D01*
X172563809Y-140076109D02*
X172492381Y-140052300D01*
X172492381Y-140052300D02*
X172444762Y-140004680D01*
X172444762Y-140004680D02*
X172420952Y-139957061D01*
X172420952Y-139957061D02*
X172397143Y-139861823D01*
X172397143Y-139861823D02*
X172397143Y-139790395D01*
X172397143Y-139790395D02*
X172420952Y-139695157D01*
X172420952Y-139695157D02*
X172444762Y-139647538D01*
X172444762Y-139647538D02*
X172492381Y-139599919D01*
X172492381Y-139599919D02*
X172563809Y-139576109D01*
X172563809Y-139576109D02*
X172611428Y-139576109D01*
X172611428Y-139576109D02*
X172682857Y-139599919D01*
X172682857Y-139599919D02*
X172706666Y-139623728D01*
X173159047Y-139576109D02*
X172920952Y-139576109D01*
X172920952Y-139576109D02*
X172897143Y-139814204D01*
X172897143Y-139814204D02*
X172920952Y-139790395D01*
X172920952Y-139790395D02*
X172968571Y-139766585D01*
X172968571Y-139766585D02*
X173087619Y-139766585D01*
X173087619Y-139766585D02*
X173135238Y-139790395D01*
X173135238Y-139790395D02*
X173159047Y-139814204D01*
X173159047Y-139814204D02*
X173182857Y-139861823D01*
X173182857Y-139861823D02*
X173182857Y-139980871D01*
X173182857Y-139980871D02*
X173159047Y-140028490D01*
X173159047Y-140028490D02*
X173135238Y-140052300D01*
X173135238Y-140052300D02*
X173087619Y-140076109D01*
X173087619Y-140076109D02*
X172968571Y-140076109D01*
X172968571Y-140076109D02*
X172920952Y-140052300D01*
X172920952Y-140052300D02*
X172897143Y-140028490D01*
%TO.C,C6*%
X177724490Y-131663333D02*
X177748300Y-131687142D01*
X177748300Y-131687142D02*
X177772109Y-131758571D01*
X177772109Y-131758571D02*
X177772109Y-131806190D01*
X177772109Y-131806190D02*
X177748300Y-131877618D01*
X177748300Y-131877618D02*
X177700680Y-131925237D01*
X177700680Y-131925237D02*
X177653061Y-131949047D01*
X177653061Y-131949047D02*
X177557823Y-131972856D01*
X177557823Y-131972856D02*
X177486395Y-131972856D01*
X177486395Y-131972856D02*
X177391157Y-131949047D01*
X177391157Y-131949047D02*
X177343538Y-131925237D01*
X177343538Y-131925237D02*
X177295919Y-131877618D01*
X177295919Y-131877618D02*
X177272109Y-131806190D01*
X177272109Y-131806190D02*
X177272109Y-131758571D01*
X177272109Y-131758571D02*
X177295919Y-131687142D01*
X177295919Y-131687142D02*
X177319728Y-131663333D01*
X177272109Y-131234761D02*
X177272109Y-131329999D01*
X177272109Y-131329999D02*
X177295919Y-131377618D01*
X177295919Y-131377618D02*
X177319728Y-131401428D01*
X177319728Y-131401428D02*
X177391157Y-131449047D01*
X177391157Y-131449047D02*
X177486395Y-131472856D01*
X177486395Y-131472856D02*
X177676871Y-131472856D01*
X177676871Y-131472856D02*
X177724490Y-131449047D01*
X177724490Y-131449047D02*
X177748300Y-131425237D01*
X177748300Y-131425237D02*
X177772109Y-131377618D01*
X177772109Y-131377618D02*
X177772109Y-131282380D01*
X177772109Y-131282380D02*
X177748300Y-131234761D01*
X177748300Y-131234761D02*
X177724490Y-131210952D01*
X177724490Y-131210952D02*
X177676871Y-131187142D01*
X177676871Y-131187142D02*
X177557823Y-131187142D01*
X177557823Y-131187142D02*
X177510204Y-131210952D01*
X177510204Y-131210952D02*
X177486395Y-131234761D01*
X177486395Y-131234761D02*
X177462585Y-131282380D01*
X177462585Y-131282380D02*
X177462585Y-131377618D01*
X177462585Y-131377618D02*
X177486395Y-131425237D01*
X177486395Y-131425237D02*
X177510204Y-131449047D01*
X177510204Y-131449047D02*
X177557823Y-131472856D01*
%TO.C,C7*%
X170866490Y-128607333D02*
X170890300Y-128631142D01*
X170890300Y-128631142D02*
X170914109Y-128702571D01*
X170914109Y-128702571D02*
X170914109Y-128750190D01*
X170914109Y-128750190D02*
X170890300Y-128821618D01*
X170890300Y-128821618D02*
X170842680Y-128869237D01*
X170842680Y-128869237D02*
X170795061Y-128893047D01*
X170795061Y-128893047D02*
X170699823Y-128916856D01*
X170699823Y-128916856D02*
X170628395Y-128916856D01*
X170628395Y-128916856D02*
X170533157Y-128893047D01*
X170533157Y-128893047D02*
X170485538Y-128869237D01*
X170485538Y-128869237D02*
X170437919Y-128821618D01*
X170437919Y-128821618D02*
X170414109Y-128750190D01*
X170414109Y-128750190D02*
X170414109Y-128702571D01*
X170414109Y-128702571D02*
X170437919Y-128631142D01*
X170437919Y-128631142D02*
X170461728Y-128607333D01*
X170414109Y-128440666D02*
X170414109Y-128107333D01*
X170414109Y-128107333D02*
X170914109Y-128321618D01*
%TO.C,C8*%
X167818490Y-131401333D02*
X167842300Y-131425142D01*
X167842300Y-131425142D02*
X167866109Y-131496571D01*
X167866109Y-131496571D02*
X167866109Y-131544190D01*
X167866109Y-131544190D02*
X167842300Y-131615618D01*
X167842300Y-131615618D02*
X167794680Y-131663237D01*
X167794680Y-131663237D02*
X167747061Y-131687047D01*
X167747061Y-131687047D02*
X167651823Y-131710856D01*
X167651823Y-131710856D02*
X167580395Y-131710856D01*
X167580395Y-131710856D02*
X167485157Y-131687047D01*
X167485157Y-131687047D02*
X167437538Y-131663237D01*
X167437538Y-131663237D02*
X167389919Y-131615618D01*
X167389919Y-131615618D02*
X167366109Y-131544190D01*
X167366109Y-131544190D02*
X167366109Y-131496571D01*
X167366109Y-131496571D02*
X167389919Y-131425142D01*
X167389919Y-131425142D02*
X167413728Y-131401333D01*
X167580395Y-131115618D02*
X167556585Y-131163237D01*
X167556585Y-131163237D02*
X167532776Y-131187047D01*
X167532776Y-131187047D02*
X167485157Y-131210856D01*
X167485157Y-131210856D02*
X167461347Y-131210856D01*
X167461347Y-131210856D02*
X167413728Y-131187047D01*
X167413728Y-131187047D02*
X167389919Y-131163237D01*
X167389919Y-131163237D02*
X167366109Y-131115618D01*
X167366109Y-131115618D02*
X167366109Y-131020380D01*
X167366109Y-131020380D02*
X167389919Y-130972761D01*
X167389919Y-130972761D02*
X167413728Y-130948952D01*
X167413728Y-130948952D02*
X167461347Y-130925142D01*
X167461347Y-130925142D02*
X167485157Y-130925142D01*
X167485157Y-130925142D02*
X167532776Y-130948952D01*
X167532776Y-130948952D02*
X167556585Y-130972761D01*
X167556585Y-130972761D02*
X167580395Y-131020380D01*
X167580395Y-131020380D02*
X167580395Y-131115618D01*
X167580395Y-131115618D02*
X167604204Y-131163237D01*
X167604204Y-131163237D02*
X167628014Y-131187047D01*
X167628014Y-131187047D02*
X167675633Y-131210856D01*
X167675633Y-131210856D02*
X167770871Y-131210856D01*
X167770871Y-131210856D02*
X167818490Y-131187047D01*
X167818490Y-131187047D02*
X167842300Y-131163237D01*
X167842300Y-131163237D02*
X167866109Y-131115618D01*
X167866109Y-131115618D02*
X167866109Y-131020380D01*
X167866109Y-131020380D02*
X167842300Y-130972761D01*
X167842300Y-130972761D02*
X167818490Y-130948952D01*
X167818490Y-130948952D02*
X167770871Y-130925142D01*
X167770871Y-130925142D02*
X167675633Y-130925142D01*
X167675633Y-130925142D02*
X167628014Y-130948952D01*
X167628014Y-130948952D02*
X167604204Y-130972761D01*
X167604204Y-130972761D02*
X167580395Y-131020380D01*
%TO.C,C9*%
X176192666Y-132512490D02*
X176168857Y-132536300D01*
X176168857Y-132536300D02*
X176097428Y-132560109D01*
X176097428Y-132560109D02*
X176049809Y-132560109D01*
X176049809Y-132560109D02*
X175978381Y-132536300D01*
X175978381Y-132536300D02*
X175930762Y-132488680D01*
X175930762Y-132488680D02*
X175906952Y-132441061D01*
X175906952Y-132441061D02*
X175883143Y-132345823D01*
X175883143Y-132345823D02*
X175883143Y-132274395D01*
X175883143Y-132274395D02*
X175906952Y-132179157D01*
X175906952Y-132179157D02*
X175930762Y-132131538D01*
X175930762Y-132131538D02*
X175978381Y-132083919D01*
X175978381Y-132083919D02*
X176049809Y-132060109D01*
X176049809Y-132060109D02*
X176097428Y-132060109D01*
X176097428Y-132060109D02*
X176168857Y-132083919D01*
X176168857Y-132083919D02*
X176192666Y-132107728D01*
X176430762Y-132560109D02*
X176526000Y-132560109D01*
X176526000Y-132560109D02*
X176573619Y-132536300D01*
X176573619Y-132536300D02*
X176597428Y-132512490D01*
X176597428Y-132512490D02*
X176645047Y-132441061D01*
X176645047Y-132441061D02*
X176668857Y-132345823D01*
X176668857Y-132345823D02*
X176668857Y-132155347D01*
X176668857Y-132155347D02*
X176645047Y-132107728D01*
X176645047Y-132107728D02*
X176621238Y-132083919D01*
X176621238Y-132083919D02*
X176573619Y-132060109D01*
X176573619Y-132060109D02*
X176478381Y-132060109D01*
X176478381Y-132060109D02*
X176430762Y-132083919D01*
X176430762Y-132083919D02*
X176406952Y-132107728D01*
X176406952Y-132107728D02*
X176383143Y-132155347D01*
X176383143Y-132155347D02*
X176383143Y-132274395D01*
X176383143Y-132274395D02*
X176406952Y-132322014D01*
X176406952Y-132322014D02*
X176430762Y-132345823D01*
X176430762Y-132345823D02*
X176478381Y-132369633D01*
X176478381Y-132369633D02*
X176573619Y-132369633D01*
X176573619Y-132369633D02*
X176621238Y-132345823D01*
X176621238Y-132345823D02*
X176645047Y-132322014D01*
X176645047Y-132322014D02*
X176668857Y-132274395D01*
%TO.C,C10*%
X160452490Y-131180928D02*
X160476300Y-131204737D01*
X160476300Y-131204737D02*
X160500109Y-131276166D01*
X160500109Y-131276166D02*
X160500109Y-131323785D01*
X160500109Y-131323785D02*
X160476300Y-131395213D01*
X160476300Y-131395213D02*
X160428680Y-131442832D01*
X160428680Y-131442832D02*
X160381061Y-131466642D01*
X160381061Y-131466642D02*
X160285823Y-131490451D01*
X160285823Y-131490451D02*
X160214395Y-131490451D01*
X160214395Y-131490451D02*
X160119157Y-131466642D01*
X160119157Y-131466642D02*
X160071538Y-131442832D01*
X160071538Y-131442832D02*
X160023919Y-131395213D01*
X160023919Y-131395213D02*
X160000109Y-131323785D01*
X160000109Y-131323785D02*
X160000109Y-131276166D01*
X160000109Y-131276166D02*
X160023919Y-131204737D01*
X160023919Y-131204737D02*
X160047728Y-131180928D01*
X160500109Y-130704737D02*
X160500109Y-130990451D01*
X160500109Y-130847594D02*
X160000109Y-130847594D01*
X160000109Y-130847594D02*
X160071538Y-130895213D01*
X160071538Y-130895213D02*
X160119157Y-130942832D01*
X160119157Y-130942832D02*
X160142966Y-130990451D01*
X160000109Y-130395214D02*
X160000109Y-130347595D01*
X160000109Y-130347595D02*
X160023919Y-130299976D01*
X160023919Y-130299976D02*
X160047728Y-130276166D01*
X160047728Y-130276166D02*
X160095347Y-130252357D01*
X160095347Y-130252357D02*
X160190585Y-130228547D01*
X160190585Y-130228547D02*
X160309633Y-130228547D01*
X160309633Y-130228547D02*
X160404871Y-130252357D01*
X160404871Y-130252357D02*
X160452490Y-130276166D01*
X160452490Y-130276166D02*
X160476300Y-130299976D01*
X160476300Y-130299976D02*
X160500109Y-130347595D01*
X160500109Y-130347595D02*
X160500109Y-130395214D01*
X160500109Y-130395214D02*
X160476300Y-130442833D01*
X160476300Y-130442833D02*
X160452490Y-130466642D01*
X160452490Y-130466642D02*
X160404871Y-130490452D01*
X160404871Y-130490452D02*
X160309633Y-130514261D01*
X160309633Y-130514261D02*
X160190585Y-130514261D01*
X160190585Y-130514261D02*
X160095347Y-130490452D01*
X160095347Y-130490452D02*
X160047728Y-130466642D01*
X160047728Y-130466642D02*
X160023919Y-130442833D01*
X160023919Y-130442833D02*
X160000109Y-130395214D01*
%TO.C,C11*%
X158428571Y-136068490D02*
X158404762Y-136092300D01*
X158404762Y-136092300D02*
X158333333Y-136116109D01*
X158333333Y-136116109D02*
X158285714Y-136116109D01*
X158285714Y-136116109D02*
X158214286Y-136092300D01*
X158214286Y-136092300D02*
X158166667Y-136044680D01*
X158166667Y-136044680D02*
X158142857Y-135997061D01*
X158142857Y-135997061D02*
X158119048Y-135901823D01*
X158119048Y-135901823D02*
X158119048Y-135830395D01*
X158119048Y-135830395D02*
X158142857Y-135735157D01*
X158142857Y-135735157D02*
X158166667Y-135687538D01*
X158166667Y-135687538D02*
X158214286Y-135639919D01*
X158214286Y-135639919D02*
X158285714Y-135616109D01*
X158285714Y-135616109D02*
X158333333Y-135616109D01*
X158333333Y-135616109D02*
X158404762Y-135639919D01*
X158404762Y-135639919D02*
X158428571Y-135663728D01*
X158904762Y-136116109D02*
X158619048Y-136116109D01*
X158761905Y-136116109D02*
X158761905Y-135616109D01*
X158761905Y-135616109D02*
X158714286Y-135687538D01*
X158714286Y-135687538D02*
X158666667Y-135735157D01*
X158666667Y-135735157D02*
X158619048Y-135758966D01*
X159380952Y-136116109D02*
X159095238Y-136116109D01*
X159238095Y-136116109D02*
X159238095Y-135616109D01*
X159238095Y-135616109D02*
X159190476Y-135687538D01*
X159190476Y-135687538D02*
X159142857Y-135735157D01*
X159142857Y-135735157D02*
X159095238Y-135758966D01*
%TO.C,C12*%
X155614571Y-133542490D02*
X155590762Y-133566300D01*
X155590762Y-133566300D02*
X155519333Y-133590109D01*
X155519333Y-133590109D02*
X155471714Y-133590109D01*
X155471714Y-133590109D02*
X155400286Y-133566300D01*
X155400286Y-133566300D02*
X155352667Y-133518680D01*
X155352667Y-133518680D02*
X155328857Y-133471061D01*
X155328857Y-133471061D02*
X155305048Y-133375823D01*
X155305048Y-133375823D02*
X155305048Y-133304395D01*
X155305048Y-133304395D02*
X155328857Y-133209157D01*
X155328857Y-133209157D02*
X155352667Y-133161538D01*
X155352667Y-133161538D02*
X155400286Y-133113919D01*
X155400286Y-133113919D02*
X155471714Y-133090109D01*
X155471714Y-133090109D02*
X155519333Y-133090109D01*
X155519333Y-133090109D02*
X155590762Y-133113919D01*
X155590762Y-133113919D02*
X155614571Y-133137728D01*
X156090762Y-133590109D02*
X155805048Y-133590109D01*
X155947905Y-133590109D02*
X155947905Y-133090109D01*
X155947905Y-133090109D02*
X155900286Y-133161538D01*
X155900286Y-133161538D02*
X155852667Y-133209157D01*
X155852667Y-133209157D02*
X155805048Y-133232966D01*
X156281238Y-133137728D02*
X156305047Y-133113919D01*
X156305047Y-133113919D02*
X156352666Y-133090109D01*
X156352666Y-133090109D02*
X156471714Y-133090109D01*
X156471714Y-133090109D02*
X156519333Y-133113919D01*
X156519333Y-133113919D02*
X156543142Y-133137728D01*
X156543142Y-133137728D02*
X156566952Y-133185347D01*
X156566952Y-133185347D02*
X156566952Y-133232966D01*
X156566952Y-133232966D02*
X156543142Y-133304395D01*
X156543142Y-133304395D02*
X156257428Y-133590109D01*
X156257428Y-133590109D02*
X156566952Y-133590109D01*
%TO.C,C13*%
X150554571Y-134544490D02*
X150530762Y-134568300D01*
X150530762Y-134568300D02*
X150459333Y-134592109D01*
X150459333Y-134592109D02*
X150411714Y-134592109D01*
X150411714Y-134592109D02*
X150340286Y-134568300D01*
X150340286Y-134568300D02*
X150292667Y-134520680D01*
X150292667Y-134520680D02*
X150268857Y-134473061D01*
X150268857Y-134473061D02*
X150245048Y-134377823D01*
X150245048Y-134377823D02*
X150245048Y-134306395D01*
X150245048Y-134306395D02*
X150268857Y-134211157D01*
X150268857Y-134211157D02*
X150292667Y-134163538D01*
X150292667Y-134163538D02*
X150340286Y-134115919D01*
X150340286Y-134115919D02*
X150411714Y-134092109D01*
X150411714Y-134092109D02*
X150459333Y-134092109D01*
X150459333Y-134092109D02*
X150530762Y-134115919D01*
X150530762Y-134115919D02*
X150554571Y-134139728D01*
X151030762Y-134592109D02*
X150745048Y-134592109D01*
X150887905Y-134592109D02*
X150887905Y-134092109D01*
X150887905Y-134092109D02*
X150840286Y-134163538D01*
X150840286Y-134163538D02*
X150792667Y-134211157D01*
X150792667Y-134211157D02*
X150745048Y-134234966D01*
X151197428Y-134092109D02*
X151506952Y-134092109D01*
X151506952Y-134092109D02*
X151340285Y-134282585D01*
X151340285Y-134282585D02*
X151411714Y-134282585D01*
X151411714Y-134282585D02*
X151459333Y-134306395D01*
X151459333Y-134306395D02*
X151483142Y-134330204D01*
X151483142Y-134330204D02*
X151506952Y-134377823D01*
X151506952Y-134377823D02*
X151506952Y-134496871D01*
X151506952Y-134496871D02*
X151483142Y-134544490D01*
X151483142Y-134544490D02*
X151459333Y-134568300D01*
X151459333Y-134568300D02*
X151411714Y-134592109D01*
X151411714Y-134592109D02*
X151268857Y-134592109D01*
X151268857Y-134592109D02*
X151221238Y-134568300D01*
X151221238Y-134568300D02*
X151197428Y-134544490D01*
%TO.C,C15*%
X156396571Y-105588490D02*
X156372762Y-105612300D01*
X156372762Y-105612300D02*
X156301333Y-105636109D01*
X156301333Y-105636109D02*
X156253714Y-105636109D01*
X156253714Y-105636109D02*
X156182286Y-105612300D01*
X156182286Y-105612300D02*
X156134667Y-105564680D01*
X156134667Y-105564680D02*
X156110857Y-105517061D01*
X156110857Y-105517061D02*
X156087048Y-105421823D01*
X156087048Y-105421823D02*
X156087048Y-105350395D01*
X156087048Y-105350395D02*
X156110857Y-105255157D01*
X156110857Y-105255157D02*
X156134667Y-105207538D01*
X156134667Y-105207538D02*
X156182286Y-105159919D01*
X156182286Y-105159919D02*
X156253714Y-105136109D01*
X156253714Y-105136109D02*
X156301333Y-105136109D01*
X156301333Y-105136109D02*
X156372762Y-105159919D01*
X156372762Y-105159919D02*
X156396571Y-105183728D01*
X156872762Y-105636109D02*
X156587048Y-105636109D01*
X156729905Y-105636109D02*
X156729905Y-105136109D01*
X156729905Y-105136109D02*
X156682286Y-105207538D01*
X156682286Y-105207538D02*
X156634667Y-105255157D01*
X156634667Y-105255157D02*
X156587048Y-105278966D01*
X157325142Y-105136109D02*
X157087047Y-105136109D01*
X157087047Y-105136109D02*
X157063238Y-105374204D01*
X157063238Y-105374204D02*
X157087047Y-105350395D01*
X157087047Y-105350395D02*
X157134666Y-105326585D01*
X157134666Y-105326585D02*
X157253714Y-105326585D01*
X157253714Y-105326585D02*
X157301333Y-105350395D01*
X157301333Y-105350395D02*
X157325142Y-105374204D01*
X157325142Y-105374204D02*
X157348952Y-105421823D01*
X157348952Y-105421823D02*
X157348952Y-105540871D01*
X157348952Y-105540871D02*
X157325142Y-105588490D01*
X157325142Y-105588490D02*
X157301333Y-105612300D01*
X157301333Y-105612300D02*
X157253714Y-105636109D01*
X157253714Y-105636109D02*
X157134666Y-105636109D01*
X157134666Y-105636109D02*
X157087047Y-105612300D01*
X157087047Y-105612300D02*
X157063238Y-105588490D01*
%TO.C,C16*%
X158682571Y-105588490D02*
X158658762Y-105612300D01*
X158658762Y-105612300D02*
X158587333Y-105636109D01*
X158587333Y-105636109D02*
X158539714Y-105636109D01*
X158539714Y-105636109D02*
X158468286Y-105612300D01*
X158468286Y-105612300D02*
X158420667Y-105564680D01*
X158420667Y-105564680D02*
X158396857Y-105517061D01*
X158396857Y-105517061D02*
X158373048Y-105421823D01*
X158373048Y-105421823D02*
X158373048Y-105350395D01*
X158373048Y-105350395D02*
X158396857Y-105255157D01*
X158396857Y-105255157D02*
X158420667Y-105207538D01*
X158420667Y-105207538D02*
X158468286Y-105159919D01*
X158468286Y-105159919D02*
X158539714Y-105136109D01*
X158539714Y-105136109D02*
X158587333Y-105136109D01*
X158587333Y-105136109D02*
X158658762Y-105159919D01*
X158658762Y-105159919D02*
X158682571Y-105183728D01*
X159158762Y-105636109D02*
X158873048Y-105636109D01*
X159015905Y-105636109D02*
X159015905Y-105136109D01*
X159015905Y-105136109D02*
X158968286Y-105207538D01*
X158968286Y-105207538D02*
X158920667Y-105255157D01*
X158920667Y-105255157D02*
X158873048Y-105278966D01*
X159587333Y-105136109D02*
X159492095Y-105136109D01*
X159492095Y-105136109D02*
X159444476Y-105159919D01*
X159444476Y-105159919D02*
X159420666Y-105183728D01*
X159420666Y-105183728D02*
X159373047Y-105255157D01*
X159373047Y-105255157D02*
X159349238Y-105350395D01*
X159349238Y-105350395D02*
X159349238Y-105540871D01*
X159349238Y-105540871D02*
X159373047Y-105588490D01*
X159373047Y-105588490D02*
X159396857Y-105612300D01*
X159396857Y-105612300D02*
X159444476Y-105636109D01*
X159444476Y-105636109D02*
X159539714Y-105636109D01*
X159539714Y-105636109D02*
X159587333Y-105612300D01*
X159587333Y-105612300D02*
X159611142Y-105588490D01*
X159611142Y-105588490D02*
X159634952Y-105540871D01*
X159634952Y-105540871D02*
X159634952Y-105421823D01*
X159634952Y-105421823D02*
X159611142Y-105374204D01*
X159611142Y-105374204D02*
X159587333Y-105350395D01*
X159587333Y-105350395D02*
X159539714Y-105326585D01*
X159539714Y-105326585D02*
X159444476Y-105326585D01*
X159444476Y-105326585D02*
X159396857Y-105350395D01*
X159396857Y-105350395D02*
X159373047Y-105374204D01*
X159373047Y-105374204D02*
X159349238Y-105421823D01*
%TO.C,J2*%
X172807333Y-107422109D02*
X172807333Y-107779252D01*
X172807333Y-107779252D02*
X172783524Y-107850680D01*
X172783524Y-107850680D02*
X172735905Y-107898300D01*
X172735905Y-107898300D02*
X172664476Y-107922109D01*
X172664476Y-107922109D02*
X172616857Y-107922109D01*
X173021619Y-107469728D02*
X173045428Y-107445919D01*
X173045428Y-107445919D02*
X173093047Y-107422109D01*
X173093047Y-107422109D02*
X173212095Y-107422109D01*
X173212095Y-107422109D02*
X173259714Y-107445919D01*
X173259714Y-107445919D02*
X173283523Y-107469728D01*
X173283523Y-107469728D02*
X173307333Y-107517347D01*
X173307333Y-107517347D02*
X173307333Y-107564966D01*
X173307333Y-107564966D02*
X173283523Y-107636395D01*
X173283523Y-107636395D02*
X172997809Y-107922109D01*
X172997809Y-107922109D02*
X173307333Y-107922109D01*
X168628109Y-112355047D02*
X168128109Y-112355047D01*
X168128109Y-112355047D02*
X168485252Y-112188380D01*
X168485252Y-112188380D02*
X168128109Y-112021714D01*
X168128109Y-112021714D02*
X168628109Y-112021714D01*
X168628109Y-111783618D02*
X168294776Y-111783618D01*
X168128109Y-111783618D02*
X168151919Y-111807427D01*
X168151919Y-111807427D02*
X168175728Y-111783618D01*
X168175728Y-111783618D02*
X168151919Y-111759808D01*
X168151919Y-111759808D02*
X168128109Y-111783618D01*
X168128109Y-111783618D02*
X168175728Y-111783618D01*
X168294776Y-111545523D02*
X168628109Y-111545523D01*
X168342395Y-111545523D02*
X168318585Y-111521713D01*
X168318585Y-111521713D02*
X168294776Y-111474094D01*
X168294776Y-111474094D02*
X168294776Y-111402666D01*
X168294776Y-111402666D02*
X168318585Y-111355047D01*
X168318585Y-111355047D02*
X168366204Y-111331237D01*
X168366204Y-111331237D02*
X168628109Y-111331237D01*
X168628109Y-111093142D02*
X168294776Y-111093142D01*
X168128109Y-111093142D02*
X168151919Y-111116951D01*
X168151919Y-111116951D02*
X168175728Y-111093142D01*
X168175728Y-111093142D02*
X168151919Y-111069332D01*
X168151919Y-111069332D02*
X168128109Y-111093142D01*
X168128109Y-111093142D02*
X168175728Y-111093142D01*
X168437633Y-110855047D02*
X168437633Y-110474095D01*
X168628109Y-110235999D02*
X168128109Y-110235999D01*
X168128109Y-110235999D02*
X168128109Y-110116951D01*
X168128109Y-110116951D02*
X168151919Y-110045523D01*
X168151919Y-110045523D02*
X168199538Y-109997904D01*
X168199538Y-109997904D02*
X168247157Y-109974094D01*
X168247157Y-109974094D02*
X168342395Y-109950285D01*
X168342395Y-109950285D02*
X168413823Y-109950285D01*
X168413823Y-109950285D02*
X168509061Y-109974094D01*
X168509061Y-109974094D02*
X168556680Y-109997904D01*
X168556680Y-109997904D02*
X168604300Y-110045523D01*
X168604300Y-110045523D02*
X168628109Y-110116951D01*
X168628109Y-110116951D02*
X168628109Y-110235999D01*
X168628109Y-109735999D02*
X168128109Y-109735999D01*
X168628109Y-109497904D02*
X168128109Y-109497904D01*
X168128109Y-109497904D02*
X168628109Y-109212190D01*
X168628109Y-109212190D02*
X168128109Y-109212190D01*
X168437633Y-108974094D02*
X168437633Y-108593142D01*
X168128109Y-108140760D02*
X168128109Y-108235998D01*
X168128109Y-108235998D02*
X168151919Y-108283617D01*
X168151919Y-108283617D02*
X168175728Y-108307427D01*
X168175728Y-108307427D02*
X168247157Y-108355046D01*
X168247157Y-108355046D02*
X168342395Y-108378855D01*
X168342395Y-108378855D02*
X168532871Y-108378855D01*
X168532871Y-108378855D02*
X168580490Y-108355046D01*
X168580490Y-108355046D02*
X168604300Y-108331236D01*
X168604300Y-108331236D02*
X168628109Y-108283617D01*
X168628109Y-108283617D02*
X168628109Y-108188379D01*
X168628109Y-108188379D02*
X168604300Y-108140760D01*
X168604300Y-108140760D02*
X168580490Y-108116951D01*
X168580490Y-108116951D02*
X168532871Y-108093141D01*
X168532871Y-108093141D02*
X168413823Y-108093141D01*
X168413823Y-108093141D02*
X168366204Y-108116951D01*
X168366204Y-108116951D02*
X168342395Y-108140760D01*
X168342395Y-108140760D02*
X168318585Y-108188379D01*
X168318585Y-108188379D02*
X168318585Y-108283617D01*
X168318585Y-108283617D02*
X168342395Y-108331236D01*
X168342395Y-108331236D02*
X168366204Y-108355046D01*
X168366204Y-108355046D02*
X168413823Y-108378855D01*
%TO.C,J6*%
X145816109Y-113816666D02*
X146173252Y-113816666D01*
X146173252Y-113816666D02*
X146244680Y-113840475D01*
X146244680Y-113840475D02*
X146292300Y-113888094D01*
X146292300Y-113888094D02*
X146316109Y-113959523D01*
X146316109Y-113959523D02*
X146316109Y-114007142D01*
X145816109Y-113364285D02*
X145816109Y-113459523D01*
X145816109Y-113459523D02*
X145839919Y-113507142D01*
X145839919Y-113507142D02*
X145863728Y-113530952D01*
X145863728Y-113530952D02*
X145935157Y-113578571D01*
X145935157Y-113578571D02*
X146030395Y-113602380D01*
X146030395Y-113602380D02*
X146220871Y-113602380D01*
X146220871Y-113602380D02*
X146268490Y-113578571D01*
X146268490Y-113578571D02*
X146292300Y-113554761D01*
X146292300Y-113554761D02*
X146316109Y-113507142D01*
X146316109Y-113507142D02*
X146316109Y-113411904D01*
X146316109Y-113411904D02*
X146292300Y-113364285D01*
X146292300Y-113364285D02*
X146268490Y-113340476D01*
X146268490Y-113340476D02*
X146220871Y-113316666D01*
X146220871Y-113316666D02*
X146101823Y-113316666D01*
X146101823Y-113316666D02*
X146054204Y-113340476D01*
X146054204Y-113340476D02*
X146030395Y-113364285D01*
X146030395Y-113364285D02*
X146006585Y-113411904D01*
X146006585Y-113411904D02*
X146006585Y-113507142D01*
X146006585Y-113507142D02*
X146030395Y-113554761D01*
X146030395Y-113554761D02*
X146054204Y-113578571D01*
X146054204Y-113578571D02*
X146101823Y-113602380D01*
%TO.C,L1*%
X171620666Y-131290109D02*
X171382571Y-131290109D01*
X171382571Y-131290109D02*
X171382571Y-130790109D01*
X172049238Y-131290109D02*
X171763524Y-131290109D01*
X171906381Y-131290109D02*
X171906381Y-130790109D01*
X171906381Y-130790109D02*
X171858762Y-130861538D01*
X171858762Y-130861538D02*
X171811143Y-130909157D01*
X171811143Y-130909157D02*
X171763524Y-130932966D01*
%TO.C,Q1*%
X153876380Y-133369728D02*
X153828761Y-133345919D01*
X153828761Y-133345919D02*
X153781142Y-133298300D01*
X153781142Y-133298300D02*
X153709714Y-133226871D01*
X153709714Y-133226871D02*
X153662095Y-133203061D01*
X153662095Y-133203061D02*
X153614476Y-133203061D01*
X153638285Y-133322109D02*
X153590666Y-133298300D01*
X153590666Y-133298300D02*
X153543047Y-133250680D01*
X153543047Y-133250680D02*
X153519238Y-133155442D01*
X153519238Y-133155442D02*
X153519238Y-132988776D01*
X153519238Y-132988776D02*
X153543047Y-132893538D01*
X153543047Y-132893538D02*
X153590666Y-132845919D01*
X153590666Y-132845919D02*
X153638285Y-132822109D01*
X153638285Y-132822109D02*
X153733523Y-132822109D01*
X153733523Y-132822109D02*
X153781142Y-132845919D01*
X153781142Y-132845919D02*
X153828761Y-132893538D01*
X153828761Y-132893538D02*
X153852571Y-132988776D01*
X153852571Y-132988776D02*
X153852571Y-133155442D01*
X153852571Y-133155442D02*
X153828761Y-133250680D01*
X153828761Y-133250680D02*
X153781142Y-133298300D01*
X153781142Y-133298300D02*
X153733523Y-133322109D01*
X153733523Y-133322109D02*
X153638285Y-133322109D01*
X154328762Y-133322109D02*
X154043048Y-133322109D01*
X154185905Y-133322109D02*
X154185905Y-132822109D01*
X154185905Y-132822109D02*
X154138286Y-132893538D01*
X154138286Y-132893538D02*
X154090667Y-132941157D01*
X154090667Y-132941157D02*
X154043048Y-132964966D01*
%TO.C,R1*%
X149832109Y-130385333D02*
X149594014Y-130551999D01*
X149832109Y-130671047D02*
X149332109Y-130671047D01*
X149332109Y-130671047D02*
X149332109Y-130480571D01*
X149332109Y-130480571D02*
X149355919Y-130432952D01*
X149355919Y-130432952D02*
X149379728Y-130409142D01*
X149379728Y-130409142D02*
X149427347Y-130385333D01*
X149427347Y-130385333D02*
X149498776Y-130385333D01*
X149498776Y-130385333D02*
X149546395Y-130409142D01*
X149546395Y-130409142D02*
X149570204Y-130432952D01*
X149570204Y-130432952D02*
X149594014Y-130480571D01*
X149594014Y-130480571D02*
X149594014Y-130671047D01*
X149832109Y-129909142D02*
X149832109Y-130194856D01*
X149832109Y-130051999D02*
X149332109Y-130051999D01*
X149332109Y-130051999D02*
X149403538Y-130099618D01*
X149403538Y-130099618D02*
X149451157Y-130147237D01*
X149451157Y-130147237D02*
X149474966Y-130194856D01*
%TO.C,R2*%
X162532109Y-138513333D02*
X162294014Y-138679999D01*
X162532109Y-138799047D02*
X162032109Y-138799047D01*
X162032109Y-138799047D02*
X162032109Y-138608571D01*
X162032109Y-138608571D02*
X162055919Y-138560952D01*
X162055919Y-138560952D02*
X162079728Y-138537142D01*
X162079728Y-138537142D02*
X162127347Y-138513333D01*
X162127347Y-138513333D02*
X162198776Y-138513333D01*
X162198776Y-138513333D02*
X162246395Y-138537142D01*
X162246395Y-138537142D02*
X162270204Y-138560952D01*
X162270204Y-138560952D02*
X162294014Y-138608571D01*
X162294014Y-138608571D02*
X162294014Y-138799047D01*
X162079728Y-138322856D02*
X162055919Y-138299047D01*
X162055919Y-138299047D02*
X162032109Y-138251428D01*
X162032109Y-138251428D02*
X162032109Y-138132380D01*
X162032109Y-138132380D02*
X162055919Y-138084761D01*
X162055919Y-138084761D02*
X162079728Y-138060952D01*
X162079728Y-138060952D02*
X162127347Y-138037142D01*
X162127347Y-138037142D02*
X162174966Y-138037142D01*
X162174966Y-138037142D02*
X162246395Y-138060952D01*
X162246395Y-138060952D02*
X162532109Y-138346666D01*
X162532109Y-138346666D02*
X162532109Y-138037142D01*
%TO.C,R3*%
X169842666Y-138656109D02*
X169676000Y-138418014D01*
X169556952Y-138656109D02*
X169556952Y-138156109D01*
X169556952Y-138156109D02*
X169747428Y-138156109D01*
X169747428Y-138156109D02*
X169795047Y-138179919D01*
X169795047Y-138179919D02*
X169818857Y-138203728D01*
X169818857Y-138203728D02*
X169842666Y-138251347D01*
X169842666Y-138251347D02*
X169842666Y-138322776D01*
X169842666Y-138322776D02*
X169818857Y-138370395D01*
X169818857Y-138370395D02*
X169795047Y-138394204D01*
X169795047Y-138394204D02*
X169747428Y-138418014D01*
X169747428Y-138418014D02*
X169556952Y-138418014D01*
X170009333Y-138156109D02*
X170318857Y-138156109D01*
X170318857Y-138156109D02*
X170152190Y-138346585D01*
X170152190Y-138346585D02*
X170223619Y-138346585D01*
X170223619Y-138346585D02*
X170271238Y-138370395D01*
X170271238Y-138370395D02*
X170295047Y-138394204D01*
X170295047Y-138394204D02*
X170318857Y-138441823D01*
X170318857Y-138441823D02*
X170318857Y-138560871D01*
X170318857Y-138560871D02*
X170295047Y-138608490D01*
X170295047Y-138608490D02*
X170271238Y-138632300D01*
X170271238Y-138632300D02*
X170223619Y-138656109D01*
X170223619Y-138656109D02*
X170080762Y-138656109D01*
X170080762Y-138656109D02*
X170033143Y-138632300D01*
X170033143Y-138632300D02*
X170009333Y-138608490D01*
%TO.C,R4*%
X169588666Y-135100109D02*
X169422000Y-134862014D01*
X169302952Y-135100109D02*
X169302952Y-134600109D01*
X169302952Y-134600109D02*
X169493428Y-134600109D01*
X169493428Y-134600109D02*
X169541047Y-134623919D01*
X169541047Y-134623919D02*
X169564857Y-134647728D01*
X169564857Y-134647728D02*
X169588666Y-134695347D01*
X169588666Y-134695347D02*
X169588666Y-134766776D01*
X169588666Y-134766776D02*
X169564857Y-134814395D01*
X169564857Y-134814395D02*
X169541047Y-134838204D01*
X169541047Y-134838204D02*
X169493428Y-134862014D01*
X169493428Y-134862014D02*
X169302952Y-134862014D01*
X170017238Y-134766776D02*
X170017238Y-135100109D01*
X169898190Y-134576300D02*
X169779143Y-134933442D01*
X169779143Y-134933442D02*
X170088666Y-134933442D01*
%TO.C,R5*%
X140378666Y-120876109D02*
X140212000Y-120638014D01*
X140092952Y-120876109D02*
X140092952Y-120376109D01*
X140092952Y-120376109D02*
X140283428Y-120376109D01*
X140283428Y-120376109D02*
X140331047Y-120399919D01*
X140331047Y-120399919D02*
X140354857Y-120423728D01*
X140354857Y-120423728D02*
X140378666Y-120471347D01*
X140378666Y-120471347D02*
X140378666Y-120542776D01*
X140378666Y-120542776D02*
X140354857Y-120590395D01*
X140354857Y-120590395D02*
X140331047Y-120614204D01*
X140331047Y-120614204D02*
X140283428Y-120638014D01*
X140283428Y-120638014D02*
X140092952Y-120638014D01*
X140831047Y-120376109D02*
X140592952Y-120376109D01*
X140592952Y-120376109D02*
X140569143Y-120614204D01*
X140569143Y-120614204D02*
X140592952Y-120590395D01*
X140592952Y-120590395D02*
X140640571Y-120566585D01*
X140640571Y-120566585D02*
X140759619Y-120566585D01*
X140759619Y-120566585D02*
X140807238Y-120590395D01*
X140807238Y-120590395D02*
X140831047Y-120614204D01*
X140831047Y-120614204D02*
X140854857Y-120661823D01*
X140854857Y-120661823D02*
X140854857Y-120780871D01*
X140854857Y-120780871D02*
X140831047Y-120828490D01*
X140831047Y-120828490D02*
X140807238Y-120852300D01*
X140807238Y-120852300D02*
X140759619Y-120876109D01*
X140759619Y-120876109D02*
X140640571Y-120876109D01*
X140640571Y-120876109D02*
X140592952Y-120852300D01*
X140592952Y-120852300D02*
X140569143Y-120828490D01*
%TO.C,R7*%
X135100109Y-108287333D02*
X134862014Y-108453999D01*
X135100109Y-108573047D02*
X134600109Y-108573047D01*
X134600109Y-108573047D02*
X134600109Y-108382571D01*
X134600109Y-108382571D02*
X134623919Y-108334952D01*
X134623919Y-108334952D02*
X134647728Y-108311142D01*
X134647728Y-108311142D02*
X134695347Y-108287333D01*
X134695347Y-108287333D02*
X134766776Y-108287333D01*
X134766776Y-108287333D02*
X134814395Y-108311142D01*
X134814395Y-108311142D02*
X134838204Y-108334952D01*
X134838204Y-108334952D02*
X134862014Y-108382571D01*
X134862014Y-108382571D02*
X134862014Y-108573047D01*
X134600109Y-108120666D02*
X134600109Y-107787333D01*
X134600109Y-107787333D02*
X135100109Y-108001618D01*
%TO.C,U2*%
X172085047Y-138410109D02*
X172085047Y-138814871D01*
X172085047Y-138814871D02*
X172108857Y-138862490D01*
X172108857Y-138862490D02*
X172132666Y-138886300D01*
X172132666Y-138886300D02*
X172180285Y-138910109D01*
X172180285Y-138910109D02*
X172275523Y-138910109D01*
X172275523Y-138910109D02*
X172323142Y-138886300D01*
X172323142Y-138886300D02*
X172346952Y-138862490D01*
X172346952Y-138862490D02*
X172370761Y-138814871D01*
X172370761Y-138814871D02*
X172370761Y-138410109D01*
X172585048Y-138457728D02*
X172608857Y-138433919D01*
X172608857Y-138433919D02*
X172656476Y-138410109D01*
X172656476Y-138410109D02*
X172775524Y-138410109D01*
X172775524Y-138410109D02*
X172823143Y-138433919D01*
X172823143Y-138433919D02*
X172846952Y-138457728D01*
X172846952Y-138457728D02*
X172870762Y-138505347D01*
X172870762Y-138505347D02*
X172870762Y-138552966D01*
X172870762Y-138552966D02*
X172846952Y-138624395D01*
X172846952Y-138624395D02*
X172561238Y-138910109D01*
X172561238Y-138910109D02*
X172870762Y-138910109D01*
%TO.C,U4*%
X174879047Y-124694109D02*
X174879047Y-125098871D01*
X174879047Y-125098871D02*
X174902857Y-125146490D01*
X174902857Y-125146490D02*
X174926666Y-125170300D01*
X174926666Y-125170300D02*
X174974285Y-125194109D01*
X174974285Y-125194109D02*
X175069523Y-125194109D01*
X175069523Y-125194109D02*
X175117142Y-125170300D01*
X175117142Y-125170300D02*
X175140952Y-125146490D01*
X175140952Y-125146490D02*
X175164761Y-125098871D01*
X175164761Y-125098871D02*
X175164761Y-124694109D01*
X175617143Y-124860776D02*
X175617143Y-125194109D01*
X175498095Y-124670300D02*
X175379048Y-125027442D01*
X175379048Y-125027442D02*
X175688571Y-125027442D01*
%TO.C,R9*%
X140378666Y-111986109D02*
X140212000Y-111748014D01*
X140092952Y-111986109D02*
X140092952Y-111486109D01*
X140092952Y-111486109D02*
X140283428Y-111486109D01*
X140283428Y-111486109D02*
X140331047Y-111509919D01*
X140331047Y-111509919D02*
X140354857Y-111533728D01*
X140354857Y-111533728D02*
X140378666Y-111581347D01*
X140378666Y-111581347D02*
X140378666Y-111652776D01*
X140378666Y-111652776D02*
X140354857Y-111700395D01*
X140354857Y-111700395D02*
X140331047Y-111724204D01*
X140331047Y-111724204D02*
X140283428Y-111748014D01*
X140283428Y-111748014D02*
X140092952Y-111748014D01*
X140616762Y-111986109D02*
X140712000Y-111986109D01*
X140712000Y-111986109D02*
X140759619Y-111962300D01*
X140759619Y-111962300D02*
X140783428Y-111938490D01*
X140783428Y-111938490D02*
X140831047Y-111867061D01*
X140831047Y-111867061D02*
X140854857Y-111771823D01*
X140854857Y-111771823D02*
X140854857Y-111581347D01*
X140854857Y-111581347D02*
X140831047Y-111533728D01*
X140831047Y-111533728D02*
X140807238Y-111509919D01*
X140807238Y-111509919D02*
X140759619Y-111486109D01*
X140759619Y-111486109D02*
X140664381Y-111486109D01*
X140664381Y-111486109D02*
X140616762Y-111509919D01*
X140616762Y-111509919D02*
X140592952Y-111533728D01*
X140592952Y-111533728D02*
X140569143Y-111581347D01*
X140569143Y-111581347D02*
X140569143Y-111700395D01*
X140569143Y-111700395D02*
X140592952Y-111748014D01*
X140592952Y-111748014D02*
X140616762Y-111771823D01*
X140616762Y-111771823D02*
X140664381Y-111795633D01*
X140664381Y-111795633D02*
X140759619Y-111795633D01*
X140759619Y-111795633D02*
X140807238Y-111771823D01*
X140807238Y-111771823D02*
X140831047Y-111748014D01*
X140831047Y-111748014D02*
X140854857Y-111700395D01*
%TO.C,U3*%
X161524109Y-136016952D02*
X161928871Y-136016952D01*
X161928871Y-136016952D02*
X161976490Y-135993142D01*
X161976490Y-135993142D02*
X162000300Y-135969333D01*
X162000300Y-135969333D02*
X162024109Y-135921714D01*
X162024109Y-135921714D02*
X162024109Y-135826476D01*
X162024109Y-135826476D02*
X162000300Y-135778857D01*
X162000300Y-135778857D02*
X161976490Y-135755047D01*
X161976490Y-135755047D02*
X161928871Y-135731238D01*
X161928871Y-135731238D02*
X161524109Y-135731238D01*
X161524109Y-135540761D02*
X161524109Y-135231237D01*
X161524109Y-135231237D02*
X161714585Y-135397904D01*
X161714585Y-135397904D02*
X161714585Y-135326475D01*
X161714585Y-135326475D02*
X161738395Y-135278856D01*
X161738395Y-135278856D02*
X161762204Y-135255047D01*
X161762204Y-135255047D02*
X161809823Y-135231237D01*
X161809823Y-135231237D02*
X161928871Y-135231237D01*
X161928871Y-135231237D02*
X161976490Y-135255047D01*
X161976490Y-135255047D02*
X162000300Y-135278856D01*
X162000300Y-135278856D02*
X162024109Y-135326475D01*
X162024109Y-135326475D02*
X162024109Y-135469332D01*
X162024109Y-135469332D02*
X162000300Y-135516951D01*
X162000300Y-135516951D02*
X161976490Y-135540761D01*
%TO.C,J5*%
X179665333Y-104374109D02*
X179665333Y-104731252D01*
X179665333Y-104731252D02*
X179641524Y-104802680D01*
X179641524Y-104802680D02*
X179593905Y-104850300D01*
X179593905Y-104850300D02*
X179522476Y-104874109D01*
X179522476Y-104874109D02*
X179474857Y-104874109D01*
X180141523Y-104374109D02*
X179903428Y-104374109D01*
X179903428Y-104374109D02*
X179879619Y-104612204D01*
X179879619Y-104612204D02*
X179903428Y-104588395D01*
X179903428Y-104588395D02*
X179951047Y-104564585D01*
X179951047Y-104564585D02*
X180070095Y-104564585D01*
X180070095Y-104564585D02*
X180117714Y-104588395D01*
X180117714Y-104588395D02*
X180141523Y-104612204D01*
X180141523Y-104612204D02*
X180165333Y-104659823D01*
X180165333Y-104659823D02*
X180165333Y-104778871D01*
X180165333Y-104778871D02*
X180141523Y-104826490D01*
X180141523Y-104826490D02*
X180117714Y-104850300D01*
X180117714Y-104850300D02*
X180070095Y-104874109D01*
X180070095Y-104874109D02*
X179951047Y-104874109D01*
X179951047Y-104874109D02*
X179903428Y-104850300D01*
X179903428Y-104850300D02*
X179879619Y-104826490D01*
%TO.C,C2*%
X158920666Y-100254490D02*
X158896857Y-100278300D01*
X158896857Y-100278300D02*
X158825428Y-100302109D01*
X158825428Y-100302109D02*
X158777809Y-100302109D01*
X158777809Y-100302109D02*
X158706381Y-100278300D01*
X158706381Y-100278300D02*
X158658762Y-100230680D01*
X158658762Y-100230680D02*
X158634952Y-100183061D01*
X158634952Y-100183061D02*
X158611143Y-100087823D01*
X158611143Y-100087823D02*
X158611143Y-100016395D01*
X158611143Y-100016395D02*
X158634952Y-99921157D01*
X158634952Y-99921157D02*
X158658762Y-99873538D01*
X158658762Y-99873538D02*
X158706381Y-99825919D01*
X158706381Y-99825919D02*
X158777809Y-99802109D01*
X158777809Y-99802109D02*
X158825428Y-99802109D01*
X158825428Y-99802109D02*
X158896857Y-99825919D01*
X158896857Y-99825919D02*
X158920666Y-99849728D01*
X159111143Y-99849728D02*
X159134952Y-99825919D01*
X159134952Y-99825919D02*
X159182571Y-99802109D01*
X159182571Y-99802109D02*
X159301619Y-99802109D01*
X159301619Y-99802109D02*
X159349238Y-99825919D01*
X159349238Y-99825919D02*
X159373047Y-99849728D01*
X159373047Y-99849728D02*
X159396857Y-99897347D01*
X159396857Y-99897347D02*
X159396857Y-99944966D01*
X159396857Y-99944966D02*
X159373047Y-100016395D01*
X159373047Y-100016395D02*
X159087333Y-100302109D01*
X159087333Y-100302109D02*
X159396857Y-100302109D01*
%TO.C,R6*%
X150792666Y-101826109D02*
X150626000Y-101588014D01*
X150506952Y-101826109D02*
X150506952Y-101326109D01*
X150506952Y-101326109D02*
X150697428Y-101326109D01*
X150697428Y-101326109D02*
X150745047Y-101349919D01*
X150745047Y-101349919D02*
X150768857Y-101373728D01*
X150768857Y-101373728D02*
X150792666Y-101421347D01*
X150792666Y-101421347D02*
X150792666Y-101492776D01*
X150792666Y-101492776D02*
X150768857Y-101540395D01*
X150768857Y-101540395D02*
X150745047Y-101564204D01*
X150745047Y-101564204D02*
X150697428Y-101588014D01*
X150697428Y-101588014D02*
X150506952Y-101588014D01*
X151221238Y-101326109D02*
X151126000Y-101326109D01*
X151126000Y-101326109D02*
X151078381Y-101349919D01*
X151078381Y-101349919D02*
X151054571Y-101373728D01*
X151054571Y-101373728D02*
X151006952Y-101445157D01*
X151006952Y-101445157D02*
X150983143Y-101540395D01*
X150983143Y-101540395D02*
X150983143Y-101730871D01*
X150983143Y-101730871D02*
X151006952Y-101778490D01*
X151006952Y-101778490D02*
X151030762Y-101802300D01*
X151030762Y-101802300D02*
X151078381Y-101826109D01*
X151078381Y-101826109D02*
X151173619Y-101826109D01*
X151173619Y-101826109D02*
X151221238Y-101802300D01*
X151221238Y-101802300D02*
X151245047Y-101778490D01*
X151245047Y-101778490D02*
X151268857Y-101730871D01*
X151268857Y-101730871D02*
X151268857Y-101611823D01*
X151268857Y-101611823D02*
X151245047Y-101564204D01*
X151245047Y-101564204D02*
X151221238Y-101540395D01*
X151221238Y-101540395D02*
X151173619Y-101516585D01*
X151173619Y-101516585D02*
X151078381Y-101516585D01*
X151078381Y-101516585D02*
X151030762Y-101540395D01*
X151030762Y-101540395D02*
X151006952Y-101564204D01*
X151006952Y-101564204D02*
X150983143Y-101611823D01*
%TO.C,D1*%
X154062952Y-106652109D02*
X154062952Y-106152109D01*
X154062952Y-106152109D02*
X154182000Y-106152109D01*
X154182000Y-106152109D02*
X154253428Y-106175919D01*
X154253428Y-106175919D02*
X154301047Y-106223538D01*
X154301047Y-106223538D02*
X154324857Y-106271157D01*
X154324857Y-106271157D02*
X154348666Y-106366395D01*
X154348666Y-106366395D02*
X154348666Y-106437823D01*
X154348666Y-106437823D02*
X154324857Y-106533061D01*
X154324857Y-106533061D02*
X154301047Y-106580680D01*
X154301047Y-106580680D02*
X154253428Y-106628300D01*
X154253428Y-106628300D02*
X154182000Y-106652109D01*
X154182000Y-106652109D02*
X154062952Y-106652109D01*
X154824857Y-106652109D02*
X154539143Y-106652109D01*
X154682000Y-106652109D02*
X154682000Y-106152109D01*
X154682000Y-106152109D02*
X154634381Y-106223538D01*
X154634381Y-106223538D02*
X154586762Y-106271157D01*
X154586762Y-106271157D02*
X154539143Y-106294966D01*
%TO.C,C1*%
X141902666Y-109746490D02*
X141878857Y-109770300D01*
X141878857Y-109770300D02*
X141807428Y-109794109D01*
X141807428Y-109794109D02*
X141759809Y-109794109D01*
X141759809Y-109794109D02*
X141688381Y-109770300D01*
X141688381Y-109770300D02*
X141640762Y-109722680D01*
X141640762Y-109722680D02*
X141616952Y-109675061D01*
X141616952Y-109675061D02*
X141593143Y-109579823D01*
X141593143Y-109579823D02*
X141593143Y-109508395D01*
X141593143Y-109508395D02*
X141616952Y-109413157D01*
X141616952Y-109413157D02*
X141640762Y-109365538D01*
X141640762Y-109365538D02*
X141688381Y-109317919D01*
X141688381Y-109317919D02*
X141759809Y-109294109D01*
X141759809Y-109294109D02*
X141807428Y-109294109D01*
X141807428Y-109294109D02*
X141878857Y-109317919D01*
X141878857Y-109317919D02*
X141902666Y-109341728D01*
X142378857Y-109794109D02*
X142093143Y-109794109D01*
X142236000Y-109794109D02*
X142236000Y-109294109D01*
X142236000Y-109294109D02*
X142188381Y-109365538D01*
X142188381Y-109365538D02*
X142140762Y-109413157D01*
X142140762Y-109413157D02*
X142093143Y-109436966D01*
%TO.C,D2*%
X138822952Y-110462109D02*
X138822952Y-109962109D01*
X138822952Y-109962109D02*
X138942000Y-109962109D01*
X138942000Y-109962109D02*
X139013428Y-109985919D01*
X139013428Y-109985919D02*
X139061047Y-110033538D01*
X139061047Y-110033538D02*
X139084857Y-110081157D01*
X139084857Y-110081157D02*
X139108666Y-110176395D01*
X139108666Y-110176395D02*
X139108666Y-110247823D01*
X139108666Y-110247823D02*
X139084857Y-110343061D01*
X139084857Y-110343061D02*
X139061047Y-110390680D01*
X139061047Y-110390680D02*
X139013428Y-110438300D01*
X139013428Y-110438300D02*
X138942000Y-110462109D01*
X138942000Y-110462109D02*
X138822952Y-110462109D01*
X139299143Y-110009728D02*
X139322952Y-109985919D01*
X139322952Y-109985919D02*
X139370571Y-109962109D01*
X139370571Y-109962109D02*
X139489619Y-109962109D01*
X139489619Y-109962109D02*
X139537238Y-109985919D01*
X139537238Y-109985919D02*
X139561047Y-110009728D01*
X139561047Y-110009728D02*
X139584857Y-110057347D01*
X139584857Y-110057347D02*
X139584857Y-110104966D01*
X139584857Y-110104966D02*
X139561047Y-110176395D01*
X139561047Y-110176395D02*
X139275333Y-110462109D01*
X139275333Y-110462109D02*
X139584857Y-110462109D01*
%TO.C,D3*%
X138822952Y-119606109D02*
X138822952Y-119106109D01*
X138822952Y-119106109D02*
X138942000Y-119106109D01*
X138942000Y-119106109D02*
X139013428Y-119129919D01*
X139013428Y-119129919D02*
X139061047Y-119177538D01*
X139061047Y-119177538D02*
X139084857Y-119225157D01*
X139084857Y-119225157D02*
X139108666Y-119320395D01*
X139108666Y-119320395D02*
X139108666Y-119391823D01*
X139108666Y-119391823D02*
X139084857Y-119487061D01*
X139084857Y-119487061D02*
X139061047Y-119534680D01*
X139061047Y-119534680D02*
X139013428Y-119582300D01*
X139013428Y-119582300D02*
X138942000Y-119606109D01*
X138942000Y-119606109D02*
X138822952Y-119606109D01*
X139275333Y-119106109D02*
X139584857Y-119106109D01*
X139584857Y-119106109D02*
X139418190Y-119296585D01*
X139418190Y-119296585D02*
X139489619Y-119296585D01*
X139489619Y-119296585D02*
X139537238Y-119320395D01*
X139537238Y-119320395D02*
X139561047Y-119344204D01*
X139561047Y-119344204D02*
X139584857Y-119391823D01*
X139584857Y-119391823D02*
X139584857Y-119510871D01*
X139584857Y-119510871D02*
X139561047Y-119558490D01*
X139561047Y-119558490D02*
X139537238Y-119582300D01*
X139537238Y-119582300D02*
X139489619Y-119606109D01*
X139489619Y-119606109D02*
X139346762Y-119606109D01*
X139346762Y-119606109D02*
X139299143Y-119582300D01*
X139299143Y-119582300D02*
X139275333Y-119558490D01*
%TO.C,D4*%
X138568952Y-102842109D02*
X138568952Y-102342109D01*
X138568952Y-102342109D02*
X138688000Y-102342109D01*
X138688000Y-102342109D02*
X138759428Y-102365919D01*
X138759428Y-102365919D02*
X138807047Y-102413538D01*
X138807047Y-102413538D02*
X138830857Y-102461157D01*
X138830857Y-102461157D02*
X138854666Y-102556395D01*
X138854666Y-102556395D02*
X138854666Y-102627823D01*
X138854666Y-102627823D02*
X138830857Y-102723061D01*
X138830857Y-102723061D02*
X138807047Y-102770680D01*
X138807047Y-102770680D02*
X138759428Y-102818300D01*
X138759428Y-102818300D02*
X138688000Y-102842109D01*
X138688000Y-102842109D02*
X138568952Y-102842109D01*
X139283238Y-102508776D02*
X139283238Y-102842109D01*
X139164190Y-102318300D02*
X139045143Y-102675442D01*
X139045143Y-102675442D02*
X139354666Y-102675442D01*
%TO.C,D5*%
X138822952Y-129766109D02*
X138822952Y-129266109D01*
X138822952Y-129266109D02*
X138942000Y-129266109D01*
X138942000Y-129266109D02*
X139013428Y-129289919D01*
X139013428Y-129289919D02*
X139061047Y-129337538D01*
X139061047Y-129337538D02*
X139084857Y-129385157D01*
X139084857Y-129385157D02*
X139108666Y-129480395D01*
X139108666Y-129480395D02*
X139108666Y-129551823D01*
X139108666Y-129551823D02*
X139084857Y-129647061D01*
X139084857Y-129647061D02*
X139061047Y-129694680D01*
X139061047Y-129694680D02*
X139013428Y-129742300D01*
X139013428Y-129742300D02*
X138942000Y-129766109D01*
X138942000Y-129766109D02*
X138822952Y-129766109D01*
X139561047Y-129266109D02*
X139322952Y-129266109D01*
X139322952Y-129266109D02*
X139299143Y-129504204D01*
X139299143Y-129504204D02*
X139322952Y-129480395D01*
X139322952Y-129480395D02*
X139370571Y-129456585D01*
X139370571Y-129456585D02*
X139489619Y-129456585D01*
X139489619Y-129456585D02*
X139537238Y-129480395D01*
X139537238Y-129480395D02*
X139561047Y-129504204D01*
X139561047Y-129504204D02*
X139584857Y-129551823D01*
X139584857Y-129551823D02*
X139584857Y-129670871D01*
X139584857Y-129670871D02*
X139561047Y-129718490D01*
X139561047Y-129718490D02*
X139537238Y-129742300D01*
X139537238Y-129742300D02*
X139489619Y-129766109D01*
X139489619Y-129766109D02*
X139370571Y-129766109D01*
X139370571Y-129766109D02*
X139322952Y-129742300D01*
X139322952Y-129742300D02*
X139299143Y-129718490D01*
%TO.C,R11*%
X140434109Y-128337428D02*
X140196014Y-128504094D01*
X140434109Y-128623142D02*
X139934109Y-128623142D01*
X139934109Y-128623142D02*
X139934109Y-128432666D01*
X139934109Y-128432666D02*
X139957919Y-128385047D01*
X139957919Y-128385047D02*
X139981728Y-128361237D01*
X139981728Y-128361237D02*
X140029347Y-128337428D01*
X140029347Y-128337428D02*
X140100776Y-128337428D01*
X140100776Y-128337428D02*
X140148395Y-128361237D01*
X140148395Y-128361237D02*
X140172204Y-128385047D01*
X140172204Y-128385047D02*
X140196014Y-128432666D01*
X140196014Y-128432666D02*
X140196014Y-128623142D01*
X140434109Y-127861237D02*
X140434109Y-128146951D01*
X140434109Y-128004094D02*
X139934109Y-128004094D01*
X139934109Y-128004094D02*
X140005538Y-128051713D01*
X140005538Y-128051713D02*
X140053157Y-128099332D01*
X140053157Y-128099332D02*
X140076966Y-128146951D01*
X140434109Y-127385047D02*
X140434109Y-127670761D01*
X140434109Y-127527904D02*
X139934109Y-127527904D01*
X139934109Y-127527904D02*
X140005538Y-127575523D01*
X140005538Y-127575523D02*
X140053157Y-127623142D01*
X140053157Y-127623142D02*
X140076966Y-127670761D01*
%TO.C,SW1*%
X140049334Y-134060300D02*
X140120762Y-134084109D01*
X140120762Y-134084109D02*
X140239810Y-134084109D01*
X140239810Y-134084109D02*
X140287429Y-134060300D01*
X140287429Y-134060300D02*
X140311238Y-134036490D01*
X140311238Y-134036490D02*
X140335048Y-133988871D01*
X140335048Y-133988871D02*
X140335048Y-133941252D01*
X140335048Y-133941252D02*
X140311238Y-133893633D01*
X140311238Y-133893633D02*
X140287429Y-133869823D01*
X140287429Y-133869823D02*
X140239810Y-133846014D01*
X140239810Y-133846014D02*
X140144572Y-133822204D01*
X140144572Y-133822204D02*
X140096953Y-133798395D01*
X140096953Y-133798395D02*
X140073143Y-133774585D01*
X140073143Y-133774585D02*
X140049334Y-133726966D01*
X140049334Y-133726966D02*
X140049334Y-133679347D01*
X140049334Y-133679347D02*
X140073143Y-133631728D01*
X140073143Y-133631728D02*
X140096953Y-133607919D01*
X140096953Y-133607919D02*
X140144572Y-133584109D01*
X140144572Y-133584109D02*
X140263619Y-133584109D01*
X140263619Y-133584109D02*
X140335048Y-133607919D01*
X140501714Y-133584109D02*
X140620762Y-134084109D01*
X140620762Y-134084109D02*
X140716000Y-133726966D01*
X140716000Y-133726966D02*
X140811238Y-134084109D01*
X140811238Y-134084109D02*
X140930286Y-133584109D01*
X141382667Y-134084109D02*
X141096953Y-134084109D01*
X141239810Y-134084109D02*
X141239810Y-133584109D01*
X141239810Y-133584109D02*
X141192191Y-133655538D01*
X141192191Y-133655538D02*
X141144572Y-133703157D01*
X141144572Y-133703157D02*
X141096953Y-133726966D01*
%TO.C,C23*%
X136330571Y-101778490D02*
X136306762Y-101802300D01*
X136306762Y-101802300D02*
X136235333Y-101826109D01*
X136235333Y-101826109D02*
X136187714Y-101826109D01*
X136187714Y-101826109D02*
X136116286Y-101802300D01*
X136116286Y-101802300D02*
X136068667Y-101754680D01*
X136068667Y-101754680D02*
X136044857Y-101707061D01*
X136044857Y-101707061D02*
X136021048Y-101611823D01*
X136021048Y-101611823D02*
X136021048Y-101540395D01*
X136021048Y-101540395D02*
X136044857Y-101445157D01*
X136044857Y-101445157D02*
X136068667Y-101397538D01*
X136068667Y-101397538D02*
X136116286Y-101349919D01*
X136116286Y-101349919D02*
X136187714Y-101326109D01*
X136187714Y-101326109D02*
X136235333Y-101326109D01*
X136235333Y-101326109D02*
X136306762Y-101349919D01*
X136306762Y-101349919D02*
X136330571Y-101373728D01*
X136521048Y-101373728D02*
X136544857Y-101349919D01*
X136544857Y-101349919D02*
X136592476Y-101326109D01*
X136592476Y-101326109D02*
X136711524Y-101326109D01*
X136711524Y-101326109D02*
X136759143Y-101349919D01*
X136759143Y-101349919D02*
X136782952Y-101373728D01*
X136782952Y-101373728D02*
X136806762Y-101421347D01*
X136806762Y-101421347D02*
X136806762Y-101468966D01*
X136806762Y-101468966D02*
X136782952Y-101540395D01*
X136782952Y-101540395D02*
X136497238Y-101826109D01*
X136497238Y-101826109D02*
X136806762Y-101826109D01*
X136973428Y-101326109D02*
X137282952Y-101326109D01*
X137282952Y-101326109D02*
X137116285Y-101516585D01*
X137116285Y-101516585D02*
X137187714Y-101516585D01*
X137187714Y-101516585D02*
X137235333Y-101540395D01*
X137235333Y-101540395D02*
X137259142Y-101564204D01*
X137259142Y-101564204D02*
X137282952Y-101611823D01*
X137282952Y-101611823D02*
X137282952Y-101730871D01*
X137282952Y-101730871D02*
X137259142Y-101778490D01*
X137259142Y-101778490D02*
X137235333Y-101802300D01*
X137235333Y-101802300D02*
X137187714Y-101826109D01*
X137187714Y-101826109D02*
X137044857Y-101826109D01*
X137044857Y-101826109D02*
X136997238Y-101802300D01*
X136997238Y-101802300D02*
X136973428Y-101778490D01*
%TO.C,C24*%
X141156571Y-101778490D02*
X141132762Y-101802300D01*
X141132762Y-101802300D02*
X141061333Y-101826109D01*
X141061333Y-101826109D02*
X141013714Y-101826109D01*
X141013714Y-101826109D02*
X140942286Y-101802300D01*
X140942286Y-101802300D02*
X140894667Y-101754680D01*
X140894667Y-101754680D02*
X140870857Y-101707061D01*
X140870857Y-101707061D02*
X140847048Y-101611823D01*
X140847048Y-101611823D02*
X140847048Y-101540395D01*
X140847048Y-101540395D02*
X140870857Y-101445157D01*
X140870857Y-101445157D02*
X140894667Y-101397538D01*
X140894667Y-101397538D02*
X140942286Y-101349919D01*
X140942286Y-101349919D02*
X141013714Y-101326109D01*
X141013714Y-101326109D02*
X141061333Y-101326109D01*
X141061333Y-101326109D02*
X141132762Y-101349919D01*
X141132762Y-101349919D02*
X141156571Y-101373728D01*
X141347048Y-101373728D02*
X141370857Y-101349919D01*
X141370857Y-101349919D02*
X141418476Y-101326109D01*
X141418476Y-101326109D02*
X141537524Y-101326109D01*
X141537524Y-101326109D02*
X141585143Y-101349919D01*
X141585143Y-101349919D02*
X141608952Y-101373728D01*
X141608952Y-101373728D02*
X141632762Y-101421347D01*
X141632762Y-101421347D02*
X141632762Y-101468966D01*
X141632762Y-101468966D02*
X141608952Y-101540395D01*
X141608952Y-101540395D02*
X141323238Y-101826109D01*
X141323238Y-101826109D02*
X141632762Y-101826109D01*
X142061333Y-101492776D02*
X142061333Y-101826109D01*
X141942285Y-101302300D02*
X141823238Y-101659442D01*
X141823238Y-101659442D02*
X142132761Y-101659442D01*
%TO.C,D7*%
X152030952Y-138148109D02*
X152030952Y-137648109D01*
X152030952Y-137648109D02*
X152150000Y-137648109D01*
X152150000Y-137648109D02*
X152221428Y-137671919D01*
X152221428Y-137671919D02*
X152269047Y-137719538D01*
X152269047Y-137719538D02*
X152292857Y-137767157D01*
X152292857Y-137767157D02*
X152316666Y-137862395D01*
X152316666Y-137862395D02*
X152316666Y-137933823D01*
X152316666Y-137933823D02*
X152292857Y-138029061D01*
X152292857Y-138029061D02*
X152269047Y-138076680D01*
X152269047Y-138076680D02*
X152221428Y-138124300D01*
X152221428Y-138124300D02*
X152150000Y-138148109D01*
X152150000Y-138148109D02*
X152030952Y-138148109D01*
X152483333Y-137648109D02*
X152816666Y-137648109D01*
X152816666Y-137648109D02*
X152602381Y-138148109D01*
%TO.C,D8*%
X156348952Y-138148109D02*
X156348952Y-137648109D01*
X156348952Y-137648109D02*
X156468000Y-137648109D01*
X156468000Y-137648109D02*
X156539428Y-137671919D01*
X156539428Y-137671919D02*
X156587047Y-137719538D01*
X156587047Y-137719538D02*
X156610857Y-137767157D01*
X156610857Y-137767157D02*
X156634666Y-137862395D01*
X156634666Y-137862395D02*
X156634666Y-137933823D01*
X156634666Y-137933823D02*
X156610857Y-138029061D01*
X156610857Y-138029061D02*
X156587047Y-138076680D01*
X156587047Y-138076680D02*
X156539428Y-138124300D01*
X156539428Y-138124300D02*
X156468000Y-138148109D01*
X156468000Y-138148109D02*
X156348952Y-138148109D01*
X156920381Y-137862395D02*
X156872762Y-137838585D01*
X156872762Y-137838585D02*
X156848952Y-137814776D01*
X156848952Y-137814776D02*
X156825143Y-137767157D01*
X156825143Y-137767157D02*
X156825143Y-137743347D01*
X156825143Y-137743347D02*
X156848952Y-137695728D01*
X156848952Y-137695728D02*
X156872762Y-137671919D01*
X156872762Y-137671919D02*
X156920381Y-137648109D01*
X156920381Y-137648109D02*
X157015619Y-137648109D01*
X157015619Y-137648109D02*
X157063238Y-137671919D01*
X157063238Y-137671919D02*
X157087047Y-137695728D01*
X157087047Y-137695728D02*
X157110857Y-137743347D01*
X157110857Y-137743347D02*
X157110857Y-137767157D01*
X157110857Y-137767157D02*
X157087047Y-137814776D01*
X157087047Y-137814776D02*
X157063238Y-137838585D01*
X157063238Y-137838585D02*
X157015619Y-137862395D01*
X157015619Y-137862395D02*
X156920381Y-137862395D01*
X156920381Y-137862395D02*
X156872762Y-137886204D01*
X156872762Y-137886204D02*
X156848952Y-137910014D01*
X156848952Y-137910014D02*
X156825143Y-137957633D01*
X156825143Y-137957633D02*
X156825143Y-138052871D01*
X156825143Y-138052871D02*
X156848952Y-138100490D01*
X156848952Y-138100490D02*
X156872762Y-138124300D01*
X156872762Y-138124300D02*
X156920381Y-138148109D01*
X156920381Y-138148109D02*
X157015619Y-138148109D01*
X157015619Y-138148109D02*
X157063238Y-138124300D01*
X157063238Y-138124300D02*
X157087047Y-138100490D01*
X157087047Y-138100490D02*
X157110857Y-138052871D01*
X157110857Y-138052871D02*
X157110857Y-137957633D01*
X157110857Y-137957633D02*
X157087047Y-137910014D01*
X157087047Y-137910014D02*
X157063238Y-137886204D01*
X157063238Y-137886204D02*
X157015619Y-137862395D01*
%TO.C,R8*%
X144950666Y-142466109D02*
X144784000Y-142228014D01*
X144664952Y-142466109D02*
X144664952Y-141966109D01*
X144664952Y-141966109D02*
X144855428Y-141966109D01*
X144855428Y-141966109D02*
X144903047Y-141989919D01*
X144903047Y-141989919D02*
X144926857Y-142013728D01*
X144926857Y-142013728D02*
X144950666Y-142061347D01*
X144950666Y-142061347D02*
X144950666Y-142132776D01*
X144950666Y-142132776D02*
X144926857Y-142180395D01*
X144926857Y-142180395D02*
X144903047Y-142204204D01*
X144903047Y-142204204D02*
X144855428Y-142228014D01*
X144855428Y-142228014D02*
X144664952Y-142228014D01*
X145236381Y-142180395D02*
X145188762Y-142156585D01*
X145188762Y-142156585D02*
X145164952Y-142132776D01*
X145164952Y-142132776D02*
X145141143Y-142085157D01*
X145141143Y-142085157D02*
X145141143Y-142061347D01*
X145141143Y-142061347D02*
X145164952Y-142013728D01*
X145164952Y-142013728D02*
X145188762Y-141989919D01*
X145188762Y-141989919D02*
X145236381Y-141966109D01*
X145236381Y-141966109D02*
X145331619Y-141966109D01*
X145331619Y-141966109D02*
X145379238Y-141989919D01*
X145379238Y-141989919D02*
X145403047Y-142013728D01*
X145403047Y-142013728D02*
X145426857Y-142061347D01*
X145426857Y-142061347D02*
X145426857Y-142085157D01*
X145426857Y-142085157D02*
X145403047Y-142132776D01*
X145403047Y-142132776D02*
X145379238Y-142156585D01*
X145379238Y-142156585D02*
X145331619Y-142180395D01*
X145331619Y-142180395D02*
X145236381Y-142180395D01*
X145236381Y-142180395D02*
X145188762Y-142204204D01*
X145188762Y-142204204D02*
X145164952Y-142228014D01*
X145164952Y-142228014D02*
X145141143Y-142275633D01*
X145141143Y-142275633D02*
X145141143Y-142370871D01*
X145141143Y-142370871D02*
X145164952Y-142418490D01*
X145164952Y-142418490D02*
X145188762Y-142442300D01*
X145188762Y-142442300D02*
X145236381Y-142466109D01*
X145236381Y-142466109D02*
X145331619Y-142466109D01*
X145331619Y-142466109D02*
X145379238Y-142442300D01*
X145379238Y-142442300D02*
X145403047Y-142418490D01*
X145403047Y-142418490D02*
X145426857Y-142370871D01*
X145426857Y-142370871D02*
X145426857Y-142275633D01*
X145426857Y-142275633D02*
X145403047Y-142228014D01*
X145403047Y-142228014D02*
X145379238Y-142204204D01*
X145379238Y-142204204D02*
X145331619Y-142180395D01*
%TO.C,R10*%
X142680571Y-142720109D02*
X142513905Y-142482014D01*
X142394857Y-142720109D02*
X142394857Y-142220109D01*
X142394857Y-142220109D02*
X142585333Y-142220109D01*
X142585333Y-142220109D02*
X142632952Y-142243919D01*
X142632952Y-142243919D02*
X142656762Y-142267728D01*
X142656762Y-142267728D02*
X142680571Y-142315347D01*
X142680571Y-142315347D02*
X142680571Y-142386776D01*
X142680571Y-142386776D02*
X142656762Y-142434395D01*
X142656762Y-142434395D02*
X142632952Y-142458204D01*
X142632952Y-142458204D02*
X142585333Y-142482014D01*
X142585333Y-142482014D02*
X142394857Y-142482014D01*
X143156762Y-142720109D02*
X142871048Y-142720109D01*
X143013905Y-142720109D02*
X143013905Y-142220109D01*
X143013905Y-142220109D02*
X142966286Y-142291538D01*
X142966286Y-142291538D02*
X142918667Y-142339157D01*
X142918667Y-142339157D02*
X142871048Y-142362966D01*
X143466285Y-142220109D02*
X143513904Y-142220109D01*
X143513904Y-142220109D02*
X143561523Y-142243919D01*
X143561523Y-142243919D02*
X143585333Y-142267728D01*
X143585333Y-142267728D02*
X143609142Y-142315347D01*
X143609142Y-142315347D02*
X143632952Y-142410585D01*
X143632952Y-142410585D02*
X143632952Y-142529633D01*
X143632952Y-142529633D02*
X143609142Y-142624871D01*
X143609142Y-142624871D02*
X143585333Y-142672490D01*
X143585333Y-142672490D02*
X143561523Y-142696300D01*
X143561523Y-142696300D02*
X143513904Y-142720109D01*
X143513904Y-142720109D02*
X143466285Y-142720109D01*
X143466285Y-142720109D02*
X143418666Y-142696300D01*
X143418666Y-142696300D02*
X143394857Y-142672490D01*
X143394857Y-142672490D02*
X143371047Y-142624871D01*
X143371047Y-142624871D02*
X143347238Y-142529633D01*
X143347238Y-142529633D02*
X143347238Y-142410585D01*
X143347238Y-142410585D02*
X143371047Y-142315347D01*
X143371047Y-142315347D02*
X143394857Y-142267728D01*
X143394857Y-142267728D02*
X143418666Y-142243919D01*
X143418666Y-142243919D02*
X143466285Y-142220109D01*
%TO.C,J1*%
X147046109Y-96178666D02*
X147403252Y-96178666D01*
X147403252Y-96178666D02*
X147474680Y-96202475D01*
X147474680Y-96202475D02*
X147522300Y-96250094D01*
X147522300Y-96250094D02*
X147546109Y-96321523D01*
X147546109Y-96321523D02*
X147546109Y-96369142D01*
X147546109Y-95678666D02*
X147546109Y-95964380D01*
X147546109Y-95821523D02*
X147046109Y-95821523D01*
X147046109Y-95821523D02*
X147117538Y-95869142D01*
X147117538Y-95869142D02*
X147165157Y-95916761D01*
X147165157Y-95916761D02*
X147188966Y-95964380D01*
%TO.C,C17*%
X159944490Y-116907428D02*
X159968300Y-116931237D01*
X159968300Y-116931237D02*
X159992109Y-117002666D01*
X159992109Y-117002666D02*
X159992109Y-117050285D01*
X159992109Y-117050285D02*
X159968300Y-117121713D01*
X159968300Y-117121713D02*
X159920680Y-117169332D01*
X159920680Y-117169332D02*
X159873061Y-117193142D01*
X159873061Y-117193142D02*
X159777823Y-117216951D01*
X159777823Y-117216951D02*
X159706395Y-117216951D01*
X159706395Y-117216951D02*
X159611157Y-117193142D01*
X159611157Y-117193142D02*
X159563538Y-117169332D01*
X159563538Y-117169332D02*
X159515919Y-117121713D01*
X159515919Y-117121713D02*
X159492109Y-117050285D01*
X159492109Y-117050285D02*
X159492109Y-117002666D01*
X159492109Y-117002666D02*
X159515919Y-116931237D01*
X159515919Y-116931237D02*
X159539728Y-116907428D01*
X159992109Y-116431237D02*
X159992109Y-116716951D01*
X159992109Y-116574094D02*
X159492109Y-116574094D01*
X159492109Y-116574094D02*
X159563538Y-116621713D01*
X159563538Y-116621713D02*
X159611157Y-116669332D01*
X159611157Y-116669332D02*
X159634966Y-116716951D01*
X159492109Y-116264571D02*
X159492109Y-115931238D01*
X159492109Y-115931238D02*
X159992109Y-116145523D01*
%TO.C,C18*%
X162428071Y-116511990D02*
X162404262Y-116535800D01*
X162404262Y-116535800D02*
X162332833Y-116559609D01*
X162332833Y-116559609D02*
X162285214Y-116559609D01*
X162285214Y-116559609D02*
X162213786Y-116535800D01*
X162213786Y-116535800D02*
X162166167Y-116488180D01*
X162166167Y-116488180D02*
X162142357Y-116440561D01*
X162142357Y-116440561D02*
X162118548Y-116345323D01*
X162118548Y-116345323D02*
X162118548Y-116273895D01*
X162118548Y-116273895D02*
X162142357Y-116178657D01*
X162142357Y-116178657D02*
X162166167Y-116131038D01*
X162166167Y-116131038D02*
X162213786Y-116083419D01*
X162213786Y-116083419D02*
X162285214Y-116059609D01*
X162285214Y-116059609D02*
X162332833Y-116059609D01*
X162332833Y-116059609D02*
X162404262Y-116083419D01*
X162404262Y-116083419D02*
X162428071Y-116107228D01*
X162904262Y-116559609D02*
X162618548Y-116559609D01*
X162761405Y-116559609D02*
X162761405Y-116059609D01*
X162761405Y-116059609D02*
X162713786Y-116131038D01*
X162713786Y-116131038D02*
X162666167Y-116178657D01*
X162666167Y-116178657D02*
X162618548Y-116202466D01*
X163189976Y-116273895D02*
X163142357Y-116250085D01*
X163142357Y-116250085D02*
X163118547Y-116226276D01*
X163118547Y-116226276D02*
X163094738Y-116178657D01*
X163094738Y-116178657D02*
X163094738Y-116154847D01*
X163094738Y-116154847D02*
X163118547Y-116107228D01*
X163118547Y-116107228D02*
X163142357Y-116083419D01*
X163142357Y-116083419D02*
X163189976Y-116059609D01*
X163189976Y-116059609D02*
X163285214Y-116059609D01*
X163285214Y-116059609D02*
X163332833Y-116083419D01*
X163332833Y-116083419D02*
X163356642Y-116107228D01*
X163356642Y-116107228D02*
X163380452Y-116154847D01*
X163380452Y-116154847D02*
X163380452Y-116178657D01*
X163380452Y-116178657D02*
X163356642Y-116226276D01*
X163356642Y-116226276D02*
X163332833Y-116250085D01*
X163332833Y-116250085D02*
X163285214Y-116273895D01*
X163285214Y-116273895D02*
X163189976Y-116273895D01*
X163189976Y-116273895D02*
X163142357Y-116297704D01*
X163142357Y-116297704D02*
X163118547Y-116321514D01*
X163118547Y-116321514D02*
X163094738Y-116369133D01*
X163094738Y-116369133D02*
X163094738Y-116464371D01*
X163094738Y-116464371D02*
X163118547Y-116511990D01*
X163118547Y-116511990D02*
X163142357Y-116535800D01*
X163142357Y-116535800D02*
X163189976Y-116559609D01*
X163189976Y-116559609D02*
X163285214Y-116559609D01*
X163285214Y-116559609D02*
X163332833Y-116535800D01*
X163332833Y-116535800D02*
X163356642Y-116511990D01*
X163356642Y-116511990D02*
X163380452Y-116464371D01*
X163380452Y-116464371D02*
X163380452Y-116369133D01*
X163380452Y-116369133D02*
X163356642Y-116321514D01*
X163356642Y-116321514D02*
X163332833Y-116297704D01*
X163332833Y-116297704D02*
X163285214Y-116273895D01*
D11*
%TO.C,C19*%
X161910690Y-109542928D02*
X161934500Y-109566737D01*
X161934500Y-109566737D02*
X161958309Y-109638166D01*
X161958309Y-109638166D02*
X161958309Y-109685785D01*
X161958309Y-109685785D02*
X161934500Y-109757213D01*
X161934500Y-109757213D02*
X161886880Y-109804832D01*
X161886880Y-109804832D02*
X161839261Y-109828642D01*
X161839261Y-109828642D02*
X161744023Y-109852451D01*
X161744023Y-109852451D02*
X161672595Y-109852451D01*
X161672595Y-109852451D02*
X161577357Y-109828642D01*
X161577357Y-109828642D02*
X161529738Y-109804832D01*
X161529738Y-109804832D02*
X161482119Y-109757213D01*
X161482119Y-109757213D02*
X161458309Y-109685785D01*
X161458309Y-109685785D02*
X161458309Y-109638166D01*
X161458309Y-109638166D02*
X161482119Y-109566737D01*
X161482119Y-109566737D02*
X161505928Y-109542928D01*
X161958309Y-109066737D02*
X161958309Y-109352451D01*
X161958309Y-109209594D02*
X161458309Y-109209594D01*
X161458309Y-109209594D02*
X161529738Y-109257213D01*
X161529738Y-109257213D02*
X161577357Y-109304832D01*
X161577357Y-109304832D02*
X161601166Y-109352451D01*
X161958309Y-108828642D02*
X161958309Y-108733404D01*
X161958309Y-108733404D02*
X161934500Y-108685785D01*
X161934500Y-108685785D02*
X161910690Y-108661976D01*
X161910690Y-108661976D02*
X161839261Y-108614357D01*
X161839261Y-108614357D02*
X161744023Y-108590547D01*
X161744023Y-108590547D02*
X161553547Y-108590547D01*
X161553547Y-108590547D02*
X161505928Y-108614357D01*
X161505928Y-108614357D02*
X161482119Y-108638166D01*
X161482119Y-108638166D02*
X161458309Y-108685785D01*
X161458309Y-108685785D02*
X161458309Y-108781023D01*
X161458309Y-108781023D02*
X161482119Y-108828642D01*
X161482119Y-108828642D02*
X161505928Y-108852452D01*
X161505928Y-108852452D02*
X161553547Y-108876261D01*
X161553547Y-108876261D02*
X161672595Y-108876261D01*
X161672595Y-108876261D02*
X161720214Y-108852452D01*
X161720214Y-108852452D02*
X161744023Y-108828642D01*
X161744023Y-108828642D02*
X161767833Y-108781023D01*
X161767833Y-108781023D02*
X161767833Y-108685785D01*
X161767833Y-108685785D02*
X161744023Y-108638166D01*
X161744023Y-108638166D02*
X161720214Y-108614357D01*
X161720214Y-108614357D02*
X161672595Y-108590547D01*
D10*
%TO.C,C20*%
X158110071Y-108129990D02*
X158086262Y-108153800D01*
X158086262Y-108153800D02*
X158014833Y-108177609D01*
X158014833Y-108177609D02*
X157967214Y-108177609D01*
X157967214Y-108177609D02*
X157895786Y-108153800D01*
X157895786Y-108153800D02*
X157848167Y-108106180D01*
X157848167Y-108106180D02*
X157824357Y-108058561D01*
X157824357Y-108058561D02*
X157800548Y-107963323D01*
X157800548Y-107963323D02*
X157800548Y-107891895D01*
X157800548Y-107891895D02*
X157824357Y-107796657D01*
X157824357Y-107796657D02*
X157848167Y-107749038D01*
X157848167Y-107749038D02*
X157895786Y-107701419D01*
X157895786Y-107701419D02*
X157967214Y-107677609D01*
X157967214Y-107677609D02*
X158014833Y-107677609D01*
X158014833Y-107677609D02*
X158086262Y-107701419D01*
X158086262Y-107701419D02*
X158110071Y-107725228D01*
X158300548Y-107725228D02*
X158324357Y-107701419D01*
X158324357Y-107701419D02*
X158371976Y-107677609D01*
X158371976Y-107677609D02*
X158491024Y-107677609D01*
X158491024Y-107677609D02*
X158538643Y-107701419D01*
X158538643Y-107701419D02*
X158562452Y-107725228D01*
X158562452Y-107725228D02*
X158586262Y-107772847D01*
X158586262Y-107772847D02*
X158586262Y-107820466D01*
X158586262Y-107820466D02*
X158562452Y-107891895D01*
X158562452Y-107891895D02*
X158276738Y-108177609D01*
X158276738Y-108177609D02*
X158586262Y-108177609D01*
X158895785Y-107677609D02*
X158943404Y-107677609D01*
X158943404Y-107677609D02*
X158991023Y-107701419D01*
X158991023Y-107701419D02*
X159014833Y-107725228D01*
X159014833Y-107725228D02*
X159038642Y-107772847D01*
X159038642Y-107772847D02*
X159062452Y-107868085D01*
X159062452Y-107868085D02*
X159062452Y-107987133D01*
X159062452Y-107987133D02*
X159038642Y-108082371D01*
X159038642Y-108082371D02*
X159014833Y-108129990D01*
X159014833Y-108129990D02*
X158991023Y-108153800D01*
X158991023Y-108153800D02*
X158943404Y-108177609D01*
X158943404Y-108177609D02*
X158895785Y-108177609D01*
X158895785Y-108177609D02*
X158848166Y-108153800D01*
X158848166Y-108153800D02*
X158824357Y-108129990D01*
X158824357Y-108129990D02*
X158800547Y-108082371D01*
X158800547Y-108082371D02*
X158776738Y-107987133D01*
X158776738Y-107987133D02*
X158776738Y-107868085D01*
X158776738Y-107868085D02*
X158800547Y-107772847D01*
X158800547Y-107772847D02*
X158824357Y-107725228D01*
X158824357Y-107725228D02*
X158848166Y-107701419D01*
X158848166Y-107701419D02*
X158895785Y-107677609D01*
%TO.C,C21*%
X157856071Y-116003990D02*
X157832262Y-116027800D01*
X157832262Y-116027800D02*
X157760833Y-116051609D01*
X157760833Y-116051609D02*
X157713214Y-116051609D01*
X157713214Y-116051609D02*
X157641786Y-116027800D01*
X157641786Y-116027800D02*
X157594167Y-115980180D01*
X157594167Y-115980180D02*
X157570357Y-115932561D01*
X157570357Y-115932561D02*
X157546548Y-115837323D01*
X157546548Y-115837323D02*
X157546548Y-115765895D01*
X157546548Y-115765895D02*
X157570357Y-115670657D01*
X157570357Y-115670657D02*
X157594167Y-115623038D01*
X157594167Y-115623038D02*
X157641786Y-115575419D01*
X157641786Y-115575419D02*
X157713214Y-115551609D01*
X157713214Y-115551609D02*
X157760833Y-115551609D01*
X157760833Y-115551609D02*
X157832262Y-115575419D01*
X157832262Y-115575419D02*
X157856071Y-115599228D01*
X158046548Y-115599228D02*
X158070357Y-115575419D01*
X158070357Y-115575419D02*
X158117976Y-115551609D01*
X158117976Y-115551609D02*
X158237024Y-115551609D01*
X158237024Y-115551609D02*
X158284643Y-115575419D01*
X158284643Y-115575419D02*
X158308452Y-115599228D01*
X158308452Y-115599228D02*
X158332262Y-115646847D01*
X158332262Y-115646847D02*
X158332262Y-115694466D01*
X158332262Y-115694466D02*
X158308452Y-115765895D01*
X158308452Y-115765895D02*
X158022738Y-116051609D01*
X158022738Y-116051609D02*
X158332262Y-116051609D01*
X158808452Y-116051609D02*
X158522738Y-116051609D01*
X158665595Y-116051609D02*
X158665595Y-115551609D01*
X158665595Y-115551609D02*
X158617976Y-115623038D01*
X158617976Y-115623038D02*
X158570357Y-115670657D01*
X158570357Y-115670657D02*
X158522738Y-115694466D01*
%TO.C,C22*%
X166492071Y-108891990D02*
X166468262Y-108915800D01*
X166468262Y-108915800D02*
X166396833Y-108939609D01*
X166396833Y-108939609D02*
X166349214Y-108939609D01*
X166349214Y-108939609D02*
X166277786Y-108915800D01*
X166277786Y-108915800D02*
X166230167Y-108868180D01*
X166230167Y-108868180D02*
X166206357Y-108820561D01*
X166206357Y-108820561D02*
X166182548Y-108725323D01*
X166182548Y-108725323D02*
X166182548Y-108653895D01*
X166182548Y-108653895D02*
X166206357Y-108558657D01*
X166206357Y-108558657D02*
X166230167Y-108511038D01*
X166230167Y-108511038D02*
X166277786Y-108463419D01*
X166277786Y-108463419D02*
X166349214Y-108439609D01*
X166349214Y-108439609D02*
X166396833Y-108439609D01*
X166396833Y-108439609D02*
X166468262Y-108463419D01*
X166468262Y-108463419D02*
X166492071Y-108487228D01*
X166682548Y-108487228D02*
X166706357Y-108463419D01*
X166706357Y-108463419D02*
X166753976Y-108439609D01*
X166753976Y-108439609D02*
X166873024Y-108439609D01*
X166873024Y-108439609D02*
X166920643Y-108463419D01*
X166920643Y-108463419D02*
X166944452Y-108487228D01*
X166944452Y-108487228D02*
X166968262Y-108534847D01*
X166968262Y-108534847D02*
X166968262Y-108582466D01*
X166968262Y-108582466D02*
X166944452Y-108653895D01*
X166944452Y-108653895D02*
X166658738Y-108939609D01*
X166658738Y-108939609D02*
X166968262Y-108939609D01*
X167158738Y-108487228D02*
X167182547Y-108463419D01*
X167182547Y-108463419D02*
X167230166Y-108439609D01*
X167230166Y-108439609D02*
X167349214Y-108439609D01*
X167349214Y-108439609D02*
X167396833Y-108463419D01*
X167396833Y-108463419D02*
X167420642Y-108487228D01*
X167420642Y-108487228D02*
X167444452Y-108534847D01*
X167444452Y-108534847D02*
X167444452Y-108582466D01*
X167444452Y-108582466D02*
X167420642Y-108653895D01*
X167420642Y-108653895D02*
X167134928Y-108939609D01*
X167134928Y-108939609D02*
X167444452Y-108939609D01*
%TO.C,L2*%
X155609609Y-110828833D02*
X155609609Y-111066928D01*
X155609609Y-111066928D02*
X155109609Y-111066928D01*
X155157228Y-110685975D02*
X155133419Y-110662166D01*
X155133419Y-110662166D02*
X155109609Y-110614547D01*
X155109609Y-110614547D02*
X155109609Y-110495499D01*
X155109609Y-110495499D02*
X155133419Y-110447880D01*
X155133419Y-110447880D02*
X155157228Y-110424071D01*
X155157228Y-110424071D02*
X155204847Y-110400261D01*
X155204847Y-110400261D02*
X155252466Y-110400261D01*
X155252466Y-110400261D02*
X155323895Y-110424071D01*
X155323895Y-110424071D02*
X155609609Y-110709785D01*
X155609609Y-110709785D02*
X155609609Y-110400261D01*
%TO.C,R12*%
X165984071Y-118083609D02*
X165817405Y-117845514D01*
X165698357Y-118083609D02*
X165698357Y-117583609D01*
X165698357Y-117583609D02*
X165888833Y-117583609D01*
X165888833Y-117583609D02*
X165936452Y-117607419D01*
X165936452Y-117607419D02*
X165960262Y-117631228D01*
X165960262Y-117631228D02*
X165984071Y-117678847D01*
X165984071Y-117678847D02*
X165984071Y-117750276D01*
X165984071Y-117750276D02*
X165960262Y-117797895D01*
X165960262Y-117797895D02*
X165936452Y-117821704D01*
X165936452Y-117821704D02*
X165888833Y-117845514D01*
X165888833Y-117845514D02*
X165698357Y-117845514D01*
X166460262Y-118083609D02*
X166174548Y-118083609D01*
X166317405Y-118083609D02*
X166317405Y-117583609D01*
X166317405Y-117583609D02*
X166269786Y-117655038D01*
X166269786Y-117655038D02*
X166222167Y-117702657D01*
X166222167Y-117702657D02*
X166174548Y-117726466D01*
X166650738Y-117631228D02*
X166674547Y-117607419D01*
X166674547Y-117607419D02*
X166722166Y-117583609D01*
X166722166Y-117583609D02*
X166841214Y-117583609D01*
X166841214Y-117583609D02*
X166888833Y-117607419D01*
X166888833Y-117607419D02*
X166912642Y-117631228D01*
X166912642Y-117631228D02*
X166936452Y-117678847D01*
X166936452Y-117678847D02*
X166936452Y-117726466D01*
X166936452Y-117726466D02*
X166912642Y-117797895D01*
X166912642Y-117797895D02*
X166626928Y-118083609D01*
X166626928Y-118083609D02*
X166936452Y-118083609D01*
%TO.C,R13*%
X163952071Y-117321609D02*
X163785405Y-117083514D01*
X163666357Y-117321609D02*
X163666357Y-116821609D01*
X163666357Y-116821609D02*
X163856833Y-116821609D01*
X163856833Y-116821609D02*
X163904452Y-116845419D01*
X163904452Y-116845419D02*
X163928262Y-116869228D01*
X163928262Y-116869228D02*
X163952071Y-116916847D01*
X163952071Y-116916847D02*
X163952071Y-116988276D01*
X163952071Y-116988276D02*
X163928262Y-117035895D01*
X163928262Y-117035895D02*
X163904452Y-117059704D01*
X163904452Y-117059704D02*
X163856833Y-117083514D01*
X163856833Y-117083514D02*
X163666357Y-117083514D01*
X164428262Y-117321609D02*
X164142548Y-117321609D01*
X164285405Y-117321609D02*
X164285405Y-116821609D01*
X164285405Y-116821609D02*
X164237786Y-116893038D01*
X164237786Y-116893038D02*
X164190167Y-116940657D01*
X164190167Y-116940657D02*
X164142548Y-116964466D01*
X164594928Y-116821609D02*
X164904452Y-116821609D01*
X164904452Y-116821609D02*
X164737785Y-117012085D01*
X164737785Y-117012085D02*
X164809214Y-117012085D01*
X164809214Y-117012085D02*
X164856833Y-117035895D01*
X164856833Y-117035895D02*
X164880642Y-117059704D01*
X164880642Y-117059704D02*
X164904452Y-117107323D01*
X164904452Y-117107323D02*
X164904452Y-117226371D01*
X164904452Y-117226371D02*
X164880642Y-117273990D01*
X164880642Y-117273990D02*
X164856833Y-117297800D01*
X164856833Y-117297800D02*
X164809214Y-117321609D01*
X164809214Y-117321609D02*
X164666357Y-117321609D01*
X164666357Y-117321609D02*
X164618738Y-117297800D01*
X164618738Y-117297800D02*
X164594928Y-117273990D01*
%TO.C,R14*%
X164460071Y-107669609D02*
X164293405Y-107431514D01*
X164174357Y-107669609D02*
X164174357Y-107169609D01*
X164174357Y-107169609D02*
X164364833Y-107169609D01*
X164364833Y-107169609D02*
X164412452Y-107193419D01*
X164412452Y-107193419D02*
X164436262Y-107217228D01*
X164436262Y-107217228D02*
X164460071Y-107264847D01*
X164460071Y-107264847D02*
X164460071Y-107336276D01*
X164460071Y-107336276D02*
X164436262Y-107383895D01*
X164436262Y-107383895D02*
X164412452Y-107407704D01*
X164412452Y-107407704D02*
X164364833Y-107431514D01*
X164364833Y-107431514D02*
X164174357Y-107431514D01*
X164936262Y-107669609D02*
X164650548Y-107669609D01*
X164793405Y-107669609D02*
X164793405Y-107169609D01*
X164793405Y-107169609D02*
X164745786Y-107241038D01*
X164745786Y-107241038D02*
X164698167Y-107288657D01*
X164698167Y-107288657D02*
X164650548Y-107312466D01*
X165364833Y-107336276D02*
X165364833Y-107669609D01*
X165245785Y-107145800D02*
X165126738Y-107502942D01*
X165126738Y-107502942D02*
X165436261Y-107502942D01*
%TO.C,R15*%
X164714071Y-108939609D02*
X164547405Y-108701514D01*
X164428357Y-108939609D02*
X164428357Y-108439609D01*
X164428357Y-108439609D02*
X164618833Y-108439609D01*
X164618833Y-108439609D02*
X164666452Y-108463419D01*
X164666452Y-108463419D02*
X164690262Y-108487228D01*
X164690262Y-108487228D02*
X164714071Y-108534847D01*
X164714071Y-108534847D02*
X164714071Y-108606276D01*
X164714071Y-108606276D02*
X164690262Y-108653895D01*
X164690262Y-108653895D02*
X164666452Y-108677704D01*
X164666452Y-108677704D02*
X164618833Y-108701514D01*
X164618833Y-108701514D02*
X164428357Y-108701514D01*
X165190262Y-108939609D02*
X164904548Y-108939609D01*
X165047405Y-108939609D02*
X165047405Y-108439609D01*
X165047405Y-108439609D02*
X164999786Y-108511038D01*
X164999786Y-108511038D02*
X164952167Y-108558657D01*
X164952167Y-108558657D02*
X164904548Y-108582466D01*
X165642642Y-108439609D02*
X165404547Y-108439609D01*
X165404547Y-108439609D02*
X165380738Y-108677704D01*
X165380738Y-108677704D02*
X165404547Y-108653895D01*
X165404547Y-108653895D02*
X165452166Y-108630085D01*
X165452166Y-108630085D02*
X165571214Y-108630085D01*
X165571214Y-108630085D02*
X165618833Y-108653895D01*
X165618833Y-108653895D02*
X165642642Y-108677704D01*
X165642642Y-108677704D02*
X165666452Y-108725323D01*
X165666452Y-108725323D02*
X165666452Y-108844371D01*
X165666452Y-108844371D02*
X165642642Y-108891990D01*
X165642642Y-108891990D02*
X165618833Y-108915800D01*
X165618833Y-108915800D02*
X165571214Y-108939609D01*
X165571214Y-108939609D02*
X165452166Y-108939609D01*
X165452166Y-108939609D02*
X165404547Y-108915800D01*
X165404547Y-108915800D02*
X165380738Y-108891990D01*
%TO.C,R16*%
X165730071Y-114019609D02*
X165563405Y-113781514D01*
X165444357Y-114019609D02*
X165444357Y-113519609D01*
X165444357Y-113519609D02*
X165634833Y-113519609D01*
X165634833Y-113519609D02*
X165682452Y-113543419D01*
X165682452Y-113543419D02*
X165706262Y-113567228D01*
X165706262Y-113567228D02*
X165730071Y-113614847D01*
X165730071Y-113614847D02*
X165730071Y-113686276D01*
X165730071Y-113686276D02*
X165706262Y-113733895D01*
X165706262Y-113733895D02*
X165682452Y-113757704D01*
X165682452Y-113757704D02*
X165634833Y-113781514D01*
X165634833Y-113781514D02*
X165444357Y-113781514D01*
X166206262Y-114019609D02*
X165920548Y-114019609D01*
X166063405Y-114019609D02*
X166063405Y-113519609D01*
X166063405Y-113519609D02*
X166015786Y-113591038D01*
X166015786Y-113591038D02*
X165968167Y-113638657D01*
X165968167Y-113638657D02*
X165920548Y-113662466D01*
X166634833Y-113519609D02*
X166539595Y-113519609D01*
X166539595Y-113519609D02*
X166491976Y-113543419D01*
X166491976Y-113543419D02*
X166468166Y-113567228D01*
X166468166Y-113567228D02*
X166420547Y-113638657D01*
X166420547Y-113638657D02*
X166396738Y-113733895D01*
X166396738Y-113733895D02*
X166396738Y-113924371D01*
X166396738Y-113924371D02*
X166420547Y-113971990D01*
X166420547Y-113971990D02*
X166444357Y-113995800D01*
X166444357Y-113995800D02*
X166491976Y-114019609D01*
X166491976Y-114019609D02*
X166587214Y-114019609D01*
X166587214Y-114019609D02*
X166634833Y-113995800D01*
X166634833Y-113995800D02*
X166658642Y-113971990D01*
X166658642Y-113971990D02*
X166682452Y-113924371D01*
X166682452Y-113924371D02*
X166682452Y-113805323D01*
X166682452Y-113805323D02*
X166658642Y-113757704D01*
X166658642Y-113757704D02*
X166634833Y-113733895D01*
X166634833Y-113733895D02*
X166587214Y-113710085D01*
X166587214Y-113710085D02*
X166491976Y-113710085D01*
X166491976Y-113710085D02*
X166444357Y-113733895D01*
X166444357Y-113733895D02*
X166420547Y-113757704D01*
X166420547Y-113757704D02*
X166396738Y-113805323D01*
%TO.C,U6*%
X163999609Y-113412452D02*
X164404371Y-113412452D01*
X164404371Y-113412452D02*
X164451990Y-113388642D01*
X164451990Y-113388642D02*
X164475800Y-113364833D01*
X164475800Y-113364833D02*
X164499609Y-113317214D01*
X164499609Y-113317214D02*
X164499609Y-113221976D01*
X164499609Y-113221976D02*
X164475800Y-113174357D01*
X164475800Y-113174357D02*
X164451990Y-113150547D01*
X164451990Y-113150547D02*
X164404371Y-113126738D01*
X164404371Y-113126738D02*
X163999609Y-113126738D01*
X163999609Y-112674356D02*
X163999609Y-112769594D01*
X163999609Y-112769594D02*
X164023419Y-112817213D01*
X164023419Y-112817213D02*
X164047228Y-112841023D01*
X164047228Y-112841023D02*
X164118657Y-112888642D01*
X164118657Y-112888642D02*
X164213895Y-112912451D01*
X164213895Y-112912451D02*
X164404371Y-112912451D01*
X164404371Y-112912451D02*
X164451990Y-112888642D01*
X164451990Y-112888642D02*
X164475800Y-112864832D01*
X164475800Y-112864832D02*
X164499609Y-112817213D01*
X164499609Y-112817213D02*
X164499609Y-112721975D01*
X164499609Y-112721975D02*
X164475800Y-112674356D01*
X164475800Y-112674356D02*
X164451990Y-112650547D01*
X164451990Y-112650547D02*
X164404371Y-112626737D01*
X164404371Y-112626737D02*
X164285323Y-112626737D01*
X164285323Y-112626737D02*
X164237704Y-112650547D01*
X164237704Y-112650547D02*
X164213895Y-112674356D01*
X164213895Y-112674356D02*
X164190085Y-112721975D01*
X164190085Y-112721975D02*
X164190085Y-112817213D01*
X164190085Y-112817213D02*
X164213895Y-112864832D01*
X164213895Y-112864832D02*
X164237704Y-112888642D01*
X164237704Y-112888642D02*
X164285323Y-112912451D01*
%TO.C,D6*%
X153490452Y-110970109D02*
X153490452Y-110470109D01*
X153490452Y-110470109D02*
X153609500Y-110470109D01*
X153609500Y-110470109D02*
X153680928Y-110493919D01*
X153680928Y-110493919D02*
X153728547Y-110541538D01*
X153728547Y-110541538D02*
X153752357Y-110589157D01*
X153752357Y-110589157D02*
X153776166Y-110684395D01*
X153776166Y-110684395D02*
X153776166Y-110755823D01*
X153776166Y-110755823D02*
X153752357Y-110851061D01*
X153752357Y-110851061D02*
X153728547Y-110898680D01*
X153728547Y-110898680D02*
X153680928Y-110946300D01*
X153680928Y-110946300D02*
X153609500Y-110970109D01*
X153609500Y-110970109D02*
X153490452Y-110970109D01*
X154204738Y-110470109D02*
X154109500Y-110470109D01*
X154109500Y-110470109D02*
X154061881Y-110493919D01*
X154061881Y-110493919D02*
X154038071Y-110517728D01*
X154038071Y-110517728D02*
X153990452Y-110589157D01*
X153990452Y-110589157D02*
X153966643Y-110684395D01*
X153966643Y-110684395D02*
X153966643Y-110874871D01*
X153966643Y-110874871D02*
X153990452Y-110922490D01*
X153990452Y-110922490D02*
X154014262Y-110946300D01*
X154014262Y-110946300D02*
X154061881Y-110970109D01*
X154061881Y-110970109D02*
X154157119Y-110970109D01*
X154157119Y-110970109D02*
X154204738Y-110946300D01*
X154204738Y-110946300D02*
X154228547Y-110922490D01*
X154228547Y-110922490D02*
X154252357Y-110874871D01*
X154252357Y-110874871D02*
X154252357Y-110755823D01*
X154252357Y-110755823D02*
X154228547Y-110708204D01*
X154228547Y-110708204D02*
X154204738Y-110684395D01*
X154204738Y-110684395D02*
X154157119Y-110660585D01*
X154157119Y-110660585D02*
X154061881Y-110660585D01*
X154061881Y-110660585D02*
X154014262Y-110684395D01*
X154014262Y-110684395D02*
X153990452Y-110708204D01*
X153990452Y-110708204D02*
X153966643Y-110755823D01*
%TO.C,D9*%
X180120952Y-135476109D02*
X180120952Y-134976109D01*
X180120952Y-134976109D02*
X180240000Y-134976109D01*
X180240000Y-134976109D02*
X180311428Y-134999919D01*
X180311428Y-134999919D02*
X180359047Y-135047538D01*
X180359047Y-135047538D02*
X180382857Y-135095157D01*
X180382857Y-135095157D02*
X180406666Y-135190395D01*
X180406666Y-135190395D02*
X180406666Y-135261823D01*
X180406666Y-135261823D02*
X180382857Y-135357061D01*
X180382857Y-135357061D02*
X180359047Y-135404680D01*
X180359047Y-135404680D02*
X180311428Y-135452300D01*
X180311428Y-135452300D02*
X180240000Y-135476109D01*
X180240000Y-135476109D02*
X180120952Y-135476109D01*
X180644762Y-135476109D02*
X180740000Y-135476109D01*
X180740000Y-135476109D02*
X180787619Y-135452300D01*
X180787619Y-135452300D02*
X180811428Y-135428490D01*
X180811428Y-135428490D02*
X180859047Y-135357061D01*
X180859047Y-135357061D02*
X180882857Y-135261823D01*
X180882857Y-135261823D02*
X180882857Y-135071347D01*
X180882857Y-135071347D02*
X180859047Y-135023728D01*
X180859047Y-135023728D02*
X180835238Y-134999919D01*
X180835238Y-134999919D02*
X180787619Y-134976109D01*
X180787619Y-134976109D02*
X180692381Y-134976109D01*
X180692381Y-134976109D02*
X180644762Y-134999919D01*
X180644762Y-134999919D02*
X180620952Y-135023728D01*
X180620952Y-135023728D02*
X180597143Y-135071347D01*
X180597143Y-135071347D02*
X180597143Y-135190395D01*
X180597143Y-135190395D02*
X180620952Y-135238014D01*
X180620952Y-135238014D02*
X180644762Y-135261823D01*
X180644762Y-135261823D02*
X180692381Y-135285633D01*
X180692381Y-135285633D02*
X180787619Y-135285633D01*
X180787619Y-135285633D02*
X180835238Y-135261823D01*
X180835238Y-135261823D02*
X180859047Y-135238014D01*
X180859047Y-135238014D02*
X180882857Y-135190395D01*
%TO.C,R17*%
X158428571Y-122908109D02*
X158261905Y-122670014D01*
X158142857Y-122908109D02*
X158142857Y-122408109D01*
X158142857Y-122408109D02*
X158333333Y-122408109D01*
X158333333Y-122408109D02*
X158380952Y-122431919D01*
X158380952Y-122431919D02*
X158404762Y-122455728D01*
X158404762Y-122455728D02*
X158428571Y-122503347D01*
X158428571Y-122503347D02*
X158428571Y-122574776D01*
X158428571Y-122574776D02*
X158404762Y-122622395D01*
X158404762Y-122622395D02*
X158380952Y-122646204D01*
X158380952Y-122646204D02*
X158333333Y-122670014D01*
X158333333Y-122670014D02*
X158142857Y-122670014D01*
X158904762Y-122908109D02*
X158619048Y-122908109D01*
X158761905Y-122908109D02*
X158761905Y-122408109D01*
X158761905Y-122408109D02*
X158714286Y-122479538D01*
X158714286Y-122479538D02*
X158666667Y-122527157D01*
X158666667Y-122527157D02*
X158619048Y-122550966D01*
X159071428Y-122408109D02*
X159404761Y-122408109D01*
X159404761Y-122408109D02*
X159190476Y-122908109D01*
%TO.C,J4*%
X161524109Y-122086666D02*
X161881252Y-122086666D01*
X161881252Y-122086666D02*
X161952680Y-122110475D01*
X161952680Y-122110475D02*
X162000300Y-122158094D01*
X162000300Y-122158094D02*
X162024109Y-122229523D01*
X162024109Y-122229523D02*
X162024109Y-122277142D01*
X161690776Y-121634285D02*
X162024109Y-121634285D01*
X161500300Y-121753333D02*
X161857442Y-121872380D01*
X161857442Y-121872380D02*
X161857442Y-121562857D01*
%TO.C,R19*%
X180018571Y-131989109D02*
X179851905Y-131751014D01*
X179732857Y-131989109D02*
X179732857Y-131489109D01*
X179732857Y-131489109D02*
X179923333Y-131489109D01*
X179923333Y-131489109D02*
X179970952Y-131512919D01*
X179970952Y-131512919D02*
X179994762Y-131536728D01*
X179994762Y-131536728D02*
X180018571Y-131584347D01*
X180018571Y-131584347D02*
X180018571Y-131655776D01*
X180018571Y-131655776D02*
X179994762Y-131703395D01*
X179994762Y-131703395D02*
X179970952Y-131727204D01*
X179970952Y-131727204D02*
X179923333Y-131751014D01*
X179923333Y-131751014D02*
X179732857Y-131751014D01*
X180494762Y-131989109D02*
X180209048Y-131989109D01*
X180351905Y-131989109D02*
X180351905Y-131489109D01*
X180351905Y-131489109D02*
X180304286Y-131560538D01*
X180304286Y-131560538D02*
X180256667Y-131608157D01*
X180256667Y-131608157D02*
X180209048Y-131631966D01*
X180732857Y-131989109D02*
X180828095Y-131989109D01*
X180828095Y-131989109D02*
X180875714Y-131965300D01*
X180875714Y-131965300D02*
X180899523Y-131941490D01*
X180899523Y-131941490D02*
X180947142Y-131870061D01*
X180947142Y-131870061D02*
X180970952Y-131774823D01*
X180970952Y-131774823D02*
X180970952Y-131584347D01*
X180970952Y-131584347D02*
X180947142Y-131536728D01*
X180947142Y-131536728D02*
X180923333Y-131512919D01*
X180923333Y-131512919D02*
X180875714Y-131489109D01*
X180875714Y-131489109D02*
X180780476Y-131489109D01*
X180780476Y-131489109D02*
X180732857Y-131512919D01*
X180732857Y-131512919D02*
X180709047Y-131536728D01*
X180709047Y-131536728D02*
X180685238Y-131584347D01*
X180685238Y-131584347D02*
X180685238Y-131703395D01*
X180685238Y-131703395D02*
X180709047Y-131751014D01*
X180709047Y-131751014D02*
X180732857Y-131774823D01*
X180732857Y-131774823D02*
X180780476Y-131798633D01*
X180780476Y-131798633D02*
X180875714Y-131798633D01*
X180875714Y-131798633D02*
X180923333Y-131774823D01*
X180923333Y-131774823D02*
X180947142Y-131751014D01*
X180947142Y-131751014D02*
X180970952Y-131703395D01*
%TO.C,D11*%
X169318857Y-124940109D02*
X169318857Y-124440109D01*
X169318857Y-124440109D02*
X169437905Y-124440109D01*
X169437905Y-124440109D02*
X169509333Y-124463919D01*
X169509333Y-124463919D02*
X169556952Y-124511538D01*
X169556952Y-124511538D02*
X169580762Y-124559157D01*
X169580762Y-124559157D02*
X169604571Y-124654395D01*
X169604571Y-124654395D02*
X169604571Y-124725823D01*
X169604571Y-124725823D02*
X169580762Y-124821061D01*
X169580762Y-124821061D02*
X169556952Y-124868680D01*
X169556952Y-124868680D02*
X169509333Y-124916300D01*
X169509333Y-124916300D02*
X169437905Y-124940109D01*
X169437905Y-124940109D02*
X169318857Y-124940109D01*
X170080762Y-124940109D02*
X169795048Y-124940109D01*
X169937905Y-124940109D02*
X169937905Y-124440109D01*
X169937905Y-124440109D02*
X169890286Y-124511538D01*
X169890286Y-124511538D02*
X169842667Y-124559157D01*
X169842667Y-124559157D02*
X169795048Y-124582966D01*
X170556952Y-124940109D02*
X170271238Y-124940109D01*
X170414095Y-124940109D02*
X170414095Y-124440109D01*
X170414095Y-124440109D02*
X170366476Y-124511538D01*
X170366476Y-124511538D02*
X170318857Y-124559157D01*
X170318857Y-124559157D02*
X170271238Y-124582966D01*
%TO.C,D10*%
X177192857Y-124686109D02*
X177192857Y-124186109D01*
X177192857Y-124186109D02*
X177311905Y-124186109D01*
X177311905Y-124186109D02*
X177383333Y-124209919D01*
X177383333Y-124209919D02*
X177430952Y-124257538D01*
X177430952Y-124257538D02*
X177454762Y-124305157D01*
X177454762Y-124305157D02*
X177478571Y-124400395D01*
X177478571Y-124400395D02*
X177478571Y-124471823D01*
X177478571Y-124471823D02*
X177454762Y-124567061D01*
X177454762Y-124567061D02*
X177430952Y-124614680D01*
X177430952Y-124614680D02*
X177383333Y-124662300D01*
X177383333Y-124662300D02*
X177311905Y-124686109D01*
X177311905Y-124686109D02*
X177192857Y-124686109D01*
X177954762Y-124686109D02*
X177669048Y-124686109D01*
X177811905Y-124686109D02*
X177811905Y-124186109D01*
X177811905Y-124186109D02*
X177764286Y-124257538D01*
X177764286Y-124257538D02*
X177716667Y-124305157D01*
X177716667Y-124305157D02*
X177669048Y-124328966D01*
X178264285Y-124186109D02*
X178311904Y-124186109D01*
X178311904Y-124186109D02*
X178359523Y-124209919D01*
X178359523Y-124209919D02*
X178383333Y-124233728D01*
X178383333Y-124233728D02*
X178407142Y-124281347D01*
X178407142Y-124281347D02*
X178430952Y-124376585D01*
X178430952Y-124376585D02*
X178430952Y-124495633D01*
X178430952Y-124495633D02*
X178407142Y-124590871D01*
X178407142Y-124590871D02*
X178383333Y-124638490D01*
X178383333Y-124638490D02*
X178359523Y-124662300D01*
X178359523Y-124662300D02*
X178311904Y-124686109D01*
X178311904Y-124686109D02*
X178264285Y-124686109D01*
X178264285Y-124686109D02*
X178216666Y-124662300D01*
X178216666Y-124662300D02*
X178192857Y-124638490D01*
X178192857Y-124638490D02*
X178169047Y-124590871D01*
X178169047Y-124590871D02*
X178145238Y-124495633D01*
X178145238Y-124495633D02*
X178145238Y-124376585D01*
X178145238Y-124376585D02*
X178169047Y-124281347D01*
X178169047Y-124281347D02*
X178192857Y-124233728D01*
X178192857Y-124233728D02*
X178216666Y-124209919D01*
X178216666Y-124209919D02*
X178264285Y-124186109D01*
%TO.C,R18*%
X173922571Y-91158109D02*
X173755905Y-90920014D01*
X173636857Y-91158109D02*
X173636857Y-90658109D01*
X173636857Y-90658109D02*
X173827333Y-90658109D01*
X173827333Y-90658109D02*
X173874952Y-90681919D01*
X173874952Y-90681919D02*
X173898762Y-90705728D01*
X173898762Y-90705728D02*
X173922571Y-90753347D01*
X173922571Y-90753347D02*
X173922571Y-90824776D01*
X173922571Y-90824776D02*
X173898762Y-90872395D01*
X173898762Y-90872395D02*
X173874952Y-90896204D01*
X173874952Y-90896204D02*
X173827333Y-90920014D01*
X173827333Y-90920014D02*
X173636857Y-90920014D01*
X174398762Y-91158109D02*
X174113048Y-91158109D01*
X174255905Y-91158109D02*
X174255905Y-90658109D01*
X174255905Y-90658109D02*
X174208286Y-90729538D01*
X174208286Y-90729538D02*
X174160667Y-90777157D01*
X174160667Y-90777157D02*
X174113048Y-90800966D01*
X174684476Y-90872395D02*
X174636857Y-90848585D01*
X174636857Y-90848585D02*
X174613047Y-90824776D01*
X174613047Y-90824776D02*
X174589238Y-90777157D01*
X174589238Y-90777157D02*
X174589238Y-90753347D01*
X174589238Y-90753347D02*
X174613047Y-90705728D01*
X174613047Y-90705728D02*
X174636857Y-90681919D01*
X174636857Y-90681919D02*
X174684476Y-90658109D01*
X174684476Y-90658109D02*
X174779714Y-90658109D01*
X174779714Y-90658109D02*
X174827333Y-90681919D01*
X174827333Y-90681919D02*
X174851142Y-90705728D01*
X174851142Y-90705728D02*
X174874952Y-90753347D01*
X174874952Y-90753347D02*
X174874952Y-90777157D01*
X174874952Y-90777157D02*
X174851142Y-90824776D01*
X174851142Y-90824776D02*
X174827333Y-90848585D01*
X174827333Y-90848585D02*
X174779714Y-90872395D01*
X174779714Y-90872395D02*
X174684476Y-90872395D01*
X174684476Y-90872395D02*
X174636857Y-90896204D01*
X174636857Y-90896204D02*
X174613047Y-90920014D01*
X174613047Y-90920014D02*
X174589238Y-90967633D01*
X174589238Y-90967633D02*
X174589238Y-91062871D01*
X174589238Y-91062871D02*
X174613047Y-91110490D01*
X174613047Y-91110490D02*
X174636857Y-91134300D01*
X174636857Y-91134300D02*
X174684476Y-91158109D01*
X174684476Y-91158109D02*
X174779714Y-91158109D01*
X174779714Y-91158109D02*
X174827333Y-91134300D01*
X174827333Y-91134300D02*
X174851142Y-91110490D01*
X174851142Y-91110490D02*
X174874952Y-91062871D01*
X174874952Y-91062871D02*
X174874952Y-90967633D01*
X174874952Y-90967633D02*
X174851142Y-90920014D01*
X174851142Y-90920014D02*
X174827333Y-90896204D01*
X174827333Y-90896204D02*
X174779714Y-90872395D01*
%TO.C,L3*%
X179240666Y-91666109D02*
X179002571Y-91666109D01*
X179002571Y-91666109D02*
X179002571Y-91166109D01*
X179359714Y-91166109D02*
X179669238Y-91166109D01*
X179669238Y-91166109D02*
X179502571Y-91356585D01*
X179502571Y-91356585D02*
X179574000Y-91356585D01*
X179574000Y-91356585D02*
X179621619Y-91380395D01*
X179621619Y-91380395D02*
X179645428Y-91404204D01*
X179645428Y-91404204D02*
X179669238Y-91451823D01*
X179669238Y-91451823D02*
X179669238Y-91570871D01*
X179669238Y-91570871D02*
X179645428Y-91618490D01*
X179645428Y-91618490D02*
X179621619Y-91642300D01*
X179621619Y-91642300D02*
X179574000Y-91666109D01*
X179574000Y-91666109D02*
X179431143Y-91666109D01*
X179431143Y-91666109D02*
X179383524Y-91642300D01*
X179383524Y-91642300D02*
X179359714Y-91618490D01*
%TO.C,J3*%
X149693333Y-115804109D02*
X149693333Y-116161252D01*
X149693333Y-116161252D02*
X149669524Y-116232680D01*
X149669524Y-116232680D02*
X149621905Y-116280300D01*
X149621905Y-116280300D02*
X149550476Y-116304109D01*
X149550476Y-116304109D02*
X149502857Y-116304109D01*
X149883809Y-115804109D02*
X150193333Y-115804109D01*
X150193333Y-115804109D02*
X150026666Y-115994585D01*
X150026666Y-115994585D02*
X150098095Y-115994585D01*
X150098095Y-115994585D02*
X150145714Y-116018395D01*
X150145714Y-116018395D02*
X150169523Y-116042204D01*
X150169523Y-116042204D02*
X150193333Y-116089823D01*
X150193333Y-116089823D02*
X150193333Y-116208871D01*
X150193333Y-116208871D02*
X150169523Y-116256490D01*
X150169523Y-116256490D02*
X150145714Y-116280300D01*
X150145714Y-116280300D02*
X150098095Y-116304109D01*
X150098095Y-116304109D02*
X149955238Y-116304109D01*
X149955238Y-116304109D02*
X149907619Y-116280300D01*
X149907619Y-116280300D02*
X149883809Y-116256490D01*
%TO.C,U1*%
X163195047Y-94976109D02*
X163195047Y-95380871D01*
X163195047Y-95380871D02*
X163218857Y-95428490D01*
X163218857Y-95428490D02*
X163242666Y-95452300D01*
X163242666Y-95452300D02*
X163290285Y-95476109D01*
X163290285Y-95476109D02*
X163385523Y-95476109D01*
X163385523Y-95476109D02*
X163433142Y-95452300D01*
X163433142Y-95452300D02*
X163456952Y-95428490D01*
X163456952Y-95428490D02*
X163480761Y-95380871D01*
X163480761Y-95380871D02*
X163480761Y-94976109D01*
X163980762Y-95476109D02*
X163695048Y-95476109D01*
X163837905Y-95476109D02*
X163837905Y-94976109D01*
X163837905Y-94976109D02*
X163790286Y-95047538D01*
X163790286Y-95047538D02*
X163742667Y-95095157D01*
X163742667Y-95095157D02*
X163695048Y-95118966D01*
D12*
%TO.C,C4*%
X176580000Y-136093252D02*
X176580000Y-134670748D01*
X178400000Y-136093252D02*
X178400000Y-134670748D01*
%TO.C,C5*%
X174156164Y-139072000D02*
X174371836Y-139072000D01*
X174156164Y-139792000D02*
X174371836Y-139792000D01*
%TO.C,C6*%
X177906000Y-129968164D02*
X177906000Y-130183836D01*
X177186000Y-129968164D02*
X177186000Y-130183836D01*
%TO.C,C7*%
X167202748Y-128240000D02*
X168625252Y-128240000D01*
X167202748Y-130060000D02*
X168625252Y-130060000D01*
%TO.C,C8*%
X166091664Y-130753500D02*
X166307336Y-130753500D01*
X166091664Y-131473500D02*
X166307336Y-131473500D01*
%TO.C,C9*%
X172790748Y-132426000D02*
X174213252Y-132426000D01*
X172790748Y-134246000D02*
X174213252Y-134246000D01*
%TO.C,C10*%
X162523752Y-131531000D02*
X162001248Y-131531000D01*
X162523752Y-130061000D02*
X162001248Y-130061000D01*
%TO.C,C11*%
X158543000Y-134105252D02*
X158543000Y-133582748D01*
X160013000Y-134105252D02*
X160013000Y-133582748D01*
%TO.C,C12*%
X157707000Y-130802748D02*
X157707000Y-131325252D01*
X156237000Y-130802748D02*
X156237000Y-131325252D01*
%TO.C,C13*%
X150982164Y-133206000D02*
X151197836Y-133206000D01*
X150982164Y-133926000D02*
X151197836Y-133926000D01*
%TO.C,C15*%
X156491000Y-103385252D02*
X156491000Y-102862748D01*
X157961000Y-103385252D02*
X157961000Y-102862748D01*
%TO.C,C16*%
X158644000Y-103993836D02*
X158644000Y-103778164D01*
X159364000Y-103993836D02*
X159364000Y-103778164D01*
D13*
%TO.C,J2*%
X181797640Y-108380500D02*
X181797640Y-115380740D01*
X168968100Y-108380500D02*
X181797640Y-108380500D01*
X180517480Y-110801120D02*
X181787480Y-110801120D01*
X180517480Y-110801120D02*
X180517480Y-119802880D01*
X181797640Y-115380740D02*
X181797640Y-122380980D01*
X180517480Y-119802880D02*
X181797640Y-119802880D01*
X181797640Y-122380980D02*
X168968100Y-122380980D01*
X168968100Y-122380980D02*
X168968100Y-108380500D01*
D12*
%TO.C,J6*%
X142688000Y-111192000D02*
X144018000Y-111192000D01*
X142688000Y-112522000D02*
X142688000Y-111192000D01*
X142688000Y-113792000D02*
X142688000Y-134172000D01*
X142688000Y-113792000D02*
X145348000Y-113792000D01*
X142688000Y-134172000D02*
X145348000Y-134172000D01*
X145348000Y-113792000D02*
X145348000Y-134172000D01*
%TO.C,L1*%
X173915936Y-128420000D02*
X175120064Y-128420000D01*
X173915936Y-131140000D02*
X175120064Y-131140000D01*
%TO.C,Q1*%
X153590000Y-129490000D02*
X151915000Y-129490000D01*
X153590000Y-129490000D02*
X154240000Y-129490000D01*
X153590000Y-132610000D02*
X152940000Y-132610000D01*
X153590000Y-132610000D02*
X154240000Y-132610000D01*
%TO.C,R1*%
X151212500Y-130528742D02*
X151212500Y-131003258D01*
X150167500Y-130528742D02*
X150167500Y-131003258D01*
%TO.C,R2*%
X163864500Y-138432742D02*
X163864500Y-138907258D01*
X162819500Y-138432742D02*
X162819500Y-138907258D01*
%TO.C,R3*%
X169327742Y-136623500D02*
X169802258Y-136623500D01*
X169327742Y-137668500D02*
X169802258Y-137668500D01*
%TO.C,R4*%
X169040258Y-134176000D02*
X168565742Y-134176000D01*
X169040258Y-133131000D02*
X168565742Y-133131000D01*
%TO.C,R5*%
X140984500Y-122190742D02*
X140984500Y-122665258D01*
X139939500Y-122190742D02*
X139939500Y-122665258D01*
%TO.C,R7*%
X137143258Y-108472500D02*
X136668742Y-108472500D01*
X137143258Y-107427500D02*
X136668742Y-107427500D01*
%TO.C,U2*%
X175316000Y-136638000D02*
X175316000Y-134963000D01*
X175316000Y-136638000D02*
X175316000Y-137288000D01*
X172196000Y-136638000D02*
X172196000Y-135988000D01*
X172196000Y-136638000D02*
X172196000Y-137288000D01*
%TO.C,U4*%
X181829499Y-127633501D02*
X146149499Y-127633501D01*
X146149499Y-127633501D02*
X146149499Y-140553501D01*
X181829499Y-133093501D02*
X181829499Y-127633501D01*
X181829499Y-140553501D02*
X181829499Y-135093501D01*
X146149499Y-140553501D02*
X181829499Y-140553501D01*
X181829499Y-133093501D02*
G75*
G03*
X181829499Y-135093501I0J-1000000D01*
G01*
%TO.C,R9*%
X139939500Y-113775258D02*
X139939500Y-113300742D01*
X140984500Y-113775258D02*
X140984500Y-113300742D01*
%TO.C,U3*%
X162684500Y-132678500D02*
X163134500Y-132678500D01*
X165904500Y-133128500D02*
X165904500Y-132678500D01*
X162684500Y-133128500D02*
X162684500Y-132678500D01*
X165904500Y-135448500D02*
X165904500Y-135898500D01*
X162684500Y-135448500D02*
X162684500Y-135898500D01*
X165904500Y-135898500D02*
X165454500Y-135898500D01*
X162684500Y-135898500D02*
X163134500Y-135898500D01*
%TO.C,J5*%
X178912000Y-96208000D02*
X175712000Y-96208000D01*
X180992000Y-98008000D02*
X180992000Y-101608000D01*
X174112000Y-98508000D02*
X174112000Y-101108000D01*
X178912000Y-103408000D02*
X175712000Y-103408000D01*
%TO.C,C2*%
X158644000Y-101707836D02*
X158644000Y-101492164D01*
X159364000Y-101707836D02*
X159364000Y-101492164D01*
%TO.C,R6*%
X151398500Y-103394742D02*
X151398500Y-103869258D01*
X150353500Y-103394742D02*
X150353500Y-103869258D01*
%TO.C,D1*%
X155178000Y-101146000D02*
X153178000Y-101146000D01*
X155178000Y-101146000D02*
X155178000Y-105156000D01*
X153178000Y-101146000D02*
X153178000Y-105156000D01*
%TO.C,C1*%
X145611500Y-101066500D02*
X145611500Y-101854000D01*
X146005250Y-101460250D02*
X145217750Y-101460250D01*
X146109563Y-102094000D02*
X144824000Y-102094000D01*
X146109563Y-102094000D02*
X147174000Y-103158437D01*
X141418437Y-102094000D02*
X142704000Y-102094000D01*
X141418437Y-102094000D02*
X140354000Y-103158437D01*
X147174000Y-103158437D02*
X147174000Y-108914000D01*
X140354000Y-103158437D02*
X140354000Y-108914000D01*
X147174000Y-108914000D02*
X144824000Y-108914000D01*
X140354000Y-108914000D02*
X142704000Y-108914000D01*
%TO.C,D2*%
X138636000Y-111980000D02*
X138480000Y-111980000D01*
X136320000Y-111980000D02*
X136164000Y-111980000D01*
X138478608Y-115212334D02*
G75*
G03*
X138635515Y-111980001I-1078608J1672334D01*
G01*
X138479836Y-114581129D02*
G75*
G03*
X138479999Y-112499040I-1079836J1041129D01*
G01*
X136320001Y-112499040D02*
G75*
G03*
X136320164Y-114581129I1079999J-1040960D01*
G01*
X136164485Y-111980001D02*
G75*
G03*
X136321392Y-115212334I1235515J-1559999D01*
G01*
%TO.C,D3*%
X138650000Y-120980000D02*
X138494000Y-120980000D01*
X136334000Y-120980000D02*
X136178000Y-120980000D01*
X138492608Y-124212334D02*
G75*
G03*
X138649515Y-120980001I-1078608J1672334D01*
G01*
X138493836Y-123581129D02*
G75*
G03*
X138493999Y-121499040I-1079836J1041129D01*
G01*
X136334001Y-121499040D02*
G75*
G03*
X136334164Y-123581129I1079999J-1040960D01*
G01*
X136178485Y-120980001D02*
G75*
G03*
X136335392Y-124212334I1235515J-1559999D01*
G01*
%TO.C,D4*%
X136178000Y-106208000D02*
X136334000Y-106208000D01*
X138494000Y-106208000D02*
X138650000Y-106208000D01*
X136335392Y-102975666D02*
G75*
G03*
X136178485Y-106207999I1078608J-1672334D01*
G01*
X136334164Y-103606871D02*
G75*
G03*
X136334001Y-105688960I1079836J-1041129D01*
G01*
X138493999Y-105688960D02*
G75*
G03*
X138493836Y-103606871I-1079999J1040960D01*
G01*
X138649515Y-106207999D02*
G75*
G03*
X138492608Y-102975666I-1235515J1559999D01*
G01*
%TO.C,D5*%
X136178000Y-133040000D02*
X136334000Y-133040000D01*
X138494000Y-133040000D02*
X138650000Y-133040000D01*
X136335392Y-129807666D02*
G75*
G03*
X136178485Y-133039999I1078608J-1672334D01*
G01*
X136334164Y-130438871D02*
G75*
G03*
X136334001Y-132520960I1079836J-1041129D01*
G01*
X138493999Y-132520960D02*
G75*
G03*
X138493836Y-130438871I-1079999J1040960D01*
G01*
X138649515Y-133039999D02*
G75*
G03*
X138492608Y-129807666I-1235515J1559999D01*
G01*
%TO.C,R11*%
X138413258Y-128538500D02*
X137938742Y-128538500D01*
X138413258Y-127493500D02*
X137938742Y-127493500D01*
%TO.C,SW1*%
X134968000Y-142834000D02*
X138868000Y-142834000D01*
X134968000Y-142834000D02*
X134968000Y-135114000D01*
X141468000Y-142834000D02*
X141978000Y-142834000D01*
X141978000Y-142834000D02*
X141978000Y-142314000D01*
X138638000Y-142314000D02*
X138868000Y-142314000D01*
X138638000Y-142314000D02*
X138638000Y-141774000D01*
X141468000Y-142314000D02*
X141978000Y-142314000D01*
X138638000Y-140674000D02*
X138638000Y-137274000D01*
X138638000Y-136174000D02*
X138638000Y-135634000D01*
X138638000Y-135634000D02*
X138868000Y-135634000D01*
X141468000Y-135634000D02*
X141978000Y-135634000D01*
X141978000Y-135634000D02*
X141978000Y-135114000D01*
X134968000Y-135114000D02*
X138868000Y-135114000D01*
X141468000Y-135114000D02*
X141978000Y-135114000D01*
%TO.C,C23*%
X136544164Y-100224000D02*
X136759836Y-100224000D01*
X136544164Y-100944000D02*
X136759836Y-100944000D01*
%TO.C,C24*%
X141144164Y-100224000D02*
X141359836Y-100224000D01*
X141144164Y-100944000D02*
X141359836Y-100944000D01*
%TO.C,D7*%
X155026000Y-140042000D02*
X155026000Y-138342000D01*
X155026000Y-140042000D02*
X152366000Y-140042000D01*
X155026000Y-138342000D02*
X152366000Y-138342000D01*
%TO.C,D8*%
X155362000Y-138342000D02*
X155362000Y-140042000D01*
X155362000Y-138342000D02*
X158022000Y-138342000D01*
X155362000Y-140042000D02*
X158022000Y-140042000D01*
%TO.C,R8*%
X144511500Y-140699258D02*
X144511500Y-140224742D01*
X145556500Y-140699258D02*
X145556500Y-140224742D01*
%TO.C,R10*%
X142987500Y-140699258D02*
X142987500Y-140224742D01*
X144032500Y-140699258D02*
X144032500Y-140224742D01*
%TO.C,J1*%
X134238000Y-92054000D02*
X136738000Y-92054000D01*
X134238000Y-92804000D02*
X134238000Y-92054000D01*
X134238000Y-98954000D02*
X134238000Y-98204000D01*
X136738000Y-98954000D02*
X134238000Y-98954000D01*
X139138000Y-92054000D02*
X144238000Y-92054000D01*
X139138000Y-98954000D02*
X146138000Y-98954000D01*
X146138000Y-94454000D02*
X146138000Y-96554000D01*
%TO.C,C17*%
X161706500Y-115310248D02*
X161706500Y-115832752D01*
X160236500Y-115310248D02*
X160236500Y-115832752D01*
%TO.C,C18*%
X163109500Y-114701664D02*
X163109500Y-114917336D01*
X162389500Y-114701664D02*
X162389500Y-114917336D01*
%TO.C,C19*%
X162895664Y-108861500D02*
X163111336Y-108861500D01*
X162895664Y-109581500D02*
X163111336Y-109581500D01*
%TO.C,C20*%
X158064080Y-109477500D02*
X157782920Y-109477500D01*
X158064080Y-108457500D02*
X157782920Y-108457500D01*
%TO.C,C21*%
X157274920Y-114045500D02*
X157556080Y-114045500D01*
X157274920Y-115065500D02*
X157556080Y-115065500D01*
%TO.C,C22*%
X167323500Y-110350920D02*
X167323500Y-110632080D01*
X166303500Y-110350920D02*
X166303500Y-110632080D01*
%TO.C,L2*%
X159169500Y-113361500D02*
X156169500Y-113361500D01*
X159169500Y-110161500D02*
X156169500Y-110161500D01*
%TO.C,R12*%
X166574000Y-115588242D02*
X166574000Y-116062758D01*
X165529000Y-115588242D02*
X165529000Y-116062758D01*
%TO.C,R13*%
X163751000Y-115554758D02*
X163751000Y-115080242D01*
X164796000Y-115554758D02*
X164796000Y-115080242D01*
%TO.C,R14*%
X162732758Y-108220000D02*
X162258242Y-108220000D01*
X162732758Y-107175000D02*
X162258242Y-107175000D01*
%TO.C,R15*%
X164513000Y-110728758D02*
X164513000Y-110254242D01*
X165558000Y-110728758D02*
X165558000Y-110254242D01*
%TO.C,R16*%
X166288758Y-113300000D02*
X165814242Y-113300000D01*
X166288758Y-112255000D02*
X165814242Y-112255000D01*
%TO.C,U6*%
X161987500Y-110201500D02*
X160187500Y-110201500D01*
X161987500Y-110201500D02*
X162787500Y-110201500D01*
X161987500Y-113321500D02*
X161187500Y-113321500D01*
X161987500Y-113321500D02*
X162787500Y-113321500D01*
%TO.C,D6*%
X153367500Y-115898000D02*
X155367500Y-115898000D01*
X153367500Y-115898000D02*
X153367500Y-111888000D01*
X155367500Y-115898000D02*
X155367500Y-111888000D01*
%TO.C,D9*%
X179340000Y-140282000D02*
X181340000Y-140282000D01*
X179340000Y-140282000D02*
X179340000Y-136272000D01*
X181340000Y-140282000D02*
X181340000Y-136272000D01*
%TO.C,R17*%
X160796500Y-123460742D02*
X160796500Y-123935258D01*
X159751500Y-123460742D02*
X159751500Y-123935258D01*
%TO.C,J4*%
X167954000Y-119828000D02*
X167954000Y-121158000D01*
X166624000Y-119828000D02*
X167954000Y-119828000D01*
X165354000Y-119828000D02*
X162754000Y-119828000D01*
X165354000Y-119828000D02*
X165354000Y-122488000D01*
X162754000Y-119828000D02*
X162754000Y-122488000D01*
X165354000Y-122488000D02*
X162754000Y-122488000D01*
%TO.C,R19*%
X180862500Y-129493742D02*
X180862500Y-129968258D01*
X179817500Y-129493742D02*
X179817500Y-129968258D01*
%TO.C,D11*%
X170602000Y-123102000D02*
X170602000Y-124802000D01*
X170602000Y-123102000D02*
X173262000Y-123102000D01*
X170602000Y-124802000D02*
X173262000Y-124802000D01*
%TO.C,D10*%
X181696000Y-124802000D02*
X181696000Y-123102000D01*
X181696000Y-124802000D02*
X179036000Y-124802000D01*
X181696000Y-123102000D02*
X179036000Y-123102000D01*
%TO.C,R18*%
X176279064Y-94578000D02*
X173224936Y-94578000D01*
X176279064Y-91858000D02*
X173224936Y-91858000D01*
%TO.C,J3*%
X158800000Y-117034000D02*
X158800000Y-118364000D01*
X157470000Y-117034000D02*
X158800000Y-117034000D01*
X156200000Y-117034000D02*
X148520000Y-117034000D01*
X156200000Y-117034000D02*
X156200000Y-119694000D01*
X148520000Y-117034000D02*
X148520000Y-119694000D01*
X156200000Y-119694000D02*
X148520000Y-119694000D01*
%TO.C,U1*%
X160490000Y-95950000D02*
X161180000Y-95950000D01*
X161180000Y-95850000D02*
X161180000Y-95950000D01*
X161180000Y-95850000D02*
X171100000Y-95850000D01*
X161180000Y-106070000D02*
X161180000Y-106170000D01*
X161180000Y-106170000D02*
X171100000Y-106170000D01*
X171100000Y-95850000D02*
X171100000Y-95950000D01*
X171100000Y-106070000D02*
X171100000Y-106170000D01*
%TD*%
D14*
%TO.C,J2*%
X173288640Y-114080260D03*
X173288640Y-116681220D03*
X173288640Y-112030480D03*
X173288640Y-118731000D03*
X170796900Y-112030480D03*
X170796900Y-118731000D03*
D15*
X176288380Y-108621800D03*
X177098640Y-115380740D03*
X176288380Y-122139680D03*
%TD*%
%LPC*%
D16*
%TO.C,C4*%
X177490000Y-136857000D03*
X177490000Y-133907000D03*
%TD*%
D17*
%TO.C,C5*%
X173784000Y-139432000D03*
X174744000Y-139432000D03*
%TD*%
D18*
%TO.C,C6*%
X177546000Y-129596000D03*
X177546000Y-130556000D03*
%TD*%
D19*
%TO.C,C7*%
X166439000Y-129150000D03*
X169389000Y-129150000D03*
%TD*%
D17*
%TO.C,C8*%
X165719500Y-131113500D03*
X166679500Y-131113500D03*
%TD*%
D19*
%TO.C,C9*%
X172027000Y-133336000D03*
X174977000Y-133336000D03*
%TD*%
D20*
%TO.C,C10*%
X163212500Y-130796000D03*
X161312500Y-130796000D03*
%TD*%
D21*
%TO.C,C11*%
X159278000Y-134794000D03*
X159278000Y-132894000D03*
%TD*%
D22*
%TO.C,C12*%
X156972000Y-130114000D03*
X156972000Y-132014000D03*
%TD*%
D17*
%TO.C,C13*%
X150610000Y-133566000D03*
X151570000Y-133566000D03*
%TD*%
D21*
%TO.C,C15*%
X157226000Y-104074000D03*
X157226000Y-102174000D03*
%TD*%
D23*
%TO.C,C16*%
X159004000Y-104366000D03*
X159004000Y-103406000D03*
%TD*%
D24*
%TO.C,J2*%
X176288380Y-108621800D03*
X176288380Y-122139680D03*
%TD*%
D25*
%TO.C,J6*%
X144018000Y-112522000D03*
D26*
X144018000Y-115062000D03*
X144018000Y-117602000D03*
X144018000Y-120142000D03*
X144018000Y-122682000D03*
X144018000Y-125222000D03*
X144018000Y-127762000D03*
X144018000Y-130302000D03*
X144018000Y-132842000D03*
%TD*%
D27*
%TO.C,L1*%
X173118000Y-129780000D03*
X175918000Y-129780000D03*
%TD*%
D28*
%TO.C,Q1*%
X152652500Y-130100000D03*
X152652500Y-132000000D03*
X154527500Y-131050000D03*
%TD*%
D29*
%TO.C,R1*%
X150690000Y-129941000D03*
X150690000Y-131591000D03*
%TD*%
%TO.C,R2*%
X163342000Y-137845000D03*
X163342000Y-139495000D03*
%TD*%
D30*
%TO.C,R3*%
X168740000Y-137146000D03*
X170390000Y-137146000D03*
%TD*%
D31*
%TO.C,R4*%
X169628000Y-133653500D03*
X167978000Y-133653500D03*
%TD*%
D29*
%TO.C,R5*%
X140462000Y-121603000D03*
X140462000Y-123253000D03*
%TD*%
D31*
%TO.C,R7*%
X137731000Y-107950000D03*
X136081000Y-107950000D03*
%TD*%
D32*
%TO.C,U2*%
X174706000Y-135700500D03*
X172806000Y-135700500D03*
X173756000Y-137575500D03*
%TD*%
D33*
%TO.C,U4*%
X180499499Y-126473501D03*
D34*
X177959499Y-126473501D03*
X175419499Y-126473501D03*
X172879499Y-126473501D03*
X170339499Y-126473501D03*
X167799499Y-126473501D03*
X165259499Y-126473501D03*
X162719499Y-126473501D03*
X160179499Y-126473501D03*
X157639499Y-126473501D03*
X155099499Y-126473501D03*
X152559499Y-126473501D03*
X150019499Y-126473501D03*
X147479499Y-126473501D03*
X147479499Y-141713501D03*
X150019499Y-141713501D03*
X152559499Y-141713501D03*
X155099499Y-141713501D03*
X157639499Y-141713501D03*
X160179499Y-141713501D03*
X162719499Y-141713501D03*
X165259499Y-141713501D03*
X167799499Y-141713501D03*
X170339499Y-141713501D03*
X172879499Y-141713501D03*
X175419499Y-141713501D03*
X177959499Y-141713501D03*
X180499499Y-141713501D03*
D35*
X177959499Y-139173501D03*
D34*
X147479499Y-129013501D03*
X147479499Y-131553501D03*
X147479499Y-134093501D03*
X147479499Y-136633501D03*
X147479499Y-139173501D03*
%TD*%
D36*
%TO.C,R9*%
X140462000Y-114363000D03*
X140462000Y-112713000D03*
%TD*%
D37*
%TO.C,U3*%
X165094500Y-132838500D03*
X164694500Y-132838500D03*
X164294500Y-132838500D03*
X163894500Y-132838500D03*
X163494500Y-132838500D03*
D38*
X162844500Y-133488500D03*
X162844500Y-133888500D03*
X162844500Y-134288500D03*
X162844500Y-134688500D03*
X162844500Y-135088500D03*
D37*
X163494500Y-135738500D03*
X163894500Y-135738500D03*
X164294500Y-135738500D03*
X164694500Y-135738500D03*
X165094500Y-135738500D03*
D38*
X165744500Y-135088500D03*
X165744500Y-134688500D03*
X165744500Y-134288500D03*
X165744500Y-133888500D03*
X165744500Y-133488500D03*
D39*
X164294500Y-134288500D03*
%TD*%
D40*
%TO.C,J5*%
X177312000Y-99808000D03*
X179852000Y-97268000D03*
X174772000Y-97268000D03*
X179852000Y-102348000D03*
X174772000Y-102348000D03*
%TD*%
D23*
%TO.C,C2*%
X159004000Y-102080000D03*
X159004000Y-101120000D03*
%TD*%
D29*
%TO.C,R6*%
X150876000Y-102807000D03*
X150876000Y-104457000D03*
%TD*%
D41*
%TO.C,D1*%
X154178000Y-101856000D03*
X154178000Y-105156000D03*
%TD*%
D42*
%TO.C,C1*%
X143764000Y-102804000D03*
X143764000Y-108204000D03*
%TD*%
D43*
%TO.C,D2*%
X137400000Y-111000000D03*
D44*
X137400000Y-113540000D03*
X137400000Y-116080000D03*
%TD*%
D43*
%TO.C,D3*%
X137414000Y-120000000D03*
D44*
X137414000Y-122540000D03*
X137414000Y-125080000D03*
%TD*%
D43*
%TO.C,D4*%
X137414000Y-105918000D03*
D44*
X137414000Y-103378000D03*
%TD*%
D43*
%TO.C,D5*%
X137414000Y-132750000D03*
D44*
X137414000Y-130210000D03*
%TD*%
D31*
%TO.C,R11*%
X139001000Y-128016000D03*
X137351000Y-128016000D03*
%TD*%
D45*
%TO.C,SW1*%
X140158000Y-142474000D03*
X140158000Y-135464000D03*
D46*
X137668000Y-141224000D03*
X137668000Y-136724000D03*
%TD*%
D17*
%TO.C,C23*%
X136172000Y-100584000D03*
X137132000Y-100584000D03*
%TD*%
%TO.C,C24*%
X140772000Y-100584000D03*
X141732000Y-100584000D03*
%TD*%
D47*
%TO.C,D7*%
X154466000Y-139192000D03*
X152366000Y-139192000D03*
%TD*%
D48*
%TO.C,D8*%
X155922000Y-139192000D03*
X158022000Y-139192000D03*
%TD*%
D36*
%TO.C,R8*%
X145034000Y-141287000D03*
X145034000Y-139637000D03*
%TD*%
%TO.C,R10*%
X143510000Y-141287000D03*
X143510000Y-139637000D03*
%TD*%
D49*
%TO.C,J1*%
X141438000Y-93004000D03*
X141438000Y-98004000D03*
D50*
X145438000Y-93254000D03*
D51*
X145438000Y-97754000D03*
X137938000Y-92604000D03*
X137938000Y-98404000D03*
%TD*%
D22*
%TO.C,C17*%
X160971500Y-114621500D03*
X160971500Y-116521500D03*
%TD*%
D18*
%TO.C,C18*%
X162749500Y-114329500D03*
X162749500Y-115289500D03*
%TD*%
D17*
%TO.C,C19*%
X162523500Y-109221500D03*
X163483500Y-109221500D03*
%TD*%
D52*
%TO.C,C20*%
X158698500Y-108967500D03*
X157148500Y-108967500D03*
%TD*%
D53*
%TO.C,C21*%
X156640500Y-114555500D03*
X158190500Y-114555500D03*
%TD*%
D54*
%TO.C,C22*%
X166813500Y-109716500D03*
X166813500Y-111266500D03*
%TD*%
D55*
%TO.C,L2*%
X158769500Y-111761500D03*
X156569500Y-111761500D03*
%TD*%
D29*
%TO.C,R12*%
X166051500Y-115000500D03*
X166051500Y-116650500D03*
%TD*%
D36*
%TO.C,R13*%
X164273500Y-116142500D03*
X164273500Y-114492500D03*
%TD*%
D31*
%TO.C,R14*%
X163320500Y-107697500D03*
X161670500Y-107697500D03*
%TD*%
D36*
%TO.C,R15*%
X165035500Y-111316500D03*
X165035500Y-109666500D03*
%TD*%
D31*
%TO.C,R16*%
X166876500Y-112777500D03*
X165226500Y-112777500D03*
%TD*%
D56*
%TO.C,U6*%
X160850000Y-110811500D03*
X160850000Y-111761500D03*
X160850000Y-112711500D03*
X163125000Y-112711500D03*
X163125000Y-111761500D03*
X163125000Y-110811500D03*
%TD*%
D57*
%TO.C,D6*%
X154367500Y-115188000D03*
X154367500Y-111888000D03*
%TD*%
%TO.C,D9*%
X180340000Y-139572000D03*
X180340000Y-136272000D03*
%TD*%
D29*
%TO.C,R17*%
X160274000Y-122873000D03*
X160274000Y-124523000D03*
%TD*%
D25*
%TO.C,J4*%
X166624000Y-121158000D03*
D26*
X164084000Y-121158000D03*
%TD*%
D29*
%TO.C,R19*%
X180340000Y-128906000D03*
X180340000Y-130556000D03*
%TD*%
D48*
%TO.C,D11*%
X171162000Y-123952000D03*
X173262000Y-123952000D03*
%TD*%
D47*
%TO.C,D10*%
X181136000Y-123952000D03*
X179036000Y-123952000D03*
%TD*%
D58*
%TO.C,R18*%
X177064500Y-93218000D03*
X172439500Y-93218000D03*
%TD*%
D59*
%TO.C,L3*%
X179324000Y-93449000D03*
X179324000Y-92479000D03*
%TD*%
D25*
%TO.C,J3*%
X157470000Y-118364000D03*
D26*
X154930000Y-118364000D03*
X152390000Y-118364000D03*
X149850000Y-118364000D03*
%TD*%
D60*
%TO.C,U1*%
X161290000Y-96610000D03*
X161290000Y-97710000D03*
X161290000Y-98810000D03*
X161290000Y-99910000D03*
X161290000Y-101010000D03*
X161290000Y-102110000D03*
X161290000Y-103210000D03*
X161290000Y-104310000D03*
X161290000Y-105410000D03*
X170990000Y-105410000D03*
X170990000Y-104310000D03*
X170990000Y-103210000D03*
X170990000Y-102110000D03*
X170990000Y-101010000D03*
X170990000Y-99910000D03*
X170990000Y-98810000D03*
X170990000Y-97710000D03*
X170990000Y-96610000D03*
%TD*%
%LPD*%
M02*
