%TF.GenerationSoftware,KiCad,Pcbnew,7.0.5*%
%TF.CreationDate,2023-07-30T14:01:54+02:00*%
%TF.ProjectId,Teensy_TNC_Fronten_back,5465656e-7379-45f5-944e-435f46726f6e,rev?*%
%TF.SameCoordinates,Original*%
%TF.FileFunction,Legend,Bot*%
%TF.FilePolarity,Positive*%
%FSLAX46Y46*%
G04 Gerber Fmt 4.6, Leading zero omitted, Abs format (unit mm)*
G04 Created by KiCad (PCBNEW 7.0.5) date 2023-07-30 14:01:54*
%MOMM*%
%LPD*%
G01*
G04 APERTURE LIST*
%ADD10C,0.300000*%
%ADD11C,7.000000*%
%ADD12C,12.500000*%
%ADD13C,3.200000*%
G04 APERTURE END LIST*
D10*
X25428571Y3321672D02*
X25428571Y2250243D01*
X25428571Y2250243D02*
X25500000Y2035958D01*
X25500000Y2035958D02*
X25642857Y1893100D01*
X25642857Y1893100D02*
X25857143Y1821672D01*
X25857143Y1821672D02*
X26000000Y1821672D01*
X24000000Y1821672D02*
X24714286Y1821672D01*
X24714286Y1821672D02*
X24714286Y3321672D01*
X22642857Y1964529D02*
X22714285Y1893100D01*
X22714285Y1893100D02*
X22928571Y1821672D01*
X22928571Y1821672D02*
X23071428Y1821672D01*
X23071428Y1821672D02*
X23285714Y1893100D01*
X23285714Y1893100D02*
X23428571Y2035958D01*
X23428571Y2035958D02*
X23500000Y2178815D01*
X23500000Y2178815D02*
X23571428Y2464529D01*
X23571428Y2464529D02*
X23571428Y2678815D01*
X23571428Y2678815D02*
X23500000Y2964529D01*
X23500000Y2964529D02*
X23428571Y3107386D01*
X23428571Y3107386D02*
X23285714Y3250243D01*
X23285714Y3250243D02*
X23071428Y3321672D01*
X23071428Y3321672D02*
X22928571Y3321672D01*
X22928571Y3321672D02*
X22714285Y3250243D01*
X22714285Y3250243D02*
X22642857Y3178815D01*
X21571428Y3321672D02*
X21571428Y2250243D01*
X21571428Y2250243D02*
X21642857Y2035958D01*
X21642857Y2035958D02*
X21785714Y1893100D01*
X21785714Y1893100D02*
X22000000Y1821672D01*
X22000000Y1821672D02*
X22142857Y1821672D01*
X20142857Y1821672D02*
X20857143Y1821672D01*
X20857143Y1821672D02*
X20857143Y3321672D01*
X18785714Y1964529D02*
X18857142Y1893100D01*
X18857142Y1893100D02*
X19071428Y1821672D01*
X19071428Y1821672D02*
X19214285Y1821672D01*
X19214285Y1821672D02*
X19428571Y1893100D01*
X19428571Y1893100D02*
X19571428Y2035958D01*
X19571428Y2035958D02*
X19642857Y2178815D01*
X19642857Y2178815D02*
X19714285Y2464529D01*
X19714285Y2464529D02*
X19714285Y2678815D01*
X19714285Y2678815D02*
X19642857Y2964529D01*
X19642857Y2964529D02*
X19571428Y3107386D01*
X19571428Y3107386D02*
X19428571Y3250243D01*
X19428571Y3250243D02*
X19214285Y3321672D01*
X19214285Y3321672D02*
X19071428Y3321672D01*
X19071428Y3321672D02*
X18857142Y3250243D01*
X18857142Y3250243D02*
X18785714Y3178815D01*
X17714285Y3321672D02*
X17714285Y2250243D01*
X17714285Y2250243D02*
X17785714Y2035958D01*
X17785714Y2035958D02*
X17928571Y1893100D01*
X17928571Y1893100D02*
X18142857Y1821672D01*
X18142857Y1821672D02*
X18285714Y1821672D01*
X16285714Y1821672D02*
X17000000Y1821672D01*
X17000000Y1821672D02*
X17000000Y3321672D01*
X14928571Y1964529D02*
X14999999Y1893100D01*
X14999999Y1893100D02*
X15214285Y1821672D01*
X15214285Y1821672D02*
X15357142Y1821672D01*
X15357142Y1821672D02*
X15571428Y1893100D01*
X15571428Y1893100D02*
X15714285Y2035958D01*
X15714285Y2035958D02*
X15785714Y2178815D01*
X15785714Y2178815D02*
X15857142Y2464529D01*
X15857142Y2464529D02*
X15857142Y2678815D01*
X15857142Y2678815D02*
X15785714Y2964529D01*
X15785714Y2964529D02*
X15714285Y3107386D01*
X15714285Y3107386D02*
X15571428Y3250243D01*
X15571428Y3250243D02*
X15357142Y3321672D01*
X15357142Y3321672D02*
X15214285Y3321672D01*
X15214285Y3321672D02*
X14999999Y3250243D01*
X14999999Y3250243D02*
X14928571Y3178815D01*
X13857142Y3321672D02*
X13857142Y2250243D01*
X13857142Y2250243D02*
X13928571Y2035958D01*
X13928571Y2035958D02*
X14071428Y1893100D01*
X14071428Y1893100D02*
X14285714Y1821672D01*
X14285714Y1821672D02*
X14428571Y1821672D01*
X12428571Y1821672D02*
X13142857Y1821672D01*
X13142857Y1821672D02*
X13142857Y3321672D01*
X11071428Y1964529D02*
X11142856Y1893100D01*
X11142856Y1893100D02*
X11357142Y1821672D01*
X11357142Y1821672D02*
X11499999Y1821672D01*
X11499999Y1821672D02*
X11714285Y1893100D01*
X11714285Y1893100D02*
X11857142Y2035958D01*
X11857142Y2035958D02*
X11928571Y2178815D01*
X11928571Y2178815D02*
X11999999Y2464529D01*
X11999999Y2464529D02*
X11999999Y2678815D01*
X11999999Y2678815D02*
X11928571Y2964529D01*
X11928571Y2964529D02*
X11857142Y3107386D01*
X11857142Y3107386D02*
X11714285Y3250243D01*
X11714285Y3250243D02*
X11499999Y3321672D01*
X11499999Y3321672D02*
X11357142Y3321672D01*
X11357142Y3321672D02*
X11142856Y3250243D01*
X11142856Y3250243D02*
X11071428Y3178815D01*
%LPC*%
D11*
%TO.C,REF\u002A\u002A*%
X52400000Y12120000D03*
%TD*%
D12*
%TO.C,REF\u002A\u002A*%
X36500000Y11610000D03*
%TD*%
D13*
%TO.C,REF\u002A\u002A*%
X64750000Y10000000D03*
%TD*%
%TO.C,REF\u002A\u002A*%
X4750000Y10000000D03*
%TD*%
%LPD*%
M02*
