%TF.GenerationSoftware,KiCad,Pcbnew,7.0.5*%
%TF.CreationDate,2023-07-30T14:01:54+02:00*%
%TF.ProjectId,Teensy_TNC_Fronten_back,5465656e-7379-45f5-944e-435f46726f6e,rev?*%
%TF.SameCoordinates,Original*%
%TF.FileFunction,Legend,Top*%
%TF.FilePolarity,Positive*%
%FSLAX46Y46*%
G04 Gerber Fmt 4.6, Leading zero omitted, Abs format (unit mm)*
G04 Created by KiCad (PCBNEW 7.0.5) date 2023-07-30 14:01:54*
%MOMM*%
%LPD*%
G01*
G04 APERTURE LIST*
%ADD10C,0.300000*%
%ADD11C,7.000000*%
%ADD12C,12.500000*%
%ADD13C,3.200000*%
G04 APERTURE END LIST*
D10*
X15726190Y7840362D02*
X15726190Y6221315D01*
X15726190Y6221315D02*
X15821428Y6030839D01*
X15821428Y6030839D02*
X15916666Y5935600D01*
X15916666Y5935600D02*
X16107142Y5840362D01*
X16107142Y5840362D02*
X16488095Y5840362D01*
X16488095Y5840362D02*
X16678571Y5935600D01*
X16678571Y5935600D02*
X16773809Y6030839D01*
X16773809Y6030839D02*
X16869047Y6221315D01*
X16869047Y6221315D02*
X16869047Y7840362D01*
X17726190Y5935600D02*
X18011904Y5840362D01*
X18011904Y5840362D02*
X18488095Y5840362D01*
X18488095Y5840362D02*
X18678571Y5935600D01*
X18678571Y5935600D02*
X18773809Y6030839D01*
X18773809Y6030839D02*
X18869047Y6221315D01*
X18869047Y6221315D02*
X18869047Y6411791D01*
X18869047Y6411791D02*
X18773809Y6602267D01*
X18773809Y6602267D02*
X18678571Y6697505D01*
X18678571Y6697505D02*
X18488095Y6792743D01*
X18488095Y6792743D02*
X18107142Y6887981D01*
X18107142Y6887981D02*
X17916666Y6983220D01*
X17916666Y6983220D02*
X17821428Y7078458D01*
X17821428Y7078458D02*
X17726190Y7268934D01*
X17726190Y7268934D02*
X17726190Y7459410D01*
X17726190Y7459410D02*
X17821428Y7649886D01*
X17821428Y7649886D02*
X17916666Y7745124D01*
X17916666Y7745124D02*
X18107142Y7840362D01*
X18107142Y7840362D02*
X18583333Y7840362D01*
X18583333Y7840362D02*
X18869047Y7745124D01*
X20392857Y6887981D02*
X20678571Y6792743D01*
X20678571Y6792743D02*
X20773809Y6697505D01*
X20773809Y6697505D02*
X20869047Y6507029D01*
X20869047Y6507029D02*
X20869047Y6221315D01*
X20869047Y6221315D02*
X20773809Y6030839D01*
X20773809Y6030839D02*
X20678571Y5935600D01*
X20678571Y5935600D02*
X20488095Y5840362D01*
X20488095Y5840362D02*
X19726190Y5840362D01*
X19726190Y5840362D02*
X19726190Y7840362D01*
X19726190Y7840362D02*
X20392857Y7840362D01*
X20392857Y7840362D02*
X20583333Y7745124D01*
X20583333Y7745124D02*
X20678571Y7649886D01*
X20678571Y7649886D02*
X20773809Y7459410D01*
X20773809Y7459410D02*
X20773809Y7268934D01*
X20773809Y7268934D02*
X20678571Y7078458D01*
X20678571Y7078458D02*
X20583333Y6983220D01*
X20583333Y6983220D02*
X20392857Y6887981D01*
X20392857Y6887981D02*
X19726190Y6887981D01*
X50352381Y5685600D02*
X50638095Y5590362D01*
X50638095Y5590362D02*
X51114286Y5590362D01*
X51114286Y5590362D02*
X51304762Y5685600D01*
X51304762Y5685600D02*
X51400000Y5780839D01*
X51400000Y5780839D02*
X51495238Y5971315D01*
X51495238Y5971315D02*
X51495238Y6161791D01*
X51495238Y6161791D02*
X51400000Y6352267D01*
X51400000Y6352267D02*
X51304762Y6447505D01*
X51304762Y6447505D02*
X51114286Y6542743D01*
X51114286Y6542743D02*
X50733333Y6637981D01*
X50733333Y6637981D02*
X50542857Y6733220D01*
X50542857Y6733220D02*
X50447619Y6828458D01*
X50447619Y6828458D02*
X50352381Y7018934D01*
X50352381Y7018934D02*
X50352381Y7209410D01*
X50352381Y7209410D02*
X50447619Y7399886D01*
X50447619Y7399886D02*
X50542857Y7495124D01*
X50542857Y7495124D02*
X50733333Y7590362D01*
X50733333Y7590362D02*
X51209524Y7590362D01*
X51209524Y7590362D02*
X51495238Y7495124D01*
X53209524Y5590362D02*
X53209524Y6637981D01*
X53209524Y6637981D02*
X53114286Y6828458D01*
X53114286Y6828458D02*
X52923810Y6923696D01*
X52923810Y6923696D02*
X52542857Y6923696D01*
X52542857Y6923696D02*
X52352381Y6828458D01*
X53209524Y5685600D02*
X53019048Y5590362D01*
X53019048Y5590362D02*
X52542857Y5590362D01*
X52542857Y5590362D02*
X52352381Y5685600D01*
X52352381Y5685600D02*
X52257143Y5876077D01*
X52257143Y5876077D02*
X52257143Y6066553D01*
X52257143Y6066553D02*
X52352381Y6257029D01*
X52352381Y6257029D02*
X52542857Y6352267D01*
X52542857Y6352267D02*
X53019048Y6352267D01*
X53019048Y6352267D02*
X53209524Y6447505D01*
X53876191Y6923696D02*
X54638095Y6923696D01*
X54161905Y7590362D02*
X54161905Y5876077D01*
X54161905Y5876077D02*
X54257143Y5685600D01*
X54257143Y5685600D02*
X54447619Y5590362D01*
X54447619Y5590362D02*
X54638095Y5590362D01*
X33976190Y3840362D02*
X35119047Y3840362D01*
X34547618Y1840362D02*
X34547618Y3840362D01*
X36928571Y1840362D02*
X36261904Y2792743D01*
X35785714Y1840362D02*
X35785714Y3840362D01*
X35785714Y3840362D02*
X36547619Y3840362D01*
X36547619Y3840362D02*
X36738095Y3745124D01*
X36738095Y3745124D02*
X36833333Y3649886D01*
X36833333Y3649886D02*
X36928571Y3459410D01*
X36928571Y3459410D02*
X36928571Y3173696D01*
X36928571Y3173696D02*
X36833333Y2983220D01*
X36833333Y2983220D02*
X36738095Y2887981D01*
X36738095Y2887981D02*
X36547619Y2792743D01*
X36547619Y2792743D02*
X35785714Y2792743D01*
X37595238Y3840362D02*
X38928571Y1840362D01*
X38928571Y3840362D02*
X37595238Y1840362D01*
%LPC*%
D11*
%TO.C,REF\u002A\u002A*%
X52400000Y12120000D03*
%TD*%
D12*
%TO.C,REF\u002A\u002A*%
X36500000Y11610000D03*
%TD*%
D13*
%TO.C,REF\u002A\u002A*%
X64750000Y10000000D03*
%TD*%
%TO.C,REF\u002A\u002A*%
X4750000Y10000000D03*
%TD*%
%LPD*%
M02*
