%TF.GenerationSoftware,KiCad,Pcbnew,7.0.5*%
%TF.CreationDate,2023-07-30T13:58:33+02:00*%
%TF.ProjectId,Teensy_TNC_Fronten_front,5465656e-7379-45f5-944e-435f46726f6e,rev?*%
%TF.SameCoordinates,Original*%
%TF.FileFunction,Legend,Bot*%
%TF.FilePolarity,Positive*%
%FSLAX46Y46*%
G04 Gerber Fmt 4.6, Leading zero omitted, Abs format (unit mm)*
G04 Created by KiCad (PCBNEW 7.0.5) date 2023-07-30 13:58:33*
%MOMM*%
%LPD*%
G01*
G04 APERTURE LIST*
%ADD10C,0.300000*%
%ADD11C,3.200000*%
%ADD12C,3.000000*%
%ADD13C,5.000000*%
%ADD14C,1.500000*%
G04 APERTURE END LIST*
D10*
X56428571Y3821672D02*
X56428571Y2750243D01*
X56428571Y2750243D02*
X56500000Y2535958D01*
X56500000Y2535958D02*
X56642857Y2393100D01*
X56642857Y2393100D02*
X56857143Y2321672D01*
X56857143Y2321672D02*
X57000000Y2321672D01*
X55000000Y2321672D02*
X55714286Y2321672D01*
X55714286Y2321672D02*
X55714286Y3821672D01*
X53642857Y2464529D02*
X53714285Y2393100D01*
X53714285Y2393100D02*
X53928571Y2321672D01*
X53928571Y2321672D02*
X54071428Y2321672D01*
X54071428Y2321672D02*
X54285714Y2393100D01*
X54285714Y2393100D02*
X54428571Y2535958D01*
X54428571Y2535958D02*
X54500000Y2678815D01*
X54500000Y2678815D02*
X54571428Y2964529D01*
X54571428Y2964529D02*
X54571428Y3178815D01*
X54571428Y3178815D02*
X54500000Y3464529D01*
X54500000Y3464529D02*
X54428571Y3607386D01*
X54428571Y3607386D02*
X54285714Y3750243D01*
X54285714Y3750243D02*
X54071428Y3821672D01*
X54071428Y3821672D02*
X53928571Y3821672D01*
X53928571Y3821672D02*
X53714285Y3750243D01*
X53714285Y3750243D02*
X53642857Y3678815D01*
X52571428Y3821672D02*
X52571428Y2750243D01*
X52571428Y2750243D02*
X52642857Y2535958D01*
X52642857Y2535958D02*
X52785714Y2393100D01*
X52785714Y2393100D02*
X53000000Y2321672D01*
X53000000Y2321672D02*
X53142857Y2321672D01*
X51142857Y2321672D02*
X51857143Y2321672D01*
X51857143Y2321672D02*
X51857143Y3821672D01*
X49785714Y2464529D02*
X49857142Y2393100D01*
X49857142Y2393100D02*
X50071428Y2321672D01*
X50071428Y2321672D02*
X50214285Y2321672D01*
X50214285Y2321672D02*
X50428571Y2393100D01*
X50428571Y2393100D02*
X50571428Y2535958D01*
X50571428Y2535958D02*
X50642857Y2678815D01*
X50642857Y2678815D02*
X50714285Y2964529D01*
X50714285Y2964529D02*
X50714285Y3178815D01*
X50714285Y3178815D02*
X50642857Y3464529D01*
X50642857Y3464529D02*
X50571428Y3607386D01*
X50571428Y3607386D02*
X50428571Y3750243D01*
X50428571Y3750243D02*
X50214285Y3821672D01*
X50214285Y3821672D02*
X50071428Y3821672D01*
X50071428Y3821672D02*
X49857142Y3750243D01*
X49857142Y3750243D02*
X49785714Y3678815D01*
X48714285Y3821672D02*
X48714285Y2750243D01*
X48714285Y2750243D02*
X48785714Y2535958D01*
X48785714Y2535958D02*
X48928571Y2393100D01*
X48928571Y2393100D02*
X49142857Y2321672D01*
X49142857Y2321672D02*
X49285714Y2321672D01*
X47285714Y2321672D02*
X48000000Y2321672D01*
X48000000Y2321672D02*
X48000000Y3821672D01*
X45928571Y2464529D02*
X45999999Y2393100D01*
X45999999Y2393100D02*
X46214285Y2321672D01*
X46214285Y2321672D02*
X46357142Y2321672D01*
X46357142Y2321672D02*
X46571428Y2393100D01*
X46571428Y2393100D02*
X46714285Y2535958D01*
X46714285Y2535958D02*
X46785714Y2678815D01*
X46785714Y2678815D02*
X46857142Y2964529D01*
X46857142Y2964529D02*
X46857142Y3178815D01*
X46857142Y3178815D02*
X46785714Y3464529D01*
X46785714Y3464529D02*
X46714285Y3607386D01*
X46714285Y3607386D02*
X46571428Y3750243D01*
X46571428Y3750243D02*
X46357142Y3821672D01*
X46357142Y3821672D02*
X46214285Y3821672D01*
X46214285Y3821672D02*
X45999999Y3750243D01*
X45999999Y3750243D02*
X45928571Y3678815D01*
X44857142Y3821672D02*
X44857142Y2750243D01*
X44857142Y2750243D02*
X44928571Y2535958D01*
X44928571Y2535958D02*
X45071428Y2393100D01*
X45071428Y2393100D02*
X45285714Y2321672D01*
X45285714Y2321672D02*
X45428571Y2321672D01*
X43428571Y2321672D02*
X44142857Y2321672D01*
X44142857Y2321672D02*
X44142857Y3821672D01*
X42071428Y2464529D02*
X42142856Y2393100D01*
X42142856Y2393100D02*
X42357142Y2321672D01*
X42357142Y2321672D02*
X42499999Y2321672D01*
X42499999Y2321672D02*
X42714285Y2393100D01*
X42714285Y2393100D02*
X42857142Y2535958D01*
X42857142Y2535958D02*
X42928571Y2678815D01*
X42928571Y2678815D02*
X42999999Y2964529D01*
X42999999Y2964529D02*
X42999999Y3178815D01*
X42999999Y3178815D02*
X42928571Y3464529D01*
X42928571Y3464529D02*
X42857142Y3607386D01*
X42857142Y3607386D02*
X42714285Y3750243D01*
X42714285Y3750243D02*
X42499999Y3821672D01*
X42499999Y3821672D02*
X42357142Y3821672D01*
X42357142Y3821672D02*
X42142856Y3750243D01*
X42142856Y3750243D02*
X42071428Y3678815D01*
%LPC*%
D11*
%TO.C,REF\u002A\u002A*%
X4750000Y10000000D03*
%TD*%
D12*
%TO.C,REF\u002A\u002A*%
X39800000Y10000000D03*
%TD*%
D13*
%TO.C,REF\u002A\u002A*%
X12800000Y7610000D03*
%TD*%
D14*
%TO.C,REF\u002A\u002A*%
X55800000Y9110000D03*
%TD*%
D12*
%TO.C,REF\u002A\u002A*%
X30800000Y10000000D03*
%TD*%
%TO.C,REF\u002A\u002A*%
X21800000Y10000000D03*
%TD*%
%TO.C,REF\u002A\u002A*%
X48800000Y10000000D03*
%TD*%
D11*
%TO.C,REF\u002A\u002A*%
X64750000Y10000000D03*
%TD*%
%LPD*%
M02*
