G04 #@! TF.GenerationSoftware,KiCad,Pcbnew,7.0.7*
G04 #@! TF.CreationDate,2023-12-02T18:06:35+01:00*
G04 #@! TF.ProjectId,TeensyRPR,5465656e-7379-4525-9052-2e6b69636164,rev?*
G04 #@! TF.SameCoordinates,Original*
G04 #@! TF.FileFunction,Legend,Top*
G04 #@! TF.FilePolarity,Positive*
%FSLAX46Y46*%
G04 Gerber Fmt 4.6, Leading zero omitted, Abs format (unit mm)*
G04 Created by KiCad (PCBNEW 7.0.7) date 2023-12-02 18:06:35*
%MOMM*%
%LPD*%
G01*
G04 APERTURE LIST*
G04 Aperture macros list*
%AMRoundRect*
0 Rectangle with rounded corners*
0 $1 Rounding radius*
0 $2 $3 $4 $5 $6 $7 $8 $9 X,Y pos of 4 corners*
0 Add a 4 corners polygon primitive as box body*
4,1,4,$2,$3,$4,$5,$6,$7,$8,$9,$2,$3,0*
0 Add four circle primitives for the rounded corners*
1,1,$1+$1,$2,$3*
1,1,$1+$1,$4,$5*
1,1,$1+$1,$6,$7*
1,1,$1+$1,$8,$9*
0 Add four rect primitives between the rounded corners*
20,1,$1+$1,$2,$3,$4,$5,0*
20,1,$1+$1,$4,$5,$6,$7,0*
20,1,$1+$1,$6,$7,$8,$9,0*
20,1,$1+$1,$8,$9,$2,$3,0*%
G04 Aperture macros list end*
%ADD10C,0.100000*%
%ADD11C,0.125000*%
%ADD12C,0.150000*%
%ADD13C,0.120000*%
%ADD14C,0.500380*%
%ADD15C,1.501140*%
%ADD16C,3.700780*%
%ADD17RoundRect,0.250000X0.650000X-0.325000X0.650000X0.325000X-0.650000X0.325000X-0.650000X-0.325000X0*%
%ADD18RoundRect,0.140000X-0.140000X-0.170000X0.140000X-0.170000X0.140000X0.170000X-0.140000X0.170000X0*%
%ADD19RoundRect,0.140000X-0.170000X0.140000X-0.170000X-0.140000X0.170000X-0.140000X0.170000X0.140000X0*%
%ADD20RoundRect,0.250000X-0.325000X-0.650000X0.325000X-0.650000X0.325000X0.650000X-0.325000X0.650000X0*%
%ADD21RoundRect,0.250000X0.250000X0.475000X-0.250000X0.475000X-0.250000X-0.475000X0.250000X-0.475000X0*%
%ADD22RoundRect,0.250000X0.475000X-0.250000X0.475000X0.250000X-0.475000X0.250000X-0.475000X-0.250000X0*%
%ADD23RoundRect,0.250000X-0.475000X0.250000X-0.475000X-0.250000X0.475000X-0.250000X0.475000X0.250000X0*%
%ADD24RoundRect,0.140000X0.170000X-0.140000X0.170000X0.140000X-0.170000X0.140000X-0.170000X-0.140000X0*%
%ADD25C,3.721100*%
%ADD26R,1.700000X1.700000*%
%ADD27O,1.700000X1.700000*%
%ADD28RoundRect,0.250000X-0.375000X-1.075000X0.375000X-1.075000X0.375000X1.075000X-0.375000X1.075000X0*%
%ADD29RoundRect,0.150000X-0.587500X-0.150000X0.587500X-0.150000X0.587500X0.150000X-0.587500X0.150000X0*%
%ADD30RoundRect,0.200000X-0.275000X0.200000X-0.275000X-0.200000X0.275000X-0.200000X0.275000X0.200000X0*%
%ADD31RoundRect,0.200000X-0.200000X-0.275000X0.200000X-0.275000X0.200000X0.275000X-0.200000X0.275000X0*%
%ADD32RoundRect,0.200000X0.200000X0.275000X-0.200000X0.275000X-0.200000X-0.275000X0.200000X-0.275000X0*%
%ADD33RoundRect,0.150000X-0.150000X0.587500X-0.150000X-0.587500X0.150000X-0.587500X0.150000X0.587500X0*%
%ADD34R,1.600000X1.600000*%
%ADD35O,1.600000X1.600000*%
%ADD36C,1.524000*%
%ADD37RoundRect,0.050000X-0.050000X0.375000X-0.050000X-0.375000X0.050000X-0.375000X0.050000X0.375000X0*%
%ADD38RoundRect,0.050000X-0.375000X0.050000X-0.375000X-0.050000X0.375000X-0.050000X0.375000X0.050000X0*%
%ADD39R,1.650000X1.650000*%
%ADD40C,2.250000*%
%ADD41RoundRect,0.225000X-0.375000X0.225000X-0.375000X-0.225000X0.375000X-0.225000X0.375000X0.225000X0*%
%ADD42RoundRect,0.250000X-0.550000X1.500000X-0.550000X-1.500000X0.550000X-1.500000X0.550000X1.500000X0*%
%ADD43R,1.800000X1.800000*%
%ADD44C,1.800000*%
%ADD45RoundRect,0.200000X0.275000X-0.200000X0.275000X0.200000X-0.275000X0.200000X-0.275000X-0.200000X0*%
%ADD46C,2.100000*%
%ADD47C,1.750000*%
%ADD48RoundRect,0.112500X0.187500X0.112500X-0.187500X0.112500X-0.187500X-0.112500X0.187500X-0.112500X0*%
%ADD49RoundRect,0.112500X-0.187500X-0.112500X0.187500X-0.112500X0.187500X0.112500X-0.187500X0.112500X0*%
%ADD50C,1.000000*%
%ADD51R,1.900000X1.900000*%
%ADD52C,1.900000*%
%ADD53RoundRect,0.225000X0.225000X0.250000X-0.225000X0.250000X-0.225000X-0.250000X0.225000X-0.250000X0*%
%ADD54RoundRect,0.225000X-0.225000X-0.250000X0.225000X-0.250000X0.225000X0.250000X-0.225000X0.250000X0*%
%ADD55RoundRect,0.225000X-0.250000X0.225000X-0.250000X-0.225000X0.250000X-0.225000X0.250000X0.225000X0*%
%ADD56R,0.800000X2.700000*%
%ADD57RoundRect,0.150000X-0.512500X-0.150000X0.512500X-0.150000X0.512500X0.150000X-0.512500X0.150000X0*%
%ADD58RoundRect,0.225000X0.375000X-0.225000X0.375000X0.225000X-0.375000X0.225000X-0.375000X-0.225000X0*%
%ADD59C,1.400000*%
%ADD60O,1.400000X1.400000*%
%ADD61RoundRect,0.250000X0.362500X1.075000X-0.362500X1.075000X-0.362500X-1.075000X0.362500X-1.075000X0*%
%ADD62RoundRect,0.147500X0.172500X-0.147500X0.172500X0.147500X-0.172500X0.147500X-0.172500X-0.147500X0*%
%ADD63RoundRect,0.200000X-0.700000X-0.200000X0.700000X-0.200000X0.700000X0.200000X-0.700000X0.200000X0*%
G04 APERTURE END LIST*
D10*
X135457509Y-115447046D02*
X135433700Y-115423237D01*
X135433700Y-115423237D02*
X135409890Y-115351808D01*
X135409890Y-115351808D02*
X135409890Y-115304189D01*
X135409890Y-115304189D02*
X135433700Y-115232761D01*
X135433700Y-115232761D02*
X135481319Y-115185142D01*
X135481319Y-115185142D02*
X135528938Y-115161332D01*
X135528938Y-115161332D02*
X135624176Y-115137523D01*
X135624176Y-115137523D02*
X135695604Y-115137523D01*
X135695604Y-115137523D02*
X135790842Y-115161332D01*
X135790842Y-115161332D02*
X135838461Y-115185142D01*
X135838461Y-115185142D02*
X135886080Y-115232761D01*
X135886080Y-115232761D02*
X135909890Y-115304189D01*
X135909890Y-115304189D02*
X135909890Y-115351808D01*
X135909890Y-115351808D02*
X135886080Y-115423237D01*
X135886080Y-115423237D02*
X135862271Y-115447046D01*
X135909890Y-115756570D02*
X135909890Y-115851808D01*
X135909890Y-115851808D02*
X135886080Y-115899427D01*
X135886080Y-115899427D02*
X135838461Y-115947046D01*
X135838461Y-115947046D02*
X135743223Y-115970856D01*
X135743223Y-115970856D02*
X135576557Y-115970856D01*
X135576557Y-115970856D02*
X135481319Y-115947046D01*
X135481319Y-115947046D02*
X135433700Y-115899427D01*
X135433700Y-115899427D02*
X135409890Y-115851808D01*
X135409890Y-115851808D02*
X135409890Y-115756570D01*
X135409890Y-115756570D02*
X135433700Y-115708951D01*
X135433700Y-115708951D02*
X135481319Y-115661332D01*
X135481319Y-115661332D02*
X135576557Y-115637523D01*
X135576557Y-115637523D02*
X135743223Y-115637523D01*
X135743223Y-115637523D02*
X135838461Y-115661332D01*
X135838461Y-115661332D02*
X135886080Y-115708951D01*
X135886080Y-115708951D02*
X135909890Y-115756570D01*
X135409890Y-116185142D02*
X135909890Y-116185142D01*
X135909890Y-116185142D02*
X135409890Y-116470856D01*
X135409890Y-116470856D02*
X135909890Y-116470856D01*
X135409890Y-116708952D02*
X135909890Y-116708952D01*
X135909890Y-116708952D02*
X135409890Y-116994666D01*
X135409890Y-116994666D02*
X135909890Y-116994666D01*
X135409890Y-110017810D02*
X135909890Y-110017810D01*
X135409890Y-110303524D02*
X135695604Y-110089239D01*
X135909890Y-110303524D02*
X135624176Y-110017810D01*
X135409890Y-110517810D02*
X135909890Y-110517810D01*
X135433700Y-110732096D02*
X135409890Y-110803524D01*
X135409890Y-110803524D02*
X135409890Y-110922572D01*
X135409890Y-110922572D02*
X135433700Y-110970191D01*
X135433700Y-110970191D02*
X135457509Y-110994000D01*
X135457509Y-110994000D02*
X135505128Y-111017810D01*
X135505128Y-111017810D02*
X135552747Y-111017810D01*
X135552747Y-111017810D02*
X135600366Y-110994000D01*
X135600366Y-110994000D02*
X135624176Y-110970191D01*
X135624176Y-110970191D02*
X135647985Y-110922572D01*
X135647985Y-110922572D02*
X135671795Y-110827334D01*
X135671795Y-110827334D02*
X135695604Y-110779715D01*
X135695604Y-110779715D02*
X135719414Y-110755905D01*
X135719414Y-110755905D02*
X135767033Y-110732096D01*
X135767033Y-110732096D02*
X135814652Y-110732096D01*
X135814652Y-110732096D02*
X135862271Y-110755905D01*
X135862271Y-110755905D02*
X135886080Y-110779715D01*
X135886080Y-110779715D02*
X135909890Y-110827334D01*
X135909890Y-110827334D02*
X135909890Y-110946381D01*
X135909890Y-110946381D02*
X135886080Y-111017810D01*
X135433700Y-111208286D02*
X135409890Y-111279714D01*
X135409890Y-111279714D02*
X135409890Y-111398762D01*
X135409890Y-111398762D02*
X135433700Y-111446381D01*
X135433700Y-111446381D02*
X135457509Y-111470190D01*
X135457509Y-111470190D02*
X135505128Y-111494000D01*
X135505128Y-111494000D02*
X135552747Y-111494000D01*
X135552747Y-111494000D02*
X135600366Y-111470190D01*
X135600366Y-111470190D02*
X135624176Y-111446381D01*
X135624176Y-111446381D02*
X135647985Y-111398762D01*
X135647985Y-111398762D02*
X135671795Y-111303524D01*
X135671795Y-111303524D02*
X135695604Y-111255905D01*
X135695604Y-111255905D02*
X135719414Y-111232095D01*
X135719414Y-111232095D02*
X135767033Y-111208286D01*
X135767033Y-111208286D02*
X135814652Y-111208286D01*
X135814652Y-111208286D02*
X135862271Y-111232095D01*
X135862271Y-111232095D02*
X135886080Y-111255905D01*
X135886080Y-111255905D02*
X135909890Y-111303524D01*
X135909890Y-111303524D02*
X135909890Y-111422571D01*
X135909890Y-111422571D02*
X135886080Y-111494000D01*
X135671795Y-102620000D02*
X135671795Y-102453333D01*
X135409890Y-102453333D02*
X135909890Y-102453333D01*
X135909890Y-102453333D02*
X135909890Y-102691428D01*
X135409890Y-102881904D02*
X135743223Y-102881904D01*
X135909890Y-102881904D02*
X135886080Y-102858095D01*
X135886080Y-102858095D02*
X135862271Y-102881904D01*
X135862271Y-102881904D02*
X135886080Y-102905714D01*
X135886080Y-102905714D02*
X135909890Y-102881904D01*
X135909890Y-102881904D02*
X135862271Y-102881904D01*
X135409890Y-103072380D02*
X135743223Y-103334285D01*
X135743223Y-103072380D02*
X135409890Y-103334285D01*
X135409890Y-124964095D02*
X135909890Y-124964095D01*
X135909890Y-124964095D02*
X135909890Y-125154571D01*
X135909890Y-125154571D02*
X135886080Y-125202190D01*
X135886080Y-125202190D02*
X135862271Y-125226000D01*
X135862271Y-125226000D02*
X135814652Y-125249809D01*
X135814652Y-125249809D02*
X135743223Y-125249809D01*
X135743223Y-125249809D02*
X135695604Y-125226000D01*
X135695604Y-125226000D02*
X135671795Y-125202190D01*
X135671795Y-125202190D02*
X135647985Y-125154571D01*
X135647985Y-125154571D02*
X135647985Y-124964095D01*
X135909890Y-125392667D02*
X135909890Y-125678381D01*
X135409890Y-125535524D02*
X135909890Y-125535524D01*
X135909890Y-125773619D02*
X135909890Y-126059333D01*
X135409890Y-125916476D02*
X135909890Y-125916476D01*
X153310303Y-121693304D02*
X153381731Y-121717114D01*
X153381731Y-121717114D02*
X153405541Y-121740923D01*
X153405541Y-121740923D02*
X153429350Y-121788542D01*
X153429350Y-121788542D02*
X153429350Y-121859971D01*
X153429350Y-121859971D02*
X153405541Y-121907590D01*
X153405541Y-121907590D02*
X153381731Y-121931400D01*
X153381731Y-121931400D02*
X153334112Y-121955209D01*
X153334112Y-121955209D02*
X153143636Y-121955209D01*
X153143636Y-121955209D02*
X153143636Y-121455209D01*
X153143636Y-121455209D02*
X153310303Y-121455209D01*
X153310303Y-121455209D02*
X153357922Y-121479019D01*
X153357922Y-121479019D02*
X153381731Y-121502828D01*
X153381731Y-121502828D02*
X153405541Y-121550447D01*
X153405541Y-121550447D02*
X153405541Y-121598066D01*
X153405541Y-121598066D02*
X153381731Y-121645685D01*
X153381731Y-121645685D02*
X153357922Y-121669495D01*
X153357922Y-121669495D02*
X153310303Y-121693304D01*
X153310303Y-121693304D02*
X153143636Y-121693304D01*
X153715065Y-121955209D02*
X153667446Y-121931400D01*
X153667446Y-121931400D02*
X153643636Y-121883780D01*
X153643636Y-121883780D02*
X153643636Y-121455209D01*
X154119827Y-121621876D02*
X154119827Y-121955209D01*
X153905541Y-121621876D02*
X153905541Y-121883780D01*
X153905541Y-121883780D02*
X153929351Y-121931400D01*
X153929351Y-121931400D02*
X153976970Y-121955209D01*
X153976970Y-121955209D02*
X154048398Y-121955209D01*
X154048398Y-121955209D02*
X154096017Y-121931400D01*
X154096017Y-121931400D02*
X154119827Y-121907590D01*
X154548398Y-121931400D02*
X154500779Y-121955209D01*
X154500779Y-121955209D02*
X154405541Y-121955209D01*
X154405541Y-121955209D02*
X154357922Y-121931400D01*
X154357922Y-121931400D02*
X154334113Y-121883780D01*
X154334113Y-121883780D02*
X154334113Y-121693304D01*
X154334113Y-121693304D02*
X154357922Y-121645685D01*
X154357922Y-121645685D02*
X154405541Y-121621876D01*
X154405541Y-121621876D02*
X154500779Y-121621876D01*
X154500779Y-121621876D02*
X154548398Y-121645685D01*
X154548398Y-121645685D02*
X154572208Y-121693304D01*
X154572208Y-121693304D02*
X154572208Y-121740923D01*
X154572208Y-121740923D02*
X154334113Y-121788542D01*
X155310302Y-121455209D02*
X155310302Y-121812352D01*
X155310302Y-121812352D02*
X155286493Y-121883780D01*
X155286493Y-121883780D02*
X155238874Y-121931400D01*
X155238874Y-121931400D02*
X155167445Y-121955209D01*
X155167445Y-121955209D02*
X155119826Y-121955209D01*
X155548397Y-121955209D02*
X155548397Y-121455209D01*
X155548397Y-121455209D02*
X155667445Y-121455209D01*
X155667445Y-121455209D02*
X155738873Y-121479019D01*
X155738873Y-121479019D02*
X155786492Y-121526638D01*
X155786492Y-121526638D02*
X155810302Y-121574257D01*
X155810302Y-121574257D02*
X155834111Y-121669495D01*
X155834111Y-121669495D02*
X155834111Y-121740923D01*
X155834111Y-121740923D02*
X155810302Y-121836161D01*
X155810302Y-121836161D02*
X155786492Y-121883780D01*
X155786492Y-121883780D02*
X155738873Y-121931400D01*
X155738873Y-121931400D02*
X155667445Y-121955209D01*
X155667445Y-121955209D02*
X155548397Y-121955209D01*
X156143635Y-121717114D02*
X156143635Y-121955209D01*
X155976969Y-121455209D02*
X156143635Y-121717114D01*
X156143635Y-121717114D02*
X156310302Y-121455209D01*
X156476968Y-121764733D02*
X156857921Y-121764733D01*
X157048397Y-121455209D02*
X157357921Y-121455209D01*
X157357921Y-121455209D02*
X157191254Y-121645685D01*
X157191254Y-121645685D02*
X157262683Y-121645685D01*
X157262683Y-121645685D02*
X157310302Y-121669495D01*
X157310302Y-121669495D02*
X157334111Y-121693304D01*
X157334111Y-121693304D02*
X157357921Y-121740923D01*
X157357921Y-121740923D02*
X157357921Y-121859971D01*
X157357921Y-121859971D02*
X157334111Y-121907590D01*
X157334111Y-121907590D02*
X157310302Y-121931400D01*
X157310302Y-121931400D02*
X157262683Y-121955209D01*
X157262683Y-121955209D02*
X157119826Y-121955209D01*
X157119826Y-121955209D02*
X157072207Y-121931400D01*
X157072207Y-121931400D02*
X157048397Y-121907590D01*
X157524587Y-121455209D02*
X157834111Y-121455209D01*
X157834111Y-121455209D02*
X157667444Y-121645685D01*
X157667444Y-121645685D02*
X157738873Y-121645685D01*
X157738873Y-121645685D02*
X157786492Y-121669495D01*
X157786492Y-121669495D02*
X157810301Y-121693304D01*
X157810301Y-121693304D02*
X157834111Y-121740923D01*
X157834111Y-121740923D02*
X157834111Y-121859971D01*
X157834111Y-121859971D02*
X157810301Y-121907590D01*
X157810301Y-121907590D02*
X157786492Y-121931400D01*
X157786492Y-121931400D02*
X157738873Y-121955209D01*
X157738873Y-121955209D02*
X157596016Y-121955209D01*
X157596016Y-121955209D02*
X157548397Y-121931400D01*
X157548397Y-121931400D02*
X157524587Y-121907590D01*
X164294000Y-92938895D02*
X164027333Y-92557942D01*
X163836857Y-92938895D02*
X163836857Y-92138895D01*
X163836857Y-92138895D02*
X164141619Y-92138895D01*
X164141619Y-92138895D02*
X164217809Y-92176990D01*
X164217809Y-92176990D02*
X164255904Y-92215085D01*
X164255904Y-92215085D02*
X164294000Y-92291276D01*
X164294000Y-92291276D02*
X164294000Y-92405561D01*
X164294000Y-92405561D02*
X164255904Y-92481752D01*
X164255904Y-92481752D02*
X164217809Y-92519847D01*
X164217809Y-92519847D02*
X164141619Y-92557942D01*
X164141619Y-92557942D02*
X163836857Y-92557942D01*
X164636857Y-92938895D02*
X164636857Y-92138895D01*
X164636857Y-92138895D02*
X164941619Y-92138895D01*
X164941619Y-92138895D02*
X165017809Y-92176990D01*
X165017809Y-92176990D02*
X165055904Y-92215085D01*
X165055904Y-92215085D02*
X165094000Y-92291276D01*
X165094000Y-92291276D02*
X165094000Y-92405561D01*
X165094000Y-92405561D02*
X165055904Y-92481752D01*
X165055904Y-92481752D02*
X165017809Y-92519847D01*
X165017809Y-92519847D02*
X164941619Y-92557942D01*
X164941619Y-92557942D02*
X164636857Y-92557942D01*
X165894000Y-92938895D02*
X165627333Y-92557942D01*
X165436857Y-92938895D02*
X165436857Y-92138895D01*
X165436857Y-92138895D02*
X165741619Y-92138895D01*
X165741619Y-92138895D02*
X165817809Y-92176990D01*
X165817809Y-92176990D02*
X165855904Y-92215085D01*
X165855904Y-92215085D02*
X165894000Y-92291276D01*
X165894000Y-92291276D02*
X165894000Y-92405561D01*
X165894000Y-92405561D02*
X165855904Y-92481752D01*
X165855904Y-92481752D02*
X165817809Y-92519847D01*
X165817809Y-92519847D02*
X165741619Y-92557942D01*
X165741619Y-92557942D02*
X165436857Y-92557942D01*
X166732095Y-92138895D02*
X167189238Y-92138895D01*
X166960666Y-92938895D02*
X166960666Y-92138895D01*
X167455905Y-92938895D02*
X167455905Y-92138895D01*
X167455905Y-92138895D02*
X167913048Y-92938895D01*
X167913048Y-92938895D02*
X167913048Y-92138895D01*
X168751143Y-92862704D02*
X168713047Y-92900800D01*
X168713047Y-92900800D02*
X168598762Y-92938895D01*
X168598762Y-92938895D02*
X168522571Y-92938895D01*
X168522571Y-92938895D02*
X168408285Y-92900800D01*
X168408285Y-92900800D02*
X168332095Y-92824609D01*
X168332095Y-92824609D02*
X168294000Y-92748419D01*
X168294000Y-92748419D02*
X168255904Y-92596038D01*
X168255904Y-92596038D02*
X168255904Y-92481752D01*
X168255904Y-92481752D02*
X168294000Y-92329371D01*
X168294000Y-92329371D02*
X168332095Y-92253180D01*
X168332095Y-92253180D02*
X168408285Y-92176990D01*
X168408285Y-92176990D02*
X168522571Y-92138895D01*
X168522571Y-92138895D02*
X168598762Y-92138895D01*
X168598762Y-92138895D02*
X168713047Y-92176990D01*
X168713047Y-92176990D02*
X168751143Y-92215085D01*
X169627333Y-92405561D02*
X169817809Y-92938895D01*
X169817809Y-92938895D02*
X170008286Y-92405561D01*
X170236857Y-92138895D02*
X170732095Y-92138895D01*
X170732095Y-92138895D02*
X170465429Y-92443657D01*
X170465429Y-92443657D02*
X170579714Y-92443657D01*
X170579714Y-92443657D02*
X170655905Y-92481752D01*
X170655905Y-92481752D02*
X170694000Y-92519847D01*
X170694000Y-92519847D02*
X170732095Y-92596038D01*
X170732095Y-92596038D02*
X170732095Y-92786514D01*
X170732095Y-92786514D02*
X170694000Y-92862704D01*
X170694000Y-92862704D02*
X170655905Y-92900800D01*
X170655905Y-92900800D02*
X170579714Y-92938895D01*
X170579714Y-92938895D02*
X170351143Y-92938895D01*
X170351143Y-92938895D02*
X170274952Y-92900800D01*
X170274952Y-92900800D02*
X170236857Y-92862704D01*
X171074953Y-92938895D02*
X171074953Y-92405561D01*
X171074953Y-92557942D02*
X171113048Y-92481752D01*
X171113048Y-92481752D02*
X171151143Y-92443657D01*
X171151143Y-92443657D02*
X171227334Y-92405561D01*
X171227334Y-92405561D02*
X171303524Y-92405561D01*
X171494000Y-92138895D02*
X171989238Y-92138895D01*
X171989238Y-92138895D02*
X171722572Y-92443657D01*
X171722572Y-92443657D02*
X171836857Y-92443657D01*
X171836857Y-92443657D02*
X171913048Y-92481752D01*
X171913048Y-92481752D02*
X171951143Y-92519847D01*
X171951143Y-92519847D02*
X171989238Y-92596038D01*
X171989238Y-92596038D02*
X171989238Y-92786514D01*
X171989238Y-92786514D02*
X171951143Y-92862704D01*
X171951143Y-92862704D02*
X171913048Y-92900800D01*
X171913048Y-92900800D02*
X171836857Y-92938895D01*
X171836857Y-92938895D02*
X171608286Y-92938895D01*
X171608286Y-92938895D02*
X171532095Y-92900800D01*
X171532095Y-92900800D02*
X171494000Y-92862704D01*
X164122570Y-93617371D02*
X164046379Y-93579276D01*
X164046379Y-93579276D02*
X163893998Y-93579276D01*
X163893998Y-93579276D02*
X163817808Y-93617371D01*
X163817808Y-93617371D02*
X163741617Y-93693561D01*
X163741617Y-93693561D02*
X163703522Y-93769752D01*
X163703522Y-93769752D02*
X163703522Y-93922133D01*
X163703522Y-93922133D02*
X163741617Y-93998323D01*
X163741617Y-93998323D02*
X163817808Y-94074514D01*
X163817808Y-94074514D02*
X163893998Y-94112609D01*
X163893998Y-94112609D02*
X164046379Y-94112609D01*
X164046379Y-94112609D02*
X164122570Y-94074514D01*
X163970189Y-93312609D02*
X163779713Y-93350704D01*
X163779713Y-93350704D02*
X163589236Y-93464990D01*
X163589236Y-93464990D02*
X163474951Y-93655466D01*
X163474951Y-93655466D02*
X163436855Y-93845942D01*
X163436855Y-93845942D02*
X163474951Y-94036419D01*
X163474951Y-94036419D02*
X163589236Y-94226895D01*
X163589236Y-94226895D02*
X163779713Y-94341180D01*
X163779713Y-94341180D02*
X163970189Y-94379276D01*
X163970189Y-94379276D02*
X164160665Y-94341180D01*
X164160665Y-94341180D02*
X164351141Y-94226895D01*
X164351141Y-94226895D02*
X164465427Y-94036419D01*
X164465427Y-94036419D02*
X164503522Y-93845942D01*
X164503522Y-93845942D02*
X164465427Y-93655466D01*
X164465427Y-93655466D02*
X164351141Y-93464990D01*
X164351141Y-93464990D02*
X164160665Y-93350704D01*
X164160665Y-93350704D02*
X163970189Y-93312609D01*
X164808284Y-93503085D02*
X164846380Y-93464990D01*
X164846380Y-93464990D02*
X164922570Y-93426895D01*
X164922570Y-93426895D02*
X165113046Y-93426895D01*
X165113046Y-93426895D02*
X165189237Y-93464990D01*
X165189237Y-93464990D02*
X165227332Y-93503085D01*
X165227332Y-93503085D02*
X165265427Y-93579276D01*
X165265427Y-93579276D02*
X165265427Y-93655466D01*
X165265427Y-93655466D02*
X165227332Y-93769752D01*
X165227332Y-93769752D02*
X164770189Y-94226895D01*
X164770189Y-94226895D02*
X165265427Y-94226895D01*
X165760666Y-93426895D02*
X165836856Y-93426895D01*
X165836856Y-93426895D02*
X165913047Y-93464990D01*
X165913047Y-93464990D02*
X165951142Y-93503085D01*
X165951142Y-93503085D02*
X165989237Y-93579276D01*
X165989237Y-93579276D02*
X166027332Y-93731657D01*
X166027332Y-93731657D02*
X166027332Y-93922133D01*
X166027332Y-93922133D02*
X165989237Y-94074514D01*
X165989237Y-94074514D02*
X165951142Y-94150704D01*
X165951142Y-94150704D02*
X165913047Y-94188800D01*
X165913047Y-94188800D02*
X165836856Y-94226895D01*
X165836856Y-94226895D02*
X165760666Y-94226895D01*
X165760666Y-94226895D02*
X165684475Y-94188800D01*
X165684475Y-94188800D02*
X165646380Y-94150704D01*
X165646380Y-94150704D02*
X165608285Y-94074514D01*
X165608285Y-94074514D02*
X165570189Y-93922133D01*
X165570189Y-93922133D02*
X165570189Y-93731657D01*
X165570189Y-93731657D02*
X165608285Y-93579276D01*
X165608285Y-93579276D02*
X165646380Y-93503085D01*
X165646380Y-93503085D02*
X165684475Y-93464990D01*
X165684475Y-93464990D02*
X165760666Y-93426895D01*
X166332094Y-93503085D02*
X166370190Y-93464990D01*
X166370190Y-93464990D02*
X166446380Y-93426895D01*
X166446380Y-93426895D02*
X166636856Y-93426895D01*
X166636856Y-93426895D02*
X166713047Y-93464990D01*
X166713047Y-93464990D02*
X166751142Y-93503085D01*
X166751142Y-93503085D02*
X166789237Y-93579276D01*
X166789237Y-93579276D02*
X166789237Y-93655466D01*
X166789237Y-93655466D02*
X166751142Y-93769752D01*
X166751142Y-93769752D02*
X166293999Y-94226895D01*
X166293999Y-94226895D02*
X166789237Y-94226895D01*
X167055904Y-93426895D02*
X167551142Y-93426895D01*
X167551142Y-93426895D02*
X167284476Y-93731657D01*
X167284476Y-93731657D02*
X167398761Y-93731657D01*
X167398761Y-93731657D02*
X167474952Y-93769752D01*
X167474952Y-93769752D02*
X167513047Y-93807847D01*
X167513047Y-93807847D02*
X167551142Y-93884038D01*
X167551142Y-93884038D02*
X167551142Y-94074514D01*
X167551142Y-94074514D02*
X167513047Y-94150704D01*
X167513047Y-94150704D02*
X167474952Y-94188800D01*
X167474952Y-94188800D02*
X167398761Y-94226895D01*
X167398761Y-94226895D02*
X167170190Y-94226895D01*
X167170190Y-94226895D02*
X167093999Y-94188800D01*
X167093999Y-94188800D02*
X167055904Y-94150704D01*
X168503524Y-94226895D02*
X168503524Y-93426895D01*
X168503524Y-93426895D02*
X168694000Y-93426895D01*
X168694000Y-93426895D02*
X168808286Y-93464990D01*
X168808286Y-93464990D02*
X168884476Y-93541180D01*
X168884476Y-93541180D02*
X168922571Y-93617371D01*
X168922571Y-93617371D02*
X168960667Y-93769752D01*
X168960667Y-93769752D02*
X168960667Y-93884038D01*
X168960667Y-93884038D02*
X168922571Y-94036419D01*
X168922571Y-94036419D02*
X168884476Y-94112609D01*
X168884476Y-94112609D02*
X168808286Y-94188800D01*
X168808286Y-94188800D02*
X168694000Y-94226895D01*
X168694000Y-94226895D02*
X168503524Y-94226895D01*
X169303524Y-94226895D02*
X169303524Y-93426895D01*
X169303524Y-93426895D02*
X169570190Y-93998323D01*
X169570190Y-93998323D02*
X169836857Y-93426895D01*
X169836857Y-93426895D02*
X169836857Y-94226895D01*
X170560667Y-93693561D02*
X170560667Y-94226895D01*
X170370191Y-93388800D02*
X170179714Y-93960228D01*
X170179714Y-93960228D02*
X170674953Y-93960228D01*
X171436858Y-94226895D02*
X171170191Y-93845942D01*
X170979715Y-94226895D02*
X170979715Y-93426895D01*
X170979715Y-93426895D02*
X171284477Y-93426895D01*
X171284477Y-93426895D02*
X171360667Y-93464990D01*
X171360667Y-93464990D02*
X171398762Y-93503085D01*
X171398762Y-93503085D02*
X171436858Y-93579276D01*
X171436858Y-93579276D02*
X171436858Y-93693561D01*
X171436858Y-93693561D02*
X171398762Y-93769752D01*
X171398762Y-93769752D02*
X171360667Y-93807847D01*
X171360667Y-93807847D02*
X171284477Y-93845942D01*
X171284477Y-93845942D02*
X170979715Y-93845942D01*
X171703524Y-93426895D02*
X171894000Y-94226895D01*
X171894000Y-94226895D02*
X172046381Y-93655466D01*
X172046381Y-93655466D02*
X172198762Y-94226895D01*
X172198762Y-94226895D02*
X172389239Y-93426895D01*
X135409890Y-119003047D02*
X135909890Y-119003047D01*
X135909890Y-119003047D02*
X135909890Y-119122095D01*
X135909890Y-119122095D02*
X135886080Y-119193523D01*
X135886080Y-119193523D02*
X135838461Y-119241142D01*
X135838461Y-119241142D02*
X135790842Y-119264952D01*
X135790842Y-119264952D02*
X135695604Y-119288761D01*
X135695604Y-119288761D02*
X135624176Y-119288761D01*
X135624176Y-119288761D02*
X135528938Y-119264952D01*
X135528938Y-119264952D02*
X135481319Y-119241142D01*
X135481319Y-119241142D02*
X135433700Y-119193523D01*
X135433700Y-119193523D02*
X135409890Y-119122095D01*
X135409890Y-119122095D02*
X135409890Y-119003047D01*
X135457509Y-119788761D02*
X135433700Y-119764952D01*
X135433700Y-119764952D02*
X135409890Y-119693523D01*
X135409890Y-119693523D02*
X135409890Y-119645904D01*
X135409890Y-119645904D02*
X135433700Y-119574476D01*
X135433700Y-119574476D02*
X135481319Y-119526857D01*
X135481319Y-119526857D02*
X135528938Y-119503047D01*
X135528938Y-119503047D02*
X135624176Y-119479238D01*
X135624176Y-119479238D02*
X135695604Y-119479238D01*
X135695604Y-119479238D02*
X135790842Y-119503047D01*
X135790842Y-119503047D02*
X135838461Y-119526857D01*
X135838461Y-119526857D02*
X135886080Y-119574476D01*
X135886080Y-119574476D02*
X135909890Y-119645904D01*
X135909890Y-119645904D02*
X135909890Y-119693523D01*
X135909890Y-119693523D02*
X135886080Y-119764952D01*
X135886080Y-119764952D02*
X135862271Y-119788761D01*
X135409890Y-120003047D02*
X135909890Y-120003047D01*
X135909890Y-120003047D02*
X135909890Y-120122095D01*
X135909890Y-120122095D02*
X135886080Y-120193523D01*
X135886080Y-120193523D02*
X135838461Y-120241142D01*
X135838461Y-120241142D02*
X135790842Y-120264952D01*
X135790842Y-120264952D02*
X135695604Y-120288761D01*
X135695604Y-120288761D02*
X135624176Y-120288761D01*
X135624176Y-120288761D02*
X135528938Y-120264952D01*
X135528938Y-120264952D02*
X135481319Y-120241142D01*
X135481319Y-120241142D02*
X135433700Y-120193523D01*
X135433700Y-120193523D02*
X135409890Y-120122095D01*
X135409890Y-120122095D02*
X135409890Y-120003047D01*
X165795609Y-122751163D02*
X165295609Y-122751163D01*
X165295609Y-122751163D02*
X165295609Y-122560687D01*
X165295609Y-122560687D02*
X165319419Y-122513068D01*
X165319419Y-122513068D02*
X165343228Y-122489258D01*
X165343228Y-122489258D02*
X165390847Y-122465449D01*
X165390847Y-122465449D02*
X165462276Y-122465449D01*
X165462276Y-122465449D02*
X165509895Y-122489258D01*
X165509895Y-122489258D02*
X165533704Y-122513068D01*
X165533704Y-122513068D02*
X165557514Y-122560687D01*
X165557514Y-122560687D02*
X165557514Y-122751163D01*
X165295609Y-122322591D02*
X165295609Y-122036877D01*
X165795609Y-122179734D02*
X165295609Y-122179734D01*
X165295609Y-121941639D02*
X165295609Y-121655925D01*
X165795609Y-121798782D02*
X165295609Y-121798782D01*
X165462276Y-121155926D02*
X165795609Y-121036878D01*
X165795609Y-121036878D02*
X165462276Y-120917831D01*
X165795609Y-120727355D02*
X165462276Y-120727355D01*
X165295609Y-120727355D02*
X165319419Y-120751164D01*
X165319419Y-120751164D02*
X165343228Y-120727355D01*
X165343228Y-120727355D02*
X165319419Y-120703545D01*
X165319419Y-120703545D02*
X165295609Y-120727355D01*
X165295609Y-120727355D02*
X165343228Y-120727355D01*
X165795609Y-120274974D02*
X165533704Y-120274974D01*
X165533704Y-120274974D02*
X165486085Y-120298784D01*
X165486085Y-120298784D02*
X165462276Y-120346403D01*
X165462276Y-120346403D02*
X165462276Y-120441641D01*
X165462276Y-120441641D02*
X165486085Y-120489260D01*
X165771800Y-120274974D02*
X165795609Y-120322593D01*
X165795609Y-120322593D02*
X165795609Y-120441641D01*
X165795609Y-120441641D02*
X165771800Y-120489260D01*
X165771800Y-120489260D02*
X165724180Y-120513069D01*
X165724180Y-120513069D02*
X165676561Y-120513069D01*
X165676561Y-120513069D02*
X165628942Y-120489260D01*
X165628942Y-120489260D02*
X165605133Y-120441641D01*
X165605133Y-120441641D02*
X165605133Y-120322593D01*
X165605133Y-120322593D02*
X165581323Y-120274974D01*
X165652752Y-119679736D02*
X165652752Y-119441641D01*
X165795609Y-119727355D02*
X165295609Y-119560689D01*
X165295609Y-119560689D02*
X165795609Y-119394022D01*
X165533704Y-119060689D02*
X165533704Y-119227356D01*
X165795609Y-119227356D02*
X165295609Y-119227356D01*
X165295609Y-119227356D02*
X165295609Y-118989261D01*
X135519395Y-126946886D02*
X135495585Y-127018314D01*
X135495585Y-127018314D02*
X135471776Y-127042124D01*
X135471776Y-127042124D02*
X135424157Y-127065933D01*
X135424157Y-127065933D02*
X135352728Y-127065933D01*
X135352728Y-127065933D02*
X135305109Y-127042124D01*
X135305109Y-127042124D02*
X135281300Y-127018314D01*
X135281300Y-127018314D02*
X135257490Y-126970695D01*
X135257490Y-126970695D02*
X135257490Y-126780219D01*
X135257490Y-126780219D02*
X135757490Y-126780219D01*
X135757490Y-126780219D02*
X135757490Y-126946886D01*
X135757490Y-126946886D02*
X135733680Y-126994505D01*
X135733680Y-126994505D02*
X135709871Y-127018314D01*
X135709871Y-127018314D02*
X135662252Y-127042124D01*
X135662252Y-127042124D02*
X135614633Y-127042124D01*
X135614633Y-127042124D02*
X135567014Y-127018314D01*
X135567014Y-127018314D02*
X135543204Y-126994505D01*
X135543204Y-126994505D02*
X135519395Y-126946886D01*
X135519395Y-126946886D02*
X135519395Y-126780219D01*
X135257490Y-127351648D02*
X135281300Y-127304029D01*
X135281300Y-127304029D02*
X135328919Y-127280219D01*
X135328919Y-127280219D02*
X135757490Y-127280219D01*
X135590823Y-127756410D02*
X135257490Y-127756410D01*
X135590823Y-127542124D02*
X135328919Y-127542124D01*
X135328919Y-127542124D02*
X135281300Y-127565934D01*
X135281300Y-127565934D02*
X135257490Y-127613553D01*
X135257490Y-127613553D02*
X135257490Y-127684981D01*
X135257490Y-127684981D02*
X135281300Y-127732600D01*
X135281300Y-127732600D02*
X135305109Y-127756410D01*
X135281300Y-128184981D02*
X135257490Y-128137362D01*
X135257490Y-128137362D02*
X135257490Y-128042124D01*
X135257490Y-128042124D02*
X135281300Y-127994505D01*
X135281300Y-127994505D02*
X135328919Y-127970696D01*
X135328919Y-127970696D02*
X135519395Y-127970696D01*
X135519395Y-127970696D02*
X135567014Y-127994505D01*
X135567014Y-127994505D02*
X135590823Y-128042124D01*
X135590823Y-128042124D02*
X135590823Y-128137362D01*
X135590823Y-128137362D02*
X135567014Y-128184981D01*
X135567014Y-128184981D02*
X135519395Y-128208791D01*
X135519395Y-128208791D02*
X135471776Y-128208791D01*
X135471776Y-128208791D02*
X135424157Y-127970696D01*
X179248490Y-135033333D02*
X179272300Y-135057142D01*
X179272300Y-135057142D02*
X179296109Y-135128571D01*
X179296109Y-135128571D02*
X179296109Y-135176190D01*
X179296109Y-135176190D02*
X179272300Y-135247618D01*
X179272300Y-135247618D02*
X179224680Y-135295237D01*
X179224680Y-135295237D02*
X179177061Y-135319047D01*
X179177061Y-135319047D02*
X179081823Y-135342856D01*
X179081823Y-135342856D02*
X179010395Y-135342856D01*
X179010395Y-135342856D02*
X178915157Y-135319047D01*
X178915157Y-135319047D02*
X178867538Y-135295237D01*
X178867538Y-135295237D02*
X178819919Y-135247618D01*
X178819919Y-135247618D02*
X178796109Y-135176190D01*
X178796109Y-135176190D02*
X178796109Y-135128571D01*
X178796109Y-135128571D02*
X178819919Y-135057142D01*
X178819919Y-135057142D02*
X178843728Y-135033333D01*
X178962776Y-134604761D02*
X179296109Y-134604761D01*
X178772300Y-134723809D02*
X179129442Y-134842856D01*
X179129442Y-134842856D02*
X179129442Y-134533333D01*
X172706666Y-140028490D02*
X172682857Y-140052300D01*
X172682857Y-140052300D02*
X172611428Y-140076109D01*
X172611428Y-140076109D02*
X172563809Y-140076109D01*
X172563809Y-140076109D02*
X172492381Y-140052300D01*
X172492381Y-140052300D02*
X172444762Y-140004680D01*
X172444762Y-140004680D02*
X172420952Y-139957061D01*
X172420952Y-139957061D02*
X172397143Y-139861823D01*
X172397143Y-139861823D02*
X172397143Y-139790395D01*
X172397143Y-139790395D02*
X172420952Y-139695157D01*
X172420952Y-139695157D02*
X172444762Y-139647538D01*
X172444762Y-139647538D02*
X172492381Y-139599919D01*
X172492381Y-139599919D02*
X172563809Y-139576109D01*
X172563809Y-139576109D02*
X172611428Y-139576109D01*
X172611428Y-139576109D02*
X172682857Y-139599919D01*
X172682857Y-139599919D02*
X172706666Y-139623728D01*
X173159047Y-139576109D02*
X172920952Y-139576109D01*
X172920952Y-139576109D02*
X172897143Y-139814204D01*
X172897143Y-139814204D02*
X172920952Y-139790395D01*
X172920952Y-139790395D02*
X172968571Y-139766585D01*
X172968571Y-139766585D02*
X173087619Y-139766585D01*
X173087619Y-139766585D02*
X173135238Y-139790395D01*
X173135238Y-139790395D02*
X173159047Y-139814204D01*
X173159047Y-139814204D02*
X173182857Y-139861823D01*
X173182857Y-139861823D02*
X173182857Y-139980871D01*
X173182857Y-139980871D02*
X173159047Y-140028490D01*
X173159047Y-140028490D02*
X173135238Y-140052300D01*
X173135238Y-140052300D02*
X173087619Y-140076109D01*
X173087619Y-140076109D02*
X172968571Y-140076109D01*
X172968571Y-140076109D02*
X172920952Y-140052300D01*
X172920952Y-140052300D02*
X172897143Y-140028490D01*
X177724490Y-131663333D02*
X177748300Y-131687142D01*
X177748300Y-131687142D02*
X177772109Y-131758571D01*
X177772109Y-131758571D02*
X177772109Y-131806190D01*
X177772109Y-131806190D02*
X177748300Y-131877618D01*
X177748300Y-131877618D02*
X177700680Y-131925237D01*
X177700680Y-131925237D02*
X177653061Y-131949047D01*
X177653061Y-131949047D02*
X177557823Y-131972856D01*
X177557823Y-131972856D02*
X177486395Y-131972856D01*
X177486395Y-131972856D02*
X177391157Y-131949047D01*
X177391157Y-131949047D02*
X177343538Y-131925237D01*
X177343538Y-131925237D02*
X177295919Y-131877618D01*
X177295919Y-131877618D02*
X177272109Y-131806190D01*
X177272109Y-131806190D02*
X177272109Y-131758571D01*
X177272109Y-131758571D02*
X177295919Y-131687142D01*
X177295919Y-131687142D02*
X177319728Y-131663333D01*
X177272109Y-131234761D02*
X177272109Y-131329999D01*
X177272109Y-131329999D02*
X177295919Y-131377618D01*
X177295919Y-131377618D02*
X177319728Y-131401428D01*
X177319728Y-131401428D02*
X177391157Y-131449047D01*
X177391157Y-131449047D02*
X177486395Y-131472856D01*
X177486395Y-131472856D02*
X177676871Y-131472856D01*
X177676871Y-131472856D02*
X177724490Y-131449047D01*
X177724490Y-131449047D02*
X177748300Y-131425237D01*
X177748300Y-131425237D02*
X177772109Y-131377618D01*
X177772109Y-131377618D02*
X177772109Y-131282380D01*
X177772109Y-131282380D02*
X177748300Y-131234761D01*
X177748300Y-131234761D02*
X177724490Y-131210952D01*
X177724490Y-131210952D02*
X177676871Y-131187142D01*
X177676871Y-131187142D02*
X177557823Y-131187142D01*
X177557823Y-131187142D02*
X177510204Y-131210952D01*
X177510204Y-131210952D02*
X177486395Y-131234761D01*
X177486395Y-131234761D02*
X177462585Y-131282380D01*
X177462585Y-131282380D02*
X177462585Y-131377618D01*
X177462585Y-131377618D02*
X177486395Y-131425237D01*
X177486395Y-131425237D02*
X177510204Y-131449047D01*
X177510204Y-131449047D02*
X177557823Y-131472856D01*
X170866490Y-128607333D02*
X170890300Y-128631142D01*
X170890300Y-128631142D02*
X170914109Y-128702571D01*
X170914109Y-128702571D02*
X170914109Y-128750190D01*
X170914109Y-128750190D02*
X170890300Y-128821618D01*
X170890300Y-128821618D02*
X170842680Y-128869237D01*
X170842680Y-128869237D02*
X170795061Y-128893047D01*
X170795061Y-128893047D02*
X170699823Y-128916856D01*
X170699823Y-128916856D02*
X170628395Y-128916856D01*
X170628395Y-128916856D02*
X170533157Y-128893047D01*
X170533157Y-128893047D02*
X170485538Y-128869237D01*
X170485538Y-128869237D02*
X170437919Y-128821618D01*
X170437919Y-128821618D02*
X170414109Y-128750190D01*
X170414109Y-128750190D02*
X170414109Y-128702571D01*
X170414109Y-128702571D02*
X170437919Y-128631142D01*
X170437919Y-128631142D02*
X170461728Y-128607333D01*
X170414109Y-128440666D02*
X170414109Y-128107333D01*
X170414109Y-128107333D02*
X170914109Y-128321618D01*
X167818490Y-131401333D02*
X167842300Y-131425142D01*
X167842300Y-131425142D02*
X167866109Y-131496571D01*
X167866109Y-131496571D02*
X167866109Y-131544190D01*
X167866109Y-131544190D02*
X167842300Y-131615618D01*
X167842300Y-131615618D02*
X167794680Y-131663237D01*
X167794680Y-131663237D02*
X167747061Y-131687047D01*
X167747061Y-131687047D02*
X167651823Y-131710856D01*
X167651823Y-131710856D02*
X167580395Y-131710856D01*
X167580395Y-131710856D02*
X167485157Y-131687047D01*
X167485157Y-131687047D02*
X167437538Y-131663237D01*
X167437538Y-131663237D02*
X167389919Y-131615618D01*
X167389919Y-131615618D02*
X167366109Y-131544190D01*
X167366109Y-131544190D02*
X167366109Y-131496571D01*
X167366109Y-131496571D02*
X167389919Y-131425142D01*
X167389919Y-131425142D02*
X167413728Y-131401333D01*
X167580395Y-131115618D02*
X167556585Y-131163237D01*
X167556585Y-131163237D02*
X167532776Y-131187047D01*
X167532776Y-131187047D02*
X167485157Y-131210856D01*
X167485157Y-131210856D02*
X167461347Y-131210856D01*
X167461347Y-131210856D02*
X167413728Y-131187047D01*
X167413728Y-131187047D02*
X167389919Y-131163237D01*
X167389919Y-131163237D02*
X167366109Y-131115618D01*
X167366109Y-131115618D02*
X167366109Y-131020380D01*
X167366109Y-131020380D02*
X167389919Y-130972761D01*
X167389919Y-130972761D02*
X167413728Y-130948952D01*
X167413728Y-130948952D02*
X167461347Y-130925142D01*
X167461347Y-130925142D02*
X167485157Y-130925142D01*
X167485157Y-130925142D02*
X167532776Y-130948952D01*
X167532776Y-130948952D02*
X167556585Y-130972761D01*
X167556585Y-130972761D02*
X167580395Y-131020380D01*
X167580395Y-131020380D02*
X167580395Y-131115618D01*
X167580395Y-131115618D02*
X167604204Y-131163237D01*
X167604204Y-131163237D02*
X167628014Y-131187047D01*
X167628014Y-131187047D02*
X167675633Y-131210856D01*
X167675633Y-131210856D02*
X167770871Y-131210856D01*
X167770871Y-131210856D02*
X167818490Y-131187047D01*
X167818490Y-131187047D02*
X167842300Y-131163237D01*
X167842300Y-131163237D02*
X167866109Y-131115618D01*
X167866109Y-131115618D02*
X167866109Y-131020380D01*
X167866109Y-131020380D02*
X167842300Y-130972761D01*
X167842300Y-130972761D02*
X167818490Y-130948952D01*
X167818490Y-130948952D02*
X167770871Y-130925142D01*
X167770871Y-130925142D02*
X167675633Y-130925142D01*
X167675633Y-130925142D02*
X167628014Y-130948952D01*
X167628014Y-130948952D02*
X167604204Y-130972761D01*
X167604204Y-130972761D02*
X167580395Y-131020380D01*
X176192666Y-132512490D02*
X176168857Y-132536300D01*
X176168857Y-132536300D02*
X176097428Y-132560109D01*
X176097428Y-132560109D02*
X176049809Y-132560109D01*
X176049809Y-132560109D02*
X175978381Y-132536300D01*
X175978381Y-132536300D02*
X175930762Y-132488680D01*
X175930762Y-132488680D02*
X175906952Y-132441061D01*
X175906952Y-132441061D02*
X175883143Y-132345823D01*
X175883143Y-132345823D02*
X175883143Y-132274395D01*
X175883143Y-132274395D02*
X175906952Y-132179157D01*
X175906952Y-132179157D02*
X175930762Y-132131538D01*
X175930762Y-132131538D02*
X175978381Y-132083919D01*
X175978381Y-132083919D02*
X176049809Y-132060109D01*
X176049809Y-132060109D02*
X176097428Y-132060109D01*
X176097428Y-132060109D02*
X176168857Y-132083919D01*
X176168857Y-132083919D02*
X176192666Y-132107728D01*
X176430762Y-132560109D02*
X176526000Y-132560109D01*
X176526000Y-132560109D02*
X176573619Y-132536300D01*
X176573619Y-132536300D02*
X176597428Y-132512490D01*
X176597428Y-132512490D02*
X176645047Y-132441061D01*
X176645047Y-132441061D02*
X176668857Y-132345823D01*
X176668857Y-132345823D02*
X176668857Y-132155347D01*
X176668857Y-132155347D02*
X176645047Y-132107728D01*
X176645047Y-132107728D02*
X176621238Y-132083919D01*
X176621238Y-132083919D02*
X176573619Y-132060109D01*
X176573619Y-132060109D02*
X176478381Y-132060109D01*
X176478381Y-132060109D02*
X176430762Y-132083919D01*
X176430762Y-132083919D02*
X176406952Y-132107728D01*
X176406952Y-132107728D02*
X176383143Y-132155347D01*
X176383143Y-132155347D02*
X176383143Y-132274395D01*
X176383143Y-132274395D02*
X176406952Y-132322014D01*
X176406952Y-132322014D02*
X176430762Y-132345823D01*
X176430762Y-132345823D02*
X176478381Y-132369633D01*
X176478381Y-132369633D02*
X176573619Y-132369633D01*
X176573619Y-132369633D02*
X176621238Y-132345823D01*
X176621238Y-132345823D02*
X176645047Y-132322014D01*
X176645047Y-132322014D02*
X176668857Y-132274395D01*
X160452490Y-131180928D02*
X160476300Y-131204737D01*
X160476300Y-131204737D02*
X160500109Y-131276166D01*
X160500109Y-131276166D02*
X160500109Y-131323785D01*
X160500109Y-131323785D02*
X160476300Y-131395213D01*
X160476300Y-131395213D02*
X160428680Y-131442832D01*
X160428680Y-131442832D02*
X160381061Y-131466642D01*
X160381061Y-131466642D02*
X160285823Y-131490451D01*
X160285823Y-131490451D02*
X160214395Y-131490451D01*
X160214395Y-131490451D02*
X160119157Y-131466642D01*
X160119157Y-131466642D02*
X160071538Y-131442832D01*
X160071538Y-131442832D02*
X160023919Y-131395213D01*
X160023919Y-131395213D02*
X160000109Y-131323785D01*
X160000109Y-131323785D02*
X160000109Y-131276166D01*
X160000109Y-131276166D02*
X160023919Y-131204737D01*
X160023919Y-131204737D02*
X160047728Y-131180928D01*
X160500109Y-130704737D02*
X160500109Y-130990451D01*
X160500109Y-130847594D02*
X160000109Y-130847594D01*
X160000109Y-130847594D02*
X160071538Y-130895213D01*
X160071538Y-130895213D02*
X160119157Y-130942832D01*
X160119157Y-130942832D02*
X160142966Y-130990451D01*
X160000109Y-130395214D02*
X160000109Y-130347595D01*
X160000109Y-130347595D02*
X160023919Y-130299976D01*
X160023919Y-130299976D02*
X160047728Y-130276166D01*
X160047728Y-130276166D02*
X160095347Y-130252357D01*
X160095347Y-130252357D02*
X160190585Y-130228547D01*
X160190585Y-130228547D02*
X160309633Y-130228547D01*
X160309633Y-130228547D02*
X160404871Y-130252357D01*
X160404871Y-130252357D02*
X160452490Y-130276166D01*
X160452490Y-130276166D02*
X160476300Y-130299976D01*
X160476300Y-130299976D02*
X160500109Y-130347595D01*
X160500109Y-130347595D02*
X160500109Y-130395214D01*
X160500109Y-130395214D02*
X160476300Y-130442833D01*
X160476300Y-130442833D02*
X160452490Y-130466642D01*
X160452490Y-130466642D02*
X160404871Y-130490452D01*
X160404871Y-130490452D02*
X160309633Y-130514261D01*
X160309633Y-130514261D02*
X160190585Y-130514261D01*
X160190585Y-130514261D02*
X160095347Y-130490452D01*
X160095347Y-130490452D02*
X160047728Y-130466642D01*
X160047728Y-130466642D02*
X160023919Y-130442833D01*
X160023919Y-130442833D02*
X160000109Y-130395214D01*
X158428571Y-136068490D02*
X158404762Y-136092300D01*
X158404762Y-136092300D02*
X158333333Y-136116109D01*
X158333333Y-136116109D02*
X158285714Y-136116109D01*
X158285714Y-136116109D02*
X158214286Y-136092300D01*
X158214286Y-136092300D02*
X158166667Y-136044680D01*
X158166667Y-136044680D02*
X158142857Y-135997061D01*
X158142857Y-135997061D02*
X158119048Y-135901823D01*
X158119048Y-135901823D02*
X158119048Y-135830395D01*
X158119048Y-135830395D02*
X158142857Y-135735157D01*
X158142857Y-135735157D02*
X158166667Y-135687538D01*
X158166667Y-135687538D02*
X158214286Y-135639919D01*
X158214286Y-135639919D02*
X158285714Y-135616109D01*
X158285714Y-135616109D02*
X158333333Y-135616109D01*
X158333333Y-135616109D02*
X158404762Y-135639919D01*
X158404762Y-135639919D02*
X158428571Y-135663728D01*
X158904762Y-136116109D02*
X158619048Y-136116109D01*
X158761905Y-136116109D02*
X158761905Y-135616109D01*
X158761905Y-135616109D02*
X158714286Y-135687538D01*
X158714286Y-135687538D02*
X158666667Y-135735157D01*
X158666667Y-135735157D02*
X158619048Y-135758966D01*
X159380952Y-136116109D02*
X159095238Y-136116109D01*
X159238095Y-136116109D02*
X159238095Y-135616109D01*
X159238095Y-135616109D02*
X159190476Y-135687538D01*
X159190476Y-135687538D02*
X159142857Y-135735157D01*
X159142857Y-135735157D02*
X159095238Y-135758966D01*
X155614571Y-133542490D02*
X155590762Y-133566300D01*
X155590762Y-133566300D02*
X155519333Y-133590109D01*
X155519333Y-133590109D02*
X155471714Y-133590109D01*
X155471714Y-133590109D02*
X155400286Y-133566300D01*
X155400286Y-133566300D02*
X155352667Y-133518680D01*
X155352667Y-133518680D02*
X155328857Y-133471061D01*
X155328857Y-133471061D02*
X155305048Y-133375823D01*
X155305048Y-133375823D02*
X155305048Y-133304395D01*
X155305048Y-133304395D02*
X155328857Y-133209157D01*
X155328857Y-133209157D02*
X155352667Y-133161538D01*
X155352667Y-133161538D02*
X155400286Y-133113919D01*
X155400286Y-133113919D02*
X155471714Y-133090109D01*
X155471714Y-133090109D02*
X155519333Y-133090109D01*
X155519333Y-133090109D02*
X155590762Y-133113919D01*
X155590762Y-133113919D02*
X155614571Y-133137728D01*
X156090762Y-133590109D02*
X155805048Y-133590109D01*
X155947905Y-133590109D02*
X155947905Y-133090109D01*
X155947905Y-133090109D02*
X155900286Y-133161538D01*
X155900286Y-133161538D02*
X155852667Y-133209157D01*
X155852667Y-133209157D02*
X155805048Y-133232966D01*
X156281238Y-133137728D02*
X156305047Y-133113919D01*
X156305047Y-133113919D02*
X156352666Y-133090109D01*
X156352666Y-133090109D02*
X156471714Y-133090109D01*
X156471714Y-133090109D02*
X156519333Y-133113919D01*
X156519333Y-133113919D02*
X156543142Y-133137728D01*
X156543142Y-133137728D02*
X156566952Y-133185347D01*
X156566952Y-133185347D02*
X156566952Y-133232966D01*
X156566952Y-133232966D02*
X156543142Y-133304395D01*
X156543142Y-133304395D02*
X156257428Y-133590109D01*
X156257428Y-133590109D02*
X156566952Y-133590109D01*
X150554571Y-134544490D02*
X150530762Y-134568300D01*
X150530762Y-134568300D02*
X150459333Y-134592109D01*
X150459333Y-134592109D02*
X150411714Y-134592109D01*
X150411714Y-134592109D02*
X150340286Y-134568300D01*
X150340286Y-134568300D02*
X150292667Y-134520680D01*
X150292667Y-134520680D02*
X150268857Y-134473061D01*
X150268857Y-134473061D02*
X150245048Y-134377823D01*
X150245048Y-134377823D02*
X150245048Y-134306395D01*
X150245048Y-134306395D02*
X150268857Y-134211157D01*
X150268857Y-134211157D02*
X150292667Y-134163538D01*
X150292667Y-134163538D02*
X150340286Y-134115919D01*
X150340286Y-134115919D02*
X150411714Y-134092109D01*
X150411714Y-134092109D02*
X150459333Y-134092109D01*
X150459333Y-134092109D02*
X150530762Y-134115919D01*
X150530762Y-134115919D02*
X150554571Y-134139728D01*
X151030762Y-134592109D02*
X150745048Y-134592109D01*
X150887905Y-134592109D02*
X150887905Y-134092109D01*
X150887905Y-134092109D02*
X150840286Y-134163538D01*
X150840286Y-134163538D02*
X150792667Y-134211157D01*
X150792667Y-134211157D02*
X150745048Y-134234966D01*
X151197428Y-134092109D02*
X151506952Y-134092109D01*
X151506952Y-134092109D02*
X151340285Y-134282585D01*
X151340285Y-134282585D02*
X151411714Y-134282585D01*
X151411714Y-134282585D02*
X151459333Y-134306395D01*
X151459333Y-134306395D02*
X151483142Y-134330204D01*
X151483142Y-134330204D02*
X151506952Y-134377823D01*
X151506952Y-134377823D02*
X151506952Y-134496871D01*
X151506952Y-134496871D02*
X151483142Y-134544490D01*
X151483142Y-134544490D02*
X151459333Y-134568300D01*
X151459333Y-134568300D02*
X151411714Y-134592109D01*
X151411714Y-134592109D02*
X151268857Y-134592109D01*
X151268857Y-134592109D02*
X151221238Y-134568300D01*
X151221238Y-134568300D02*
X151197428Y-134544490D01*
X156396571Y-105588490D02*
X156372762Y-105612300D01*
X156372762Y-105612300D02*
X156301333Y-105636109D01*
X156301333Y-105636109D02*
X156253714Y-105636109D01*
X156253714Y-105636109D02*
X156182286Y-105612300D01*
X156182286Y-105612300D02*
X156134667Y-105564680D01*
X156134667Y-105564680D02*
X156110857Y-105517061D01*
X156110857Y-105517061D02*
X156087048Y-105421823D01*
X156087048Y-105421823D02*
X156087048Y-105350395D01*
X156087048Y-105350395D02*
X156110857Y-105255157D01*
X156110857Y-105255157D02*
X156134667Y-105207538D01*
X156134667Y-105207538D02*
X156182286Y-105159919D01*
X156182286Y-105159919D02*
X156253714Y-105136109D01*
X156253714Y-105136109D02*
X156301333Y-105136109D01*
X156301333Y-105136109D02*
X156372762Y-105159919D01*
X156372762Y-105159919D02*
X156396571Y-105183728D01*
X156872762Y-105636109D02*
X156587048Y-105636109D01*
X156729905Y-105636109D02*
X156729905Y-105136109D01*
X156729905Y-105136109D02*
X156682286Y-105207538D01*
X156682286Y-105207538D02*
X156634667Y-105255157D01*
X156634667Y-105255157D02*
X156587048Y-105278966D01*
X157325142Y-105136109D02*
X157087047Y-105136109D01*
X157087047Y-105136109D02*
X157063238Y-105374204D01*
X157063238Y-105374204D02*
X157087047Y-105350395D01*
X157087047Y-105350395D02*
X157134666Y-105326585D01*
X157134666Y-105326585D02*
X157253714Y-105326585D01*
X157253714Y-105326585D02*
X157301333Y-105350395D01*
X157301333Y-105350395D02*
X157325142Y-105374204D01*
X157325142Y-105374204D02*
X157348952Y-105421823D01*
X157348952Y-105421823D02*
X157348952Y-105540871D01*
X157348952Y-105540871D02*
X157325142Y-105588490D01*
X157325142Y-105588490D02*
X157301333Y-105612300D01*
X157301333Y-105612300D02*
X157253714Y-105636109D01*
X157253714Y-105636109D02*
X157134666Y-105636109D01*
X157134666Y-105636109D02*
X157087047Y-105612300D01*
X157087047Y-105612300D02*
X157063238Y-105588490D01*
X158682571Y-105588490D02*
X158658762Y-105612300D01*
X158658762Y-105612300D02*
X158587333Y-105636109D01*
X158587333Y-105636109D02*
X158539714Y-105636109D01*
X158539714Y-105636109D02*
X158468286Y-105612300D01*
X158468286Y-105612300D02*
X158420667Y-105564680D01*
X158420667Y-105564680D02*
X158396857Y-105517061D01*
X158396857Y-105517061D02*
X158373048Y-105421823D01*
X158373048Y-105421823D02*
X158373048Y-105350395D01*
X158373048Y-105350395D02*
X158396857Y-105255157D01*
X158396857Y-105255157D02*
X158420667Y-105207538D01*
X158420667Y-105207538D02*
X158468286Y-105159919D01*
X158468286Y-105159919D02*
X158539714Y-105136109D01*
X158539714Y-105136109D02*
X158587333Y-105136109D01*
X158587333Y-105136109D02*
X158658762Y-105159919D01*
X158658762Y-105159919D02*
X158682571Y-105183728D01*
X159158762Y-105636109D02*
X158873048Y-105636109D01*
X159015905Y-105636109D02*
X159015905Y-105136109D01*
X159015905Y-105136109D02*
X158968286Y-105207538D01*
X158968286Y-105207538D02*
X158920667Y-105255157D01*
X158920667Y-105255157D02*
X158873048Y-105278966D01*
X159587333Y-105136109D02*
X159492095Y-105136109D01*
X159492095Y-105136109D02*
X159444476Y-105159919D01*
X159444476Y-105159919D02*
X159420666Y-105183728D01*
X159420666Y-105183728D02*
X159373047Y-105255157D01*
X159373047Y-105255157D02*
X159349238Y-105350395D01*
X159349238Y-105350395D02*
X159349238Y-105540871D01*
X159349238Y-105540871D02*
X159373047Y-105588490D01*
X159373047Y-105588490D02*
X159396857Y-105612300D01*
X159396857Y-105612300D02*
X159444476Y-105636109D01*
X159444476Y-105636109D02*
X159539714Y-105636109D01*
X159539714Y-105636109D02*
X159587333Y-105612300D01*
X159587333Y-105612300D02*
X159611142Y-105588490D01*
X159611142Y-105588490D02*
X159634952Y-105540871D01*
X159634952Y-105540871D02*
X159634952Y-105421823D01*
X159634952Y-105421823D02*
X159611142Y-105374204D01*
X159611142Y-105374204D02*
X159587333Y-105350395D01*
X159587333Y-105350395D02*
X159539714Y-105326585D01*
X159539714Y-105326585D02*
X159444476Y-105326585D01*
X159444476Y-105326585D02*
X159396857Y-105350395D01*
X159396857Y-105350395D02*
X159373047Y-105374204D01*
X159373047Y-105374204D02*
X159349238Y-105421823D01*
X172807333Y-107422109D02*
X172807333Y-107779252D01*
X172807333Y-107779252D02*
X172783524Y-107850680D01*
X172783524Y-107850680D02*
X172735905Y-107898300D01*
X172735905Y-107898300D02*
X172664476Y-107922109D01*
X172664476Y-107922109D02*
X172616857Y-107922109D01*
X173021619Y-107469728D02*
X173045428Y-107445919D01*
X173045428Y-107445919D02*
X173093047Y-107422109D01*
X173093047Y-107422109D02*
X173212095Y-107422109D01*
X173212095Y-107422109D02*
X173259714Y-107445919D01*
X173259714Y-107445919D02*
X173283523Y-107469728D01*
X173283523Y-107469728D02*
X173307333Y-107517347D01*
X173307333Y-107517347D02*
X173307333Y-107564966D01*
X173307333Y-107564966D02*
X173283523Y-107636395D01*
X173283523Y-107636395D02*
X172997809Y-107922109D01*
X172997809Y-107922109D02*
X173307333Y-107922109D01*
X145816109Y-113816666D02*
X146173252Y-113816666D01*
X146173252Y-113816666D02*
X146244680Y-113840475D01*
X146244680Y-113840475D02*
X146292300Y-113888094D01*
X146292300Y-113888094D02*
X146316109Y-113959523D01*
X146316109Y-113959523D02*
X146316109Y-114007142D01*
X145816109Y-113364285D02*
X145816109Y-113459523D01*
X145816109Y-113459523D02*
X145839919Y-113507142D01*
X145839919Y-113507142D02*
X145863728Y-113530952D01*
X145863728Y-113530952D02*
X145935157Y-113578571D01*
X145935157Y-113578571D02*
X146030395Y-113602380D01*
X146030395Y-113602380D02*
X146220871Y-113602380D01*
X146220871Y-113602380D02*
X146268490Y-113578571D01*
X146268490Y-113578571D02*
X146292300Y-113554761D01*
X146292300Y-113554761D02*
X146316109Y-113507142D01*
X146316109Y-113507142D02*
X146316109Y-113411904D01*
X146316109Y-113411904D02*
X146292300Y-113364285D01*
X146292300Y-113364285D02*
X146268490Y-113340476D01*
X146268490Y-113340476D02*
X146220871Y-113316666D01*
X146220871Y-113316666D02*
X146101823Y-113316666D01*
X146101823Y-113316666D02*
X146054204Y-113340476D01*
X146054204Y-113340476D02*
X146030395Y-113364285D01*
X146030395Y-113364285D02*
X146006585Y-113411904D01*
X146006585Y-113411904D02*
X146006585Y-113507142D01*
X146006585Y-113507142D02*
X146030395Y-113554761D01*
X146030395Y-113554761D02*
X146054204Y-113578571D01*
X146054204Y-113578571D02*
X146101823Y-113602380D01*
X171620666Y-131290109D02*
X171382571Y-131290109D01*
X171382571Y-131290109D02*
X171382571Y-130790109D01*
X172049238Y-131290109D02*
X171763524Y-131290109D01*
X171906381Y-131290109D02*
X171906381Y-130790109D01*
X171906381Y-130790109D02*
X171858762Y-130861538D01*
X171858762Y-130861538D02*
X171811143Y-130909157D01*
X171811143Y-130909157D02*
X171763524Y-130932966D01*
X153876380Y-133369728D02*
X153828761Y-133345919D01*
X153828761Y-133345919D02*
X153781142Y-133298300D01*
X153781142Y-133298300D02*
X153709714Y-133226871D01*
X153709714Y-133226871D02*
X153662095Y-133203061D01*
X153662095Y-133203061D02*
X153614476Y-133203061D01*
X153638285Y-133322109D02*
X153590666Y-133298300D01*
X153590666Y-133298300D02*
X153543047Y-133250680D01*
X153543047Y-133250680D02*
X153519238Y-133155442D01*
X153519238Y-133155442D02*
X153519238Y-132988776D01*
X153519238Y-132988776D02*
X153543047Y-132893538D01*
X153543047Y-132893538D02*
X153590666Y-132845919D01*
X153590666Y-132845919D02*
X153638285Y-132822109D01*
X153638285Y-132822109D02*
X153733523Y-132822109D01*
X153733523Y-132822109D02*
X153781142Y-132845919D01*
X153781142Y-132845919D02*
X153828761Y-132893538D01*
X153828761Y-132893538D02*
X153852571Y-132988776D01*
X153852571Y-132988776D02*
X153852571Y-133155442D01*
X153852571Y-133155442D02*
X153828761Y-133250680D01*
X153828761Y-133250680D02*
X153781142Y-133298300D01*
X153781142Y-133298300D02*
X153733523Y-133322109D01*
X153733523Y-133322109D02*
X153638285Y-133322109D01*
X154328762Y-133322109D02*
X154043048Y-133322109D01*
X154185905Y-133322109D02*
X154185905Y-132822109D01*
X154185905Y-132822109D02*
X154138286Y-132893538D01*
X154138286Y-132893538D02*
X154090667Y-132941157D01*
X154090667Y-132941157D02*
X154043048Y-132964966D01*
X149832109Y-130385333D02*
X149594014Y-130551999D01*
X149832109Y-130671047D02*
X149332109Y-130671047D01*
X149332109Y-130671047D02*
X149332109Y-130480571D01*
X149332109Y-130480571D02*
X149355919Y-130432952D01*
X149355919Y-130432952D02*
X149379728Y-130409142D01*
X149379728Y-130409142D02*
X149427347Y-130385333D01*
X149427347Y-130385333D02*
X149498776Y-130385333D01*
X149498776Y-130385333D02*
X149546395Y-130409142D01*
X149546395Y-130409142D02*
X149570204Y-130432952D01*
X149570204Y-130432952D02*
X149594014Y-130480571D01*
X149594014Y-130480571D02*
X149594014Y-130671047D01*
X149832109Y-129909142D02*
X149832109Y-130194856D01*
X149832109Y-130051999D02*
X149332109Y-130051999D01*
X149332109Y-130051999D02*
X149403538Y-130099618D01*
X149403538Y-130099618D02*
X149451157Y-130147237D01*
X149451157Y-130147237D02*
X149474966Y-130194856D01*
X162532109Y-138513333D02*
X162294014Y-138679999D01*
X162532109Y-138799047D02*
X162032109Y-138799047D01*
X162032109Y-138799047D02*
X162032109Y-138608571D01*
X162032109Y-138608571D02*
X162055919Y-138560952D01*
X162055919Y-138560952D02*
X162079728Y-138537142D01*
X162079728Y-138537142D02*
X162127347Y-138513333D01*
X162127347Y-138513333D02*
X162198776Y-138513333D01*
X162198776Y-138513333D02*
X162246395Y-138537142D01*
X162246395Y-138537142D02*
X162270204Y-138560952D01*
X162270204Y-138560952D02*
X162294014Y-138608571D01*
X162294014Y-138608571D02*
X162294014Y-138799047D01*
X162079728Y-138322856D02*
X162055919Y-138299047D01*
X162055919Y-138299047D02*
X162032109Y-138251428D01*
X162032109Y-138251428D02*
X162032109Y-138132380D01*
X162032109Y-138132380D02*
X162055919Y-138084761D01*
X162055919Y-138084761D02*
X162079728Y-138060952D01*
X162079728Y-138060952D02*
X162127347Y-138037142D01*
X162127347Y-138037142D02*
X162174966Y-138037142D01*
X162174966Y-138037142D02*
X162246395Y-138060952D01*
X162246395Y-138060952D02*
X162532109Y-138346666D01*
X162532109Y-138346666D02*
X162532109Y-138037142D01*
X169842666Y-138656109D02*
X169676000Y-138418014D01*
X169556952Y-138656109D02*
X169556952Y-138156109D01*
X169556952Y-138156109D02*
X169747428Y-138156109D01*
X169747428Y-138156109D02*
X169795047Y-138179919D01*
X169795047Y-138179919D02*
X169818857Y-138203728D01*
X169818857Y-138203728D02*
X169842666Y-138251347D01*
X169842666Y-138251347D02*
X169842666Y-138322776D01*
X169842666Y-138322776D02*
X169818857Y-138370395D01*
X169818857Y-138370395D02*
X169795047Y-138394204D01*
X169795047Y-138394204D02*
X169747428Y-138418014D01*
X169747428Y-138418014D02*
X169556952Y-138418014D01*
X170009333Y-138156109D02*
X170318857Y-138156109D01*
X170318857Y-138156109D02*
X170152190Y-138346585D01*
X170152190Y-138346585D02*
X170223619Y-138346585D01*
X170223619Y-138346585D02*
X170271238Y-138370395D01*
X170271238Y-138370395D02*
X170295047Y-138394204D01*
X170295047Y-138394204D02*
X170318857Y-138441823D01*
X170318857Y-138441823D02*
X170318857Y-138560871D01*
X170318857Y-138560871D02*
X170295047Y-138608490D01*
X170295047Y-138608490D02*
X170271238Y-138632300D01*
X170271238Y-138632300D02*
X170223619Y-138656109D01*
X170223619Y-138656109D02*
X170080762Y-138656109D01*
X170080762Y-138656109D02*
X170033143Y-138632300D01*
X170033143Y-138632300D02*
X170009333Y-138608490D01*
X169588666Y-135100109D02*
X169422000Y-134862014D01*
X169302952Y-135100109D02*
X169302952Y-134600109D01*
X169302952Y-134600109D02*
X169493428Y-134600109D01*
X169493428Y-134600109D02*
X169541047Y-134623919D01*
X169541047Y-134623919D02*
X169564857Y-134647728D01*
X169564857Y-134647728D02*
X169588666Y-134695347D01*
X169588666Y-134695347D02*
X169588666Y-134766776D01*
X169588666Y-134766776D02*
X169564857Y-134814395D01*
X169564857Y-134814395D02*
X169541047Y-134838204D01*
X169541047Y-134838204D02*
X169493428Y-134862014D01*
X169493428Y-134862014D02*
X169302952Y-134862014D01*
X170017238Y-134766776D02*
X170017238Y-135100109D01*
X169898190Y-134576300D02*
X169779143Y-134933442D01*
X169779143Y-134933442D02*
X170088666Y-134933442D01*
X140205509Y-118193333D02*
X139967414Y-118359999D01*
X140205509Y-118479047D02*
X139705509Y-118479047D01*
X139705509Y-118479047D02*
X139705509Y-118288571D01*
X139705509Y-118288571D02*
X139729319Y-118240952D01*
X139729319Y-118240952D02*
X139753128Y-118217142D01*
X139753128Y-118217142D02*
X139800747Y-118193333D01*
X139800747Y-118193333D02*
X139872176Y-118193333D01*
X139872176Y-118193333D02*
X139919795Y-118217142D01*
X139919795Y-118217142D02*
X139943604Y-118240952D01*
X139943604Y-118240952D02*
X139967414Y-118288571D01*
X139967414Y-118288571D02*
X139967414Y-118479047D01*
X139705509Y-117740952D02*
X139705509Y-117979047D01*
X139705509Y-117979047D02*
X139943604Y-118002856D01*
X139943604Y-118002856D02*
X139919795Y-117979047D01*
X139919795Y-117979047D02*
X139895985Y-117931428D01*
X139895985Y-117931428D02*
X139895985Y-117812380D01*
X139895985Y-117812380D02*
X139919795Y-117764761D01*
X139919795Y-117764761D02*
X139943604Y-117740952D01*
X139943604Y-117740952D02*
X139991223Y-117717142D01*
X139991223Y-117717142D02*
X140110271Y-117717142D01*
X140110271Y-117717142D02*
X140157890Y-117740952D01*
X140157890Y-117740952D02*
X140181700Y-117764761D01*
X140181700Y-117764761D02*
X140205509Y-117812380D01*
X140205509Y-117812380D02*
X140205509Y-117931428D01*
X140205509Y-117931428D02*
X140181700Y-117979047D01*
X140181700Y-117979047D02*
X140157890Y-118002856D01*
X135100109Y-108287333D02*
X134862014Y-108453999D01*
X135100109Y-108573047D02*
X134600109Y-108573047D01*
X134600109Y-108573047D02*
X134600109Y-108382571D01*
X134600109Y-108382571D02*
X134623919Y-108334952D01*
X134623919Y-108334952D02*
X134647728Y-108311142D01*
X134647728Y-108311142D02*
X134695347Y-108287333D01*
X134695347Y-108287333D02*
X134766776Y-108287333D01*
X134766776Y-108287333D02*
X134814395Y-108311142D01*
X134814395Y-108311142D02*
X134838204Y-108334952D01*
X134838204Y-108334952D02*
X134862014Y-108382571D01*
X134862014Y-108382571D02*
X134862014Y-108573047D01*
X134600109Y-108120666D02*
X134600109Y-107787333D01*
X134600109Y-107787333D02*
X135100109Y-108001618D01*
X172085047Y-138410109D02*
X172085047Y-138814871D01*
X172085047Y-138814871D02*
X172108857Y-138862490D01*
X172108857Y-138862490D02*
X172132666Y-138886300D01*
X172132666Y-138886300D02*
X172180285Y-138910109D01*
X172180285Y-138910109D02*
X172275523Y-138910109D01*
X172275523Y-138910109D02*
X172323142Y-138886300D01*
X172323142Y-138886300D02*
X172346952Y-138862490D01*
X172346952Y-138862490D02*
X172370761Y-138814871D01*
X172370761Y-138814871D02*
X172370761Y-138410109D01*
X172585048Y-138457728D02*
X172608857Y-138433919D01*
X172608857Y-138433919D02*
X172656476Y-138410109D01*
X172656476Y-138410109D02*
X172775524Y-138410109D01*
X172775524Y-138410109D02*
X172823143Y-138433919D01*
X172823143Y-138433919D02*
X172846952Y-138457728D01*
X172846952Y-138457728D02*
X172870762Y-138505347D01*
X172870762Y-138505347D02*
X172870762Y-138552966D01*
X172870762Y-138552966D02*
X172846952Y-138624395D01*
X172846952Y-138624395D02*
X172561238Y-138910109D01*
X172561238Y-138910109D02*
X172870762Y-138910109D01*
X174879047Y-124694109D02*
X174879047Y-125098871D01*
X174879047Y-125098871D02*
X174902857Y-125146490D01*
X174902857Y-125146490D02*
X174926666Y-125170300D01*
X174926666Y-125170300D02*
X174974285Y-125194109D01*
X174974285Y-125194109D02*
X175069523Y-125194109D01*
X175069523Y-125194109D02*
X175117142Y-125170300D01*
X175117142Y-125170300D02*
X175140952Y-125146490D01*
X175140952Y-125146490D02*
X175164761Y-125098871D01*
X175164761Y-125098871D02*
X175164761Y-124694109D01*
X175617143Y-124860776D02*
X175617143Y-125194109D01*
X175498095Y-124670300D02*
X175379048Y-125027442D01*
X175379048Y-125027442D02*
X175688571Y-125027442D01*
X140454866Y-113967309D02*
X140288200Y-113729214D01*
X140169152Y-113967309D02*
X140169152Y-113467309D01*
X140169152Y-113467309D02*
X140359628Y-113467309D01*
X140359628Y-113467309D02*
X140407247Y-113491119D01*
X140407247Y-113491119D02*
X140431057Y-113514928D01*
X140431057Y-113514928D02*
X140454866Y-113562547D01*
X140454866Y-113562547D02*
X140454866Y-113633976D01*
X140454866Y-113633976D02*
X140431057Y-113681595D01*
X140431057Y-113681595D02*
X140407247Y-113705404D01*
X140407247Y-113705404D02*
X140359628Y-113729214D01*
X140359628Y-113729214D02*
X140169152Y-113729214D01*
X140692962Y-113967309D02*
X140788200Y-113967309D01*
X140788200Y-113967309D02*
X140835819Y-113943500D01*
X140835819Y-113943500D02*
X140859628Y-113919690D01*
X140859628Y-113919690D02*
X140907247Y-113848261D01*
X140907247Y-113848261D02*
X140931057Y-113753023D01*
X140931057Y-113753023D02*
X140931057Y-113562547D01*
X140931057Y-113562547D02*
X140907247Y-113514928D01*
X140907247Y-113514928D02*
X140883438Y-113491119D01*
X140883438Y-113491119D02*
X140835819Y-113467309D01*
X140835819Y-113467309D02*
X140740581Y-113467309D01*
X140740581Y-113467309D02*
X140692962Y-113491119D01*
X140692962Y-113491119D02*
X140669152Y-113514928D01*
X140669152Y-113514928D02*
X140645343Y-113562547D01*
X140645343Y-113562547D02*
X140645343Y-113681595D01*
X140645343Y-113681595D02*
X140669152Y-113729214D01*
X140669152Y-113729214D02*
X140692962Y-113753023D01*
X140692962Y-113753023D02*
X140740581Y-113776833D01*
X140740581Y-113776833D02*
X140835819Y-113776833D01*
X140835819Y-113776833D02*
X140883438Y-113753023D01*
X140883438Y-113753023D02*
X140907247Y-113729214D01*
X140907247Y-113729214D02*
X140931057Y-113681595D01*
X161524109Y-136016952D02*
X161928871Y-136016952D01*
X161928871Y-136016952D02*
X161976490Y-135993142D01*
X161976490Y-135993142D02*
X162000300Y-135969333D01*
X162000300Y-135969333D02*
X162024109Y-135921714D01*
X162024109Y-135921714D02*
X162024109Y-135826476D01*
X162024109Y-135826476D02*
X162000300Y-135778857D01*
X162000300Y-135778857D02*
X161976490Y-135755047D01*
X161976490Y-135755047D02*
X161928871Y-135731238D01*
X161928871Y-135731238D02*
X161524109Y-135731238D01*
X161524109Y-135540761D02*
X161524109Y-135231237D01*
X161524109Y-135231237D02*
X161714585Y-135397904D01*
X161714585Y-135397904D02*
X161714585Y-135326475D01*
X161714585Y-135326475D02*
X161738395Y-135278856D01*
X161738395Y-135278856D02*
X161762204Y-135255047D01*
X161762204Y-135255047D02*
X161809823Y-135231237D01*
X161809823Y-135231237D02*
X161928871Y-135231237D01*
X161928871Y-135231237D02*
X161976490Y-135255047D01*
X161976490Y-135255047D02*
X162000300Y-135278856D01*
X162000300Y-135278856D02*
X162024109Y-135326475D01*
X162024109Y-135326475D02*
X162024109Y-135469332D01*
X162024109Y-135469332D02*
X162000300Y-135516951D01*
X162000300Y-135516951D02*
X161976490Y-135540761D01*
X179665333Y-104374109D02*
X179665333Y-104731252D01*
X179665333Y-104731252D02*
X179641524Y-104802680D01*
X179641524Y-104802680D02*
X179593905Y-104850300D01*
X179593905Y-104850300D02*
X179522476Y-104874109D01*
X179522476Y-104874109D02*
X179474857Y-104874109D01*
X180141523Y-104374109D02*
X179903428Y-104374109D01*
X179903428Y-104374109D02*
X179879619Y-104612204D01*
X179879619Y-104612204D02*
X179903428Y-104588395D01*
X179903428Y-104588395D02*
X179951047Y-104564585D01*
X179951047Y-104564585D02*
X180070095Y-104564585D01*
X180070095Y-104564585D02*
X180117714Y-104588395D01*
X180117714Y-104588395D02*
X180141523Y-104612204D01*
X180141523Y-104612204D02*
X180165333Y-104659823D01*
X180165333Y-104659823D02*
X180165333Y-104778871D01*
X180165333Y-104778871D02*
X180141523Y-104826490D01*
X180141523Y-104826490D02*
X180117714Y-104850300D01*
X180117714Y-104850300D02*
X180070095Y-104874109D01*
X180070095Y-104874109D02*
X179951047Y-104874109D01*
X179951047Y-104874109D02*
X179903428Y-104850300D01*
X179903428Y-104850300D02*
X179879619Y-104826490D01*
X158920666Y-100254490D02*
X158896857Y-100278300D01*
X158896857Y-100278300D02*
X158825428Y-100302109D01*
X158825428Y-100302109D02*
X158777809Y-100302109D01*
X158777809Y-100302109D02*
X158706381Y-100278300D01*
X158706381Y-100278300D02*
X158658762Y-100230680D01*
X158658762Y-100230680D02*
X158634952Y-100183061D01*
X158634952Y-100183061D02*
X158611143Y-100087823D01*
X158611143Y-100087823D02*
X158611143Y-100016395D01*
X158611143Y-100016395D02*
X158634952Y-99921157D01*
X158634952Y-99921157D02*
X158658762Y-99873538D01*
X158658762Y-99873538D02*
X158706381Y-99825919D01*
X158706381Y-99825919D02*
X158777809Y-99802109D01*
X158777809Y-99802109D02*
X158825428Y-99802109D01*
X158825428Y-99802109D02*
X158896857Y-99825919D01*
X158896857Y-99825919D02*
X158920666Y-99849728D01*
X159111143Y-99849728D02*
X159134952Y-99825919D01*
X159134952Y-99825919D02*
X159182571Y-99802109D01*
X159182571Y-99802109D02*
X159301619Y-99802109D01*
X159301619Y-99802109D02*
X159349238Y-99825919D01*
X159349238Y-99825919D02*
X159373047Y-99849728D01*
X159373047Y-99849728D02*
X159396857Y-99897347D01*
X159396857Y-99897347D02*
X159396857Y-99944966D01*
X159396857Y-99944966D02*
X159373047Y-100016395D01*
X159373047Y-100016395D02*
X159087333Y-100302109D01*
X159087333Y-100302109D02*
X159396857Y-100302109D01*
X150792666Y-101826109D02*
X150626000Y-101588014D01*
X150506952Y-101826109D02*
X150506952Y-101326109D01*
X150506952Y-101326109D02*
X150697428Y-101326109D01*
X150697428Y-101326109D02*
X150745047Y-101349919D01*
X150745047Y-101349919D02*
X150768857Y-101373728D01*
X150768857Y-101373728D02*
X150792666Y-101421347D01*
X150792666Y-101421347D02*
X150792666Y-101492776D01*
X150792666Y-101492776D02*
X150768857Y-101540395D01*
X150768857Y-101540395D02*
X150745047Y-101564204D01*
X150745047Y-101564204D02*
X150697428Y-101588014D01*
X150697428Y-101588014D02*
X150506952Y-101588014D01*
X151221238Y-101326109D02*
X151126000Y-101326109D01*
X151126000Y-101326109D02*
X151078381Y-101349919D01*
X151078381Y-101349919D02*
X151054571Y-101373728D01*
X151054571Y-101373728D02*
X151006952Y-101445157D01*
X151006952Y-101445157D02*
X150983143Y-101540395D01*
X150983143Y-101540395D02*
X150983143Y-101730871D01*
X150983143Y-101730871D02*
X151006952Y-101778490D01*
X151006952Y-101778490D02*
X151030762Y-101802300D01*
X151030762Y-101802300D02*
X151078381Y-101826109D01*
X151078381Y-101826109D02*
X151173619Y-101826109D01*
X151173619Y-101826109D02*
X151221238Y-101802300D01*
X151221238Y-101802300D02*
X151245047Y-101778490D01*
X151245047Y-101778490D02*
X151268857Y-101730871D01*
X151268857Y-101730871D02*
X151268857Y-101611823D01*
X151268857Y-101611823D02*
X151245047Y-101564204D01*
X151245047Y-101564204D02*
X151221238Y-101540395D01*
X151221238Y-101540395D02*
X151173619Y-101516585D01*
X151173619Y-101516585D02*
X151078381Y-101516585D01*
X151078381Y-101516585D02*
X151030762Y-101540395D01*
X151030762Y-101540395D02*
X151006952Y-101564204D01*
X151006952Y-101564204D02*
X150983143Y-101611823D01*
X154062952Y-106652109D02*
X154062952Y-106152109D01*
X154062952Y-106152109D02*
X154182000Y-106152109D01*
X154182000Y-106152109D02*
X154253428Y-106175919D01*
X154253428Y-106175919D02*
X154301047Y-106223538D01*
X154301047Y-106223538D02*
X154324857Y-106271157D01*
X154324857Y-106271157D02*
X154348666Y-106366395D01*
X154348666Y-106366395D02*
X154348666Y-106437823D01*
X154348666Y-106437823D02*
X154324857Y-106533061D01*
X154324857Y-106533061D02*
X154301047Y-106580680D01*
X154301047Y-106580680D02*
X154253428Y-106628300D01*
X154253428Y-106628300D02*
X154182000Y-106652109D01*
X154182000Y-106652109D02*
X154062952Y-106652109D01*
X154824857Y-106652109D02*
X154539143Y-106652109D01*
X154682000Y-106652109D02*
X154682000Y-106152109D01*
X154682000Y-106152109D02*
X154634381Y-106223538D01*
X154634381Y-106223538D02*
X154586762Y-106271157D01*
X154586762Y-106271157D02*
X154539143Y-106294966D01*
X146779466Y-109728690D02*
X146755657Y-109752500D01*
X146755657Y-109752500D02*
X146684228Y-109776309D01*
X146684228Y-109776309D02*
X146636609Y-109776309D01*
X146636609Y-109776309D02*
X146565181Y-109752500D01*
X146565181Y-109752500D02*
X146517562Y-109704880D01*
X146517562Y-109704880D02*
X146493752Y-109657261D01*
X146493752Y-109657261D02*
X146469943Y-109562023D01*
X146469943Y-109562023D02*
X146469943Y-109490595D01*
X146469943Y-109490595D02*
X146493752Y-109395357D01*
X146493752Y-109395357D02*
X146517562Y-109347738D01*
X146517562Y-109347738D02*
X146565181Y-109300119D01*
X146565181Y-109300119D02*
X146636609Y-109276309D01*
X146636609Y-109276309D02*
X146684228Y-109276309D01*
X146684228Y-109276309D02*
X146755657Y-109300119D01*
X146755657Y-109300119D02*
X146779466Y-109323928D01*
X147255657Y-109776309D02*
X146969943Y-109776309D01*
X147112800Y-109776309D02*
X147112800Y-109276309D01*
X147112800Y-109276309D02*
X147065181Y-109347738D01*
X147065181Y-109347738D02*
X147017562Y-109395357D01*
X147017562Y-109395357D02*
X146969943Y-109419166D01*
X138822952Y-110462109D02*
X138822952Y-109962109D01*
X138822952Y-109962109D02*
X138942000Y-109962109D01*
X138942000Y-109962109D02*
X139013428Y-109985919D01*
X139013428Y-109985919D02*
X139061047Y-110033538D01*
X139061047Y-110033538D02*
X139084857Y-110081157D01*
X139084857Y-110081157D02*
X139108666Y-110176395D01*
X139108666Y-110176395D02*
X139108666Y-110247823D01*
X139108666Y-110247823D02*
X139084857Y-110343061D01*
X139084857Y-110343061D02*
X139061047Y-110390680D01*
X139061047Y-110390680D02*
X139013428Y-110438300D01*
X139013428Y-110438300D02*
X138942000Y-110462109D01*
X138942000Y-110462109D02*
X138822952Y-110462109D01*
X139299143Y-110009728D02*
X139322952Y-109985919D01*
X139322952Y-109985919D02*
X139370571Y-109962109D01*
X139370571Y-109962109D02*
X139489619Y-109962109D01*
X139489619Y-109962109D02*
X139537238Y-109985919D01*
X139537238Y-109985919D02*
X139561047Y-110009728D01*
X139561047Y-110009728D02*
X139584857Y-110057347D01*
X139584857Y-110057347D02*
X139584857Y-110104966D01*
X139584857Y-110104966D02*
X139561047Y-110176395D01*
X139561047Y-110176395D02*
X139275333Y-110462109D01*
X139275333Y-110462109D02*
X139584857Y-110462109D01*
X138822952Y-119606109D02*
X138822952Y-119106109D01*
X138822952Y-119106109D02*
X138942000Y-119106109D01*
X138942000Y-119106109D02*
X139013428Y-119129919D01*
X139013428Y-119129919D02*
X139061047Y-119177538D01*
X139061047Y-119177538D02*
X139084857Y-119225157D01*
X139084857Y-119225157D02*
X139108666Y-119320395D01*
X139108666Y-119320395D02*
X139108666Y-119391823D01*
X139108666Y-119391823D02*
X139084857Y-119487061D01*
X139084857Y-119487061D02*
X139061047Y-119534680D01*
X139061047Y-119534680D02*
X139013428Y-119582300D01*
X139013428Y-119582300D02*
X138942000Y-119606109D01*
X138942000Y-119606109D02*
X138822952Y-119606109D01*
X139275333Y-119106109D02*
X139584857Y-119106109D01*
X139584857Y-119106109D02*
X139418190Y-119296585D01*
X139418190Y-119296585D02*
X139489619Y-119296585D01*
X139489619Y-119296585D02*
X139537238Y-119320395D01*
X139537238Y-119320395D02*
X139561047Y-119344204D01*
X139561047Y-119344204D02*
X139584857Y-119391823D01*
X139584857Y-119391823D02*
X139584857Y-119510871D01*
X139584857Y-119510871D02*
X139561047Y-119558490D01*
X139561047Y-119558490D02*
X139537238Y-119582300D01*
X139537238Y-119582300D02*
X139489619Y-119606109D01*
X139489619Y-119606109D02*
X139346762Y-119606109D01*
X139346762Y-119606109D02*
X139299143Y-119582300D01*
X139299143Y-119582300D02*
X139275333Y-119558490D01*
X138568952Y-102842109D02*
X138568952Y-102342109D01*
X138568952Y-102342109D02*
X138688000Y-102342109D01*
X138688000Y-102342109D02*
X138759428Y-102365919D01*
X138759428Y-102365919D02*
X138807047Y-102413538D01*
X138807047Y-102413538D02*
X138830857Y-102461157D01*
X138830857Y-102461157D02*
X138854666Y-102556395D01*
X138854666Y-102556395D02*
X138854666Y-102627823D01*
X138854666Y-102627823D02*
X138830857Y-102723061D01*
X138830857Y-102723061D02*
X138807047Y-102770680D01*
X138807047Y-102770680D02*
X138759428Y-102818300D01*
X138759428Y-102818300D02*
X138688000Y-102842109D01*
X138688000Y-102842109D02*
X138568952Y-102842109D01*
X139283238Y-102508776D02*
X139283238Y-102842109D01*
X139164190Y-102318300D02*
X139045143Y-102675442D01*
X139045143Y-102675442D02*
X139354666Y-102675442D01*
X140216771Y-124787709D02*
X140050105Y-124549614D01*
X139931057Y-124787709D02*
X139931057Y-124287709D01*
X139931057Y-124287709D02*
X140121533Y-124287709D01*
X140121533Y-124287709D02*
X140169152Y-124311519D01*
X140169152Y-124311519D02*
X140192962Y-124335328D01*
X140192962Y-124335328D02*
X140216771Y-124382947D01*
X140216771Y-124382947D02*
X140216771Y-124454376D01*
X140216771Y-124454376D02*
X140192962Y-124501995D01*
X140192962Y-124501995D02*
X140169152Y-124525804D01*
X140169152Y-124525804D02*
X140121533Y-124549614D01*
X140121533Y-124549614D02*
X139931057Y-124549614D01*
X140692962Y-124787709D02*
X140407248Y-124787709D01*
X140550105Y-124787709D02*
X140550105Y-124287709D01*
X140550105Y-124287709D02*
X140502486Y-124359138D01*
X140502486Y-124359138D02*
X140454867Y-124406757D01*
X140454867Y-124406757D02*
X140407248Y-124430566D01*
X141169152Y-124787709D02*
X140883438Y-124787709D01*
X141026295Y-124787709D02*
X141026295Y-124287709D01*
X141026295Y-124287709D02*
X140978676Y-124359138D01*
X140978676Y-124359138D02*
X140931057Y-124406757D01*
X140931057Y-124406757D02*
X140883438Y-124430566D01*
X140811334Y-134060300D02*
X140882762Y-134084109D01*
X140882762Y-134084109D02*
X141001810Y-134084109D01*
X141001810Y-134084109D02*
X141049429Y-134060300D01*
X141049429Y-134060300D02*
X141073238Y-134036490D01*
X141073238Y-134036490D02*
X141097048Y-133988871D01*
X141097048Y-133988871D02*
X141097048Y-133941252D01*
X141097048Y-133941252D02*
X141073238Y-133893633D01*
X141073238Y-133893633D02*
X141049429Y-133869823D01*
X141049429Y-133869823D02*
X141001810Y-133846014D01*
X141001810Y-133846014D02*
X140906572Y-133822204D01*
X140906572Y-133822204D02*
X140858953Y-133798395D01*
X140858953Y-133798395D02*
X140835143Y-133774585D01*
X140835143Y-133774585D02*
X140811334Y-133726966D01*
X140811334Y-133726966D02*
X140811334Y-133679347D01*
X140811334Y-133679347D02*
X140835143Y-133631728D01*
X140835143Y-133631728D02*
X140858953Y-133607919D01*
X140858953Y-133607919D02*
X140906572Y-133584109D01*
X140906572Y-133584109D02*
X141025619Y-133584109D01*
X141025619Y-133584109D02*
X141097048Y-133607919D01*
X141263714Y-133584109D02*
X141382762Y-134084109D01*
X141382762Y-134084109D02*
X141478000Y-133726966D01*
X141478000Y-133726966D02*
X141573238Y-134084109D01*
X141573238Y-134084109D02*
X141692286Y-133584109D01*
X142144667Y-134084109D02*
X141858953Y-134084109D01*
X142001810Y-134084109D02*
X142001810Y-133584109D01*
X142001810Y-133584109D02*
X141954191Y-133655538D01*
X141954191Y-133655538D02*
X141906572Y-133703157D01*
X141906572Y-133703157D02*
X141858953Y-133726966D01*
X136330571Y-101778490D02*
X136306762Y-101802300D01*
X136306762Y-101802300D02*
X136235333Y-101826109D01*
X136235333Y-101826109D02*
X136187714Y-101826109D01*
X136187714Y-101826109D02*
X136116286Y-101802300D01*
X136116286Y-101802300D02*
X136068667Y-101754680D01*
X136068667Y-101754680D02*
X136044857Y-101707061D01*
X136044857Y-101707061D02*
X136021048Y-101611823D01*
X136021048Y-101611823D02*
X136021048Y-101540395D01*
X136021048Y-101540395D02*
X136044857Y-101445157D01*
X136044857Y-101445157D02*
X136068667Y-101397538D01*
X136068667Y-101397538D02*
X136116286Y-101349919D01*
X136116286Y-101349919D02*
X136187714Y-101326109D01*
X136187714Y-101326109D02*
X136235333Y-101326109D01*
X136235333Y-101326109D02*
X136306762Y-101349919D01*
X136306762Y-101349919D02*
X136330571Y-101373728D01*
X136521048Y-101373728D02*
X136544857Y-101349919D01*
X136544857Y-101349919D02*
X136592476Y-101326109D01*
X136592476Y-101326109D02*
X136711524Y-101326109D01*
X136711524Y-101326109D02*
X136759143Y-101349919D01*
X136759143Y-101349919D02*
X136782952Y-101373728D01*
X136782952Y-101373728D02*
X136806762Y-101421347D01*
X136806762Y-101421347D02*
X136806762Y-101468966D01*
X136806762Y-101468966D02*
X136782952Y-101540395D01*
X136782952Y-101540395D02*
X136497238Y-101826109D01*
X136497238Y-101826109D02*
X136806762Y-101826109D01*
X136973428Y-101326109D02*
X137282952Y-101326109D01*
X137282952Y-101326109D02*
X137116285Y-101516585D01*
X137116285Y-101516585D02*
X137187714Y-101516585D01*
X137187714Y-101516585D02*
X137235333Y-101540395D01*
X137235333Y-101540395D02*
X137259142Y-101564204D01*
X137259142Y-101564204D02*
X137282952Y-101611823D01*
X137282952Y-101611823D02*
X137282952Y-101730871D01*
X137282952Y-101730871D02*
X137259142Y-101778490D01*
X137259142Y-101778490D02*
X137235333Y-101802300D01*
X137235333Y-101802300D02*
X137187714Y-101826109D01*
X137187714Y-101826109D02*
X137044857Y-101826109D01*
X137044857Y-101826109D02*
X136997238Y-101802300D01*
X136997238Y-101802300D02*
X136973428Y-101778490D01*
X141156571Y-101778490D02*
X141132762Y-101802300D01*
X141132762Y-101802300D02*
X141061333Y-101826109D01*
X141061333Y-101826109D02*
X141013714Y-101826109D01*
X141013714Y-101826109D02*
X140942286Y-101802300D01*
X140942286Y-101802300D02*
X140894667Y-101754680D01*
X140894667Y-101754680D02*
X140870857Y-101707061D01*
X140870857Y-101707061D02*
X140847048Y-101611823D01*
X140847048Y-101611823D02*
X140847048Y-101540395D01*
X140847048Y-101540395D02*
X140870857Y-101445157D01*
X140870857Y-101445157D02*
X140894667Y-101397538D01*
X140894667Y-101397538D02*
X140942286Y-101349919D01*
X140942286Y-101349919D02*
X141013714Y-101326109D01*
X141013714Y-101326109D02*
X141061333Y-101326109D01*
X141061333Y-101326109D02*
X141132762Y-101349919D01*
X141132762Y-101349919D02*
X141156571Y-101373728D01*
X141347048Y-101373728D02*
X141370857Y-101349919D01*
X141370857Y-101349919D02*
X141418476Y-101326109D01*
X141418476Y-101326109D02*
X141537524Y-101326109D01*
X141537524Y-101326109D02*
X141585143Y-101349919D01*
X141585143Y-101349919D02*
X141608952Y-101373728D01*
X141608952Y-101373728D02*
X141632762Y-101421347D01*
X141632762Y-101421347D02*
X141632762Y-101468966D01*
X141632762Y-101468966D02*
X141608952Y-101540395D01*
X141608952Y-101540395D02*
X141323238Y-101826109D01*
X141323238Y-101826109D02*
X141632762Y-101826109D01*
X142061333Y-101492776D02*
X142061333Y-101826109D01*
X141942285Y-101302300D02*
X141823238Y-101659442D01*
X141823238Y-101659442D02*
X142132761Y-101659442D01*
X152030952Y-138148109D02*
X152030952Y-137648109D01*
X152030952Y-137648109D02*
X152150000Y-137648109D01*
X152150000Y-137648109D02*
X152221428Y-137671919D01*
X152221428Y-137671919D02*
X152269047Y-137719538D01*
X152269047Y-137719538D02*
X152292857Y-137767157D01*
X152292857Y-137767157D02*
X152316666Y-137862395D01*
X152316666Y-137862395D02*
X152316666Y-137933823D01*
X152316666Y-137933823D02*
X152292857Y-138029061D01*
X152292857Y-138029061D02*
X152269047Y-138076680D01*
X152269047Y-138076680D02*
X152221428Y-138124300D01*
X152221428Y-138124300D02*
X152150000Y-138148109D01*
X152150000Y-138148109D02*
X152030952Y-138148109D01*
X152483333Y-137648109D02*
X152816666Y-137648109D01*
X152816666Y-137648109D02*
X152602381Y-138148109D01*
X156348952Y-138148109D02*
X156348952Y-137648109D01*
X156348952Y-137648109D02*
X156468000Y-137648109D01*
X156468000Y-137648109D02*
X156539428Y-137671919D01*
X156539428Y-137671919D02*
X156587047Y-137719538D01*
X156587047Y-137719538D02*
X156610857Y-137767157D01*
X156610857Y-137767157D02*
X156634666Y-137862395D01*
X156634666Y-137862395D02*
X156634666Y-137933823D01*
X156634666Y-137933823D02*
X156610857Y-138029061D01*
X156610857Y-138029061D02*
X156587047Y-138076680D01*
X156587047Y-138076680D02*
X156539428Y-138124300D01*
X156539428Y-138124300D02*
X156468000Y-138148109D01*
X156468000Y-138148109D02*
X156348952Y-138148109D01*
X156920381Y-137862395D02*
X156872762Y-137838585D01*
X156872762Y-137838585D02*
X156848952Y-137814776D01*
X156848952Y-137814776D02*
X156825143Y-137767157D01*
X156825143Y-137767157D02*
X156825143Y-137743347D01*
X156825143Y-137743347D02*
X156848952Y-137695728D01*
X156848952Y-137695728D02*
X156872762Y-137671919D01*
X156872762Y-137671919D02*
X156920381Y-137648109D01*
X156920381Y-137648109D02*
X157015619Y-137648109D01*
X157015619Y-137648109D02*
X157063238Y-137671919D01*
X157063238Y-137671919D02*
X157087047Y-137695728D01*
X157087047Y-137695728D02*
X157110857Y-137743347D01*
X157110857Y-137743347D02*
X157110857Y-137767157D01*
X157110857Y-137767157D02*
X157087047Y-137814776D01*
X157087047Y-137814776D02*
X157063238Y-137838585D01*
X157063238Y-137838585D02*
X157015619Y-137862395D01*
X157015619Y-137862395D02*
X156920381Y-137862395D01*
X156920381Y-137862395D02*
X156872762Y-137886204D01*
X156872762Y-137886204D02*
X156848952Y-137910014D01*
X156848952Y-137910014D02*
X156825143Y-137957633D01*
X156825143Y-137957633D02*
X156825143Y-138052871D01*
X156825143Y-138052871D02*
X156848952Y-138100490D01*
X156848952Y-138100490D02*
X156872762Y-138124300D01*
X156872762Y-138124300D02*
X156920381Y-138148109D01*
X156920381Y-138148109D02*
X157015619Y-138148109D01*
X157015619Y-138148109D02*
X157063238Y-138124300D01*
X157063238Y-138124300D02*
X157087047Y-138100490D01*
X157087047Y-138100490D02*
X157110857Y-138052871D01*
X157110857Y-138052871D02*
X157110857Y-137957633D01*
X157110857Y-137957633D02*
X157087047Y-137910014D01*
X157087047Y-137910014D02*
X157063238Y-137886204D01*
X157063238Y-137886204D02*
X157015619Y-137862395D01*
X144950666Y-142466109D02*
X144784000Y-142228014D01*
X144664952Y-142466109D02*
X144664952Y-141966109D01*
X144664952Y-141966109D02*
X144855428Y-141966109D01*
X144855428Y-141966109D02*
X144903047Y-141989919D01*
X144903047Y-141989919D02*
X144926857Y-142013728D01*
X144926857Y-142013728D02*
X144950666Y-142061347D01*
X144950666Y-142061347D02*
X144950666Y-142132776D01*
X144950666Y-142132776D02*
X144926857Y-142180395D01*
X144926857Y-142180395D02*
X144903047Y-142204204D01*
X144903047Y-142204204D02*
X144855428Y-142228014D01*
X144855428Y-142228014D02*
X144664952Y-142228014D01*
X145236381Y-142180395D02*
X145188762Y-142156585D01*
X145188762Y-142156585D02*
X145164952Y-142132776D01*
X145164952Y-142132776D02*
X145141143Y-142085157D01*
X145141143Y-142085157D02*
X145141143Y-142061347D01*
X145141143Y-142061347D02*
X145164952Y-142013728D01*
X145164952Y-142013728D02*
X145188762Y-141989919D01*
X145188762Y-141989919D02*
X145236381Y-141966109D01*
X145236381Y-141966109D02*
X145331619Y-141966109D01*
X145331619Y-141966109D02*
X145379238Y-141989919D01*
X145379238Y-141989919D02*
X145403047Y-142013728D01*
X145403047Y-142013728D02*
X145426857Y-142061347D01*
X145426857Y-142061347D02*
X145426857Y-142085157D01*
X145426857Y-142085157D02*
X145403047Y-142132776D01*
X145403047Y-142132776D02*
X145379238Y-142156585D01*
X145379238Y-142156585D02*
X145331619Y-142180395D01*
X145331619Y-142180395D02*
X145236381Y-142180395D01*
X145236381Y-142180395D02*
X145188762Y-142204204D01*
X145188762Y-142204204D02*
X145164952Y-142228014D01*
X145164952Y-142228014D02*
X145141143Y-142275633D01*
X145141143Y-142275633D02*
X145141143Y-142370871D01*
X145141143Y-142370871D02*
X145164952Y-142418490D01*
X145164952Y-142418490D02*
X145188762Y-142442300D01*
X145188762Y-142442300D02*
X145236381Y-142466109D01*
X145236381Y-142466109D02*
X145331619Y-142466109D01*
X145331619Y-142466109D02*
X145379238Y-142442300D01*
X145379238Y-142442300D02*
X145403047Y-142418490D01*
X145403047Y-142418490D02*
X145426857Y-142370871D01*
X145426857Y-142370871D02*
X145426857Y-142275633D01*
X145426857Y-142275633D02*
X145403047Y-142228014D01*
X145403047Y-142228014D02*
X145379238Y-142204204D01*
X145379238Y-142204204D02*
X145331619Y-142180395D01*
X143950571Y-139164109D02*
X143783905Y-138926014D01*
X143664857Y-139164109D02*
X143664857Y-138664109D01*
X143664857Y-138664109D02*
X143855333Y-138664109D01*
X143855333Y-138664109D02*
X143902952Y-138687919D01*
X143902952Y-138687919D02*
X143926762Y-138711728D01*
X143926762Y-138711728D02*
X143950571Y-138759347D01*
X143950571Y-138759347D02*
X143950571Y-138830776D01*
X143950571Y-138830776D02*
X143926762Y-138878395D01*
X143926762Y-138878395D02*
X143902952Y-138902204D01*
X143902952Y-138902204D02*
X143855333Y-138926014D01*
X143855333Y-138926014D02*
X143664857Y-138926014D01*
X144426762Y-139164109D02*
X144141048Y-139164109D01*
X144283905Y-139164109D02*
X144283905Y-138664109D01*
X144283905Y-138664109D02*
X144236286Y-138735538D01*
X144236286Y-138735538D02*
X144188667Y-138783157D01*
X144188667Y-138783157D02*
X144141048Y-138806966D01*
X144736285Y-138664109D02*
X144783904Y-138664109D01*
X144783904Y-138664109D02*
X144831523Y-138687919D01*
X144831523Y-138687919D02*
X144855333Y-138711728D01*
X144855333Y-138711728D02*
X144879142Y-138759347D01*
X144879142Y-138759347D02*
X144902952Y-138854585D01*
X144902952Y-138854585D02*
X144902952Y-138973633D01*
X144902952Y-138973633D02*
X144879142Y-139068871D01*
X144879142Y-139068871D02*
X144855333Y-139116490D01*
X144855333Y-139116490D02*
X144831523Y-139140300D01*
X144831523Y-139140300D02*
X144783904Y-139164109D01*
X144783904Y-139164109D02*
X144736285Y-139164109D01*
X144736285Y-139164109D02*
X144688666Y-139140300D01*
X144688666Y-139140300D02*
X144664857Y-139116490D01*
X144664857Y-139116490D02*
X144641047Y-139068871D01*
X144641047Y-139068871D02*
X144617238Y-138973633D01*
X144617238Y-138973633D02*
X144617238Y-138854585D01*
X144617238Y-138854585D02*
X144641047Y-138759347D01*
X144641047Y-138759347D02*
X144664857Y-138711728D01*
X144664857Y-138711728D02*
X144688666Y-138687919D01*
X144688666Y-138687919D02*
X144736285Y-138664109D01*
X147046109Y-96178666D02*
X147403252Y-96178666D01*
X147403252Y-96178666D02*
X147474680Y-96202475D01*
X147474680Y-96202475D02*
X147522300Y-96250094D01*
X147522300Y-96250094D02*
X147546109Y-96321523D01*
X147546109Y-96321523D02*
X147546109Y-96369142D01*
X147546109Y-95678666D02*
X147546109Y-95964380D01*
X147546109Y-95821523D02*
X147046109Y-95821523D01*
X147046109Y-95821523D02*
X147117538Y-95869142D01*
X147117538Y-95869142D02*
X147165157Y-95916761D01*
X147165157Y-95916761D02*
X147188966Y-95964380D01*
X159944490Y-116907428D02*
X159968300Y-116931237D01*
X159968300Y-116931237D02*
X159992109Y-117002666D01*
X159992109Y-117002666D02*
X159992109Y-117050285D01*
X159992109Y-117050285D02*
X159968300Y-117121713D01*
X159968300Y-117121713D02*
X159920680Y-117169332D01*
X159920680Y-117169332D02*
X159873061Y-117193142D01*
X159873061Y-117193142D02*
X159777823Y-117216951D01*
X159777823Y-117216951D02*
X159706395Y-117216951D01*
X159706395Y-117216951D02*
X159611157Y-117193142D01*
X159611157Y-117193142D02*
X159563538Y-117169332D01*
X159563538Y-117169332D02*
X159515919Y-117121713D01*
X159515919Y-117121713D02*
X159492109Y-117050285D01*
X159492109Y-117050285D02*
X159492109Y-117002666D01*
X159492109Y-117002666D02*
X159515919Y-116931237D01*
X159515919Y-116931237D02*
X159539728Y-116907428D01*
X159992109Y-116431237D02*
X159992109Y-116716951D01*
X159992109Y-116574094D02*
X159492109Y-116574094D01*
X159492109Y-116574094D02*
X159563538Y-116621713D01*
X159563538Y-116621713D02*
X159611157Y-116669332D01*
X159611157Y-116669332D02*
X159634966Y-116716951D01*
X159492109Y-116264571D02*
X159492109Y-115931238D01*
X159492109Y-115931238D02*
X159992109Y-116145523D01*
X162428071Y-116511990D02*
X162404262Y-116535800D01*
X162404262Y-116535800D02*
X162332833Y-116559609D01*
X162332833Y-116559609D02*
X162285214Y-116559609D01*
X162285214Y-116559609D02*
X162213786Y-116535800D01*
X162213786Y-116535800D02*
X162166167Y-116488180D01*
X162166167Y-116488180D02*
X162142357Y-116440561D01*
X162142357Y-116440561D02*
X162118548Y-116345323D01*
X162118548Y-116345323D02*
X162118548Y-116273895D01*
X162118548Y-116273895D02*
X162142357Y-116178657D01*
X162142357Y-116178657D02*
X162166167Y-116131038D01*
X162166167Y-116131038D02*
X162213786Y-116083419D01*
X162213786Y-116083419D02*
X162285214Y-116059609D01*
X162285214Y-116059609D02*
X162332833Y-116059609D01*
X162332833Y-116059609D02*
X162404262Y-116083419D01*
X162404262Y-116083419D02*
X162428071Y-116107228D01*
X162904262Y-116559609D02*
X162618548Y-116559609D01*
X162761405Y-116559609D02*
X162761405Y-116059609D01*
X162761405Y-116059609D02*
X162713786Y-116131038D01*
X162713786Y-116131038D02*
X162666167Y-116178657D01*
X162666167Y-116178657D02*
X162618548Y-116202466D01*
X163189976Y-116273895D02*
X163142357Y-116250085D01*
X163142357Y-116250085D02*
X163118547Y-116226276D01*
X163118547Y-116226276D02*
X163094738Y-116178657D01*
X163094738Y-116178657D02*
X163094738Y-116154847D01*
X163094738Y-116154847D02*
X163118547Y-116107228D01*
X163118547Y-116107228D02*
X163142357Y-116083419D01*
X163142357Y-116083419D02*
X163189976Y-116059609D01*
X163189976Y-116059609D02*
X163285214Y-116059609D01*
X163285214Y-116059609D02*
X163332833Y-116083419D01*
X163332833Y-116083419D02*
X163356642Y-116107228D01*
X163356642Y-116107228D02*
X163380452Y-116154847D01*
X163380452Y-116154847D02*
X163380452Y-116178657D01*
X163380452Y-116178657D02*
X163356642Y-116226276D01*
X163356642Y-116226276D02*
X163332833Y-116250085D01*
X163332833Y-116250085D02*
X163285214Y-116273895D01*
X163285214Y-116273895D02*
X163189976Y-116273895D01*
X163189976Y-116273895D02*
X163142357Y-116297704D01*
X163142357Y-116297704D02*
X163118547Y-116321514D01*
X163118547Y-116321514D02*
X163094738Y-116369133D01*
X163094738Y-116369133D02*
X163094738Y-116464371D01*
X163094738Y-116464371D02*
X163118547Y-116511990D01*
X163118547Y-116511990D02*
X163142357Y-116535800D01*
X163142357Y-116535800D02*
X163189976Y-116559609D01*
X163189976Y-116559609D02*
X163285214Y-116559609D01*
X163285214Y-116559609D02*
X163332833Y-116535800D01*
X163332833Y-116535800D02*
X163356642Y-116511990D01*
X163356642Y-116511990D02*
X163380452Y-116464371D01*
X163380452Y-116464371D02*
X163380452Y-116369133D01*
X163380452Y-116369133D02*
X163356642Y-116321514D01*
X163356642Y-116321514D02*
X163332833Y-116297704D01*
X163332833Y-116297704D02*
X163285214Y-116273895D01*
D11*
X161910690Y-109542928D02*
X161934500Y-109566737D01*
X161934500Y-109566737D02*
X161958309Y-109638166D01*
X161958309Y-109638166D02*
X161958309Y-109685785D01*
X161958309Y-109685785D02*
X161934500Y-109757213D01*
X161934500Y-109757213D02*
X161886880Y-109804832D01*
X161886880Y-109804832D02*
X161839261Y-109828642D01*
X161839261Y-109828642D02*
X161744023Y-109852451D01*
X161744023Y-109852451D02*
X161672595Y-109852451D01*
X161672595Y-109852451D02*
X161577357Y-109828642D01*
X161577357Y-109828642D02*
X161529738Y-109804832D01*
X161529738Y-109804832D02*
X161482119Y-109757213D01*
X161482119Y-109757213D02*
X161458309Y-109685785D01*
X161458309Y-109685785D02*
X161458309Y-109638166D01*
X161458309Y-109638166D02*
X161482119Y-109566737D01*
X161482119Y-109566737D02*
X161505928Y-109542928D01*
X161958309Y-109066737D02*
X161958309Y-109352451D01*
X161958309Y-109209594D02*
X161458309Y-109209594D01*
X161458309Y-109209594D02*
X161529738Y-109257213D01*
X161529738Y-109257213D02*
X161577357Y-109304832D01*
X161577357Y-109304832D02*
X161601166Y-109352451D01*
X161958309Y-108828642D02*
X161958309Y-108733404D01*
X161958309Y-108733404D02*
X161934500Y-108685785D01*
X161934500Y-108685785D02*
X161910690Y-108661976D01*
X161910690Y-108661976D02*
X161839261Y-108614357D01*
X161839261Y-108614357D02*
X161744023Y-108590547D01*
X161744023Y-108590547D02*
X161553547Y-108590547D01*
X161553547Y-108590547D02*
X161505928Y-108614357D01*
X161505928Y-108614357D02*
X161482119Y-108638166D01*
X161482119Y-108638166D02*
X161458309Y-108685785D01*
X161458309Y-108685785D02*
X161458309Y-108781023D01*
X161458309Y-108781023D02*
X161482119Y-108828642D01*
X161482119Y-108828642D02*
X161505928Y-108852452D01*
X161505928Y-108852452D02*
X161553547Y-108876261D01*
X161553547Y-108876261D02*
X161672595Y-108876261D01*
X161672595Y-108876261D02*
X161720214Y-108852452D01*
X161720214Y-108852452D02*
X161744023Y-108828642D01*
X161744023Y-108828642D02*
X161767833Y-108781023D01*
X161767833Y-108781023D02*
X161767833Y-108685785D01*
X161767833Y-108685785D02*
X161744023Y-108638166D01*
X161744023Y-108638166D02*
X161720214Y-108614357D01*
X161720214Y-108614357D02*
X161672595Y-108590547D01*
D10*
X158110071Y-108129990D02*
X158086262Y-108153800D01*
X158086262Y-108153800D02*
X158014833Y-108177609D01*
X158014833Y-108177609D02*
X157967214Y-108177609D01*
X157967214Y-108177609D02*
X157895786Y-108153800D01*
X157895786Y-108153800D02*
X157848167Y-108106180D01*
X157848167Y-108106180D02*
X157824357Y-108058561D01*
X157824357Y-108058561D02*
X157800548Y-107963323D01*
X157800548Y-107963323D02*
X157800548Y-107891895D01*
X157800548Y-107891895D02*
X157824357Y-107796657D01*
X157824357Y-107796657D02*
X157848167Y-107749038D01*
X157848167Y-107749038D02*
X157895786Y-107701419D01*
X157895786Y-107701419D02*
X157967214Y-107677609D01*
X157967214Y-107677609D02*
X158014833Y-107677609D01*
X158014833Y-107677609D02*
X158086262Y-107701419D01*
X158086262Y-107701419D02*
X158110071Y-107725228D01*
X158300548Y-107725228D02*
X158324357Y-107701419D01*
X158324357Y-107701419D02*
X158371976Y-107677609D01*
X158371976Y-107677609D02*
X158491024Y-107677609D01*
X158491024Y-107677609D02*
X158538643Y-107701419D01*
X158538643Y-107701419D02*
X158562452Y-107725228D01*
X158562452Y-107725228D02*
X158586262Y-107772847D01*
X158586262Y-107772847D02*
X158586262Y-107820466D01*
X158586262Y-107820466D02*
X158562452Y-107891895D01*
X158562452Y-107891895D02*
X158276738Y-108177609D01*
X158276738Y-108177609D02*
X158586262Y-108177609D01*
X158895785Y-107677609D02*
X158943404Y-107677609D01*
X158943404Y-107677609D02*
X158991023Y-107701419D01*
X158991023Y-107701419D02*
X159014833Y-107725228D01*
X159014833Y-107725228D02*
X159038642Y-107772847D01*
X159038642Y-107772847D02*
X159062452Y-107868085D01*
X159062452Y-107868085D02*
X159062452Y-107987133D01*
X159062452Y-107987133D02*
X159038642Y-108082371D01*
X159038642Y-108082371D02*
X159014833Y-108129990D01*
X159014833Y-108129990D02*
X158991023Y-108153800D01*
X158991023Y-108153800D02*
X158943404Y-108177609D01*
X158943404Y-108177609D02*
X158895785Y-108177609D01*
X158895785Y-108177609D02*
X158848166Y-108153800D01*
X158848166Y-108153800D02*
X158824357Y-108129990D01*
X158824357Y-108129990D02*
X158800547Y-108082371D01*
X158800547Y-108082371D02*
X158776738Y-107987133D01*
X158776738Y-107987133D02*
X158776738Y-107868085D01*
X158776738Y-107868085D02*
X158800547Y-107772847D01*
X158800547Y-107772847D02*
X158824357Y-107725228D01*
X158824357Y-107725228D02*
X158848166Y-107701419D01*
X158848166Y-107701419D02*
X158895785Y-107677609D01*
X157856071Y-116003990D02*
X157832262Y-116027800D01*
X157832262Y-116027800D02*
X157760833Y-116051609D01*
X157760833Y-116051609D02*
X157713214Y-116051609D01*
X157713214Y-116051609D02*
X157641786Y-116027800D01*
X157641786Y-116027800D02*
X157594167Y-115980180D01*
X157594167Y-115980180D02*
X157570357Y-115932561D01*
X157570357Y-115932561D02*
X157546548Y-115837323D01*
X157546548Y-115837323D02*
X157546548Y-115765895D01*
X157546548Y-115765895D02*
X157570357Y-115670657D01*
X157570357Y-115670657D02*
X157594167Y-115623038D01*
X157594167Y-115623038D02*
X157641786Y-115575419D01*
X157641786Y-115575419D02*
X157713214Y-115551609D01*
X157713214Y-115551609D02*
X157760833Y-115551609D01*
X157760833Y-115551609D02*
X157832262Y-115575419D01*
X157832262Y-115575419D02*
X157856071Y-115599228D01*
X158046548Y-115599228D02*
X158070357Y-115575419D01*
X158070357Y-115575419D02*
X158117976Y-115551609D01*
X158117976Y-115551609D02*
X158237024Y-115551609D01*
X158237024Y-115551609D02*
X158284643Y-115575419D01*
X158284643Y-115575419D02*
X158308452Y-115599228D01*
X158308452Y-115599228D02*
X158332262Y-115646847D01*
X158332262Y-115646847D02*
X158332262Y-115694466D01*
X158332262Y-115694466D02*
X158308452Y-115765895D01*
X158308452Y-115765895D02*
X158022738Y-116051609D01*
X158022738Y-116051609D02*
X158332262Y-116051609D01*
X158808452Y-116051609D02*
X158522738Y-116051609D01*
X158665595Y-116051609D02*
X158665595Y-115551609D01*
X158665595Y-115551609D02*
X158617976Y-115623038D01*
X158617976Y-115623038D02*
X158570357Y-115670657D01*
X158570357Y-115670657D02*
X158522738Y-115694466D01*
X166492071Y-108891990D02*
X166468262Y-108915800D01*
X166468262Y-108915800D02*
X166396833Y-108939609D01*
X166396833Y-108939609D02*
X166349214Y-108939609D01*
X166349214Y-108939609D02*
X166277786Y-108915800D01*
X166277786Y-108915800D02*
X166230167Y-108868180D01*
X166230167Y-108868180D02*
X166206357Y-108820561D01*
X166206357Y-108820561D02*
X166182548Y-108725323D01*
X166182548Y-108725323D02*
X166182548Y-108653895D01*
X166182548Y-108653895D02*
X166206357Y-108558657D01*
X166206357Y-108558657D02*
X166230167Y-108511038D01*
X166230167Y-108511038D02*
X166277786Y-108463419D01*
X166277786Y-108463419D02*
X166349214Y-108439609D01*
X166349214Y-108439609D02*
X166396833Y-108439609D01*
X166396833Y-108439609D02*
X166468262Y-108463419D01*
X166468262Y-108463419D02*
X166492071Y-108487228D01*
X166682548Y-108487228D02*
X166706357Y-108463419D01*
X166706357Y-108463419D02*
X166753976Y-108439609D01*
X166753976Y-108439609D02*
X166873024Y-108439609D01*
X166873024Y-108439609D02*
X166920643Y-108463419D01*
X166920643Y-108463419D02*
X166944452Y-108487228D01*
X166944452Y-108487228D02*
X166968262Y-108534847D01*
X166968262Y-108534847D02*
X166968262Y-108582466D01*
X166968262Y-108582466D02*
X166944452Y-108653895D01*
X166944452Y-108653895D02*
X166658738Y-108939609D01*
X166658738Y-108939609D02*
X166968262Y-108939609D01*
X167158738Y-108487228D02*
X167182547Y-108463419D01*
X167182547Y-108463419D02*
X167230166Y-108439609D01*
X167230166Y-108439609D02*
X167349214Y-108439609D01*
X167349214Y-108439609D02*
X167396833Y-108463419D01*
X167396833Y-108463419D02*
X167420642Y-108487228D01*
X167420642Y-108487228D02*
X167444452Y-108534847D01*
X167444452Y-108534847D02*
X167444452Y-108582466D01*
X167444452Y-108582466D02*
X167420642Y-108653895D01*
X167420642Y-108653895D02*
X167134928Y-108939609D01*
X167134928Y-108939609D02*
X167444452Y-108939609D01*
X155609609Y-110828833D02*
X155609609Y-111066928D01*
X155609609Y-111066928D02*
X155109609Y-111066928D01*
X155157228Y-110685975D02*
X155133419Y-110662166D01*
X155133419Y-110662166D02*
X155109609Y-110614547D01*
X155109609Y-110614547D02*
X155109609Y-110495499D01*
X155109609Y-110495499D02*
X155133419Y-110447880D01*
X155133419Y-110447880D02*
X155157228Y-110424071D01*
X155157228Y-110424071D02*
X155204847Y-110400261D01*
X155204847Y-110400261D02*
X155252466Y-110400261D01*
X155252466Y-110400261D02*
X155323895Y-110424071D01*
X155323895Y-110424071D02*
X155609609Y-110709785D01*
X155609609Y-110709785D02*
X155609609Y-110400261D01*
X165984071Y-118083609D02*
X165817405Y-117845514D01*
X165698357Y-118083609D02*
X165698357Y-117583609D01*
X165698357Y-117583609D02*
X165888833Y-117583609D01*
X165888833Y-117583609D02*
X165936452Y-117607419D01*
X165936452Y-117607419D02*
X165960262Y-117631228D01*
X165960262Y-117631228D02*
X165984071Y-117678847D01*
X165984071Y-117678847D02*
X165984071Y-117750276D01*
X165984071Y-117750276D02*
X165960262Y-117797895D01*
X165960262Y-117797895D02*
X165936452Y-117821704D01*
X165936452Y-117821704D02*
X165888833Y-117845514D01*
X165888833Y-117845514D02*
X165698357Y-117845514D01*
X166460262Y-118083609D02*
X166174548Y-118083609D01*
X166317405Y-118083609D02*
X166317405Y-117583609D01*
X166317405Y-117583609D02*
X166269786Y-117655038D01*
X166269786Y-117655038D02*
X166222167Y-117702657D01*
X166222167Y-117702657D02*
X166174548Y-117726466D01*
X166650738Y-117631228D02*
X166674547Y-117607419D01*
X166674547Y-117607419D02*
X166722166Y-117583609D01*
X166722166Y-117583609D02*
X166841214Y-117583609D01*
X166841214Y-117583609D02*
X166888833Y-117607419D01*
X166888833Y-117607419D02*
X166912642Y-117631228D01*
X166912642Y-117631228D02*
X166936452Y-117678847D01*
X166936452Y-117678847D02*
X166936452Y-117726466D01*
X166936452Y-117726466D02*
X166912642Y-117797895D01*
X166912642Y-117797895D02*
X166626928Y-118083609D01*
X166626928Y-118083609D02*
X166936452Y-118083609D01*
X163952071Y-117321609D02*
X163785405Y-117083514D01*
X163666357Y-117321609D02*
X163666357Y-116821609D01*
X163666357Y-116821609D02*
X163856833Y-116821609D01*
X163856833Y-116821609D02*
X163904452Y-116845419D01*
X163904452Y-116845419D02*
X163928262Y-116869228D01*
X163928262Y-116869228D02*
X163952071Y-116916847D01*
X163952071Y-116916847D02*
X163952071Y-116988276D01*
X163952071Y-116988276D02*
X163928262Y-117035895D01*
X163928262Y-117035895D02*
X163904452Y-117059704D01*
X163904452Y-117059704D02*
X163856833Y-117083514D01*
X163856833Y-117083514D02*
X163666357Y-117083514D01*
X164428262Y-117321609D02*
X164142548Y-117321609D01*
X164285405Y-117321609D02*
X164285405Y-116821609D01*
X164285405Y-116821609D02*
X164237786Y-116893038D01*
X164237786Y-116893038D02*
X164190167Y-116940657D01*
X164190167Y-116940657D02*
X164142548Y-116964466D01*
X164594928Y-116821609D02*
X164904452Y-116821609D01*
X164904452Y-116821609D02*
X164737785Y-117012085D01*
X164737785Y-117012085D02*
X164809214Y-117012085D01*
X164809214Y-117012085D02*
X164856833Y-117035895D01*
X164856833Y-117035895D02*
X164880642Y-117059704D01*
X164880642Y-117059704D02*
X164904452Y-117107323D01*
X164904452Y-117107323D02*
X164904452Y-117226371D01*
X164904452Y-117226371D02*
X164880642Y-117273990D01*
X164880642Y-117273990D02*
X164856833Y-117297800D01*
X164856833Y-117297800D02*
X164809214Y-117321609D01*
X164809214Y-117321609D02*
X164666357Y-117321609D01*
X164666357Y-117321609D02*
X164618738Y-117297800D01*
X164618738Y-117297800D02*
X164594928Y-117273990D01*
X164460071Y-107669609D02*
X164293405Y-107431514D01*
X164174357Y-107669609D02*
X164174357Y-107169609D01*
X164174357Y-107169609D02*
X164364833Y-107169609D01*
X164364833Y-107169609D02*
X164412452Y-107193419D01*
X164412452Y-107193419D02*
X164436262Y-107217228D01*
X164436262Y-107217228D02*
X164460071Y-107264847D01*
X164460071Y-107264847D02*
X164460071Y-107336276D01*
X164460071Y-107336276D02*
X164436262Y-107383895D01*
X164436262Y-107383895D02*
X164412452Y-107407704D01*
X164412452Y-107407704D02*
X164364833Y-107431514D01*
X164364833Y-107431514D02*
X164174357Y-107431514D01*
X164936262Y-107669609D02*
X164650548Y-107669609D01*
X164793405Y-107669609D02*
X164793405Y-107169609D01*
X164793405Y-107169609D02*
X164745786Y-107241038D01*
X164745786Y-107241038D02*
X164698167Y-107288657D01*
X164698167Y-107288657D02*
X164650548Y-107312466D01*
X165364833Y-107336276D02*
X165364833Y-107669609D01*
X165245785Y-107145800D02*
X165126738Y-107502942D01*
X165126738Y-107502942D02*
X165436261Y-107502942D01*
X164714071Y-108939609D02*
X164547405Y-108701514D01*
X164428357Y-108939609D02*
X164428357Y-108439609D01*
X164428357Y-108439609D02*
X164618833Y-108439609D01*
X164618833Y-108439609D02*
X164666452Y-108463419D01*
X164666452Y-108463419D02*
X164690262Y-108487228D01*
X164690262Y-108487228D02*
X164714071Y-108534847D01*
X164714071Y-108534847D02*
X164714071Y-108606276D01*
X164714071Y-108606276D02*
X164690262Y-108653895D01*
X164690262Y-108653895D02*
X164666452Y-108677704D01*
X164666452Y-108677704D02*
X164618833Y-108701514D01*
X164618833Y-108701514D02*
X164428357Y-108701514D01*
X165190262Y-108939609D02*
X164904548Y-108939609D01*
X165047405Y-108939609D02*
X165047405Y-108439609D01*
X165047405Y-108439609D02*
X164999786Y-108511038D01*
X164999786Y-108511038D02*
X164952167Y-108558657D01*
X164952167Y-108558657D02*
X164904548Y-108582466D01*
X165642642Y-108439609D02*
X165404547Y-108439609D01*
X165404547Y-108439609D02*
X165380738Y-108677704D01*
X165380738Y-108677704D02*
X165404547Y-108653895D01*
X165404547Y-108653895D02*
X165452166Y-108630085D01*
X165452166Y-108630085D02*
X165571214Y-108630085D01*
X165571214Y-108630085D02*
X165618833Y-108653895D01*
X165618833Y-108653895D02*
X165642642Y-108677704D01*
X165642642Y-108677704D02*
X165666452Y-108725323D01*
X165666452Y-108725323D02*
X165666452Y-108844371D01*
X165666452Y-108844371D02*
X165642642Y-108891990D01*
X165642642Y-108891990D02*
X165618833Y-108915800D01*
X165618833Y-108915800D02*
X165571214Y-108939609D01*
X165571214Y-108939609D02*
X165452166Y-108939609D01*
X165452166Y-108939609D02*
X165404547Y-108915800D01*
X165404547Y-108915800D02*
X165380738Y-108891990D01*
X165730071Y-114019609D02*
X165563405Y-113781514D01*
X165444357Y-114019609D02*
X165444357Y-113519609D01*
X165444357Y-113519609D02*
X165634833Y-113519609D01*
X165634833Y-113519609D02*
X165682452Y-113543419D01*
X165682452Y-113543419D02*
X165706262Y-113567228D01*
X165706262Y-113567228D02*
X165730071Y-113614847D01*
X165730071Y-113614847D02*
X165730071Y-113686276D01*
X165730071Y-113686276D02*
X165706262Y-113733895D01*
X165706262Y-113733895D02*
X165682452Y-113757704D01*
X165682452Y-113757704D02*
X165634833Y-113781514D01*
X165634833Y-113781514D02*
X165444357Y-113781514D01*
X166206262Y-114019609D02*
X165920548Y-114019609D01*
X166063405Y-114019609D02*
X166063405Y-113519609D01*
X166063405Y-113519609D02*
X166015786Y-113591038D01*
X166015786Y-113591038D02*
X165968167Y-113638657D01*
X165968167Y-113638657D02*
X165920548Y-113662466D01*
X166634833Y-113519609D02*
X166539595Y-113519609D01*
X166539595Y-113519609D02*
X166491976Y-113543419D01*
X166491976Y-113543419D02*
X166468166Y-113567228D01*
X166468166Y-113567228D02*
X166420547Y-113638657D01*
X166420547Y-113638657D02*
X166396738Y-113733895D01*
X166396738Y-113733895D02*
X166396738Y-113924371D01*
X166396738Y-113924371D02*
X166420547Y-113971990D01*
X166420547Y-113971990D02*
X166444357Y-113995800D01*
X166444357Y-113995800D02*
X166491976Y-114019609D01*
X166491976Y-114019609D02*
X166587214Y-114019609D01*
X166587214Y-114019609D02*
X166634833Y-113995800D01*
X166634833Y-113995800D02*
X166658642Y-113971990D01*
X166658642Y-113971990D02*
X166682452Y-113924371D01*
X166682452Y-113924371D02*
X166682452Y-113805323D01*
X166682452Y-113805323D02*
X166658642Y-113757704D01*
X166658642Y-113757704D02*
X166634833Y-113733895D01*
X166634833Y-113733895D02*
X166587214Y-113710085D01*
X166587214Y-113710085D02*
X166491976Y-113710085D01*
X166491976Y-113710085D02*
X166444357Y-113733895D01*
X166444357Y-113733895D02*
X166420547Y-113757704D01*
X166420547Y-113757704D02*
X166396738Y-113805323D01*
X163999609Y-113412452D02*
X164404371Y-113412452D01*
X164404371Y-113412452D02*
X164451990Y-113388642D01*
X164451990Y-113388642D02*
X164475800Y-113364833D01*
X164475800Y-113364833D02*
X164499609Y-113317214D01*
X164499609Y-113317214D02*
X164499609Y-113221976D01*
X164499609Y-113221976D02*
X164475800Y-113174357D01*
X164475800Y-113174357D02*
X164451990Y-113150547D01*
X164451990Y-113150547D02*
X164404371Y-113126738D01*
X164404371Y-113126738D02*
X163999609Y-113126738D01*
X163999609Y-112674356D02*
X163999609Y-112769594D01*
X163999609Y-112769594D02*
X164023419Y-112817213D01*
X164023419Y-112817213D02*
X164047228Y-112841023D01*
X164047228Y-112841023D02*
X164118657Y-112888642D01*
X164118657Y-112888642D02*
X164213895Y-112912451D01*
X164213895Y-112912451D02*
X164404371Y-112912451D01*
X164404371Y-112912451D02*
X164451990Y-112888642D01*
X164451990Y-112888642D02*
X164475800Y-112864832D01*
X164475800Y-112864832D02*
X164499609Y-112817213D01*
X164499609Y-112817213D02*
X164499609Y-112721975D01*
X164499609Y-112721975D02*
X164475800Y-112674356D01*
X164475800Y-112674356D02*
X164451990Y-112650547D01*
X164451990Y-112650547D02*
X164404371Y-112626737D01*
X164404371Y-112626737D02*
X164285323Y-112626737D01*
X164285323Y-112626737D02*
X164237704Y-112650547D01*
X164237704Y-112650547D02*
X164213895Y-112674356D01*
X164213895Y-112674356D02*
X164190085Y-112721975D01*
X164190085Y-112721975D02*
X164190085Y-112817213D01*
X164190085Y-112817213D02*
X164213895Y-112864832D01*
X164213895Y-112864832D02*
X164237704Y-112888642D01*
X164237704Y-112888642D02*
X164285323Y-112912451D01*
X153490452Y-110970109D02*
X153490452Y-110470109D01*
X153490452Y-110470109D02*
X153609500Y-110470109D01*
X153609500Y-110470109D02*
X153680928Y-110493919D01*
X153680928Y-110493919D02*
X153728547Y-110541538D01*
X153728547Y-110541538D02*
X153752357Y-110589157D01*
X153752357Y-110589157D02*
X153776166Y-110684395D01*
X153776166Y-110684395D02*
X153776166Y-110755823D01*
X153776166Y-110755823D02*
X153752357Y-110851061D01*
X153752357Y-110851061D02*
X153728547Y-110898680D01*
X153728547Y-110898680D02*
X153680928Y-110946300D01*
X153680928Y-110946300D02*
X153609500Y-110970109D01*
X153609500Y-110970109D02*
X153490452Y-110970109D01*
X154204738Y-110470109D02*
X154109500Y-110470109D01*
X154109500Y-110470109D02*
X154061881Y-110493919D01*
X154061881Y-110493919D02*
X154038071Y-110517728D01*
X154038071Y-110517728D02*
X153990452Y-110589157D01*
X153990452Y-110589157D02*
X153966643Y-110684395D01*
X153966643Y-110684395D02*
X153966643Y-110874871D01*
X153966643Y-110874871D02*
X153990452Y-110922490D01*
X153990452Y-110922490D02*
X154014262Y-110946300D01*
X154014262Y-110946300D02*
X154061881Y-110970109D01*
X154061881Y-110970109D02*
X154157119Y-110970109D01*
X154157119Y-110970109D02*
X154204738Y-110946300D01*
X154204738Y-110946300D02*
X154228547Y-110922490D01*
X154228547Y-110922490D02*
X154252357Y-110874871D01*
X154252357Y-110874871D02*
X154252357Y-110755823D01*
X154252357Y-110755823D02*
X154228547Y-110708204D01*
X154228547Y-110708204D02*
X154204738Y-110684395D01*
X154204738Y-110684395D02*
X154157119Y-110660585D01*
X154157119Y-110660585D02*
X154061881Y-110660585D01*
X154061881Y-110660585D02*
X154014262Y-110684395D01*
X154014262Y-110684395D02*
X153990452Y-110708204D01*
X153990452Y-110708204D02*
X153966643Y-110755823D01*
X180120952Y-135476109D02*
X180120952Y-134976109D01*
X180120952Y-134976109D02*
X180240000Y-134976109D01*
X180240000Y-134976109D02*
X180311428Y-134999919D01*
X180311428Y-134999919D02*
X180359047Y-135047538D01*
X180359047Y-135047538D02*
X180382857Y-135095157D01*
X180382857Y-135095157D02*
X180406666Y-135190395D01*
X180406666Y-135190395D02*
X180406666Y-135261823D01*
X180406666Y-135261823D02*
X180382857Y-135357061D01*
X180382857Y-135357061D02*
X180359047Y-135404680D01*
X180359047Y-135404680D02*
X180311428Y-135452300D01*
X180311428Y-135452300D02*
X180240000Y-135476109D01*
X180240000Y-135476109D02*
X180120952Y-135476109D01*
X180644762Y-135476109D02*
X180740000Y-135476109D01*
X180740000Y-135476109D02*
X180787619Y-135452300D01*
X180787619Y-135452300D02*
X180811428Y-135428490D01*
X180811428Y-135428490D02*
X180859047Y-135357061D01*
X180859047Y-135357061D02*
X180882857Y-135261823D01*
X180882857Y-135261823D02*
X180882857Y-135071347D01*
X180882857Y-135071347D02*
X180859047Y-135023728D01*
X180859047Y-135023728D02*
X180835238Y-134999919D01*
X180835238Y-134999919D02*
X180787619Y-134976109D01*
X180787619Y-134976109D02*
X180692381Y-134976109D01*
X180692381Y-134976109D02*
X180644762Y-134999919D01*
X180644762Y-134999919D02*
X180620952Y-135023728D01*
X180620952Y-135023728D02*
X180597143Y-135071347D01*
X180597143Y-135071347D02*
X180597143Y-135190395D01*
X180597143Y-135190395D02*
X180620952Y-135238014D01*
X180620952Y-135238014D02*
X180644762Y-135261823D01*
X180644762Y-135261823D02*
X180692381Y-135285633D01*
X180692381Y-135285633D02*
X180787619Y-135285633D01*
X180787619Y-135285633D02*
X180835238Y-135261823D01*
X180835238Y-135261823D02*
X180859047Y-135238014D01*
X180859047Y-135238014D02*
X180882857Y-135190395D01*
X166810571Y-123416109D02*
X166643905Y-123178014D01*
X166524857Y-123416109D02*
X166524857Y-122916109D01*
X166524857Y-122916109D02*
X166715333Y-122916109D01*
X166715333Y-122916109D02*
X166762952Y-122939919D01*
X166762952Y-122939919D02*
X166786762Y-122963728D01*
X166786762Y-122963728D02*
X166810571Y-123011347D01*
X166810571Y-123011347D02*
X166810571Y-123082776D01*
X166810571Y-123082776D02*
X166786762Y-123130395D01*
X166786762Y-123130395D02*
X166762952Y-123154204D01*
X166762952Y-123154204D02*
X166715333Y-123178014D01*
X166715333Y-123178014D02*
X166524857Y-123178014D01*
X167286762Y-123416109D02*
X167001048Y-123416109D01*
X167143905Y-123416109D02*
X167143905Y-122916109D01*
X167143905Y-122916109D02*
X167096286Y-122987538D01*
X167096286Y-122987538D02*
X167048667Y-123035157D01*
X167048667Y-123035157D02*
X167001048Y-123058966D01*
X167453428Y-122916109D02*
X167786761Y-122916109D01*
X167786761Y-122916109D02*
X167572476Y-123416109D01*
X180018571Y-131989109D02*
X179851905Y-131751014D01*
X179732857Y-131989109D02*
X179732857Y-131489109D01*
X179732857Y-131489109D02*
X179923333Y-131489109D01*
X179923333Y-131489109D02*
X179970952Y-131512919D01*
X179970952Y-131512919D02*
X179994762Y-131536728D01*
X179994762Y-131536728D02*
X180018571Y-131584347D01*
X180018571Y-131584347D02*
X180018571Y-131655776D01*
X180018571Y-131655776D02*
X179994762Y-131703395D01*
X179994762Y-131703395D02*
X179970952Y-131727204D01*
X179970952Y-131727204D02*
X179923333Y-131751014D01*
X179923333Y-131751014D02*
X179732857Y-131751014D01*
X180494762Y-131989109D02*
X180209048Y-131989109D01*
X180351905Y-131989109D02*
X180351905Y-131489109D01*
X180351905Y-131489109D02*
X180304286Y-131560538D01*
X180304286Y-131560538D02*
X180256667Y-131608157D01*
X180256667Y-131608157D02*
X180209048Y-131631966D01*
X180732857Y-131989109D02*
X180828095Y-131989109D01*
X180828095Y-131989109D02*
X180875714Y-131965300D01*
X180875714Y-131965300D02*
X180899523Y-131941490D01*
X180899523Y-131941490D02*
X180947142Y-131870061D01*
X180947142Y-131870061D02*
X180970952Y-131774823D01*
X180970952Y-131774823D02*
X180970952Y-131584347D01*
X180970952Y-131584347D02*
X180947142Y-131536728D01*
X180947142Y-131536728D02*
X180923333Y-131512919D01*
X180923333Y-131512919D02*
X180875714Y-131489109D01*
X180875714Y-131489109D02*
X180780476Y-131489109D01*
X180780476Y-131489109D02*
X180732857Y-131512919D01*
X180732857Y-131512919D02*
X180709047Y-131536728D01*
X180709047Y-131536728D02*
X180685238Y-131584347D01*
X180685238Y-131584347D02*
X180685238Y-131703395D01*
X180685238Y-131703395D02*
X180709047Y-131751014D01*
X180709047Y-131751014D02*
X180732857Y-131774823D01*
X180732857Y-131774823D02*
X180780476Y-131798633D01*
X180780476Y-131798633D02*
X180875714Y-131798633D01*
X180875714Y-131798633D02*
X180923333Y-131774823D01*
X180923333Y-131774823D02*
X180947142Y-131751014D01*
X180947142Y-131751014D02*
X180970952Y-131703395D01*
X169318857Y-124940109D02*
X169318857Y-124440109D01*
X169318857Y-124440109D02*
X169437905Y-124440109D01*
X169437905Y-124440109D02*
X169509333Y-124463919D01*
X169509333Y-124463919D02*
X169556952Y-124511538D01*
X169556952Y-124511538D02*
X169580762Y-124559157D01*
X169580762Y-124559157D02*
X169604571Y-124654395D01*
X169604571Y-124654395D02*
X169604571Y-124725823D01*
X169604571Y-124725823D02*
X169580762Y-124821061D01*
X169580762Y-124821061D02*
X169556952Y-124868680D01*
X169556952Y-124868680D02*
X169509333Y-124916300D01*
X169509333Y-124916300D02*
X169437905Y-124940109D01*
X169437905Y-124940109D02*
X169318857Y-124940109D01*
X170080762Y-124940109D02*
X169795048Y-124940109D01*
X169937905Y-124940109D02*
X169937905Y-124440109D01*
X169937905Y-124440109D02*
X169890286Y-124511538D01*
X169890286Y-124511538D02*
X169842667Y-124559157D01*
X169842667Y-124559157D02*
X169795048Y-124582966D01*
X170556952Y-124940109D02*
X170271238Y-124940109D01*
X170414095Y-124940109D02*
X170414095Y-124440109D01*
X170414095Y-124440109D02*
X170366476Y-124511538D01*
X170366476Y-124511538D02*
X170318857Y-124559157D01*
X170318857Y-124559157D02*
X170271238Y-124582966D01*
X177192857Y-124686109D02*
X177192857Y-124186109D01*
X177192857Y-124186109D02*
X177311905Y-124186109D01*
X177311905Y-124186109D02*
X177383333Y-124209919D01*
X177383333Y-124209919D02*
X177430952Y-124257538D01*
X177430952Y-124257538D02*
X177454762Y-124305157D01*
X177454762Y-124305157D02*
X177478571Y-124400395D01*
X177478571Y-124400395D02*
X177478571Y-124471823D01*
X177478571Y-124471823D02*
X177454762Y-124567061D01*
X177454762Y-124567061D02*
X177430952Y-124614680D01*
X177430952Y-124614680D02*
X177383333Y-124662300D01*
X177383333Y-124662300D02*
X177311905Y-124686109D01*
X177311905Y-124686109D02*
X177192857Y-124686109D01*
X177954762Y-124686109D02*
X177669048Y-124686109D01*
X177811905Y-124686109D02*
X177811905Y-124186109D01*
X177811905Y-124186109D02*
X177764286Y-124257538D01*
X177764286Y-124257538D02*
X177716667Y-124305157D01*
X177716667Y-124305157D02*
X177669048Y-124328966D01*
X178264285Y-124186109D02*
X178311904Y-124186109D01*
X178311904Y-124186109D02*
X178359523Y-124209919D01*
X178359523Y-124209919D02*
X178383333Y-124233728D01*
X178383333Y-124233728D02*
X178407142Y-124281347D01*
X178407142Y-124281347D02*
X178430952Y-124376585D01*
X178430952Y-124376585D02*
X178430952Y-124495633D01*
X178430952Y-124495633D02*
X178407142Y-124590871D01*
X178407142Y-124590871D02*
X178383333Y-124638490D01*
X178383333Y-124638490D02*
X178359523Y-124662300D01*
X178359523Y-124662300D02*
X178311904Y-124686109D01*
X178311904Y-124686109D02*
X178264285Y-124686109D01*
X178264285Y-124686109D02*
X178216666Y-124662300D01*
X178216666Y-124662300D02*
X178192857Y-124638490D01*
X178192857Y-124638490D02*
X178169047Y-124590871D01*
X178169047Y-124590871D02*
X178145238Y-124495633D01*
X178145238Y-124495633D02*
X178145238Y-124376585D01*
X178145238Y-124376585D02*
X178169047Y-124281347D01*
X178169047Y-124281347D02*
X178192857Y-124233728D01*
X178192857Y-124233728D02*
X178216666Y-124209919D01*
X178216666Y-124209919D02*
X178264285Y-124186109D01*
X150544380Y-117916328D02*
X150496761Y-117892519D01*
X150496761Y-117892519D02*
X150449142Y-117844900D01*
X150449142Y-117844900D02*
X150377714Y-117773471D01*
X150377714Y-117773471D02*
X150330095Y-117749661D01*
X150330095Y-117749661D02*
X150282476Y-117749661D01*
X150306285Y-117868709D02*
X150258666Y-117844900D01*
X150258666Y-117844900D02*
X150211047Y-117797280D01*
X150211047Y-117797280D02*
X150187238Y-117702042D01*
X150187238Y-117702042D02*
X150187238Y-117535376D01*
X150187238Y-117535376D02*
X150211047Y-117440138D01*
X150211047Y-117440138D02*
X150258666Y-117392519D01*
X150258666Y-117392519D02*
X150306285Y-117368709D01*
X150306285Y-117368709D02*
X150401523Y-117368709D01*
X150401523Y-117368709D02*
X150449142Y-117392519D01*
X150449142Y-117392519D02*
X150496761Y-117440138D01*
X150496761Y-117440138D02*
X150520571Y-117535376D01*
X150520571Y-117535376D02*
X150520571Y-117702042D01*
X150520571Y-117702042D02*
X150496761Y-117797280D01*
X150496761Y-117797280D02*
X150449142Y-117844900D01*
X150449142Y-117844900D02*
X150401523Y-117868709D01*
X150401523Y-117868709D02*
X150306285Y-117868709D01*
X150711048Y-117416328D02*
X150734857Y-117392519D01*
X150734857Y-117392519D02*
X150782476Y-117368709D01*
X150782476Y-117368709D02*
X150901524Y-117368709D01*
X150901524Y-117368709D02*
X150949143Y-117392519D01*
X150949143Y-117392519D02*
X150972952Y-117416328D01*
X150972952Y-117416328D02*
X150996762Y-117463947D01*
X150996762Y-117463947D02*
X150996762Y-117511566D01*
X150996762Y-117511566D02*
X150972952Y-117582995D01*
X150972952Y-117582995D02*
X150687238Y-117868709D01*
X150687238Y-117868709D02*
X150996762Y-117868709D01*
X138695952Y-127251509D02*
X138695952Y-126751509D01*
X138695952Y-126751509D02*
X138815000Y-126751509D01*
X138815000Y-126751509D02*
X138886428Y-126775319D01*
X138886428Y-126775319D02*
X138934047Y-126822938D01*
X138934047Y-126822938D02*
X138957857Y-126870557D01*
X138957857Y-126870557D02*
X138981666Y-126965795D01*
X138981666Y-126965795D02*
X138981666Y-127037223D01*
X138981666Y-127037223D02*
X138957857Y-127132461D01*
X138957857Y-127132461D02*
X138934047Y-127180080D01*
X138934047Y-127180080D02*
X138886428Y-127227700D01*
X138886428Y-127227700D02*
X138815000Y-127251509D01*
X138815000Y-127251509D02*
X138695952Y-127251509D01*
X139434047Y-126751509D02*
X139195952Y-126751509D01*
X139195952Y-126751509D02*
X139172143Y-126989604D01*
X139172143Y-126989604D02*
X139195952Y-126965795D01*
X139195952Y-126965795D02*
X139243571Y-126941985D01*
X139243571Y-126941985D02*
X139362619Y-126941985D01*
X139362619Y-126941985D02*
X139410238Y-126965795D01*
X139410238Y-126965795D02*
X139434047Y-126989604D01*
X139434047Y-126989604D02*
X139457857Y-127037223D01*
X139457857Y-127037223D02*
X139457857Y-127156271D01*
X139457857Y-127156271D02*
X139434047Y-127203890D01*
X139434047Y-127203890D02*
X139410238Y-127227700D01*
X139410238Y-127227700D02*
X139362619Y-127251509D01*
X139362619Y-127251509D02*
X139243571Y-127251509D01*
X139243571Y-127251509D02*
X139195952Y-127227700D01*
X139195952Y-127227700D02*
X139172143Y-127203890D01*
X177732571Y-91666109D02*
X177565905Y-91428014D01*
X177446857Y-91666109D02*
X177446857Y-91166109D01*
X177446857Y-91166109D02*
X177637333Y-91166109D01*
X177637333Y-91166109D02*
X177684952Y-91189919D01*
X177684952Y-91189919D02*
X177708762Y-91213728D01*
X177708762Y-91213728D02*
X177732571Y-91261347D01*
X177732571Y-91261347D02*
X177732571Y-91332776D01*
X177732571Y-91332776D02*
X177708762Y-91380395D01*
X177708762Y-91380395D02*
X177684952Y-91404204D01*
X177684952Y-91404204D02*
X177637333Y-91428014D01*
X177637333Y-91428014D02*
X177446857Y-91428014D01*
X178208762Y-91666109D02*
X177923048Y-91666109D01*
X178065905Y-91666109D02*
X178065905Y-91166109D01*
X178065905Y-91166109D02*
X178018286Y-91237538D01*
X178018286Y-91237538D02*
X177970667Y-91285157D01*
X177970667Y-91285157D02*
X177923048Y-91308966D01*
X178494476Y-91380395D02*
X178446857Y-91356585D01*
X178446857Y-91356585D02*
X178423047Y-91332776D01*
X178423047Y-91332776D02*
X178399238Y-91285157D01*
X178399238Y-91285157D02*
X178399238Y-91261347D01*
X178399238Y-91261347D02*
X178423047Y-91213728D01*
X178423047Y-91213728D02*
X178446857Y-91189919D01*
X178446857Y-91189919D02*
X178494476Y-91166109D01*
X178494476Y-91166109D02*
X178589714Y-91166109D01*
X178589714Y-91166109D02*
X178637333Y-91189919D01*
X178637333Y-91189919D02*
X178661142Y-91213728D01*
X178661142Y-91213728D02*
X178684952Y-91261347D01*
X178684952Y-91261347D02*
X178684952Y-91285157D01*
X178684952Y-91285157D02*
X178661142Y-91332776D01*
X178661142Y-91332776D02*
X178637333Y-91356585D01*
X178637333Y-91356585D02*
X178589714Y-91380395D01*
X178589714Y-91380395D02*
X178494476Y-91380395D01*
X178494476Y-91380395D02*
X178446857Y-91404204D01*
X178446857Y-91404204D02*
X178423047Y-91428014D01*
X178423047Y-91428014D02*
X178399238Y-91475633D01*
X178399238Y-91475633D02*
X178399238Y-91570871D01*
X178399238Y-91570871D02*
X178423047Y-91618490D01*
X178423047Y-91618490D02*
X178446857Y-91642300D01*
X178446857Y-91642300D02*
X178494476Y-91666109D01*
X178494476Y-91666109D02*
X178589714Y-91666109D01*
X178589714Y-91666109D02*
X178637333Y-91642300D01*
X178637333Y-91642300D02*
X178661142Y-91618490D01*
X178661142Y-91618490D02*
X178684952Y-91570871D01*
X178684952Y-91570871D02*
X178684952Y-91475633D01*
X178684952Y-91475633D02*
X178661142Y-91428014D01*
X178661142Y-91428014D02*
X178637333Y-91404204D01*
X178637333Y-91404204D02*
X178589714Y-91380395D01*
X180256666Y-92682109D02*
X180018571Y-92682109D01*
X180018571Y-92682109D02*
X180018571Y-92182109D01*
X180375714Y-92182109D02*
X180685238Y-92182109D01*
X180685238Y-92182109D02*
X180518571Y-92372585D01*
X180518571Y-92372585D02*
X180590000Y-92372585D01*
X180590000Y-92372585D02*
X180637619Y-92396395D01*
X180637619Y-92396395D02*
X180661428Y-92420204D01*
X180661428Y-92420204D02*
X180685238Y-92467823D01*
X180685238Y-92467823D02*
X180685238Y-92586871D01*
X180685238Y-92586871D02*
X180661428Y-92634490D01*
X180661428Y-92634490D02*
X180637619Y-92658300D01*
X180637619Y-92658300D02*
X180590000Y-92682109D01*
X180590000Y-92682109D02*
X180447143Y-92682109D01*
X180447143Y-92682109D02*
X180399524Y-92658300D01*
X180399524Y-92658300D02*
X180375714Y-92634490D01*
D12*
X146222819Y-123878933D02*
X146937104Y-123878933D01*
X146937104Y-123878933D02*
X147079961Y-123926552D01*
X147079961Y-123926552D02*
X147175200Y-124021790D01*
X147175200Y-124021790D02*
X147222819Y-124164647D01*
X147222819Y-124164647D02*
X147222819Y-124259885D01*
X146222819Y-123497980D02*
X146222819Y-122878933D01*
X146222819Y-122878933D02*
X146603771Y-123212266D01*
X146603771Y-123212266D02*
X146603771Y-123069409D01*
X146603771Y-123069409D02*
X146651390Y-122974171D01*
X146651390Y-122974171D02*
X146699009Y-122926552D01*
X146699009Y-122926552D02*
X146794247Y-122878933D01*
X146794247Y-122878933D02*
X147032342Y-122878933D01*
X147032342Y-122878933D02*
X147127580Y-122926552D01*
X147127580Y-122926552D02*
X147175200Y-122974171D01*
X147175200Y-122974171D02*
X147222819Y-123069409D01*
X147222819Y-123069409D02*
X147222819Y-123355123D01*
X147222819Y-123355123D02*
X147175200Y-123450361D01*
X147175200Y-123450361D02*
X147127580Y-123497980D01*
D10*
X148358909Y-120285628D02*
X148120814Y-120452294D01*
X148358909Y-120571342D02*
X147858909Y-120571342D01*
X147858909Y-120571342D02*
X147858909Y-120380866D01*
X147858909Y-120380866D02*
X147882719Y-120333247D01*
X147882719Y-120333247D02*
X147906528Y-120309437D01*
X147906528Y-120309437D02*
X147954147Y-120285628D01*
X147954147Y-120285628D02*
X148025576Y-120285628D01*
X148025576Y-120285628D02*
X148073195Y-120309437D01*
X148073195Y-120309437D02*
X148097004Y-120333247D01*
X148097004Y-120333247D02*
X148120814Y-120380866D01*
X148120814Y-120380866D02*
X148120814Y-120571342D01*
X147906528Y-120095151D02*
X147882719Y-120071342D01*
X147882719Y-120071342D02*
X147858909Y-120023723D01*
X147858909Y-120023723D02*
X147858909Y-119904675D01*
X147858909Y-119904675D02*
X147882719Y-119857056D01*
X147882719Y-119857056D02*
X147906528Y-119833247D01*
X147906528Y-119833247D02*
X147954147Y-119809437D01*
X147954147Y-119809437D02*
X148001766Y-119809437D01*
X148001766Y-119809437D02*
X148073195Y-119833247D01*
X148073195Y-119833247D02*
X148358909Y-120118961D01*
X148358909Y-120118961D02*
X148358909Y-119809437D01*
X148358909Y-119333247D02*
X148358909Y-119618961D01*
X148358909Y-119476104D02*
X147858909Y-119476104D01*
X147858909Y-119476104D02*
X147930338Y-119523723D01*
X147930338Y-119523723D02*
X147977957Y-119571342D01*
X147977957Y-119571342D02*
X148001766Y-119618961D01*
X140445371Y-129118909D02*
X140278705Y-128880814D01*
X140159657Y-129118909D02*
X140159657Y-128618909D01*
X140159657Y-128618909D02*
X140350133Y-128618909D01*
X140350133Y-128618909D02*
X140397752Y-128642719D01*
X140397752Y-128642719D02*
X140421562Y-128666528D01*
X140421562Y-128666528D02*
X140445371Y-128714147D01*
X140445371Y-128714147D02*
X140445371Y-128785576D01*
X140445371Y-128785576D02*
X140421562Y-128833195D01*
X140421562Y-128833195D02*
X140397752Y-128857004D01*
X140397752Y-128857004D02*
X140350133Y-128880814D01*
X140350133Y-128880814D02*
X140159657Y-128880814D01*
X140635848Y-128666528D02*
X140659657Y-128642719D01*
X140659657Y-128642719D02*
X140707276Y-128618909D01*
X140707276Y-128618909D02*
X140826324Y-128618909D01*
X140826324Y-128618909D02*
X140873943Y-128642719D01*
X140873943Y-128642719D02*
X140897752Y-128666528D01*
X140897752Y-128666528D02*
X140921562Y-128714147D01*
X140921562Y-128714147D02*
X140921562Y-128761766D01*
X140921562Y-128761766D02*
X140897752Y-128833195D01*
X140897752Y-128833195D02*
X140612038Y-129118909D01*
X140612038Y-129118909D02*
X140921562Y-129118909D01*
X141231085Y-128618909D02*
X141278704Y-128618909D01*
X141278704Y-128618909D02*
X141326323Y-128642719D01*
X141326323Y-128642719D02*
X141350133Y-128666528D01*
X141350133Y-128666528D02*
X141373942Y-128714147D01*
X141373942Y-128714147D02*
X141397752Y-128809385D01*
X141397752Y-128809385D02*
X141397752Y-128928433D01*
X141397752Y-128928433D02*
X141373942Y-129023671D01*
X141373942Y-129023671D02*
X141350133Y-129071290D01*
X141350133Y-129071290D02*
X141326323Y-129095100D01*
X141326323Y-129095100D02*
X141278704Y-129118909D01*
X141278704Y-129118909D02*
X141231085Y-129118909D01*
X141231085Y-129118909D02*
X141183466Y-129095100D01*
X141183466Y-129095100D02*
X141159657Y-129071290D01*
X141159657Y-129071290D02*
X141135847Y-129023671D01*
X141135847Y-129023671D02*
X141112038Y-128928433D01*
X141112038Y-128928433D02*
X141112038Y-128809385D01*
X141112038Y-128809385D02*
X141135847Y-128714147D01*
X141135847Y-128714147D02*
X141159657Y-128666528D01*
X141159657Y-128666528D02*
X141183466Y-128642719D01*
X141183466Y-128642719D02*
X141231085Y-128618909D01*
X163195047Y-94976109D02*
X163195047Y-95380871D01*
X163195047Y-95380871D02*
X163218857Y-95428490D01*
X163218857Y-95428490D02*
X163242666Y-95452300D01*
X163242666Y-95452300D02*
X163290285Y-95476109D01*
X163290285Y-95476109D02*
X163385523Y-95476109D01*
X163385523Y-95476109D02*
X163433142Y-95452300D01*
X163433142Y-95452300D02*
X163456952Y-95428490D01*
X163456952Y-95428490D02*
X163480761Y-95380871D01*
X163480761Y-95380871D02*
X163480761Y-94976109D01*
X163980762Y-95476109D02*
X163695048Y-95476109D01*
X163837905Y-95476109D02*
X163837905Y-94976109D01*
X163837905Y-94976109D02*
X163790286Y-95047538D01*
X163790286Y-95047538D02*
X163742667Y-95095157D01*
X163742667Y-95095157D02*
X163695048Y-95118966D01*
D13*
X176580000Y-136093252D02*
X176580000Y-134670748D01*
X178400000Y-136093252D02*
X178400000Y-134670748D01*
X174156164Y-139072000D02*
X174371836Y-139072000D01*
X174156164Y-139792000D02*
X174371836Y-139792000D01*
X177906000Y-129968164D02*
X177906000Y-130183836D01*
X177186000Y-129968164D02*
X177186000Y-130183836D01*
X167202748Y-128240000D02*
X168625252Y-128240000D01*
X167202748Y-130060000D02*
X168625252Y-130060000D01*
X166091664Y-130753500D02*
X166307336Y-130753500D01*
X166091664Y-131473500D02*
X166307336Y-131473500D01*
X172790748Y-132426000D02*
X174213252Y-132426000D01*
X172790748Y-134246000D02*
X174213252Y-134246000D01*
X162523752Y-131531000D02*
X162001248Y-131531000D01*
X162523752Y-130061000D02*
X162001248Y-130061000D01*
X158543000Y-134105252D02*
X158543000Y-133582748D01*
X160013000Y-134105252D02*
X160013000Y-133582748D01*
X157707000Y-130802748D02*
X157707000Y-131325252D01*
X156237000Y-130802748D02*
X156237000Y-131325252D01*
X150982164Y-133206000D02*
X151197836Y-133206000D01*
X150982164Y-133926000D02*
X151197836Y-133926000D01*
X156491000Y-103385252D02*
X156491000Y-102862748D01*
X157961000Y-103385252D02*
X157961000Y-102862748D01*
X158644000Y-103993836D02*
X158644000Y-103778164D01*
X159364000Y-103993836D02*
X159364000Y-103778164D01*
D14*
X181797640Y-108380500D02*
X181797640Y-115380740D01*
X168968100Y-108380500D02*
X181797640Y-108380500D01*
X180517480Y-110801120D02*
X181787480Y-110801120D01*
X180517480Y-110801120D02*
X180517480Y-119802880D01*
X181797640Y-115380740D02*
X181797640Y-122380980D01*
X180517480Y-119802880D02*
X181797640Y-119802880D01*
X181797640Y-122380980D02*
X168968100Y-122380980D01*
X168968100Y-122380980D02*
X168968100Y-108380500D01*
D13*
X142688000Y-111192000D02*
X144018000Y-111192000D01*
X142688000Y-112522000D02*
X142688000Y-111192000D01*
X142688000Y-113792000D02*
X142688000Y-134172000D01*
X142688000Y-113792000D02*
X145348000Y-113792000D01*
X142688000Y-134172000D02*
X145348000Y-134172000D01*
X145348000Y-113792000D02*
X145348000Y-134172000D01*
X173915936Y-128420000D02*
X175120064Y-128420000D01*
X173915936Y-131140000D02*
X175120064Y-131140000D01*
X153590000Y-129490000D02*
X151915000Y-129490000D01*
X153590000Y-129490000D02*
X154240000Y-129490000D01*
X153590000Y-132610000D02*
X152940000Y-132610000D01*
X153590000Y-132610000D02*
X154240000Y-132610000D01*
X151212500Y-130528742D02*
X151212500Y-131003258D01*
X150167500Y-130528742D02*
X150167500Y-131003258D01*
X163864500Y-138432742D02*
X163864500Y-138907258D01*
X162819500Y-138432742D02*
X162819500Y-138907258D01*
X169327742Y-136623500D02*
X169802258Y-136623500D01*
X169327742Y-137668500D02*
X169802258Y-137668500D01*
X169040258Y-134176000D02*
X168565742Y-134176000D01*
X169040258Y-133131000D02*
X168565742Y-133131000D01*
X138438658Y-118632500D02*
X137964142Y-118632500D01*
X138438658Y-117587500D02*
X137964142Y-117587500D01*
X137143258Y-108472500D02*
X136668742Y-108472500D01*
X137143258Y-107427500D02*
X136668742Y-107427500D01*
X175316000Y-136638000D02*
X175316000Y-134963000D01*
X175316000Y-136638000D02*
X175316000Y-137288000D01*
X172196000Y-136638000D02*
X172196000Y-135988000D01*
X172196000Y-136638000D02*
X172196000Y-137288000D01*
X181829499Y-127633501D02*
X146149499Y-127633501D01*
X146149499Y-127633501D02*
X146149499Y-140553501D01*
X181829499Y-133093501D02*
X181829499Y-127633501D01*
X181829499Y-140553501D02*
X181829499Y-135093501D01*
X146149499Y-140553501D02*
X181829499Y-140553501D01*
X181829499Y-133093501D02*
G75*
G03*
X181829499Y-135093501I0J-1000000D01*
G01*
X141060700Y-111725942D02*
X141060700Y-112200458D01*
X140015700Y-111725942D02*
X140015700Y-112200458D01*
X162684500Y-132678500D02*
X163134500Y-132678500D01*
X165904500Y-133128500D02*
X165904500Y-132678500D01*
X162684500Y-133128500D02*
X162684500Y-132678500D01*
X165904500Y-135448500D02*
X165904500Y-135898500D01*
X162684500Y-135448500D02*
X162684500Y-135898500D01*
X165904500Y-135898500D02*
X165454500Y-135898500D01*
X162684500Y-135898500D02*
X163134500Y-135898500D01*
X178912000Y-96208000D02*
X175712000Y-96208000D01*
X180992000Y-98008000D02*
X180992000Y-101608000D01*
X174112000Y-98508000D02*
X174112000Y-101108000D01*
X178912000Y-103408000D02*
X175712000Y-103408000D01*
X158644000Y-101707836D02*
X158644000Y-101492164D01*
X159364000Y-101707836D02*
X159364000Y-101492164D01*
X151398500Y-103394742D02*
X151398500Y-103869258D01*
X150353500Y-103394742D02*
X150353500Y-103869258D01*
X155178000Y-101146000D02*
X153178000Y-101146000D01*
X155178000Y-101146000D02*
X155178000Y-105156000D01*
X153178000Y-101146000D02*
X153178000Y-105156000D01*
X145611500Y-101066500D02*
X145611500Y-101854000D01*
X146005250Y-101460250D02*
X145217750Y-101460250D01*
X146109563Y-102094000D02*
X144824000Y-102094000D01*
X146109563Y-102094000D02*
X147174000Y-103158437D01*
X141418437Y-102094000D02*
X142704000Y-102094000D01*
X141418437Y-102094000D02*
X140354000Y-103158437D01*
X147174000Y-103158437D02*
X147174000Y-108914000D01*
X140354000Y-103158437D02*
X140354000Y-108914000D01*
X147174000Y-108914000D02*
X144824000Y-108914000D01*
X140354000Y-108914000D02*
X142704000Y-108914000D01*
X138636000Y-111980000D02*
X138480000Y-111980000D01*
X136320000Y-111980000D02*
X136164000Y-111980000D01*
X138478608Y-115212334D02*
G75*
G03*
X138635515Y-111980001I-1078608J1672334D01*
G01*
X138479836Y-114581129D02*
G75*
G03*
X138479999Y-112499040I-1079836J1041129D01*
G01*
X136320001Y-112499040D02*
G75*
G03*
X136320164Y-114581129I1079999J-1040960D01*
G01*
X136164485Y-111980001D02*
G75*
G03*
X136321392Y-115212334I1235515J-1559999D01*
G01*
X138650000Y-120980000D02*
X138494000Y-120980000D01*
X136334000Y-120980000D02*
X136178000Y-120980000D01*
X138492608Y-124212334D02*
G75*
G03*
X138649515Y-120980001I-1078608J1672334D01*
G01*
X138493836Y-123581129D02*
G75*
G03*
X138493999Y-121499040I-1079836J1041129D01*
G01*
X136334001Y-121499040D02*
G75*
G03*
X136334164Y-123581129I1079999J-1040960D01*
G01*
X136178485Y-120980001D02*
G75*
G03*
X136335392Y-124212334I1235515J-1559999D01*
G01*
X136178000Y-106208000D02*
X136334000Y-106208000D01*
X138494000Y-106208000D02*
X138650000Y-106208000D01*
X136335392Y-102975666D02*
G75*
G03*
X136178485Y-106207999I1078608J-1672334D01*
G01*
X136334164Y-103606871D02*
G75*
G03*
X136334001Y-105688960I1079836J-1041129D01*
G01*
X138493999Y-105688960D02*
G75*
G03*
X138493836Y-103606871I-1079999J1040960D01*
G01*
X138649515Y-106207999D02*
G75*
G03*
X138492608Y-102975666I-1235515J1559999D01*
G01*
X140015700Y-122766858D02*
X140015700Y-122292342D01*
X141060700Y-122766858D02*
X141060700Y-122292342D01*
X135730000Y-142834000D02*
X139630000Y-142834000D01*
X135730000Y-142834000D02*
X135730000Y-135114000D01*
X142230000Y-142834000D02*
X142740000Y-142834000D01*
X142740000Y-142834000D02*
X142740000Y-142314000D01*
X139400000Y-142314000D02*
X139630000Y-142314000D01*
X139400000Y-142314000D02*
X139400000Y-141774000D01*
X142230000Y-142314000D02*
X142740000Y-142314000D01*
X139400000Y-140674000D02*
X139400000Y-137274000D01*
X139400000Y-136174000D02*
X139400000Y-135634000D01*
X139400000Y-135634000D02*
X139630000Y-135634000D01*
X142230000Y-135634000D02*
X142740000Y-135634000D01*
X142740000Y-135634000D02*
X142740000Y-135114000D01*
X135730000Y-135114000D02*
X139630000Y-135114000D01*
X142230000Y-135114000D02*
X142740000Y-135114000D01*
X136544164Y-100224000D02*
X136759836Y-100224000D01*
X136544164Y-100944000D02*
X136759836Y-100944000D01*
X141144164Y-100224000D02*
X141359836Y-100224000D01*
X141144164Y-100944000D02*
X141359836Y-100944000D01*
X155026000Y-140042000D02*
X155026000Y-138342000D01*
X155026000Y-140042000D02*
X152366000Y-140042000D01*
X155026000Y-138342000D02*
X152366000Y-138342000D01*
X155362000Y-138342000D02*
X155362000Y-140042000D01*
X155362000Y-138342000D02*
X158022000Y-138342000D01*
X155362000Y-140042000D02*
X158022000Y-140042000D01*
X144511500Y-140699258D02*
X144511500Y-140224742D01*
X145556500Y-140699258D02*
X145556500Y-140224742D01*
X144257500Y-137143258D02*
X144257500Y-136668742D01*
X145302500Y-137143258D02*
X145302500Y-136668742D01*
X134238000Y-92054000D02*
X136738000Y-92054000D01*
X134238000Y-92804000D02*
X134238000Y-92054000D01*
X134238000Y-98954000D02*
X134238000Y-98204000D01*
X136738000Y-98954000D02*
X134238000Y-98954000D01*
X139138000Y-92054000D02*
X144238000Y-92054000D01*
X139138000Y-98954000D02*
X146138000Y-98954000D01*
X146138000Y-94454000D02*
X146138000Y-96554000D01*
X161706500Y-115310248D02*
X161706500Y-115832752D01*
X160236500Y-115310248D02*
X160236500Y-115832752D01*
X163109500Y-114701664D02*
X163109500Y-114917336D01*
X162389500Y-114701664D02*
X162389500Y-114917336D01*
X162895664Y-108861500D02*
X163111336Y-108861500D01*
X162895664Y-109581500D02*
X163111336Y-109581500D01*
X158064080Y-109477500D02*
X157782920Y-109477500D01*
X158064080Y-108457500D02*
X157782920Y-108457500D01*
X157274920Y-114045500D02*
X157556080Y-114045500D01*
X157274920Y-115065500D02*
X157556080Y-115065500D01*
X167323500Y-110350920D02*
X167323500Y-110632080D01*
X166303500Y-110350920D02*
X166303500Y-110632080D01*
X159169500Y-113361500D02*
X156169500Y-113361500D01*
X159169500Y-110161500D02*
X156169500Y-110161500D01*
X166574000Y-115588242D02*
X166574000Y-116062758D01*
X165529000Y-115588242D02*
X165529000Y-116062758D01*
X163751000Y-115554758D02*
X163751000Y-115080242D01*
X164796000Y-115554758D02*
X164796000Y-115080242D01*
X162732758Y-108220000D02*
X162258242Y-108220000D01*
X162732758Y-107175000D02*
X162258242Y-107175000D01*
X164513000Y-110728758D02*
X164513000Y-110254242D01*
X165558000Y-110728758D02*
X165558000Y-110254242D01*
X166288758Y-113300000D02*
X165814242Y-113300000D01*
X166288758Y-112255000D02*
X165814242Y-112255000D01*
X161987500Y-110201500D02*
X160187500Y-110201500D01*
X161987500Y-110201500D02*
X162787500Y-110201500D01*
X161987500Y-113321500D02*
X161187500Y-113321500D01*
X161987500Y-113321500D02*
X162787500Y-113321500D01*
X153367500Y-115898000D02*
X155367500Y-115898000D01*
X153367500Y-115898000D02*
X153367500Y-111888000D01*
X155367500Y-115898000D02*
X155367500Y-111888000D01*
X179340000Y-140282000D02*
X181340000Y-140282000D01*
X179340000Y-140282000D02*
X179340000Y-136272000D01*
X181340000Y-140282000D02*
X181340000Y-136272000D01*
X167132000Y-120350000D02*
X167132000Y-120970000D01*
X168052000Y-119430000D02*
G75*
G03*
X168052000Y-119430000I-920000J0D01*
G01*
X180862500Y-129493742D02*
X180862500Y-129968258D01*
X179817500Y-129493742D02*
X179817500Y-129968258D01*
X170602000Y-123102000D02*
X170602000Y-124802000D01*
X170602000Y-123102000D02*
X173262000Y-123102000D01*
X170602000Y-124802000D02*
X173262000Y-124802000D01*
X181696000Y-124802000D02*
X181696000Y-123102000D01*
X181696000Y-124802000D02*
X179036000Y-124802000D01*
X181696000Y-123102000D02*
X179036000Y-123102000D01*
X150645100Y-118292400D02*
X148970100Y-118292400D01*
X150645100Y-118292400D02*
X151295100Y-118292400D01*
X150645100Y-121412400D02*
X149995100Y-121412400D01*
X150645100Y-121412400D02*
X151295100Y-121412400D01*
X138624600Y-128630400D02*
X138468600Y-128630400D01*
X136308600Y-128630400D02*
X136152600Y-128630400D01*
X138467208Y-131862734D02*
G75*
G03*
X138624115Y-128630401I-1078608J1672334D01*
G01*
X138468436Y-131231529D02*
G75*
G03*
X138468599Y-129149440I-1079836J1041129D01*
G01*
X136308601Y-129149440D02*
G75*
G03*
X136308764Y-131231529I1079999J-1040960D01*
G01*
X136153085Y-128630401D02*
G75*
G03*
X136309992Y-131862734I1235515J-1559999D01*
G01*
X178057064Y-94832000D02*
X175002936Y-94832000D01*
X178057064Y-92112000D02*
X175002936Y-92112000D01*
X147768000Y-124875600D02*
X147768000Y-123545600D01*
X149098000Y-124875600D02*
X147768000Y-124875600D01*
X150368000Y-124875600D02*
X163128000Y-124875600D01*
X150368000Y-124875600D02*
X150368000Y-122215600D01*
X163128000Y-124875600D02*
X163128000Y-122215600D01*
X150368000Y-122215600D02*
X163128000Y-122215600D01*
X147537700Y-119828542D02*
X147537700Y-120303058D01*
X146492700Y-119828542D02*
X146492700Y-120303058D01*
X141111500Y-130572742D02*
X141111500Y-131047258D01*
X140066500Y-130572742D02*
X140066500Y-131047258D01*
X160490000Y-95950000D02*
X161180000Y-95950000D01*
X161180000Y-95850000D02*
X161180000Y-95950000D01*
X161180000Y-95850000D02*
X171100000Y-95850000D01*
X161180000Y-106070000D02*
X161180000Y-106170000D01*
X161180000Y-106170000D02*
X171100000Y-106170000D01*
X171100000Y-95850000D02*
X171100000Y-95950000D01*
X171100000Y-106070000D02*
X171100000Y-106170000D01*
D15*
X173288640Y-114080260D03*
X173288640Y-116681220D03*
X173288640Y-112030480D03*
X173288640Y-118731000D03*
X170796900Y-112030480D03*
X170796900Y-118731000D03*
D16*
X176288380Y-108621800D03*
X177098640Y-115380740D03*
X176288380Y-122139680D03*
%LPC*%
D17*
X177490000Y-136857000D03*
X177490000Y-133907000D03*
D18*
X173784000Y-139432000D03*
X174744000Y-139432000D03*
D19*
X177546000Y-129596000D03*
X177546000Y-130556000D03*
D20*
X166439000Y-129150000D03*
X169389000Y-129150000D03*
D18*
X165719500Y-131113500D03*
X166679500Y-131113500D03*
D20*
X172027000Y-133336000D03*
X174977000Y-133336000D03*
D21*
X163212500Y-130796000D03*
X161312500Y-130796000D03*
D22*
X159278000Y-134794000D03*
X159278000Y-132894000D03*
D23*
X156972000Y-130114000D03*
X156972000Y-132014000D03*
D18*
X150610000Y-133566000D03*
X151570000Y-133566000D03*
D22*
X157226000Y-104074000D03*
X157226000Y-102174000D03*
D24*
X159004000Y-104366000D03*
X159004000Y-103406000D03*
D25*
X176288380Y-108621800D03*
X176288380Y-122139680D03*
D26*
X144018000Y-112522000D03*
D27*
X144018000Y-115062000D03*
X144018000Y-117602000D03*
X144018000Y-120142000D03*
X144018000Y-122682000D03*
X144018000Y-125222000D03*
X144018000Y-127762000D03*
X144018000Y-130302000D03*
X144018000Y-132842000D03*
D28*
X173118000Y-129780000D03*
X175918000Y-129780000D03*
D29*
X152652500Y-130100000D03*
X152652500Y-132000000D03*
X154527500Y-131050000D03*
D30*
X150690000Y-129941000D03*
X150690000Y-131591000D03*
X163342000Y-137845000D03*
X163342000Y-139495000D03*
D31*
X168740000Y-137146000D03*
X170390000Y-137146000D03*
D32*
X169628000Y-133653500D03*
X167978000Y-133653500D03*
X139026400Y-118110000D03*
X137376400Y-118110000D03*
X137731000Y-107950000D03*
X136081000Y-107950000D03*
D33*
X174706000Y-135700500D03*
X172806000Y-135700500D03*
X173756000Y-137575500D03*
D34*
X180499499Y-126473501D03*
D35*
X177959499Y-126473501D03*
X175419499Y-126473501D03*
X172879499Y-126473501D03*
X170339499Y-126473501D03*
X167799499Y-126473501D03*
X165259499Y-126473501D03*
X162719499Y-126473501D03*
X160179499Y-126473501D03*
X157639499Y-126473501D03*
X155099499Y-126473501D03*
X152559499Y-126473501D03*
X150019499Y-126473501D03*
X147479499Y-126473501D03*
X147479499Y-141713501D03*
X150019499Y-141713501D03*
X152559499Y-141713501D03*
X155099499Y-141713501D03*
X157639499Y-141713501D03*
X160179499Y-141713501D03*
X162719499Y-141713501D03*
X165259499Y-141713501D03*
X167799499Y-141713501D03*
X170339499Y-141713501D03*
X172879499Y-141713501D03*
X175419499Y-141713501D03*
X177959499Y-141713501D03*
X180499499Y-141713501D03*
D36*
X177959499Y-139173501D03*
D35*
X147479499Y-129013501D03*
X147479499Y-131553501D03*
X147479499Y-134093501D03*
X147479499Y-136633501D03*
X147479499Y-139173501D03*
D30*
X140538200Y-111138200D03*
X140538200Y-112788200D03*
D37*
X165094500Y-132838500D03*
X164694500Y-132838500D03*
X164294500Y-132838500D03*
X163894500Y-132838500D03*
X163494500Y-132838500D03*
D38*
X162844500Y-133488500D03*
X162844500Y-133888500D03*
X162844500Y-134288500D03*
X162844500Y-134688500D03*
X162844500Y-135088500D03*
D37*
X163494500Y-135738500D03*
X163894500Y-135738500D03*
X164294500Y-135738500D03*
X164694500Y-135738500D03*
X165094500Y-135738500D03*
D38*
X165744500Y-135088500D03*
X165744500Y-134688500D03*
X165744500Y-134288500D03*
X165744500Y-133888500D03*
X165744500Y-133488500D03*
D39*
X164294500Y-134288500D03*
D40*
X177312000Y-99808000D03*
X179852000Y-97268000D03*
X174772000Y-97268000D03*
X179852000Y-102348000D03*
X174772000Y-102348000D03*
D24*
X159004000Y-102080000D03*
X159004000Y-101120000D03*
D30*
X150876000Y-102807000D03*
X150876000Y-104457000D03*
D41*
X154178000Y-101856000D03*
X154178000Y-105156000D03*
D42*
X143764000Y-102804000D03*
X143764000Y-108204000D03*
D43*
X137400000Y-111000000D03*
D44*
X137400000Y-113540000D03*
X137400000Y-116080000D03*
D43*
X137414000Y-120000000D03*
D44*
X137414000Y-122540000D03*
X137414000Y-125080000D03*
D43*
X137414000Y-105918000D03*
D44*
X137414000Y-103378000D03*
D45*
X140538200Y-123354600D03*
X140538200Y-121704600D03*
D46*
X140920000Y-142474000D03*
X140920000Y-135464000D03*
D47*
X138430000Y-141224000D03*
X138430000Y-136724000D03*
D18*
X136172000Y-100584000D03*
X137132000Y-100584000D03*
X140772000Y-100584000D03*
X141732000Y-100584000D03*
D48*
X154466000Y-139192000D03*
X152366000Y-139192000D03*
D49*
X155922000Y-139192000D03*
X158022000Y-139192000D03*
D45*
X145034000Y-141287000D03*
X145034000Y-139637000D03*
X144780000Y-137731000D03*
X144780000Y-136081000D03*
D50*
X141438000Y-93004000D03*
X141438000Y-98004000D03*
D51*
X145438000Y-93254000D03*
D52*
X145438000Y-97754000D03*
X137938000Y-92604000D03*
X137938000Y-98404000D03*
D23*
X160971500Y-114621500D03*
X160971500Y-116521500D03*
D19*
X162749500Y-114329500D03*
X162749500Y-115289500D03*
D18*
X162523500Y-109221500D03*
X163483500Y-109221500D03*
D53*
X158698500Y-108967500D03*
X157148500Y-108967500D03*
D54*
X156640500Y-114555500D03*
X158190500Y-114555500D03*
D55*
X166813500Y-109716500D03*
X166813500Y-111266500D03*
D56*
X158769500Y-111761500D03*
X156569500Y-111761500D03*
D30*
X166051500Y-115000500D03*
X166051500Y-116650500D03*
D45*
X164273500Y-116142500D03*
X164273500Y-114492500D03*
D32*
X163320500Y-107697500D03*
X161670500Y-107697500D03*
D45*
X165035500Y-111316500D03*
X165035500Y-109666500D03*
D32*
X166876500Y-112777500D03*
X165226500Y-112777500D03*
D57*
X160850000Y-110811500D03*
X160850000Y-111761500D03*
X160850000Y-112711500D03*
X163125000Y-112711500D03*
X163125000Y-111761500D03*
X163125000Y-110811500D03*
D58*
X154367500Y-115188000D03*
X154367500Y-111888000D03*
X180340000Y-139572000D03*
X180340000Y-136272000D03*
D59*
X167132000Y-119430000D03*
D60*
X167132000Y-121970000D03*
D30*
X180340000Y-128906000D03*
X180340000Y-130556000D03*
D49*
X171162000Y-123952000D03*
X173262000Y-123952000D03*
D48*
X181136000Y-123952000D03*
X179036000Y-123952000D03*
D29*
X149707600Y-118902400D03*
X149707600Y-120802400D03*
X151582600Y-119852400D03*
D43*
X137388600Y-127650400D03*
D44*
X137388600Y-130190400D03*
X137388600Y-132730400D03*
D61*
X178842500Y-93472000D03*
X174217500Y-93472000D03*
D62*
X180340000Y-94465000D03*
X180340000Y-93495000D03*
D26*
X149098000Y-123545600D03*
D27*
X151638000Y-123545600D03*
X154178000Y-123545600D03*
X156718000Y-123545600D03*
X159258000Y-123545600D03*
X161798000Y-123545600D03*
D30*
X147015200Y-119240800D03*
X147015200Y-120890800D03*
X140589000Y-129985000D03*
X140589000Y-131635000D03*
D63*
X161290000Y-96610000D03*
X161290000Y-97710000D03*
X161290000Y-98810000D03*
X161290000Y-99910000D03*
X161290000Y-101010000D03*
X161290000Y-102110000D03*
X161290000Y-103210000D03*
X161290000Y-104310000D03*
X161290000Y-105410000D03*
X170990000Y-105410000D03*
X170990000Y-104310000D03*
X170990000Y-103210000D03*
X170990000Y-102110000D03*
X170990000Y-101010000D03*
X170990000Y-99910000D03*
X170990000Y-98810000D03*
X170990000Y-97710000D03*
X170990000Y-96610000D03*
%LPD*%
M02*
