G04 #@! TF.GenerationSoftware,KiCad,Pcbnew,7.0.7*
G04 #@! TF.CreationDate,2023-12-02T18:06:35+01:00*
G04 #@! TF.ProjectId,TeensyRPR,5465656e-7379-4525-9052-2e6b69636164,rev?*
G04 #@! TF.SameCoordinates,Original*
G04 #@! TF.FileFunction,Soldermask,Bot*
G04 #@! TF.FilePolarity,Negative*
%FSLAX46Y46*%
G04 Gerber Fmt 4.6, Leading zero omitted, Abs format (unit mm)*
G04 Created by KiCad (PCBNEW 7.0.7) date 2023-12-02 18:06:35*
%MOMM*%
%LPD*%
G01*
G04 APERTURE LIST*
%ADD10C,1.521460*%
%ADD11C,3.721100*%
%ADD12R,1.700000X1.700000*%
%ADD13O,1.700000X1.700000*%
%ADD14R,1.600000X1.600000*%
%ADD15O,1.600000X1.600000*%
%ADD16C,1.524000*%
%ADD17C,2.250000*%
%ADD18R,1.800000X1.800000*%
%ADD19C,1.800000*%
%ADD20C,2.100000*%
%ADD21C,1.750000*%
%ADD22C,1.000000*%
%ADD23R,1.900000X1.900000*%
%ADD24C,1.900000*%
%ADD25C,1.400000*%
%ADD26O,1.400000X1.400000*%
G04 APERTURE END LIST*
D10*
X173288640Y-114080260D03*
X173288640Y-116681220D03*
X173288640Y-112030480D03*
X173288640Y-118731000D03*
X170796900Y-112030480D03*
X170796900Y-118731000D03*
D11*
X176288380Y-108621800D03*
X177098640Y-115380740D03*
X176288380Y-122139680D03*
D12*
X144018000Y-112522000D03*
D13*
X144018000Y-115062000D03*
X144018000Y-117602000D03*
X144018000Y-120142000D03*
X144018000Y-122682000D03*
X144018000Y-125222000D03*
X144018000Y-127762000D03*
X144018000Y-130302000D03*
X144018000Y-132842000D03*
D14*
X180499499Y-126473501D03*
D15*
X177959499Y-126473501D03*
X175419499Y-126473501D03*
X172879499Y-126473501D03*
X170339499Y-126473501D03*
X167799499Y-126473501D03*
X165259499Y-126473501D03*
X162719499Y-126473501D03*
X160179499Y-126473501D03*
X157639499Y-126473501D03*
X155099499Y-126473501D03*
X152559499Y-126473501D03*
X150019499Y-126473501D03*
X147479499Y-126473501D03*
X147479499Y-141713501D03*
X150019499Y-141713501D03*
X152559499Y-141713501D03*
X155099499Y-141713501D03*
X157639499Y-141713501D03*
X160179499Y-141713501D03*
X162719499Y-141713501D03*
X165259499Y-141713501D03*
X167799499Y-141713501D03*
X170339499Y-141713501D03*
X172879499Y-141713501D03*
X175419499Y-141713501D03*
X177959499Y-141713501D03*
X180499499Y-141713501D03*
D16*
X177959499Y-139173501D03*
D15*
X147479499Y-129013501D03*
X147479499Y-131553501D03*
X147479499Y-134093501D03*
X147479499Y-136633501D03*
X147479499Y-139173501D03*
D17*
X177312000Y-99808000D03*
X179852000Y-97268000D03*
X174772000Y-97268000D03*
X179852000Y-102348000D03*
X174772000Y-102348000D03*
D18*
X137400000Y-111000000D03*
D19*
X137400000Y-113540000D03*
X137400000Y-116080000D03*
D18*
X137414000Y-120000000D03*
D19*
X137414000Y-122540000D03*
X137414000Y-125080000D03*
D18*
X137414000Y-105918000D03*
D19*
X137414000Y-103378000D03*
D20*
X140920000Y-142474000D03*
X140920000Y-135464000D03*
D21*
X138430000Y-141224000D03*
X138430000Y-136724000D03*
D22*
X141438000Y-93004000D03*
X141438000Y-98004000D03*
D23*
X145438000Y-93254000D03*
D24*
X145438000Y-97754000D03*
X137938000Y-92604000D03*
X137938000Y-98404000D03*
D25*
X167132000Y-119430000D03*
D26*
X167132000Y-121970000D03*
D18*
X137388600Y-127650400D03*
D19*
X137388600Y-130190400D03*
X137388600Y-132730400D03*
D12*
X149098000Y-123545600D03*
D13*
X151638000Y-123545600D03*
X154178000Y-123545600D03*
X156718000Y-123545600D03*
X159258000Y-123545600D03*
X161798000Y-123545600D03*
M02*
