G04 #@! TF.GenerationSoftware,KiCad,Pcbnew,7.0.7*
G04 #@! TF.CreationDate,2023-12-02T18:06:35+01:00*
G04 #@! TF.ProjectId,TeensyRPR,5465656e-7379-4525-9052-2e6b69636164,rev?*
G04 #@! TF.SameCoordinates,Original*
G04 #@! TF.FileFunction,Soldermask,Top*
G04 #@! TF.FilePolarity,Negative*
%FSLAX46Y46*%
G04 Gerber Fmt 4.6, Leading zero omitted, Abs format (unit mm)*
G04 Created by KiCad (PCBNEW 7.0.7) date 2023-12-02 18:06:35*
%MOMM*%
%LPD*%
G01*
G04 APERTURE LIST*
G04 Aperture macros list*
%AMRoundRect*
0 Rectangle with rounded corners*
0 $1 Rounding radius*
0 $2 $3 $4 $5 $6 $7 $8 $9 X,Y pos of 4 corners*
0 Add a 4 corners polygon primitive as box body*
4,1,4,$2,$3,$4,$5,$6,$7,$8,$9,$2,$3,0*
0 Add four circle primitives for the rounded corners*
1,1,$1+$1,$2,$3*
1,1,$1+$1,$4,$5*
1,1,$1+$1,$6,$7*
1,1,$1+$1,$8,$9*
0 Add four rect primitives between the rounded corners*
20,1,$1+$1,$2,$3,$4,$5,0*
20,1,$1+$1,$4,$5,$6,$7,0*
20,1,$1+$1,$6,$7,$8,$9,0*
20,1,$1+$1,$8,$9,$2,$3,0*%
G04 Aperture macros list end*
%ADD10RoundRect,0.250000X0.650000X-0.325000X0.650000X0.325000X-0.650000X0.325000X-0.650000X-0.325000X0*%
%ADD11RoundRect,0.140000X-0.140000X-0.170000X0.140000X-0.170000X0.140000X0.170000X-0.140000X0.170000X0*%
%ADD12RoundRect,0.140000X-0.170000X0.140000X-0.170000X-0.140000X0.170000X-0.140000X0.170000X0.140000X0*%
%ADD13RoundRect,0.250000X-0.325000X-0.650000X0.325000X-0.650000X0.325000X0.650000X-0.325000X0.650000X0*%
%ADD14RoundRect,0.250000X0.250000X0.475000X-0.250000X0.475000X-0.250000X-0.475000X0.250000X-0.475000X0*%
%ADD15RoundRect,0.250000X0.475000X-0.250000X0.475000X0.250000X-0.475000X0.250000X-0.475000X-0.250000X0*%
%ADD16RoundRect,0.250000X-0.475000X0.250000X-0.475000X-0.250000X0.475000X-0.250000X0.475000X0.250000X0*%
%ADD17RoundRect,0.140000X0.170000X-0.140000X0.170000X0.140000X-0.170000X0.140000X-0.170000X-0.140000X0*%
%ADD18C,3.721100*%
%ADD19R,1.700000X1.700000*%
%ADD20O,1.700000X1.700000*%
%ADD21RoundRect,0.250000X-0.375000X-1.075000X0.375000X-1.075000X0.375000X1.075000X-0.375000X1.075000X0*%
%ADD22RoundRect,0.150000X-0.587500X-0.150000X0.587500X-0.150000X0.587500X0.150000X-0.587500X0.150000X0*%
%ADD23RoundRect,0.200000X-0.275000X0.200000X-0.275000X-0.200000X0.275000X-0.200000X0.275000X0.200000X0*%
%ADD24RoundRect,0.200000X-0.200000X-0.275000X0.200000X-0.275000X0.200000X0.275000X-0.200000X0.275000X0*%
%ADD25RoundRect,0.200000X0.200000X0.275000X-0.200000X0.275000X-0.200000X-0.275000X0.200000X-0.275000X0*%
%ADD26RoundRect,0.150000X-0.150000X0.587500X-0.150000X-0.587500X0.150000X-0.587500X0.150000X0.587500X0*%
%ADD27R,1.600000X1.600000*%
%ADD28O,1.600000X1.600000*%
%ADD29C,1.524000*%
%ADD30RoundRect,0.050000X-0.050000X0.375000X-0.050000X-0.375000X0.050000X-0.375000X0.050000X0.375000X0*%
%ADD31RoundRect,0.050000X-0.375000X0.050000X-0.375000X-0.050000X0.375000X-0.050000X0.375000X0.050000X0*%
%ADD32R,1.650000X1.650000*%
%ADD33C,2.250000*%
%ADD34RoundRect,0.225000X-0.375000X0.225000X-0.375000X-0.225000X0.375000X-0.225000X0.375000X0.225000X0*%
%ADD35RoundRect,0.250000X-0.550000X1.500000X-0.550000X-1.500000X0.550000X-1.500000X0.550000X1.500000X0*%
%ADD36R,1.800000X1.800000*%
%ADD37C,1.800000*%
%ADD38RoundRect,0.200000X0.275000X-0.200000X0.275000X0.200000X-0.275000X0.200000X-0.275000X-0.200000X0*%
%ADD39C,2.100000*%
%ADD40C,1.750000*%
%ADD41RoundRect,0.112500X0.187500X0.112500X-0.187500X0.112500X-0.187500X-0.112500X0.187500X-0.112500X0*%
%ADD42RoundRect,0.112500X-0.187500X-0.112500X0.187500X-0.112500X0.187500X0.112500X-0.187500X0.112500X0*%
%ADD43C,1.000000*%
%ADD44R,1.900000X1.900000*%
%ADD45C,1.900000*%
%ADD46RoundRect,0.225000X0.225000X0.250000X-0.225000X0.250000X-0.225000X-0.250000X0.225000X-0.250000X0*%
%ADD47RoundRect,0.225000X-0.225000X-0.250000X0.225000X-0.250000X0.225000X0.250000X-0.225000X0.250000X0*%
%ADD48RoundRect,0.225000X-0.250000X0.225000X-0.250000X-0.225000X0.250000X-0.225000X0.250000X0.225000X0*%
%ADD49R,0.800000X2.700000*%
%ADD50RoundRect,0.150000X-0.512500X-0.150000X0.512500X-0.150000X0.512500X0.150000X-0.512500X0.150000X0*%
%ADD51RoundRect,0.225000X0.375000X-0.225000X0.375000X0.225000X-0.375000X0.225000X-0.375000X-0.225000X0*%
%ADD52C,1.400000*%
%ADD53O,1.400000X1.400000*%
%ADD54RoundRect,0.250000X0.362500X1.075000X-0.362500X1.075000X-0.362500X-1.075000X0.362500X-1.075000X0*%
%ADD55RoundRect,0.147500X0.172500X-0.147500X0.172500X0.147500X-0.172500X0.147500X-0.172500X-0.147500X0*%
%ADD56RoundRect,0.200000X-0.700000X-0.200000X0.700000X-0.200000X0.700000X0.200000X-0.700000X0.200000X0*%
G04 APERTURE END LIST*
D10*
X177490000Y-136857000D03*
X177490000Y-133907000D03*
D11*
X173784000Y-139432000D03*
X174744000Y-139432000D03*
D12*
X177546000Y-129596000D03*
X177546000Y-130556000D03*
D13*
X166439000Y-129150000D03*
X169389000Y-129150000D03*
D11*
X165719500Y-131113500D03*
X166679500Y-131113500D03*
D13*
X172027000Y-133336000D03*
X174977000Y-133336000D03*
D14*
X163212500Y-130796000D03*
X161312500Y-130796000D03*
D15*
X159278000Y-134794000D03*
X159278000Y-132894000D03*
D16*
X156972000Y-130114000D03*
X156972000Y-132014000D03*
D11*
X150610000Y-133566000D03*
X151570000Y-133566000D03*
D15*
X157226000Y-104074000D03*
X157226000Y-102174000D03*
D17*
X159004000Y-104366000D03*
X159004000Y-103406000D03*
D18*
X176288380Y-108621800D03*
X176288380Y-122139680D03*
D19*
X144018000Y-112522000D03*
D20*
X144018000Y-115062000D03*
X144018000Y-117602000D03*
X144018000Y-120142000D03*
X144018000Y-122682000D03*
X144018000Y-125222000D03*
X144018000Y-127762000D03*
X144018000Y-130302000D03*
X144018000Y-132842000D03*
D21*
X173118000Y-129780000D03*
X175918000Y-129780000D03*
D22*
X152652500Y-130100000D03*
X152652500Y-132000000D03*
X154527500Y-131050000D03*
D23*
X150690000Y-129941000D03*
X150690000Y-131591000D03*
X163342000Y-137845000D03*
X163342000Y-139495000D03*
D24*
X168740000Y-137146000D03*
X170390000Y-137146000D03*
D25*
X169628000Y-133653500D03*
X167978000Y-133653500D03*
X139026400Y-118110000D03*
X137376400Y-118110000D03*
X137731000Y-107950000D03*
X136081000Y-107950000D03*
D26*
X174706000Y-135700500D03*
X172806000Y-135700500D03*
X173756000Y-137575500D03*
D27*
X180499499Y-126473501D03*
D28*
X177959499Y-126473501D03*
X175419499Y-126473501D03*
X172879499Y-126473501D03*
X170339499Y-126473501D03*
X167799499Y-126473501D03*
X165259499Y-126473501D03*
X162719499Y-126473501D03*
X160179499Y-126473501D03*
X157639499Y-126473501D03*
X155099499Y-126473501D03*
X152559499Y-126473501D03*
X150019499Y-126473501D03*
X147479499Y-126473501D03*
X147479499Y-141713501D03*
X150019499Y-141713501D03*
X152559499Y-141713501D03*
X155099499Y-141713501D03*
X157639499Y-141713501D03*
X160179499Y-141713501D03*
X162719499Y-141713501D03*
X165259499Y-141713501D03*
X167799499Y-141713501D03*
X170339499Y-141713501D03*
X172879499Y-141713501D03*
X175419499Y-141713501D03*
X177959499Y-141713501D03*
X180499499Y-141713501D03*
D29*
X177959499Y-139173501D03*
D28*
X147479499Y-129013501D03*
X147479499Y-131553501D03*
X147479499Y-134093501D03*
X147479499Y-136633501D03*
X147479499Y-139173501D03*
D23*
X140538200Y-111138200D03*
X140538200Y-112788200D03*
D30*
X165094500Y-132838500D03*
X164694500Y-132838500D03*
X164294500Y-132838500D03*
X163894500Y-132838500D03*
X163494500Y-132838500D03*
D31*
X162844500Y-133488500D03*
X162844500Y-133888500D03*
X162844500Y-134288500D03*
X162844500Y-134688500D03*
X162844500Y-135088500D03*
D30*
X163494500Y-135738500D03*
X163894500Y-135738500D03*
X164294500Y-135738500D03*
X164694500Y-135738500D03*
X165094500Y-135738500D03*
D31*
X165744500Y-135088500D03*
X165744500Y-134688500D03*
X165744500Y-134288500D03*
X165744500Y-133888500D03*
X165744500Y-133488500D03*
D32*
X164294500Y-134288500D03*
D33*
X177312000Y-99808000D03*
X179852000Y-97268000D03*
X174772000Y-97268000D03*
X179852000Y-102348000D03*
X174772000Y-102348000D03*
D17*
X159004000Y-102080000D03*
X159004000Y-101120000D03*
D23*
X150876000Y-102807000D03*
X150876000Y-104457000D03*
D34*
X154178000Y-101856000D03*
X154178000Y-105156000D03*
D35*
X143764000Y-102804000D03*
X143764000Y-108204000D03*
D36*
X137400000Y-111000000D03*
D37*
X137400000Y-113540000D03*
X137400000Y-116080000D03*
D36*
X137414000Y-120000000D03*
D37*
X137414000Y-122540000D03*
X137414000Y-125080000D03*
D36*
X137414000Y-105918000D03*
D37*
X137414000Y-103378000D03*
D38*
X140538200Y-123354600D03*
X140538200Y-121704600D03*
D39*
X140920000Y-142474000D03*
X140920000Y-135464000D03*
D40*
X138430000Y-141224000D03*
X138430000Y-136724000D03*
D11*
X136172000Y-100584000D03*
X137132000Y-100584000D03*
X140772000Y-100584000D03*
X141732000Y-100584000D03*
D41*
X154466000Y-139192000D03*
X152366000Y-139192000D03*
D42*
X155922000Y-139192000D03*
X158022000Y-139192000D03*
D38*
X145034000Y-141287000D03*
X145034000Y-139637000D03*
X144780000Y-137731000D03*
X144780000Y-136081000D03*
D43*
X141438000Y-93004000D03*
X141438000Y-98004000D03*
D44*
X145438000Y-93254000D03*
D45*
X145438000Y-97754000D03*
X137938000Y-92604000D03*
X137938000Y-98404000D03*
D16*
X160971500Y-114621500D03*
X160971500Y-116521500D03*
D12*
X162749500Y-114329500D03*
X162749500Y-115289500D03*
D11*
X162523500Y-109221500D03*
X163483500Y-109221500D03*
D46*
X158698500Y-108967500D03*
X157148500Y-108967500D03*
D47*
X156640500Y-114555500D03*
X158190500Y-114555500D03*
D48*
X166813500Y-109716500D03*
X166813500Y-111266500D03*
D49*
X158769500Y-111761500D03*
X156569500Y-111761500D03*
D23*
X166051500Y-115000500D03*
X166051500Y-116650500D03*
D38*
X164273500Y-116142500D03*
X164273500Y-114492500D03*
D25*
X163320500Y-107697500D03*
X161670500Y-107697500D03*
D38*
X165035500Y-111316500D03*
X165035500Y-109666500D03*
D25*
X166876500Y-112777500D03*
X165226500Y-112777500D03*
D50*
X160850000Y-110811500D03*
X160850000Y-111761500D03*
X160850000Y-112711500D03*
X163125000Y-112711500D03*
X163125000Y-111761500D03*
X163125000Y-110811500D03*
D51*
X154367500Y-115188000D03*
X154367500Y-111888000D03*
X180340000Y-139572000D03*
X180340000Y-136272000D03*
D52*
X167132000Y-119430000D03*
D53*
X167132000Y-121970000D03*
D23*
X180340000Y-128906000D03*
X180340000Y-130556000D03*
D42*
X171162000Y-123952000D03*
X173262000Y-123952000D03*
D41*
X181136000Y-123952000D03*
X179036000Y-123952000D03*
D22*
X149707600Y-118902400D03*
X149707600Y-120802400D03*
X151582600Y-119852400D03*
D36*
X137388600Y-127650400D03*
D37*
X137388600Y-130190400D03*
X137388600Y-132730400D03*
D54*
X178842500Y-93472000D03*
X174217500Y-93472000D03*
D55*
X180340000Y-94465000D03*
X180340000Y-93495000D03*
D19*
X149098000Y-123545600D03*
D20*
X151638000Y-123545600D03*
X154178000Y-123545600D03*
X156718000Y-123545600D03*
X159258000Y-123545600D03*
X161798000Y-123545600D03*
D23*
X147015200Y-119240800D03*
X147015200Y-120890800D03*
X140589000Y-129985000D03*
X140589000Y-131635000D03*
D56*
X161290000Y-96610000D03*
X161290000Y-97710000D03*
X161290000Y-98810000D03*
X161290000Y-99910000D03*
X161290000Y-101010000D03*
X161290000Y-102110000D03*
X161290000Y-103210000D03*
X161290000Y-104310000D03*
X161290000Y-105410000D03*
X170990000Y-105410000D03*
X170990000Y-104310000D03*
X170990000Y-103210000D03*
X170990000Y-102110000D03*
X170990000Y-101010000D03*
X170990000Y-99910000D03*
X170990000Y-98810000D03*
X170990000Y-97710000D03*
X170990000Y-96610000D03*
M02*
