M48
; DRILL file {KiCad 7.0.7} date Sat Dec  2 18:08:15 2023
; FORMAT={-:-/ absolute / metric / decimal}
; #@! TF.CreationDate,2023-12-02T18:08:15+01:00
; #@! TF.GenerationSoftware,Kicad,Pcbnew,7.0.7
; #@! TF.FileFunction,Plated,1,2,PTH
FMAT,2
METRIC
; #@! TA.AperFunction,Plated,PTH,ComponentDrill
T1C0.200
; #@! TA.AperFunction,Plated,PTH,ViaDrill
T2C0.400
; #@! TA.AperFunction,Plated,PTH,ComponentDrill
T3C0.700
; #@! TA.AperFunction,Plated,PTH,ComponentDrill
T4C0.762
; #@! TA.AperFunction,Plated,PTH,ComponentDrill
T5C0.800
; #@! TA.AperFunction,Plated,PTH,ComponentDrill
T6C0.899
; #@! TA.AperFunction,Plated,PTH,ComponentDrill
T7C0.900
; #@! TA.AperFunction,Plated,PTH,ComponentDrill
T8C0.990
; #@! TA.AperFunction,Plated,PTH,ComponentDrill
T9C1.000
; #@! TA.AperFunction,Plated,PTH,ComponentDrill
T10C1.200
; #@! TA.AperFunction,Plated,PTH,ComponentDrill
T11C1.300
; #@! TA.AperFunction,Plated,PTH,ComponentDrill
T12C1.500
; #@! TA.AperFunction,Plated,PTH,ComponentDrill
T13C2.301
%
G90
G05
T1
X163.719Y-133.713
X163.719Y-134.863
X164.869Y-133.713
X164.869Y-134.863
T2
X135.382Y-109.322
X135.738Y-117.983
X140.157Y-109.728
X140.716Y-115.062
X141.173Y-133.096
X141.326Y-114.097
X141.986Y-106.172
X141.986Y-139.446
X142.748Y-143.51
X145.542Y-109.728
X146.71Y-117.831
X148.057Y-117.5
X150.012Y-112.497
X150.876Y-139.192
X151.282Y-100.355
X151.638Y-135.128
X152.4Y-105.156
X152.844Y-114.301
X152.908Y-133.604
X153.568Y-118.694
X154.686Y-128.524
X155.143Y-116.891
X155.637Y-109.221
X156.907Y-116.079
X157.161Y-107.444
X158.79Y-144.05
X159.194Y-115.825
X159.36Y-119.177
X159.447Y-114.555
X159.512Y-130.81
X159.512Y-139.192
X160.463Y-109.221
X161.31Y-132.574
X162.749Y-117.096
X163.322Y-96.774
X164.948Y-129.108
X165.819Y-136.956
X166.052Y-107.697
X167.025Y-135.685
X167.199Y-137.667
X167.321Y-114.301
X167.894Y-117.349
X168.167Y-112.269
X168.422Y-134.86
X168.676Y-131.304
X168.91Y-103.124
X169.672Y-139.7
X170.18Y-121.92
X171.216Y-130.034
X173.482Y-105.41
X176.022Y-135.382
X176.022Y-139.446
X177.546Y-132.334
X178.816Y-129.794
X179.324Y-133.858
T3
X167.132Y-119.43
X167.132Y-121.97
T4
X147.479Y-129.014
X147.479Y-131.554
X147.479Y-134.094
X147.479Y-136.634
X147.479Y-139.174
X177.959Y-139.174
T5
X147.479Y-126.474
X147.479Y-141.714
X150.019Y-126.474
X150.019Y-141.714
X152.559Y-126.474
X152.559Y-141.714
X155.099Y-126.474
X155.099Y-141.714
X157.639Y-126.474
X157.639Y-141.714
X160.179Y-126.474
X160.179Y-141.714
X162.719Y-126.474
X162.719Y-141.714
X165.259Y-126.474
X165.259Y-141.714
X167.799Y-126.474
X167.799Y-141.714
X170.339Y-126.474
X170.339Y-141.714
X172.879Y-126.474
X172.879Y-141.714
X175.419Y-126.474
X175.419Y-141.714
X177.959Y-126.474
X177.959Y-141.714
X180.499Y-126.474
X180.499Y-141.714
T6
X170.797Y-112.03
X170.797Y-118.731
X173.289Y-112.03
X173.289Y-114.08
X173.289Y-116.681
X173.289Y-118.731
T7
X137.389Y-127.65
X137.389Y-130.19
X137.389Y-132.73
X137.4Y-111.0
X137.4Y-113.54
X137.4Y-116.08
X137.414Y-103.378
X137.414Y-105.918
X137.414Y-120.0
X137.414Y-122.54
X137.414Y-125.08
T8
X138.43Y-136.724
X138.43Y-141.224
T9
X144.018Y-112.522
X144.018Y-115.062
X144.018Y-117.602
X144.018Y-120.142
X144.018Y-122.682
X144.018Y-125.222
X144.018Y-127.762
X144.018Y-130.302
X144.018Y-132.842
X149.098Y-123.546
X151.638Y-123.546
X154.178Y-123.546
X156.718Y-123.546
X159.258Y-123.546
X161.798Y-123.546
T10
X137.938Y-92.604
X137.938Y-98.404
X145.438Y-93.254
X145.438Y-97.754
T11
X140.92Y-135.464
X140.92Y-142.474
T12
X174.772Y-97.268
X174.772Y-102.348
X177.312Y-99.808
X179.852Y-97.268
X179.852Y-102.348
T13
X176.288Y-108.622
X176.288Y-122.14
X177.099Y-115.381
T0
M30
