G04 #@! TF.GenerationSoftware,KiCad,Pcbnew,7.0.7*
G04 #@! TF.CreationDate,2023-12-02T18:06:35+01:00*
G04 #@! TF.ProjectId,TeensyRPR,5465656e-7379-4525-9052-2e6b69636164,rev?*
G04 #@! TF.SameCoordinates,Original*
G04 #@! TF.FileFunction,Copper,L2,Bot*
G04 #@! TF.FilePolarity,Positive*
%FSLAX46Y46*%
G04 Gerber Fmt 4.6, Leading zero omitted, Abs format (unit mm)*
G04 Created by KiCad (PCBNEW 7.0.7) date 2023-12-02 18:06:35*
%MOMM*%
%LPD*%
G01*
G04 APERTURE LIST*
G04 #@! TA.AperFunction,ComponentPad*
%ADD10C,1.501140*%
G04 #@! TD*
G04 #@! TA.AperFunction,ComponentPad*
%ADD11C,3.700780*%
G04 #@! TD*
G04 #@! TA.AperFunction,ComponentPad*
%ADD12R,1.700000X1.700000*%
G04 #@! TD*
G04 #@! TA.AperFunction,ComponentPad*
%ADD13O,1.700000X1.700000*%
G04 #@! TD*
G04 #@! TA.AperFunction,ComponentPad*
%ADD14R,1.600000X1.600000*%
G04 #@! TD*
G04 #@! TA.AperFunction,ComponentPad*
%ADD15O,1.600000X1.600000*%
G04 #@! TD*
G04 #@! TA.AperFunction,ComponentPad*
%ADD16C,1.524000*%
G04 #@! TD*
G04 #@! TA.AperFunction,ComponentPad*
%ADD17C,0.500000*%
G04 #@! TD*
G04 #@! TA.AperFunction,SMDPad,CuDef*
%ADD18R,1.650000X1.650000*%
G04 #@! TD*
G04 #@! TA.AperFunction,ComponentPad*
%ADD19C,2.250000*%
G04 #@! TD*
G04 #@! TA.AperFunction,ComponentPad*
%ADD20R,1.800000X1.800000*%
G04 #@! TD*
G04 #@! TA.AperFunction,ComponentPad*
%ADD21C,1.800000*%
G04 #@! TD*
G04 #@! TA.AperFunction,ComponentPad*
%ADD22C,2.100000*%
G04 #@! TD*
G04 #@! TA.AperFunction,ComponentPad*
%ADD23C,1.750000*%
G04 #@! TD*
G04 #@! TA.AperFunction,ComponentPad*
%ADD24R,1.900000X1.900000*%
G04 #@! TD*
G04 #@! TA.AperFunction,ComponentPad*
%ADD25C,1.900000*%
G04 #@! TD*
G04 #@! TA.AperFunction,ComponentPad*
%ADD26C,1.400000*%
G04 #@! TD*
G04 #@! TA.AperFunction,ComponentPad*
%ADD27O,1.400000X1.400000*%
G04 #@! TD*
G04 #@! TA.AperFunction,ViaPad*
%ADD28C,0.800000*%
G04 #@! TD*
G04 #@! TA.AperFunction,Conductor*
%ADD29C,0.200000*%
G04 #@! TD*
G04 #@! TA.AperFunction,Conductor*
%ADD30C,0.250000*%
G04 #@! TD*
G04 APERTURE END LIST*
D10*
X173288640Y-114080260D03*
X173288640Y-116681220D03*
X173288640Y-112030480D03*
X173288640Y-118731000D03*
X170796900Y-112030480D03*
X170796900Y-118731000D03*
D11*
X176288380Y-108621800D03*
X177098640Y-115380740D03*
X176288380Y-122139680D03*
D12*
X144018000Y-112522000D03*
D13*
X144018000Y-115062000D03*
X144018000Y-117602000D03*
X144018000Y-120142000D03*
X144018000Y-122682000D03*
X144018000Y-125222000D03*
X144018000Y-127762000D03*
X144018000Y-130302000D03*
X144018000Y-132842000D03*
D14*
X180499499Y-126473501D03*
D15*
X177959499Y-126473501D03*
X175419499Y-126473501D03*
X172879499Y-126473501D03*
X170339499Y-126473501D03*
X167799499Y-126473501D03*
X165259499Y-126473501D03*
X162719499Y-126473501D03*
X160179499Y-126473501D03*
X157639499Y-126473501D03*
X155099499Y-126473501D03*
X152559499Y-126473501D03*
X150019499Y-126473501D03*
X147479499Y-126473501D03*
X147479499Y-141713501D03*
X150019499Y-141713501D03*
X152559499Y-141713501D03*
X155099499Y-141713501D03*
X157639499Y-141713501D03*
X160179499Y-141713501D03*
X162719499Y-141713501D03*
X165259499Y-141713501D03*
X167799499Y-141713501D03*
X170339499Y-141713501D03*
X172879499Y-141713501D03*
X175419499Y-141713501D03*
X177959499Y-141713501D03*
X180499499Y-141713501D03*
D16*
X177959499Y-139173501D03*
D15*
X147479499Y-129013501D03*
X147479499Y-131553501D03*
X147479499Y-134093501D03*
X147479499Y-136633501D03*
X147479499Y-139173501D03*
D17*
X164869500Y-133713500D03*
X163719500Y-133713500D03*
D18*
X164294500Y-134288500D03*
D17*
X164869500Y-134863500D03*
X163719500Y-134863500D03*
D19*
X177312000Y-99808000D03*
X179852000Y-97268000D03*
X174772000Y-97268000D03*
X179852000Y-102348000D03*
X174772000Y-102348000D03*
D20*
X137400000Y-111000000D03*
D21*
X137400000Y-113540000D03*
X137400000Y-116080000D03*
D20*
X137414000Y-120000000D03*
D21*
X137414000Y-122540000D03*
X137414000Y-125080000D03*
D20*
X137414000Y-105918000D03*
D21*
X137414000Y-103378000D03*
D22*
X140920000Y-142474000D03*
X140920000Y-135464000D03*
D23*
X138430000Y-141224000D03*
X138430000Y-136724000D03*
D24*
X145438000Y-93254000D03*
D25*
X145438000Y-97754000D03*
X137938000Y-92604000D03*
X137938000Y-98404000D03*
D26*
X167132000Y-119430000D03*
D27*
X167132000Y-121970000D03*
D20*
X137388600Y-127650400D03*
D21*
X137388600Y-130190400D03*
X137388600Y-132730400D03*
D12*
X149098000Y-123545600D03*
D13*
X151638000Y-123545600D03*
X154178000Y-123545600D03*
X156718000Y-123545600D03*
X159258000Y-123545600D03*
X161798000Y-123545600D03*
D28*
X151282400Y-100355400D03*
X159193500Y-115825500D03*
X167894000Y-117349500D03*
X152908000Y-133604000D03*
X159512000Y-130810000D03*
X176022000Y-139446000D03*
X135382000Y-109321600D03*
X141986000Y-106172000D03*
X145542000Y-109728000D03*
X152400000Y-105156000D03*
X157161500Y-107443500D03*
X159447500Y-114555500D03*
X142748000Y-143510000D03*
X178816000Y-129794000D03*
X168676000Y-131304000D03*
X163322000Y-96774000D03*
X150876000Y-139192000D03*
X159359600Y-119176800D03*
X141986000Y-139446000D03*
X179324000Y-133858000D03*
X153568400Y-118694200D03*
X171216000Y-130034000D03*
X168167500Y-112269500D03*
X161310000Y-132574000D03*
X158790000Y-144050000D03*
X135737600Y-117983000D03*
X173482000Y-105410000D03*
X140157200Y-109728000D03*
X156907500Y-116079500D03*
X152843500Y-114301500D03*
X155637500Y-109221500D03*
X166051500Y-107697500D03*
X160463500Y-109221500D03*
X150012400Y-112496600D03*
X164947600Y-129108200D03*
X162749500Y-117095500D03*
X159512000Y-139192000D03*
X168910000Y-103124000D03*
X167321500Y-114301500D03*
X177546000Y-132334000D03*
X176022000Y-135382000D03*
X151638000Y-135128000D03*
X169672000Y-139700000D03*
X141173200Y-133096000D03*
X170180000Y-121920000D03*
X154686000Y-128524000D03*
X167198773Y-137667384D03*
X168422000Y-134860000D03*
X165818500Y-136955500D03*
X167025000Y-135685500D03*
X155143200Y-116890800D03*
X140716000Y-115062000D03*
X146710400Y-117830600D03*
X148056600Y-117500400D03*
X141325600Y-114096800D03*
D29*
X146196000Y-117316200D02*
X146710400Y-117830600D01*
X144576349Y-113792000D02*
X146196000Y-115411651D01*
X146196000Y-115411651D02*
X146196000Y-117316200D01*
X142900400Y-113792000D02*
X144576349Y-113792000D01*
X141630400Y-115062000D02*
X142900400Y-113792000D01*
X140716000Y-115062000D02*
X141630400Y-115062000D01*
X148590000Y-135890000D02*
X148082000Y-135382000D01*
X141224000Y-133096000D02*
X141173200Y-133096000D01*
X148590000Y-142240000D02*
X148590000Y-135890000D01*
X144018000Y-130302000D02*
X141224000Y-133096000D01*
X175419499Y-141713501D02*
X174131000Y-143002000D01*
X145745200Y-135382000D02*
X144678400Y-134315200D01*
X148082000Y-135382000D02*
X145745200Y-135382000D01*
X144678400Y-134315200D02*
X142392400Y-134315200D01*
X142392400Y-134315200D02*
X141173200Y-133096000D01*
X174131000Y-143002000D02*
X149352000Y-143002000D01*
X149352000Y-143002000D02*
X148590000Y-142240000D01*
X170130000Y-121970000D02*
X170180000Y-121920000D01*
X167132000Y-121970000D02*
X170130000Y-121970000D01*
X161790000Y-125544002D02*
X161790000Y-125484314D01*
X150102600Y-122250200D02*
X144449800Y-122250200D01*
X161790000Y-125484314D02*
X161203730Y-124898044D01*
X161203730Y-124898044D02*
X151161644Y-124898044D01*
X162719499Y-126473501D02*
X161790000Y-125544002D01*
X151161644Y-124898044D02*
X150418800Y-124155200D01*
X150418800Y-124155200D02*
X150418800Y-122566400D01*
X144449800Y-122250200D02*
X144018000Y-122682000D01*
X150418800Y-122566400D02*
X150102600Y-122250200D01*
D30*
X146202400Y-130657600D02*
X144018000Y-132842000D01*
X146202400Y-127750600D02*
X146202400Y-130657600D01*
X147479499Y-126473501D02*
X146202400Y-127750600D01*
D29*
X137414000Y-125080000D02*
X137414000Y-125222000D01*
X138684000Y-126492000D02*
X145034000Y-126492000D01*
X148082000Y-125247400D02*
X148742400Y-125907800D01*
X155099499Y-126473501D02*
X155099499Y-128110501D01*
X154660600Y-128549400D02*
X154686000Y-128524000D01*
X145034000Y-126492000D02*
X146278600Y-125247400D01*
X148742400Y-125907800D02*
X148742400Y-126949200D01*
X146278600Y-125247400D02*
X148082000Y-125247400D01*
X150342600Y-128549400D02*
X154660600Y-128549400D01*
X148742400Y-126949200D02*
X150342600Y-128549400D01*
X155099499Y-128110501D02*
X154686000Y-128524000D01*
X137414000Y-125222000D02*
X138684000Y-126492000D01*
X160179499Y-141713501D02*
X163648489Y-138244511D01*
X163648489Y-138244511D02*
X166621646Y-138244511D01*
X166621646Y-138244511D02*
X167198773Y-137667384D01*
X165699500Y-138733500D02*
X167850500Y-138733500D01*
X168422000Y-138162000D02*
X167850500Y-138733500D01*
X168422000Y-134860000D02*
X168422000Y-138162000D01*
X162719499Y-141713501D02*
X165699500Y-138733500D01*
X161390000Y-125650000D02*
X161390000Y-126950000D01*
X169063000Y-127750000D02*
X170339499Y-126473501D01*
X161390000Y-126950000D02*
X162190000Y-127750000D01*
X138034000Y-120000000D02*
X141986000Y-123952000D01*
X162190000Y-127750000D02*
X169063000Y-127750000D01*
X144653000Y-123952000D02*
X145516600Y-124815600D01*
X148215886Y-124815600D02*
X148698330Y-125298044D01*
X145516600Y-124815600D02*
X148215886Y-124815600D01*
X141986000Y-123952000D02*
X144653000Y-123952000D01*
X137414000Y-120000000D02*
X138034000Y-120000000D01*
X148698330Y-125298044D02*
X161038044Y-125298044D01*
X161038044Y-125298044D02*
X161390000Y-125650000D01*
X145034000Y-116332000D02*
X140208000Y-116332000D01*
X148075800Y-121050200D02*
X145796000Y-118770400D01*
X150599655Y-121050200D02*
X148075800Y-121050200D01*
X163893400Y-121918829D02*
X163424771Y-121450200D01*
X172879499Y-126473501D02*
X171379499Y-124973501D01*
X138684000Y-111718314D02*
X138684000Y-104648000D01*
X145796000Y-118770400D02*
X145796000Y-117094000D01*
X138684000Y-104648000D02*
X137414000Y-103378000D01*
X164401186Y-124973501D02*
X163893400Y-124465714D01*
X163424771Y-121450200D02*
X150999656Y-121450200D01*
X163893400Y-124465714D02*
X163893400Y-121918829D01*
X140208000Y-116332000D02*
X139592000Y-115716000D01*
X150999656Y-121450200D02*
X150599655Y-121050200D01*
X145796000Y-117094000D02*
X145034000Y-116332000D01*
X139592000Y-115716000D02*
X139592000Y-112626314D01*
X171379499Y-124973501D02*
X164401186Y-124973501D01*
X139592000Y-112626314D02*
X138684000Y-111718314D01*
X162332000Y-128550000D02*
X166590000Y-132808000D01*
X166590000Y-132808000D02*
X166590000Y-135084498D01*
X166590000Y-135084498D02*
X166324999Y-135349499D01*
X159699000Y-128550000D02*
X162332000Y-128550000D01*
X157639499Y-126490499D02*
X159699000Y-128550000D01*
X157639499Y-126473501D02*
X157639499Y-126490499D01*
X166324999Y-135349499D02*
X166324999Y-136449001D01*
X166324999Y-136449001D02*
X165818500Y-136955500D01*
X167025000Y-135685500D02*
X167025000Y-132658800D01*
X162516200Y-128150000D02*
X161855998Y-128150000D01*
X161855998Y-128150000D02*
X160179499Y-126473501D01*
X167025000Y-132658800D02*
X162516200Y-128150000D01*
X150833971Y-121850200D02*
X163259085Y-121850200D01*
X144526000Y-118872000D02*
X145288000Y-119634000D01*
X166699499Y-125373501D02*
X167799499Y-126473501D01*
X139192000Y-112792000D02*
X139192000Y-116840000D01*
X145999200Y-119634000D02*
X147815400Y-121450200D01*
X163493400Y-124631400D02*
X164235501Y-125373501D01*
X139192000Y-116840000D02*
X141224000Y-118872000D01*
X164235501Y-125373501D02*
X166699499Y-125373501D01*
X137400000Y-111000000D02*
X139192000Y-112792000D01*
X145288000Y-119634000D02*
X145999200Y-119634000D01*
X163493400Y-122084515D02*
X163493400Y-124631400D01*
X163259085Y-121850200D02*
X163493400Y-122084515D01*
X150433970Y-121450200D02*
X150833971Y-121850200D01*
X141224000Y-118872000D02*
X144526000Y-118872000D01*
X147815400Y-121450200D02*
X150433970Y-121450200D01*
X150268285Y-121850200D02*
X145052546Y-121850200D01*
X165259499Y-126473501D02*
X164751301Y-126473501D01*
X144665146Y-121462800D02*
X143249114Y-121462800D01*
X150668286Y-122250200D02*
X150268285Y-121850200D01*
X145052546Y-121850200D02*
X144665146Y-121462800D01*
X163093400Y-124815600D02*
X163093400Y-122250200D01*
X143249114Y-121462800D02*
X137866314Y-116080000D01*
X163093400Y-122250200D02*
X150668286Y-122250200D01*
X164751301Y-126473501D02*
X163093400Y-124815600D01*
X137866314Y-116080000D02*
X137400000Y-116080000D01*
X172581800Y-124510800D02*
X164668200Y-124510800D01*
X155143200Y-117881400D02*
X155143200Y-116890800D01*
X180499499Y-133255499D02*
X174244000Y-127000000D01*
X174244000Y-126173000D02*
X172581800Y-124510800D01*
X163600811Y-121025200D02*
X158287000Y-121025200D01*
X164668200Y-124510800D02*
X164318400Y-124161000D01*
X164318400Y-121742789D02*
X163600811Y-121025200D01*
X174244000Y-127000000D02*
X174244000Y-126173000D01*
X180499499Y-141713501D02*
X180499499Y-133255499D01*
X158287000Y-121025200D02*
X155143200Y-117881400D01*
X164318400Y-124161000D02*
X164318400Y-121742789D01*
D30*
X147479499Y-136633501D02*
X143020499Y-136633501D01*
X143020499Y-136633501D02*
X138430000Y-141224000D01*
D29*
X148056600Y-117500400D02*
X148056600Y-114210600D01*
X148056600Y-114210600D02*
X144742400Y-110896400D01*
X141351000Y-112141000D02*
X141351000Y-114071400D01*
X142595600Y-110896400D02*
X141351000Y-112141000D01*
X141351000Y-114071400D02*
X141325600Y-114096800D01*
X144742400Y-110896400D02*
X142595600Y-110896400D01*
G04 #@! TA.AperFunction,Conductor*
G36*
X146754121Y-96032002D02*
G01*
X146800614Y-96085658D01*
X146812000Y-96138000D01*
X146812000Y-96796670D01*
X146791998Y-96864791D01*
X146738342Y-96911284D01*
X146673003Y-96921998D01*
X146633326Y-96917883D01*
X146123477Y-97427732D01*
X146061165Y-97461757D01*
X145990349Y-97456692D01*
X145934419Y-97415339D01*
X145865926Y-97326076D01*
X145865925Y-97326075D01*
X145776656Y-97257577D01*
X145734791Y-97200241D01*
X145730569Y-97129370D01*
X145764267Y-97068520D01*
X146274946Y-96557842D01*
X146238184Y-96529228D01*
X146238181Y-96529227D01*
X146025678Y-96414225D01*
X146025676Y-96414224D01*
X145797149Y-96335771D01*
X145797140Y-96335769D01*
X145558809Y-96296000D01*
X145317191Y-96296000D01*
X145078859Y-96335769D01*
X145078850Y-96335771D01*
X144850325Y-96414224D01*
X144637808Y-96529233D01*
X144601052Y-96557841D01*
X145111731Y-97068520D01*
X145145756Y-97130833D01*
X145140692Y-97201648D01*
X145099341Y-97257578D01*
X145010075Y-97326075D01*
X144941578Y-97415341D01*
X144884240Y-97457208D01*
X144813369Y-97461429D01*
X144752520Y-97427731D01*
X144242673Y-96917883D01*
X144151332Y-97057690D01*
X144054273Y-97278962D01*
X144054270Y-97278969D01*
X143994958Y-97513186D01*
X143994956Y-97513195D01*
X143975003Y-97754000D01*
X143994956Y-97994804D01*
X143994958Y-97994813D01*
X144054270Y-98229030D01*
X144054273Y-98229037D01*
X144151331Y-98450306D01*
X144242672Y-98590114D01*
X144752520Y-98080267D01*
X144814833Y-98046242D01*
X144885648Y-98051306D01*
X144941577Y-98092656D01*
X145010075Y-98181925D01*
X145060623Y-98220712D01*
X145099339Y-98250419D01*
X145141207Y-98307757D01*
X145145429Y-98378628D01*
X145111731Y-98439477D01*
X144601051Y-98950156D01*
X144601052Y-98950157D01*
X144637808Y-98978766D01*
X144637818Y-98978772D01*
X144850321Y-99093774D01*
X144850323Y-99093775D01*
X145078850Y-99172228D01*
X145078859Y-99172230D01*
X145317191Y-99212000D01*
X145558809Y-99212000D01*
X145797140Y-99172230D01*
X145797149Y-99172228D01*
X146025676Y-99093775D01*
X146025678Y-99093774D01*
X146238187Y-98978769D01*
X146274946Y-98950157D01*
X145764268Y-98439479D01*
X145730243Y-98377166D01*
X145735307Y-98306351D01*
X145776660Y-98250420D01*
X145815377Y-98220712D01*
X145865925Y-98181925D01*
X145934421Y-98092658D01*
X145991758Y-98050792D01*
X146062629Y-98046570D01*
X146123479Y-98080268D01*
X146633325Y-98590115D01*
X146673002Y-98586000D01*
X146742822Y-98598868D01*
X146794602Y-98647441D01*
X146812000Y-98711327D01*
X146812000Y-99568000D01*
X161544000Y-99568000D01*
X161544000Y-96392000D01*
X161564002Y-96323879D01*
X161617658Y-96277386D01*
X161670000Y-96266000D01*
X173245809Y-96266000D01*
X173313930Y-96286002D01*
X173360423Y-96339658D01*
X173370527Y-96409932D01*
X173353242Y-96457834D01*
X173312488Y-96524338D01*
X173214121Y-96761816D01*
X173154117Y-97011753D01*
X173133950Y-97267999D01*
X173154117Y-97524246D01*
X173214121Y-97774183D01*
X173312486Y-98011657D01*
X173446791Y-98230824D01*
X173448252Y-98232535D01*
X173979615Y-97701172D01*
X174041928Y-97667147D01*
X174112743Y-97672211D01*
X174169579Y-97714758D01*
X174169778Y-97715024D01*
X174222755Y-97786184D01*
X174329627Y-97875862D01*
X174368953Y-97934972D01*
X174370079Y-98005960D01*
X174337730Y-98061478D01*
X173807462Y-98591745D01*
X173807462Y-98591746D01*
X173809174Y-98593207D01*
X174028342Y-98727513D01*
X174265816Y-98825878D01*
X174515753Y-98885882D01*
X174772000Y-98906049D01*
X175028246Y-98885882D01*
X175278183Y-98825878D01*
X175515657Y-98727513D01*
X175734825Y-98593207D01*
X175736535Y-98591746D01*
X175736536Y-98591745D01*
X175206199Y-98061408D01*
X175172173Y-97999096D01*
X175177238Y-97928281D01*
X175219785Y-97871445D01*
X175226034Y-97867056D01*
X175257373Y-97846445D01*
X175377688Y-97718918D01*
X175377691Y-97718912D01*
X175377862Y-97718684D01*
X175378023Y-97718562D01*
X175382725Y-97713579D01*
X175383576Y-97714382D01*
X175434581Y-97675982D01*
X175505382Y-97670724D01*
X175567787Y-97704578D01*
X176095745Y-98232536D01*
X176095746Y-98232535D01*
X176097207Y-98230825D01*
X176231513Y-98011657D01*
X176329878Y-97774183D01*
X176389882Y-97524246D01*
X176410049Y-97268000D01*
X176389882Y-97011753D01*
X176329878Y-96761816D01*
X176231511Y-96524338D01*
X176190758Y-96457834D01*
X176172220Y-96389301D01*
X176193677Y-96321624D01*
X176248316Y-96276291D01*
X176298191Y-96266000D01*
X178325809Y-96266000D01*
X178393930Y-96286002D01*
X178440423Y-96339658D01*
X178450527Y-96409932D01*
X178433242Y-96457834D01*
X178392488Y-96524338D01*
X178294121Y-96761816D01*
X178234117Y-97011753D01*
X178213950Y-97268000D01*
X178234117Y-97524246D01*
X178294121Y-97774183D01*
X178392486Y-98011657D01*
X178526791Y-98230824D01*
X178528252Y-98232535D01*
X179059615Y-97701172D01*
X179121928Y-97667147D01*
X179192743Y-97672211D01*
X179249579Y-97714758D01*
X179249778Y-97715024D01*
X179302755Y-97786184D01*
X179409627Y-97875862D01*
X179448953Y-97934972D01*
X179450079Y-98005960D01*
X179417730Y-98061478D01*
X178887462Y-98591745D01*
X178887462Y-98591746D01*
X178889174Y-98593207D01*
X179108342Y-98727513D01*
X179345816Y-98825878D01*
X179595753Y-98885882D01*
X179852000Y-98906049D01*
X180108246Y-98885882D01*
X180358183Y-98825878D01*
X180595657Y-98727513D01*
X180814825Y-98593207D01*
X180816535Y-98591746D01*
X180816536Y-98591745D01*
X180286199Y-98061408D01*
X180252173Y-97999096D01*
X180257238Y-97928281D01*
X180299785Y-97871445D01*
X180306034Y-97867056D01*
X180337373Y-97846445D01*
X180457688Y-97718918D01*
X180457691Y-97718912D01*
X180457862Y-97718684D01*
X180458023Y-97718562D01*
X180462725Y-97713579D01*
X180463576Y-97714382D01*
X180514581Y-97675982D01*
X180585382Y-97670724D01*
X180647787Y-97704578D01*
X181175745Y-98232536D01*
X181175746Y-98232535D01*
X181177207Y-98230825D01*
X181311513Y-98011657D01*
X181387591Y-97827989D01*
X181432139Y-97772708D01*
X181499503Y-97750287D01*
X181568294Y-97767845D01*
X181616672Y-97819807D01*
X181630000Y-97876207D01*
X181630000Y-101739792D01*
X181609998Y-101807913D01*
X181556342Y-101854406D01*
X181486068Y-101864510D01*
X181421488Y-101835016D01*
X181387591Y-101788010D01*
X181311513Y-101604342D01*
X181177207Y-101385174D01*
X181175745Y-101383462D01*
X180644382Y-101914826D01*
X180582070Y-101948852D01*
X180511255Y-101943787D01*
X180454419Y-101901240D01*
X180454220Y-101900973D01*
X180401246Y-101829817D01*
X180294371Y-101740137D01*
X180255045Y-101681027D01*
X180253919Y-101610039D01*
X180286268Y-101554520D01*
X180816536Y-101024252D01*
X180814824Y-101022791D01*
X180595657Y-100888486D01*
X180358183Y-100790121D01*
X180108246Y-100730117D01*
X179852000Y-100709950D01*
X179595753Y-100730117D01*
X179345816Y-100790121D01*
X179108342Y-100888486D01*
X178889177Y-101022790D01*
X178889174Y-101022793D01*
X178887462Y-101024252D01*
X179417801Y-101554590D01*
X179451826Y-101616903D01*
X179446762Y-101687718D01*
X179404215Y-101744554D01*
X179397944Y-101748957D01*
X179366631Y-101769551D01*
X179366624Y-101769557D01*
X179246311Y-101897083D01*
X179246122Y-101897337D01*
X179245947Y-101897467D01*
X179241276Y-101902420D01*
X179240429Y-101901621D01*
X179189394Y-101940027D01*
X179118591Y-101945271D01*
X179056193Y-101911403D01*
X179055967Y-101911178D01*
X178528252Y-101383462D01*
X178526793Y-101385174D01*
X178526790Y-101385177D01*
X178392486Y-101604342D01*
X178294121Y-101841816D01*
X178234117Y-102091753D01*
X178213950Y-102347999D01*
X178234117Y-102604246D01*
X178294121Y-102854183D01*
X178392486Y-103091657D01*
X178526791Y-103310824D01*
X178528252Y-103312535D01*
X179059615Y-102781172D01*
X179121928Y-102747147D01*
X179192743Y-102752211D01*
X179249579Y-102794758D01*
X179249778Y-102795024D01*
X179302755Y-102866184D01*
X179409627Y-102955862D01*
X179448953Y-103014972D01*
X179450079Y-103085960D01*
X179417730Y-103141478D01*
X178887462Y-103671745D01*
X178887462Y-103671746D01*
X178889174Y-103673207D01*
X179108342Y-103807513D01*
X179345816Y-103905878D01*
X179595753Y-103965882D01*
X179852000Y-103986049D01*
X180108246Y-103965882D01*
X180358183Y-103905878D01*
X180595657Y-103807513D01*
X180814825Y-103673207D01*
X180816535Y-103671746D01*
X180816536Y-103671745D01*
X180286199Y-103141408D01*
X180252173Y-103079096D01*
X180257238Y-103008281D01*
X180299785Y-102951445D01*
X180306034Y-102947056D01*
X180337373Y-102926445D01*
X180457688Y-102798918D01*
X180457691Y-102798912D01*
X180457862Y-102798684D01*
X180458023Y-102798562D01*
X180462725Y-102793579D01*
X180463576Y-102794382D01*
X180514581Y-102755982D01*
X180585382Y-102750724D01*
X180647787Y-102784578D01*
X181175745Y-103312536D01*
X181175746Y-103312535D01*
X181177207Y-103310825D01*
X181311513Y-103091657D01*
X181387591Y-102907989D01*
X181432139Y-102852708D01*
X181499503Y-102830287D01*
X181568294Y-102847845D01*
X181616672Y-102899807D01*
X181630000Y-102956207D01*
X181630000Y-125073112D01*
X181609998Y-125141233D01*
X181556342Y-125187726D01*
X181486068Y-125197830D01*
X181459968Y-125191168D01*
X181408593Y-125172006D01*
X181348096Y-125165501D01*
X180753499Y-125165501D01*
X180753499Y-125961216D01*
X180733497Y-126029337D01*
X180679841Y-126075830D01*
X180609567Y-126085934D01*
X180607791Y-126085665D01*
X180530980Y-126073501D01*
X180468018Y-126073501D01*
X180391207Y-126085665D01*
X180320796Y-126076564D01*
X180266483Y-126030841D01*
X180245512Y-125963013D01*
X180245499Y-125961216D01*
X180245499Y-125165501D01*
X179650901Y-125165501D01*
X179590405Y-125172006D01*
X179453534Y-125223056D01*
X179453533Y-125223056D01*
X179336594Y-125310596D01*
X179249054Y-125427535D01*
X179249054Y-125427536D01*
X179198003Y-125564409D01*
X179196936Y-125574333D01*
X179169763Y-125639923D01*
X179111442Y-125680411D01*
X179040491Y-125682940D01*
X178979435Y-125646709D01*
X178968445Y-125633125D01*
X178965701Y-125629206D01*
X178965694Y-125629198D01*
X178803801Y-125467305D01*
X178803797Y-125467302D01*
X178616248Y-125335978D01*
X178561816Y-125310596D01*
X178408745Y-125239218D01*
X178408739Y-125239216D01*
X178315270Y-125214171D01*
X178187586Y-125179958D01*
X177959499Y-125160003D01*
X177731412Y-125179958D01*
X177510258Y-125239216D01*
X177510252Y-125239218D01*
X177302749Y-125335978D01*
X177115202Y-125467300D01*
X177115196Y-125467305D01*
X176953303Y-125629198D01*
X176953298Y-125629204D01*
X176821976Y-125816751D01*
X176803694Y-125855958D01*
X176756777Y-125909243D01*
X176688500Y-125928704D01*
X176620540Y-125908162D01*
X176575304Y-125855958D01*
X176568531Y-125841434D01*
X176557022Y-125816752D01*
X176425697Y-125629201D01*
X176263799Y-125467303D01*
X176076248Y-125335978D01*
X176021816Y-125310596D01*
X175868745Y-125239218D01*
X175868739Y-125239216D01*
X175775270Y-125214171D01*
X175647586Y-125179958D01*
X175419499Y-125160003D01*
X175191412Y-125179958D01*
X174970258Y-125239216D01*
X174970252Y-125239218D01*
X174762749Y-125335978D01*
X174575198Y-125467302D01*
X174570986Y-125470838D01*
X174570039Y-125469710D01*
X174513766Y-125500415D01*
X174442952Y-125495326D01*
X174397929Y-125466380D01*
X173725491Y-124793942D01*
X173043190Y-124111641D01*
X173037763Y-124105453D01*
X173015787Y-124076813D01*
X172983874Y-124052325D01*
X172983872Y-124052323D01*
X172900327Y-123988216D01*
X172888682Y-123979280D01*
X172888674Y-123979275D01*
X172740651Y-123917962D01*
X172721256Y-123915408D01*
X172675854Y-123909431D01*
X172619841Y-123902057D01*
X172619820Y-123902055D01*
X172581802Y-123897050D01*
X172581799Y-123897050D01*
X172546019Y-123901760D01*
X172537788Y-123902300D01*
X165052900Y-123902300D01*
X164984779Y-123882298D01*
X164938286Y-123828642D01*
X164926900Y-123776300D01*
X164926900Y-121970000D01*
X165918884Y-121970000D01*
X165937314Y-122180655D01*
X165953051Y-122239386D01*
X165992043Y-122384908D01*
X165992045Y-122384912D01*
X166081412Y-122576561D01*
X166202692Y-122749767D01*
X166202696Y-122749772D01*
X166202699Y-122749776D01*
X166352224Y-122899301D01*
X166352227Y-122899303D01*
X166352232Y-122899307D01*
X166525438Y-123020587D01*
X166525441Y-123020588D01*
X166525442Y-123020589D01*
X166717090Y-123109956D01*
X166921345Y-123164686D01*
X167132000Y-123183116D01*
X167342655Y-123164686D01*
X167546910Y-123109956D01*
X167738558Y-123020589D01*
X167911776Y-122899301D01*
X168061301Y-122749776D01*
X168143608Y-122632228D01*
X168199063Y-122587901D01*
X168246820Y-122578500D01*
X169499776Y-122578500D01*
X169567897Y-122598502D01*
X169573834Y-122602562D01*
X169723248Y-122711118D01*
X169897712Y-122788794D01*
X170084513Y-122828500D01*
X170275487Y-122828500D01*
X170462288Y-122788794D01*
X170636752Y-122711118D01*
X170791253Y-122598866D01*
X170809591Y-122578500D01*
X170919034Y-122456951D01*
X170919035Y-122456949D01*
X170919040Y-122456944D01*
X171014527Y-122291556D01*
X171063874Y-122139683D01*
X173924429Y-122139683D01*
X173944652Y-122448233D01*
X173944654Y-122448248D01*
X173974615Y-122598866D01*
X174004633Y-122749778D01*
X174004979Y-122751514D01*
X174004981Y-122751524D01*
X174104371Y-123044317D01*
X174104377Y-123044331D01*
X174241135Y-123321653D01*
X174412934Y-123578765D01*
X174616813Y-123811246D01*
X174849294Y-124015125D01*
X174849296Y-124015126D01*
X174849298Y-124015128D01*
X174874857Y-124032206D01*
X175106406Y-124186924D01*
X175286417Y-124275694D01*
X175383735Y-124323686D01*
X175676544Y-124423081D01*
X175938693Y-124475226D01*
X175979811Y-124483405D01*
X175979813Y-124483405D01*
X175979822Y-124483407D01*
X176156140Y-124494963D01*
X176288377Y-124503631D01*
X176288380Y-124503631D01*
X176288383Y-124503631D01*
X176404089Y-124496047D01*
X176596938Y-124483407D01*
X176900216Y-124423081D01*
X177193025Y-124323686D01*
X177452528Y-124195714D01*
X177470353Y-124186924D01*
X177470356Y-124186922D01*
X177727462Y-124015128D01*
X177959946Y-123811246D01*
X178163828Y-123578762D01*
X178335622Y-123321656D01*
X178335622Y-123321655D01*
X178335624Y-123321653D01*
X178403942Y-123183116D01*
X178472386Y-123044325D01*
X178571781Y-122751516D01*
X178632107Y-122448238D01*
X178649645Y-122180655D01*
X178652331Y-122139683D01*
X178652331Y-122139676D01*
X178632107Y-121831126D01*
X178632107Y-121831122D01*
X178571781Y-121527844D01*
X178472386Y-121235035D01*
X178335622Y-120957705D01*
X178163828Y-120700598D01*
X178163827Y-120700596D01*
X177959946Y-120468113D01*
X177727465Y-120264234D01*
X177470353Y-120092435D01*
X177193031Y-119955677D01*
X177193025Y-119955674D01*
X177193020Y-119955672D01*
X177193017Y-119955671D01*
X176900224Y-119856281D01*
X176900218Y-119856279D01*
X176900216Y-119856279D01*
X176813227Y-119838975D01*
X176596948Y-119795954D01*
X176596933Y-119795952D01*
X176288383Y-119775729D01*
X176288377Y-119775729D01*
X175979826Y-119795952D01*
X175979811Y-119795954D01*
X175720038Y-119847627D01*
X175676544Y-119856279D01*
X175676542Y-119856279D01*
X175676535Y-119856281D01*
X175383742Y-119955671D01*
X175383728Y-119955677D01*
X175106407Y-120092436D01*
X174849302Y-120264228D01*
X174849296Y-120264232D01*
X174616813Y-120468113D01*
X174412932Y-120700596D01*
X174412928Y-120700602D01*
X174241136Y-120957707D01*
X174104377Y-121235028D01*
X174104371Y-121235042D01*
X174004981Y-121527835D01*
X174004979Y-121527845D01*
X173944654Y-121831111D01*
X173944652Y-121831126D01*
X173924429Y-122139676D01*
X173924429Y-122139683D01*
X171063874Y-122139683D01*
X171073542Y-122109928D01*
X171093504Y-121920000D01*
X171073542Y-121730072D01*
X171014527Y-121548444D01*
X170919040Y-121383056D01*
X170919038Y-121383054D01*
X170919034Y-121383048D01*
X170791255Y-121241135D01*
X170636752Y-121128882D01*
X170462288Y-121051206D01*
X170275487Y-121011500D01*
X170084513Y-121011500D01*
X169897711Y-121051206D01*
X169723247Y-121128882D01*
X169568744Y-121241135D01*
X169497906Y-121319810D01*
X169437460Y-121357050D01*
X169404270Y-121361500D01*
X168246820Y-121361500D01*
X168178699Y-121341498D01*
X168143609Y-121307773D01*
X168061301Y-121190224D01*
X167911776Y-121040699D01*
X167911772Y-121040696D01*
X167911767Y-121040692D01*
X167738561Y-120919412D01*
X167546912Y-120830045D01*
X167546905Y-120830042D01*
X167524211Y-120823961D01*
X167515794Y-120821706D01*
X167455172Y-120784756D01*
X167424150Y-120720896D01*
X167432578Y-120650401D01*
X167477780Y-120595654D01*
X167515793Y-120578293D01*
X167546910Y-120569956D01*
X167738558Y-120480589D01*
X167911776Y-120359301D01*
X168061301Y-120209776D01*
X168182589Y-120036558D01*
X168271956Y-119844910D01*
X168326686Y-119640655D01*
X168345116Y-119430000D01*
X168326686Y-119219345D01*
X168271956Y-119015090D01*
X168182589Y-118823442D01*
X168182588Y-118823441D01*
X168182587Y-118823438D01*
X168117861Y-118731000D01*
X169533021Y-118731000D01*
X169552222Y-118950473D01*
X169609241Y-119163269D01*
X169609243Y-119163274D01*
X169702348Y-119362938D01*
X169702349Y-119362940D01*
X169828706Y-119543397D01*
X169828710Y-119543402D01*
X169828713Y-119543406D01*
X169984494Y-119699187D01*
X169984498Y-119699190D01*
X169984502Y-119699193D01*
X170087465Y-119771288D01*
X170164960Y-119825551D01*
X170364628Y-119918658D01*
X170577430Y-119975678D01*
X170796900Y-119994879D01*
X171016370Y-119975678D01*
X171229172Y-119918658D01*
X171428840Y-119825551D01*
X171609306Y-119699187D01*
X171765087Y-119543406D01*
X171891451Y-119362940D01*
X171928575Y-119283326D01*
X171975492Y-119230042D01*
X172043769Y-119210581D01*
X172111729Y-119231123D01*
X172156965Y-119283327D01*
X172194088Y-119362938D01*
X172194089Y-119362940D01*
X172320446Y-119543397D01*
X172320450Y-119543402D01*
X172320453Y-119543406D01*
X172476234Y-119699187D01*
X172476238Y-119699190D01*
X172476242Y-119699193D01*
X172579205Y-119771288D01*
X172656700Y-119825551D01*
X172856368Y-119918658D01*
X173069170Y-119975678D01*
X173288640Y-119994879D01*
X173508110Y-119975678D01*
X173720912Y-119918658D01*
X173920580Y-119825551D01*
X174101046Y-119699187D01*
X174256827Y-119543406D01*
X174383191Y-119362940D01*
X174476298Y-119163272D01*
X174533318Y-118950470D01*
X174552519Y-118731000D01*
X174533318Y-118511530D01*
X174476298Y-118298728D01*
X174383191Y-118099061D01*
X174256827Y-117918594D01*
X174101046Y-117762813D01*
X174101042Y-117762810D01*
X174101037Y-117762806D01*
X173920580Y-117636449D01*
X173920572Y-117636445D01*
X173873405Y-117614450D01*
X173837561Y-117589351D01*
X173508557Y-117260347D01*
X173474531Y-117198035D01*
X173479596Y-117127220D01*
X173522143Y-117070384D01*
X173542980Y-117057732D01*
X173544758Y-117056876D01*
X173644106Y-116964695D01*
X173667132Y-116924811D01*
X173718513Y-116875819D01*
X173788226Y-116862381D01*
X173854137Y-116888767D01*
X173865347Y-116898716D01*
X174340247Y-117373617D01*
X174382759Y-117312904D01*
X174475825Y-117113323D01*
X174475827Y-117113319D01*
X174532823Y-116900606D01*
X174552017Y-116681219D01*
X174532823Y-116461833D01*
X174475827Y-116249120D01*
X174475825Y-116249116D01*
X174382756Y-116049530D01*
X174340247Y-115988821D01*
X173867617Y-116461451D01*
X173805305Y-116495476D01*
X173734489Y-116490411D01*
X173680011Y-116450914D01*
X173597888Y-116347933D01*
X173524243Y-116297723D01*
X173479227Y-116242822D01*
X173471038Y-116172300D01*
X173502277Y-116108545D01*
X173506127Y-116104521D01*
X173981037Y-115629611D01*
X173920328Y-115587102D01*
X173723265Y-115495210D01*
X173669980Y-115448292D01*
X173650727Y-115380743D01*
X174734689Y-115380743D01*
X174754912Y-115689293D01*
X174754914Y-115689308D01*
X174815239Y-115992574D01*
X174815241Y-115992584D01*
X174914631Y-116285377D01*
X174914637Y-116285391D01*
X175051395Y-116562713D01*
X175223194Y-116819825D01*
X175427073Y-117052306D01*
X175659554Y-117256185D01*
X175659556Y-117256186D01*
X175659558Y-117256188D01*
X175706388Y-117287479D01*
X175916666Y-117427984D01*
X176096677Y-117516754D01*
X176193995Y-117564746D01*
X176486804Y-117664141D01*
X176748953Y-117716286D01*
X176790071Y-117724465D01*
X176790073Y-117724465D01*
X176790082Y-117724467D01*
X176966400Y-117736023D01*
X177098637Y-117744691D01*
X177098640Y-117744691D01*
X177098643Y-117744691D01*
X177214349Y-117737107D01*
X177407198Y-117724467D01*
X177710476Y-117664141D01*
X178003285Y-117564746D01*
X178235810Y-117450078D01*
X178280613Y-117427984D01*
X178280977Y-117427741D01*
X178537722Y-117256188D01*
X178770206Y-117052306D01*
X178974088Y-116819822D01*
X179145882Y-116562716D01*
X179145882Y-116562715D01*
X179145884Y-116562713D01*
X179227237Y-116397743D01*
X179282646Y-116285385D01*
X179382041Y-115992576D01*
X179442367Y-115689298D01*
X179455088Y-115495209D01*
X179462591Y-115380743D01*
X179462591Y-115380736D01*
X179442367Y-115072186D01*
X179442367Y-115072182D01*
X179437639Y-115048415D01*
X179418695Y-114953175D01*
X179382041Y-114768904D01*
X179282646Y-114476095D01*
X179145882Y-114198765D01*
X178974088Y-113941658D01*
X178974087Y-113941656D01*
X178770206Y-113709173D01*
X178537725Y-113505294D01*
X178280613Y-113333495D01*
X178003291Y-113196737D01*
X178003285Y-113196734D01*
X178003280Y-113196732D01*
X178003277Y-113196731D01*
X177710484Y-113097341D01*
X177710478Y-113097339D01*
X177710476Y-113097339D01*
X177623487Y-113080035D01*
X177407208Y-113037014D01*
X177407193Y-113037012D01*
X177098643Y-113016789D01*
X177098637Y-113016789D01*
X176790086Y-113037012D01*
X176790071Y-113037014D01*
X176530298Y-113088687D01*
X176486804Y-113097339D01*
X176486802Y-113097339D01*
X176486795Y-113097341D01*
X176194002Y-113196731D01*
X176193988Y-113196737D01*
X175916667Y-113333496D01*
X175659562Y-113505288D01*
X175659556Y-113505292D01*
X175427073Y-113709173D01*
X175223192Y-113941656D01*
X175223188Y-113941662D01*
X175051396Y-114198767D01*
X174914637Y-114476088D01*
X174914631Y-114476102D01*
X174815241Y-114768895D01*
X174815239Y-114768902D01*
X174815239Y-114768904D01*
X174807064Y-114810000D01*
X174754914Y-115072171D01*
X174754912Y-115072186D01*
X174734689Y-115380736D01*
X174734689Y-115380743D01*
X173650727Y-115380743D01*
X173650519Y-115380015D01*
X173671061Y-115312055D01*
X173723263Y-115266821D01*
X173920580Y-115174811D01*
X174101046Y-115048447D01*
X174256827Y-114892666D01*
X174383191Y-114712200D01*
X174476298Y-114512532D01*
X174533318Y-114299730D01*
X174552519Y-114080260D01*
X174533318Y-113860790D01*
X174476298Y-113647988D01*
X174383191Y-113448321D01*
X174256827Y-113267854D01*
X174133436Y-113144463D01*
X174099412Y-113082152D01*
X174104478Y-113011336D01*
X174133434Y-112966278D01*
X174256827Y-112842886D01*
X174383191Y-112662420D01*
X174476298Y-112462752D01*
X174533318Y-112249950D01*
X174552519Y-112030480D01*
X174533318Y-111811010D01*
X174476298Y-111598208D01*
X174383191Y-111398541D01*
X174256827Y-111218074D01*
X174101046Y-111062293D01*
X174101042Y-111062290D01*
X174101037Y-111062286D01*
X173920580Y-110935929D01*
X173920578Y-110935928D01*
X173720914Y-110842823D01*
X173720909Y-110842821D01*
X173508113Y-110785802D01*
X173288640Y-110766601D01*
X173069166Y-110785802D01*
X172856370Y-110842821D01*
X172856365Y-110842823D01*
X172656700Y-110935929D01*
X172476237Y-111062290D01*
X172476231Y-111062295D01*
X172320455Y-111218071D01*
X172320450Y-111218077D01*
X172194087Y-111398542D01*
X172156963Y-111478154D01*
X172110045Y-111531439D01*
X172041768Y-111550899D01*
X171973808Y-111530356D01*
X171928575Y-111478153D01*
X171891451Y-111398541D01*
X171765087Y-111218074D01*
X171609306Y-111062293D01*
X171609302Y-111062290D01*
X171609297Y-111062286D01*
X171428840Y-110935929D01*
X171428838Y-110935928D01*
X171229174Y-110842823D01*
X171229169Y-110842821D01*
X171016373Y-110785802D01*
X170851767Y-110771401D01*
X170796900Y-110766601D01*
X170796899Y-110766601D01*
X170577426Y-110785802D01*
X170364630Y-110842821D01*
X170364625Y-110842823D01*
X170164960Y-110935929D01*
X169984497Y-111062290D01*
X169984491Y-111062295D01*
X169828715Y-111218071D01*
X169828710Y-111218077D01*
X169702349Y-111398540D01*
X169609243Y-111598205D01*
X169609241Y-111598210D01*
X169552222Y-111811006D01*
X169533021Y-112030480D01*
X169552222Y-112249953D01*
X169594705Y-112408500D01*
X169609242Y-112462752D01*
X169609243Y-112462754D01*
X169702348Y-112662418D01*
X169702349Y-112662420D01*
X169828706Y-112842877D01*
X169828709Y-112842881D01*
X169828713Y-112842886D01*
X169984494Y-112998667D01*
X169984498Y-112998670D01*
X169984502Y-112998673D01*
X170039259Y-113037014D01*
X170164960Y-113125031D01*
X170364628Y-113218138D01*
X170577430Y-113275158D01*
X170796900Y-113294359D01*
X171016370Y-113275158D01*
X171229172Y-113218138D01*
X171428840Y-113125031D01*
X171609306Y-112998667D01*
X171765087Y-112842886D01*
X171891451Y-112662420D01*
X171928575Y-112582806D01*
X171975492Y-112529522D01*
X172043769Y-112510061D01*
X172111729Y-112530603D01*
X172156964Y-112582806D01*
X172177253Y-112626316D01*
X172194088Y-112662418D01*
X172194089Y-112662420D01*
X172320446Y-112842877D01*
X172320455Y-112842888D01*
X172443842Y-112966275D01*
X172477868Y-113028587D01*
X172472803Y-113099402D01*
X172443842Y-113144465D01*
X172320455Y-113267851D01*
X172320450Y-113267857D01*
X172194089Y-113448320D01*
X172100983Y-113647985D01*
X172100981Y-113647990D01*
X172043962Y-113860786D01*
X172024761Y-114080259D01*
X172043962Y-114299733D01*
X172100981Y-114512529D01*
X172100983Y-114512534D01*
X172194088Y-114712198D01*
X172194089Y-114712200D01*
X172320446Y-114892657D01*
X172320450Y-114892662D01*
X172320453Y-114892666D01*
X172476234Y-115048447D01*
X172476238Y-115048450D01*
X172476242Y-115048453D01*
X172511923Y-115073437D01*
X172656700Y-115174811D01*
X172854014Y-115266820D01*
X172907299Y-115313737D01*
X172926760Y-115382015D01*
X172906218Y-115449974D01*
X172854015Y-115495209D01*
X172656952Y-115587102D01*
X172596240Y-115629610D01*
X173068722Y-116102091D01*
X173102747Y-116164404D01*
X173097683Y-116235219D01*
X173055136Y-116292055D01*
X173034300Y-116304707D01*
X173032527Y-116305560D01*
X173032519Y-116305566D01*
X172933175Y-116397743D01*
X172933173Y-116397745D01*
X172910147Y-116437629D01*
X172858764Y-116486622D01*
X172789050Y-116500057D01*
X172723139Y-116473670D01*
X172711932Y-116463723D01*
X172237030Y-115988820D01*
X172194523Y-116049530D01*
X172101454Y-116249116D01*
X172101452Y-116249120D01*
X172044456Y-116461833D01*
X172025262Y-116681220D01*
X172044456Y-116900606D01*
X172101452Y-117113319D01*
X172101454Y-117113323D01*
X172194522Y-117312908D01*
X172237031Y-117373617D01*
X172709660Y-116900987D01*
X172771973Y-116866962D01*
X172842788Y-116872026D01*
X172897266Y-116911522D01*
X172926422Y-116948083D01*
X172979114Y-117014158D01*
X172979394Y-117014508D01*
X172991068Y-117022467D01*
X173053035Y-117064716D01*
X173098051Y-117119617D01*
X173106240Y-117190140D01*
X173075001Y-117253894D01*
X173071151Y-117257917D01*
X172739716Y-117589352D01*
X172703874Y-117614450D01*
X172656702Y-117636448D01*
X172656696Y-117636451D01*
X172476242Y-117762806D01*
X172476231Y-117762815D01*
X172320455Y-117918591D01*
X172320450Y-117918597D01*
X172194087Y-118099062D01*
X172156963Y-118178674D01*
X172110045Y-118231959D01*
X172041768Y-118251419D01*
X171973808Y-118230876D01*
X171928575Y-118178673D01*
X171891451Y-118099061D01*
X171765087Y-117918594D01*
X171609306Y-117762813D01*
X171609302Y-117762810D01*
X171609297Y-117762806D01*
X171428840Y-117636449D01*
X171428838Y-117636448D01*
X171229174Y-117543343D01*
X171229169Y-117543341D01*
X171016373Y-117486322D01*
X170851767Y-117471921D01*
X170796900Y-117467121D01*
X170796899Y-117467121D01*
X170577426Y-117486322D01*
X170364630Y-117543341D01*
X170364625Y-117543343D01*
X170164960Y-117636449D01*
X169984497Y-117762810D01*
X169984491Y-117762815D01*
X169828715Y-117918591D01*
X169828710Y-117918597D01*
X169702349Y-118099060D01*
X169609243Y-118298725D01*
X169609241Y-118298730D01*
X169552222Y-118511526D01*
X169533021Y-118731000D01*
X168117861Y-118731000D01*
X168061307Y-118650232D01*
X168061304Y-118650228D01*
X168061301Y-118650224D01*
X167911776Y-118500699D01*
X167911772Y-118500696D01*
X167911767Y-118500692D01*
X167738561Y-118379412D01*
X167565526Y-118298725D01*
X167546910Y-118290044D01*
X167546908Y-118290043D01*
X167452112Y-118264643D01*
X167342655Y-118235314D01*
X167132000Y-118216884D01*
X166921345Y-118235314D01*
X166890802Y-118243498D01*
X166717091Y-118290043D01*
X166717087Y-118290045D01*
X166525438Y-118379412D01*
X166352232Y-118500692D01*
X166352221Y-118500701D01*
X166202701Y-118650221D01*
X166202692Y-118650232D01*
X166081412Y-118823438D01*
X165992045Y-119015087D01*
X165992043Y-119015091D01*
X165952340Y-119163269D01*
X165937314Y-119219345D01*
X165918884Y-119430000D01*
X165937314Y-119640655D01*
X165953051Y-119699385D01*
X165992043Y-119844908D01*
X165992045Y-119844912D01*
X166081412Y-120036561D01*
X166202692Y-120209767D01*
X166202696Y-120209772D01*
X166202699Y-120209776D01*
X166352224Y-120359301D01*
X166352228Y-120359304D01*
X166352232Y-120359307D01*
X166525438Y-120480587D01*
X166525441Y-120480588D01*
X166525442Y-120480589D01*
X166717090Y-120569956D01*
X166748205Y-120578293D01*
X166808828Y-120615245D01*
X166839849Y-120679105D01*
X166831421Y-120749600D01*
X166786218Y-120804347D01*
X166748206Y-120821706D01*
X166740406Y-120823796D01*
X166717091Y-120830043D01*
X166717087Y-120830045D01*
X166525438Y-120919412D01*
X166352232Y-121040692D01*
X166352221Y-121040701D01*
X166202701Y-121190221D01*
X166202692Y-121190232D01*
X166081412Y-121363438D01*
X165992045Y-121555087D01*
X165992043Y-121555091D01*
X165960740Y-121671917D01*
X165937314Y-121759345D01*
X165918884Y-121970000D01*
X164926900Y-121970000D01*
X164926900Y-121786800D01*
X164927440Y-121778568D01*
X164932150Y-121742789D01*
X164932150Y-121742788D01*
X164926900Y-121702909D01*
X164926900Y-121702904D01*
X164912863Y-121596279D01*
X164912585Y-121594171D01*
X164911238Y-121583939D01*
X164911073Y-121583539D01*
X164849924Y-121435913D01*
X164776877Y-121340717D01*
X164776874Y-121340714D01*
X164760834Y-121319810D01*
X164752388Y-121308802D01*
X164723746Y-121286824D01*
X164717553Y-121281393D01*
X164062201Y-120626041D01*
X164056774Y-120619853D01*
X164034798Y-120591213D01*
X164002885Y-120566725D01*
X164002883Y-120566723D01*
X163940270Y-120518678D01*
X163907693Y-120493680D01*
X163907685Y-120493675D01*
X163759662Y-120432362D01*
X163759661Y-120432362D01*
X163740267Y-120429808D01*
X163705013Y-120425167D01*
X163638852Y-120416457D01*
X163638831Y-120416455D01*
X163600813Y-120411450D01*
X163600810Y-120411450D01*
X163565030Y-120416160D01*
X163556799Y-120416700D01*
X158591239Y-120416700D01*
X158523118Y-120396698D01*
X158502144Y-120379795D01*
X155809418Y-117687069D01*
X155775392Y-117624757D01*
X155780457Y-117553942D01*
X155804874Y-117513667D01*
X155882240Y-117427744D01*
X155977727Y-117262356D01*
X156036742Y-117080728D01*
X156056704Y-116890800D01*
X156036742Y-116700872D01*
X155977727Y-116519244D01*
X155882240Y-116353856D01*
X155882238Y-116353854D01*
X155882234Y-116353848D01*
X155754455Y-116211935D01*
X155599952Y-116099682D01*
X155425488Y-116022006D01*
X155238687Y-115982300D01*
X155047713Y-115982300D01*
X154860911Y-116022006D01*
X154686447Y-116099682D01*
X154531944Y-116211935D01*
X154404165Y-116353848D01*
X154404158Y-116353858D01*
X154308676Y-116519238D01*
X154308673Y-116519244D01*
X154302284Y-116538907D01*
X154249657Y-116700872D01*
X154229696Y-116890799D01*
X154249657Y-117080727D01*
X154273984Y-117155595D01*
X154308673Y-117262356D01*
X154336453Y-117310472D01*
X154373296Y-117374287D01*
X154404160Y-117427744D01*
X154502336Y-117536780D01*
X154533053Y-117600787D01*
X154534700Y-117621090D01*
X154534700Y-117837388D01*
X154534160Y-117845619D01*
X154529450Y-117881398D01*
X154529450Y-117881401D01*
X154534215Y-117917597D01*
X154534216Y-117917604D01*
X154534347Y-117918597D01*
X154534700Y-117921279D01*
X154534700Y-117921285D01*
X154545417Y-118002693D01*
X154547766Y-118020529D01*
X154550361Y-118040249D01*
X154550362Y-118040251D01*
X154611676Y-118188276D01*
X154684723Y-118283472D01*
X154684725Y-118283474D01*
X154696431Y-118298730D01*
X154709214Y-118315388D01*
X154737851Y-118337362D01*
X154744044Y-118342793D01*
X155894460Y-119493209D01*
X157027856Y-120626605D01*
X157061882Y-120688917D01*
X157056817Y-120759732D01*
X157014270Y-120816568D01*
X156947750Y-120841379D01*
X156938761Y-120841700D01*
X151303896Y-120841700D01*
X151235775Y-120821698D01*
X151214801Y-120804796D01*
X151061052Y-120651048D01*
X151055614Y-120644847D01*
X151033641Y-120616212D01*
X151033636Y-120616207D01*
X151002992Y-120592693D01*
X151002987Y-120592689D01*
X150948933Y-120551213D01*
X150906530Y-120518676D01*
X150846185Y-120493680D01*
X150758503Y-120457361D01*
X150684712Y-120447647D01*
X150639540Y-120441700D01*
X150639537Y-120441700D01*
X150637402Y-120441419D01*
X150637392Y-120441418D01*
X150599655Y-120436450D01*
X150599653Y-120436450D01*
X150563873Y-120441160D01*
X150555642Y-120441700D01*
X148380039Y-120441700D01*
X148311918Y-120421698D01*
X148290944Y-120404795D01*
X146821007Y-118934858D01*
X146786981Y-118872546D01*
X146792046Y-118801731D01*
X146834593Y-118744895D01*
X146883904Y-118722516D01*
X146992688Y-118699394D01*
X147167152Y-118621718D01*
X147321653Y-118509466D01*
X147384860Y-118439268D01*
X147449439Y-118367545D01*
X147449440Y-118367544D01*
X147458387Y-118352046D01*
X147509766Y-118303053D01*
X147579479Y-118289613D01*
X147618752Y-118299934D01*
X147774312Y-118369194D01*
X147961113Y-118408900D01*
X148152087Y-118408900D01*
X148338888Y-118369194D01*
X148513352Y-118291518D01*
X148667853Y-118179266D01*
X148789090Y-118044619D01*
X148795634Y-118037351D01*
X148795635Y-118037349D01*
X148795640Y-118037344D01*
X148891127Y-117871956D01*
X148950142Y-117690328D01*
X148970104Y-117500400D01*
X148950142Y-117310472D01*
X148891127Y-117128844D01*
X148795640Y-116963456D01*
X148730220Y-116890800D01*
X148697463Y-116854419D01*
X148666746Y-116790412D01*
X148665100Y-116770109D01*
X148665100Y-114254618D01*
X148665640Y-114246386D01*
X148670351Y-114210600D01*
X148670351Y-114210599D01*
X148655369Y-114096800D01*
X148649438Y-114051749D01*
X148588124Y-113903724D01*
X148588119Y-113903717D01*
X148513501Y-113806473D01*
X148513471Y-113806436D01*
X148490586Y-113776612D01*
X148461946Y-113754635D01*
X148455753Y-113749204D01*
X145203790Y-110497241D01*
X145198363Y-110491053D01*
X145176387Y-110462413D01*
X145144474Y-110437925D01*
X145144472Y-110437923D01*
X145103049Y-110406138D01*
X145049282Y-110364880D01*
X145049274Y-110364875D01*
X144901251Y-110303562D01*
X144901243Y-110303561D01*
X144881856Y-110301008D01*
X144823806Y-110293366D01*
X144780441Y-110287657D01*
X144780420Y-110287655D01*
X144742402Y-110282650D01*
X144742399Y-110282650D01*
X144706619Y-110287360D01*
X144698388Y-110287900D01*
X142639611Y-110287900D01*
X142631379Y-110287360D01*
X142595601Y-110282650D01*
X142595599Y-110282650D01*
X142568332Y-110286239D01*
X142555722Y-110287900D01*
X142555715Y-110287900D01*
X142495973Y-110295765D01*
X142436751Y-110303561D01*
X142357907Y-110336220D01*
X142288726Y-110364874D01*
X142194939Y-110436840D01*
X142194911Y-110436860D01*
X142161612Y-110462412D01*
X142139635Y-110491053D01*
X142134197Y-110497253D01*
X140951852Y-111679598D01*
X140945651Y-111685036D01*
X140917011Y-111707014D01*
X140891460Y-111740311D01*
X140891440Y-111740339D01*
X140819473Y-111834127D01*
X140758348Y-111981702D01*
X140758161Y-111982151D01*
X140754600Y-112009204D01*
X140742500Y-112101115D01*
X140742500Y-112101120D01*
X140742500Y-112101121D01*
X140737250Y-112140999D01*
X140737250Y-112141000D01*
X140741960Y-112176779D01*
X140742500Y-112185011D01*
X140742500Y-113338300D01*
X140722498Y-113406421D01*
X140710136Y-113422610D01*
X140586565Y-113559848D01*
X140586558Y-113559858D01*
X140491076Y-113725238D01*
X140491072Y-113725245D01*
X140446332Y-113862939D01*
X140406258Y-113921545D01*
X140340861Y-113949181D01*
X140270904Y-113937074D01*
X140218598Y-113889067D01*
X140200499Y-113824004D01*
X140200499Y-112670328D01*
X140201039Y-112662096D01*
X140205644Y-112627117D01*
X140205750Y-112626314D01*
X140201851Y-112596705D01*
X140201851Y-112596696D01*
X140200499Y-112586430D01*
X140200500Y-112586429D01*
X140184838Y-112467464D01*
X140182887Y-112462752D01*
X140123524Y-112319438D01*
X140050477Y-112224243D01*
X140025987Y-112192327D01*
X139997347Y-112170350D01*
X139991146Y-112164911D01*
X139329404Y-111503169D01*
X139295379Y-111440857D01*
X139292500Y-111414074D01*
X139292500Y-108621803D01*
X173924429Y-108621803D01*
X173944652Y-108930353D01*
X173944654Y-108930368D01*
X174004979Y-109233634D01*
X174004981Y-109233644D01*
X174104371Y-109526437D01*
X174104377Y-109526451D01*
X174241135Y-109803773D01*
X174412934Y-110060885D01*
X174616813Y-110293366D01*
X174849294Y-110497245D01*
X174849296Y-110497246D01*
X174849298Y-110497248D01*
X174934210Y-110553985D01*
X175106406Y-110669044D01*
X175286417Y-110757814D01*
X175383735Y-110805806D01*
X175676544Y-110905201D01*
X175938693Y-110957346D01*
X175979811Y-110965525D01*
X175979813Y-110965525D01*
X175979822Y-110965527D01*
X176156140Y-110977083D01*
X176288377Y-110985751D01*
X176288380Y-110985751D01*
X176288383Y-110985751D01*
X176404089Y-110978167D01*
X176596938Y-110965527D01*
X176900216Y-110905201D01*
X177193025Y-110805806D01*
X177377912Y-110714629D01*
X177470353Y-110669044D01*
X177470356Y-110669042D01*
X177727462Y-110497248D01*
X177959946Y-110293366D01*
X178163828Y-110060882D01*
X178335622Y-109803776D01*
X178335622Y-109803775D01*
X178335624Y-109803773D01*
X178381209Y-109711332D01*
X178472386Y-109526445D01*
X178571781Y-109233636D01*
X178632107Y-108930358D01*
X178652331Y-108621800D01*
X178632107Y-108313242D01*
X178571781Y-108009964D01*
X178472386Y-107717155D01*
X178335622Y-107439825D01*
X178221406Y-107268889D01*
X178163831Y-107182722D01*
X178163827Y-107182716D01*
X177959946Y-106950233D01*
X177727465Y-106746354D01*
X177470353Y-106574555D01*
X177193031Y-106437797D01*
X177193025Y-106437794D01*
X177193020Y-106437792D01*
X177193017Y-106437791D01*
X176900224Y-106338401D01*
X176900218Y-106338399D01*
X176900216Y-106338399D01*
X176813227Y-106321095D01*
X176596948Y-106278074D01*
X176596933Y-106278072D01*
X176288383Y-106257849D01*
X176288377Y-106257849D01*
X175979826Y-106278072D01*
X175979811Y-106278074D01*
X175720038Y-106329747D01*
X175676544Y-106338399D01*
X175676542Y-106338399D01*
X175676535Y-106338401D01*
X175383742Y-106437791D01*
X175383728Y-106437797D01*
X175106407Y-106574556D01*
X174849302Y-106746348D01*
X174849296Y-106746352D01*
X174616813Y-106950233D01*
X174412932Y-107182716D01*
X174412928Y-107182722D01*
X174241136Y-107439827D01*
X174104377Y-107717148D01*
X174104371Y-107717162D01*
X174004981Y-108009955D01*
X174004979Y-108009965D01*
X173944654Y-108313231D01*
X173944652Y-108313246D01*
X173924429Y-108621796D01*
X173924429Y-108621803D01*
X139292500Y-108621803D01*
X139292500Y-104692010D01*
X139293040Y-104683778D01*
X139294383Y-104673566D01*
X139297750Y-104648000D01*
X139292500Y-104608122D01*
X139292500Y-104608115D01*
X139276838Y-104489150D01*
X139216312Y-104343027D01*
X139215665Y-104341307D01*
X139141163Y-104244216D01*
X139141154Y-104244205D01*
X139117988Y-104214013D01*
X139089346Y-104192035D01*
X139083153Y-104186604D01*
X138797879Y-103901330D01*
X138763853Y-103839018D01*
X138764830Y-103781304D01*
X138808049Y-103610633D01*
X138808051Y-103610626D01*
X138827327Y-103378000D01*
X138808051Y-103145374D01*
X138775029Y-103014972D01*
X138750750Y-102919096D01*
X138750747Y-102919089D01*
X138719496Y-102847845D01*
X138656984Y-102705331D01*
X138565019Y-102564567D01*
X138529314Y-102509916D01*
X138380259Y-102348000D01*
X173133950Y-102348000D01*
X173154117Y-102604246D01*
X173214121Y-102854183D01*
X173312486Y-103091657D01*
X173446791Y-103310824D01*
X173448252Y-103312535D01*
X173979615Y-102781172D01*
X174041928Y-102747147D01*
X174112743Y-102752211D01*
X174169579Y-102794758D01*
X174169778Y-102795024D01*
X174222755Y-102866184D01*
X174329627Y-102955862D01*
X174368953Y-103014972D01*
X174370079Y-103085960D01*
X174337730Y-103141478D01*
X173807462Y-103671745D01*
X173807462Y-103671746D01*
X173809174Y-103673207D01*
X174028342Y-103807513D01*
X174265816Y-103905878D01*
X174515753Y-103965882D01*
X174772000Y-103986049D01*
X175028246Y-103965882D01*
X175278183Y-103905878D01*
X175515657Y-103807513D01*
X175734825Y-103673207D01*
X175736535Y-103671746D01*
X175736536Y-103671745D01*
X175206199Y-103141408D01*
X175172173Y-103079096D01*
X175177238Y-103008281D01*
X175219785Y-102951445D01*
X175226034Y-102947056D01*
X175257373Y-102926445D01*
X175377688Y-102798918D01*
X175377691Y-102798912D01*
X175377862Y-102798684D01*
X175378023Y-102798562D01*
X175382725Y-102793579D01*
X175383576Y-102794382D01*
X175434581Y-102755982D01*
X175505382Y-102750724D01*
X175567787Y-102784578D01*
X176095745Y-103312536D01*
X176095746Y-103312535D01*
X176097207Y-103310825D01*
X176231513Y-103091657D01*
X176329878Y-102854183D01*
X176389882Y-102604246D01*
X176410049Y-102347999D01*
X176389882Y-102091753D01*
X176329878Y-101841816D01*
X176231513Y-101604342D01*
X176097207Y-101385174D01*
X176095745Y-101383462D01*
X175564382Y-101914826D01*
X175502070Y-101948852D01*
X175431255Y-101943787D01*
X175374419Y-101901240D01*
X175374220Y-101900973D01*
X175321246Y-101829817D01*
X175214371Y-101740137D01*
X175175045Y-101681027D01*
X175173919Y-101610039D01*
X175206268Y-101554520D01*
X175736536Y-101024252D01*
X175734824Y-101022791D01*
X175515657Y-100888486D01*
X175278183Y-100790121D01*
X175028246Y-100730117D01*
X174772000Y-100709950D01*
X174515753Y-100730117D01*
X174265816Y-100790121D01*
X174028342Y-100888486D01*
X173809177Y-101022790D01*
X173809174Y-101022793D01*
X173807462Y-101024252D01*
X174337801Y-101554590D01*
X174371826Y-101616903D01*
X174366762Y-101687718D01*
X174324215Y-101744554D01*
X174317944Y-101748957D01*
X174286631Y-101769551D01*
X174286624Y-101769557D01*
X174166311Y-101897083D01*
X174166122Y-101897337D01*
X174165947Y-101897467D01*
X174161276Y-101902420D01*
X174160429Y-101901621D01*
X174109394Y-101940027D01*
X174038591Y-101945271D01*
X173976193Y-101911403D01*
X173975967Y-101911178D01*
X173448252Y-101383462D01*
X173446793Y-101385174D01*
X173446790Y-101385177D01*
X173312486Y-101604342D01*
X173214121Y-101841816D01*
X173154117Y-102091753D01*
X173133950Y-102348000D01*
X138380259Y-102348000D01*
X138371225Y-102338186D01*
X138371221Y-102338182D01*
X138215368Y-102216877D01*
X138187017Y-102194810D01*
X137981727Y-102083713D01*
X137981724Y-102083712D01*
X137981723Y-102083711D01*
X137760955Y-102007921D01*
X137760948Y-102007919D01*
X137662411Y-101991476D01*
X137530712Y-101969500D01*
X137297288Y-101969500D01*
X137182066Y-101988727D01*
X137067051Y-102007919D01*
X137067044Y-102007921D01*
X136846276Y-102083711D01*
X136846273Y-102083713D01*
X136640985Y-102194809D01*
X136640983Y-102194810D01*
X136456778Y-102338182D01*
X136456774Y-102338186D01*
X136298685Y-102509916D01*
X136171015Y-102705331D01*
X136077252Y-102919089D01*
X136077249Y-102919096D01*
X136019950Y-103145366D01*
X136000673Y-103377999D01*
X136019950Y-103610633D01*
X136077249Y-103836903D01*
X136077252Y-103836910D01*
X136171015Y-104050668D01*
X136298584Y-104245928D01*
X136298686Y-104246083D01*
X136383842Y-104338587D01*
X136415263Y-104402251D01*
X136407276Y-104472797D01*
X136362417Y-104527826D01*
X136335175Y-104541979D01*
X136267795Y-104567111D01*
X136267792Y-104567112D01*
X136150738Y-104654738D01*
X136063112Y-104771792D01*
X136063110Y-104771797D01*
X136012011Y-104908795D01*
X136012009Y-104908803D01*
X136005500Y-104969350D01*
X136005500Y-106866649D01*
X136012009Y-106927196D01*
X136012011Y-106927204D01*
X136063110Y-107064202D01*
X136063112Y-107064207D01*
X136150738Y-107181261D01*
X136267792Y-107268887D01*
X136267794Y-107268888D01*
X136267796Y-107268889D01*
X136326875Y-107290924D01*
X136404795Y-107319988D01*
X136404803Y-107319990D01*
X136465350Y-107326499D01*
X136465355Y-107326499D01*
X136465362Y-107326500D01*
X137949500Y-107326500D01*
X138017621Y-107346502D01*
X138064114Y-107400158D01*
X138075500Y-107452500D01*
X138075500Y-109465500D01*
X138055498Y-109533621D01*
X138001842Y-109580114D01*
X137949500Y-109591500D01*
X136451350Y-109591500D01*
X136390803Y-109598009D01*
X136390795Y-109598011D01*
X136253797Y-109649110D01*
X136253792Y-109649112D01*
X136136738Y-109736738D01*
X136049112Y-109853792D01*
X136049110Y-109853797D01*
X135998011Y-109990795D01*
X135998009Y-109990803D01*
X135991500Y-110051350D01*
X135991500Y-111948649D01*
X135998009Y-112009196D01*
X135998011Y-112009204D01*
X136049110Y-112146202D01*
X136049112Y-112146207D01*
X136136738Y-112263261D01*
X136253791Y-112350886D01*
X136253792Y-112350886D01*
X136253796Y-112350889D01*
X136321176Y-112376020D01*
X136378009Y-112418566D01*
X136402820Y-112485087D01*
X136387728Y-112554461D01*
X136369842Y-112579412D01*
X136284685Y-112671916D01*
X136157015Y-112867331D01*
X136063252Y-113081089D01*
X136063249Y-113081096D01*
X136005950Y-113307366D01*
X136005949Y-113307372D01*
X136005949Y-113307374D01*
X135986673Y-113540000D01*
X136004458Y-113754635D01*
X136005950Y-113772633D01*
X136063249Y-113998903D01*
X136063252Y-113998910D01*
X136157015Y-114212668D01*
X136284685Y-114408083D01*
X136442774Y-114579813D01*
X136442778Y-114579817D01*
X136516309Y-114637048D01*
X136610767Y-114710568D01*
X136652237Y-114768192D01*
X136655971Y-114839091D01*
X136620781Y-114900753D01*
X136610767Y-114909430D01*
X136442780Y-115040181D01*
X136442774Y-115040186D01*
X136284685Y-115211916D01*
X136157015Y-115407331D01*
X136063252Y-115621089D01*
X136063249Y-115621096D01*
X136005950Y-115847366D01*
X136005949Y-115847372D01*
X136005949Y-115847374D01*
X135986673Y-116080000D01*
X136005363Y-116305560D01*
X136005950Y-116312633D01*
X136063249Y-116538903D01*
X136063252Y-116538910D01*
X136157015Y-116752668D01*
X136284685Y-116948083D01*
X136442774Y-117119813D01*
X136442778Y-117119817D01*
X136488746Y-117155595D01*
X136626983Y-117263190D01*
X136832273Y-117374287D01*
X137053049Y-117450080D01*
X137283288Y-117488500D01*
X137283292Y-117488500D01*
X137516708Y-117488500D01*
X137516712Y-117488500D01*
X137746951Y-117450080D01*
X137967727Y-117374287D01*
X138100730Y-117302309D01*
X138170158Y-117287479D01*
X138236585Y-117312539D01*
X138249793Y-117324028D01*
X142787719Y-121861954D01*
X142793152Y-121868149D01*
X142811067Y-121891496D01*
X142836667Y-121957717D01*
X142822402Y-122027265D01*
X142821606Y-122028614D01*
X142821622Y-122028623D01*
X142819140Y-122033208D01*
X142728703Y-122239386D01*
X142728702Y-122239387D01*
X142673437Y-122457624D01*
X142673436Y-122457630D01*
X142673436Y-122457632D01*
X142654844Y-122682000D01*
X142672850Y-122899301D01*
X142673437Y-122906375D01*
X142728702Y-123124612D01*
X142728705Y-123124619D01*
X142747245Y-123166886D01*
X142756292Y-123237304D01*
X142725831Y-123301434D01*
X142665535Y-123338916D01*
X142631858Y-123343500D01*
X142290239Y-123343500D01*
X142222118Y-123323498D01*
X142201144Y-123306595D01*
X138859405Y-119964856D01*
X138825379Y-119902544D01*
X138822500Y-119875761D01*
X138822500Y-119051367D01*
X138822499Y-119051350D01*
X138815990Y-118990803D01*
X138815988Y-118990795D01*
X138764889Y-118853797D01*
X138764887Y-118853792D01*
X138677261Y-118736738D01*
X138560207Y-118649112D01*
X138560202Y-118649110D01*
X138423204Y-118598011D01*
X138423196Y-118598009D01*
X138362649Y-118591500D01*
X138362638Y-118591500D01*
X136465362Y-118591500D01*
X136465350Y-118591500D01*
X136404803Y-118598009D01*
X136404795Y-118598011D01*
X136267797Y-118649110D01*
X136267792Y-118649112D01*
X136150738Y-118736738D01*
X136063112Y-118853792D01*
X136063110Y-118853797D01*
X136012011Y-118990795D01*
X136012009Y-118990803D01*
X136005500Y-119051350D01*
X136005500Y-120948649D01*
X136012009Y-121009196D01*
X136012011Y-121009204D01*
X136063110Y-121146202D01*
X136063112Y-121146207D01*
X136150738Y-121263261D01*
X136267791Y-121350886D01*
X136267792Y-121350886D01*
X136267796Y-121350889D01*
X136335176Y-121376020D01*
X136392009Y-121418566D01*
X136416820Y-121485087D01*
X136401728Y-121554461D01*
X136383842Y-121579412D01*
X136298685Y-121671916D01*
X136171015Y-121867331D01*
X136077252Y-122081089D01*
X136077249Y-122081096D01*
X136019950Y-122307366D01*
X136019949Y-122307372D01*
X136019949Y-122307374D01*
X136000673Y-122540000D01*
X136018200Y-122751524D01*
X136019950Y-122772633D01*
X136077249Y-122998903D01*
X136077252Y-122998910D01*
X136171015Y-123212668D01*
X136298685Y-123408083D01*
X136456774Y-123579813D01*
X136456785Y-123579823D01*
X136624766Y-123710569D01*
X136666237Y-123768194D01*
X136669970Y-123839092D01*
X136634780Y-123900754D01*
X136624766Y-123909431D01*
X136456785Y-124040176D01*
X136456774Y-124040186D01*
X136298685Y-124211916D01*
X136171015Y-124407331D01*
X136077252Y-124621089D01*
X136077249Y-124621096D01*
X136019950Y-124847366D01*
X136019949Y-124847372D01*
X136019949Y-124847374D01*
X136000673Y-125080000D01*
X136013866Y-125239218D01*
X136019950Y-125312633D01*
X136077249Y-125538903D01*
X136077252Y-125538910D01*
X136171015Y-125752668D01*
X136273310Y-125909243D01*
X136298686Y-125948083D01*
X136388900Y-126046081D01*
X136398182Y-126056164D01*
X136429603Y-126119830D01*
X136421616Y-126190375D01*
X136376757Y-126245404D01*
X136349514Y-126259557D01*
X136242397Y-126299510D01*
X136242392Y-126299512D01*
X136125338Y-126387138D01*
X136037712Y-126504192D01*
X136037710Y-126504197D01*
X135986611Y-126641195D01*
X135986609Y-126641203D01*
X135980100Y-126701750D01*
X135980100Y-128599049D01*
X135986609Y-128659596D01*
X135986611Y-128659604D01*
X136037710Y-128796602D01*
X136037712Y-128796607D01*
X136125338Y-128913661D01*
X136242392Y-129001287D01*
X136242394Y-129001288D01*
X136242396Y-129001289D01*
X136301475Y-129023324D01*
X136379395Y-129052388D01*
X136379403Y-129052390D01*
X136439950Y-129058899D01*
X136439955Y-129058899D01*
X136439962Y-129058900D01*
X136439968Y-129058900D01*
X136564121Y-129058900D01*
X136632242Y-129078902D01*
X136653216Y-129095805D01*
X137168368Y-129610957D01*
X137202394Y-129673269D01*
X137197329Y-129744084D01*
X137154782Y-129800920D01*
X137133947Y-129813572D01*
X137132246Y-129814391D01*
X137132244Y-129814392D01*
X137032801Y-129906661D01*
X137009800Y-129946501D01*
X136958417Y-129995494D01*
X136888703Y-130008929D01*
X136822792Y-129982542D01*
X136811586Y-129972596D01*
X136229396Y-129390407D01*
X136229395Y-129390407D01*
X136146061Y-129517960D01*
X136146054Y-129517974D01*
X136052326Y-129731652D01*
X136052324Y-129731656D01*
X135995044Y-129957850D01*
X135975774Y-130190400D01*
X135995044Y-130422949D01*
X136052324Y-130649143D01*
X136052326Y-130649147D01*
X136146054Y-130862825D01*
X136146061Y-130862839D01*
X136229395Y-130990391D01*
X136809321Y-130410466D01*
X136871634Y-130376441D01*
X136942449Y-130381505D01*
X136996928Y-130421002D01*
X137079062Y-130523997D01*
X137079065Y-130523999D01*
X137142459Y-130567221D01*
X137152693Y-130574198D01*
X137197709Y-130629099D01*
X137205898Y-130699622D01*
X137174659Y-130763376D01*
X137170810Y-130767399D01*
X136587280Y-131350928D01*
X136599773Y-131360651D01*
X136641244Y-131418276D01*
X136644978Y-131489175D01*
X136609788Y-131550837D01*
X136599773Y-131559514D01*
X136431385Y-131690576D01*
X136431374Y-131690586D01*
X136273285Y-131862316D01*
X136145615Y-132057731D01*
X136051852Y-132271489D01*
X136051849Y-132271496D01*
X135994550Y-132497766D01*
X135994549Y-132497772D01*
X135994549Y-132497774D01*
X135981206Y-132658799D01*
X135975767Y-132724444D01*
X135975273Y-132730400D01*
X135994464Y-132962005D01*
X135994550Y-132963033D01*
X136051849Y-133189303D01*
X136051852Y-133189310D01*
X136145615Y-133403068D01*
X136273285Y-133598483D01*
X136431374Y-133770213D01*
X136431378Y-133770217D01*
X136467800Y-133798565D01*
X136615583Y-133913590D01*
X136820873Y-134024687D01*
X137041649Y-134100480D01*
X137271888Y-134138900D01*
X137271892Y-134138900D01*
X137505308Y-134138900D01*
X137505312Y-134138900D01*
X137735551Y-134100480D01*
X137956327Y-134024687D01*
X138161617Y-133913590D01*
X138345820Y-133770218D01*
X138355588Y-133759608D01*
X138503914Y-133598483D01*
X138563325Y-133507547D01*
X138631584Y-133403069D01*
X138725349Y-133189307D01*
X138782651Y-132963026D01*
X138801927Y-132730400D01*
X138782651Y-132497774D01*
X138767291Y-132437118D01*
X138725350Y-132271496D01*
X138725347Y-132271489D01*
X138718116Y-132255005D01*
X138631584Y-132057731D01*
X138595659Y-132002744D01*
X138503914Y-131862316D01*
X138345825Y-131690586D01*
X138345821Y-131690582D01*
X138177426Y-131559515D01*
X138135955Y-131501889D01*
X138132221Y-131430991D01*
X138167411Y-131369329D01*
X138177424Y-131360653D01*
X138189917Y-131350928D01*
X137608831Y-130769843D01*
X137574806Y-130707530D01*
X137579870Y-130636715D01*
X137622417Y-130579879D01*
X137643258Y-130567225D01*
X137644957Y-130566407D01*
X137744398Y-130474140D01*
X137767400Y-130434298D01*
X137818779Y-130385307D01*
X137888493Y-130371869D01*
X137954404Y-130398255D01*
X137965613Y-130408203D01*
X138547803Y-130990391D01*
X138631144Y-130862827D01*
X138724873Y-130649147D01*
X138724875Y-130649143D01*
X138782155Y-130422949D01*
X138801425Y-130190400D01*
X138782155Y-129957850D01*
X138724875Y-129731656D01*
X138724873Y-129731652D01*
X138631147Y-129517978D01*
X138631140Y-129517966D01*
X138547802Y-129390407D01*
X138547802Y-129390406D01*
X137967877Y-129970332D01*
X137905565Y-130004358D01*
X137834750Y-129999293D01*
X137780271Y-129959796D01*
X137698136Y-129856802D01*
X137698133Y-129856799D01*
X137624505Y-129806599D01*
X137579489Y-129751699D01*
X137571301Y-129681176D01*
X137602540Y-129617421D01*
X137606389Y-129613398D01*
X138123984Y-129095804D01*
X138186296Y-129061779D01*
X138213079Y-129058900D01*
X138337232Y-129058900D01*
X138337238Y-129058900D01*
X138337245Y-129058899D01*
X138337249Y-129058899D01*
X138397796Y-129052390D01*
X138397799Y-129052389D01*
X138397801Y-129052389D01*
X138534804Y-129001289D01*
X138557916Y-128983988D01*
X138651861Y-128913661D01*
X138739487Y-128796607D01*
X138739487Y-128796606D01*
X138739489Y-128796604D01*
X138790589Y-128659601D01*
X138797100Y-128599038D01*
X138797100Y-127226499D01*
X138817102Y-127158379D01*
X138870758Y-127111886D01*
X138923100Y-127100500D01*
X142631858Y-127100500D01*
X142699979Y-127120502D01*
X142746472Y-127174158D01*
X142756576Y-127244432D01*
X142747245Y-127277114D01*
X142728705Y-127319380D01*
X142728702Y-127319387D01*
X142673437Y-127537624D01*
X142673436Y-127537630D01*
X142673436Y-127537632D01*
X142654844Y-127762000D01*
X142669668Y-127940900D01*
X142673437Y-127986375D01*
X142728702Y-128204612D01*
X142728703Y-128204613D01*
X142728704Y-128204616D01*
X142796203Y-128358499D01*
X142819141Y-128410793D01*
X142942275Y-128599265D01*
X142942279Y-128599270D01*
X143094762Y-128764908D01*
X143135485Y-128796604D01*
X143272424Y-128903189D01*
X143305680Y-128921186D01*
X143356071Y-128971200D01*
X143371423Y-129040516D01*
X143346862Y-129107129D01*
X143305680Y-129142813D01*
X143272426Y-129160810D01*
X143272424Y-129160811D01*
X143094762Y-129299091D01*
X142942279Y-129464729D01*
X142942275Y-129464734D01*
X142819141Y-129653206D01*
X142728703Y-129859386D01*
X142728702Y-129859387D01*
X142673437Y-130077624D01*
X142673436Y-130077630D01*
X142673436Y-130077632D01*
X142656460Y-130282499D01*
X142654844Y-130302000D01*
X142673436Y-130526369D01*
X142708326Y-130664147D01*
X142705658Y-130735094D01*
X142675276Y-130784173D01*
X141308855Y-132150595D01*
X141246543Y-132184620D01*
X141219760Y-132187500D01*
X141077713Y-132187500D01*
X140890911Y-132227206D01*
X140716447Y-132304882D01*
X140561944Y-132417135D01*
X140434165Y-132559048D01*
X140434158Y-132559058D01*
X140338676Y-132724438D01*
X140338673Y-132724444D01*
X140329147Y-132753762D01*
X140279657Y-132906072D01*
X140259696Y-133095999D01*
X140279657Y-133285927D01*
X140282730Y-133295384D01*
X140338673Y-133467556D01*
X140338676Y-133467561D01*
X140434158Y-133632941D01*
X140434165Y-133632951D01*
X140547804Y-133759160D01*
X140578522Y-133823167D01*
X140569757Y-133893621D01*
X140524294Y-133948152D01*
X140483584Y-133965988D01*
X140436911Y-133977193D01*
X140298562Y-134034500D01*
X140230671Y-134062622D01*
X140210266Y-134071074D01*
X140001107Y-134199245D01*
X139814567Y-134358567D01*
X139655245Y-134545107D01*
X139529689Y-134749999D01*
X139527073Y-134754268D01*
X139519107Y-134773500D01*
X139433195Y-134980907D01*
X139382841Y-135190649D01*
X139375928Y-135219443D01*
X139359040Y-135434035D01*
X139357617Y-135452110D01*
X139332331Y-135518451D01*
X139275193Y-135560591D01*
X139204343Y-135565150D01*
X139172036Y-135553038D01*
X138987448Y-135453145D01*
X138987445Y-135453143D01*
X138770674Y-135378725D01*
X138770665Y-135378723D01*
X138544595Y-135341000D01*
X138315405Y-135341000D01*
X138089334Y-135378723D01*
X138089325Y-135378725D01*
X137872554Y-135453143D01*
X137872551Y-135453144D01*
X137670978Y-135562230D01*
X137670969Y-135562236D01*
X137646496Y-135581285D01*
X137646496Y-135581287D01*
X138176227Y-136111018D01*
X138210253Y-136173330D01*
X138205188Y-136244145D01*
X138165842Y-136296704D01*
X138166441Y-136297396D01*
X138163263Y-136300149D01*
X138162641Y-136300981D01*
X138160941Y-136302161D01*
X138052058Y-136396508D01*
X138052055Y-136396512D01*
X138015793Y-136452937D01*
X137962137Y-136499429D01*
X137891863Y-136509532D01*
X137827283Y-136480039D01*
X137820701Y-136473910D01*
X137288859Y-135942068D01*
X137288858Y-135942069D01*
X137209523Y-136063500D01*
X137209519Y-136063508D01*
X137117451Y-136273403D01*
X137061188Y-136495580D01*
X137042260Y-136723999D01*
X137061188Y-136952419D01*
X137117451Y-137174596D01*
X137209519Y-137384490D01*
X137288858Y-137505928D01*
X137820699Y-136974088D01*
X137883012Y-136940063D01*
X137953827Y-136945127D01*
X138010663Y-136987674D01*
X138015793Y-136995062D01*
X138052057Y-137051489D01*
X138052058Y-137051491D01*
X138166441Y-137150604D01*
X138164621Y-137152703D01*
X138201741Y-137195532D01*
X138211851Y-137265805D01*
X138182365Y-137330389D01*
X138176227Y-137336981D01*
X137646495Y-137866712D01*
X137670976Y-137885767D01*
X137670981Y-137885770D01*
X137872551Y-137994855D01*
X137872554Y-137994856D01*
X138089325Y-138069274D01*
X138089334Y-138069276D01*
X138315405Y-138107000D01*
X138544595Y-138107000D01*
X138770665Y-138069276D01*
X138770674Y-138069274D01*
X138987445Y-137994856D01*
X138987448Y-137994854D01*
X139189018Y-137885771D01*
X139213503Y-137866712D01*
X138683772Y-137336981D01*
X138649746Y-137274669D01*
X138654811Y-137203854D01*
X138694156Y-137151294D01*
X138693559Y-137150604D01*
X138696731Y-137147855D01*
X138697358Y-137147018D01*
X138699064Y-137145833D01*
X138807941Y-137051491D01*
X138807941Y-137051490D01*
X138807943Y-137051489D01*
X138844206Y-136995061D01*
X138897859Y-136948570D01*
X138968133Y-136938465D01*
X139032714Y-136967957D01*
X139039299Y-136974088D01*
X139571139Y-137505929D01*
X139650480Y-137384490D01*
X139742548Y-137174596D01*
X139798811Y-136952419D01*
X139809324Y-136825551D01*
X139834883Y-136759314D01*
X139892195Y-136717411D01*
X139963063Y-136713144D01*
X140000728Y-136728522D01*
X140045368Y-136755877D01*
X140210268Y-136856927D01*
X140436908Y-136950805D01*
X140675443Y-137008072D01*
X140920000Y-137027319D01*
X141164557Y-137008072D01*
X141403092Y-136950805D01*
X141507878Y-136907400D01*
X141578465Y-136899812D01*
X141641952Y-136931591D01*
X141678180Y-136992649D01*
X141675646Y-137063600D01*
X141645189Y-137112905D01*
X138907599Y-139850494D01*
X138845287Y-139884520D01*
X138777597Y-139880574D01*
X138770793Y-139878238D01*
X138770789Y-139878237D01*
X138695587Y-139865688D01*
X138544640Y-139840500D01*
X138315360Y-139840500D01*
X138164411Y-139865688D01*
X138089211Y-139878237D01*
X138089202Y-139878239D01*
X137872352Y-139952683D01*
X137872350Y-139952685D01*
X137670704Y-140061809D01*
X137670703Y-140061810D01*
X137489766Y-140202639D01*
X137334479Y-140371327D01*
X137209080Y-140563267D01*
X137209073Y-140563279D01*
X137116978Y-140773235D01*
X137116975Y-140773242D01*
X137060693Y-140995495D01*
X137060693Y-140995499D01*
X137060692Y-140995503D01*
X137041758Y-141224000D01*
X137055170Y-141385860D01*
X137060693Y-141452504D01*
X137116975Y-141674757D01*
X137116978Y-141674764D01*
X137209073Y-141884720D01*
X137209075Y-141884724D01*
X137209078Y-141884730D01*
X137246225Y-141941588D01*
X137311266Y-142041142D01*
X137334482Y-142076676D01*
X137409037Y-142157664D01*
X137475113Y-142229443D01*
X137489769Y-142245363D01*
X137670704Y-142386190D01*
X137872350Y-142495315D01*
X137872351Y-142495315D01*
X137872352Y-142495316D01*
X137986208Y-142534402D01*
X138089207Y-142569762D01*
X138315360Y-142607500D01*
X138315364Y-142607500D01*
X138544636Y-142607500D01*
X138544640Y-142607500D01*
X138770793Y-142569762D01*
X138987650Y-142495315D01*
X139172837Y-142395096D01*
X139242263Y-142380268D01*
X139308689Y-142405328D01*
X139351022Y-142462323D01*
X139358414Y-142496026D01*
X139367744Y-142614567D01*
X139375928Y-142718557D01*
X139433195Y-142957092D01*
X139527073Y-143183732D01*
X139527074Y-143183733D01*
X139655245Y-143392892D01*
X139655246Y-143392894D01*
X139655248Y-143392896D01*
X139814567Y-143579433D01*
X140001104Y-143738752D01*
X140210268Y-143866927D01*
X140436908Y-143960805D01*
X140675443Y-144018072D01*
X140920000Y-144037319D01*
X141164557Y-144018072D01*
X141403092Y-143960805D01*
X141629732Y-143866927D01*
X141838896Y-143738752D01*
X142025433Y-143579433D01*
X142184752Y-143392896D01*
X142312927Y-143183732D01*
X142406805Y-142957092D01*
X142464072Y-142718557D01*
X142483319Y-142474000D01*
X142464072Y-142229443D01*
X142406805Y-141990908D01*
X142312927Y-141764268D01*
X142184752Y-141555104D01*
X142025433Y-141368567D01*
X141838896Y-141209248D01*
X141838894Y-141209246D01*
X141838892Y-141209245D01*
X141681243Y-141112639D01*
X141629732Y-141081073D01*
X141403092Y-140987195D01*
X141164557Y-140929928D01*
X140920000Y-140910681D01*
X140919999Y-140910681D01*
X140675443Y-140929928D01*
X140436907Y-140987195D01*
X140210266Y-141081074D01*
X140000417Y-141209668D01*
X139931883Y-141228206D01*
X139864207Y-141206749D01*
X139818874Y-141152110D01*
X139809014Y-141112646D01*
X139799308Y-140995503D01*
X139767395Y-140869484D01*
X139770061Y-140798539D01*
X139800442Y-140749460D01*
X143245998Y-137303906D01*
X143308311Y-137269880D01*
X143335094Y-137267001D01*
X146260105Y-137267001D01*
X146328226Y-137287003D01*
X146363318Y-137320730D01*
X146473298Y-137477797D01*
X146473301Y-137477801D01*
X146635199Y-137639699D01*
X146822750Y-137771024D01*
X146854937Y-137786033D01*
X146861956Y-137789306D01*
X146915241Y-137836223D01*
X146934702Y-137904500D01*
X146914160Y-137972460D01*
X146861956Y-138017696D01*
X146822749Y-138035978D01*
X146635202Y-138167300D01*
X146635196Y-138167305D01*
X146473303Y-138329198D01*
X146473298Y-138329204D01*
X146341976Y-138516751D01*
X146245216Y-138724254D01*
X146245214Y-138724260D01*
X146210715Y-138853011D01*
X146185956Y-138945414D01*
X146166001Y-139173501D01*
X146185377Y-139394964D01*
X146185956Y-139401587D01*
X146245214Y-139622741D01*
X146245216Y-139622747D01*
X146341976Y-139830250D01*
X146456132Y-139993282D01*
X146473301Y-140017801D01*
X146635199Y-140179699D01*
X146822750Y-140311024D01*
X146857858Y-140327395D01*
X146861956Y-140329306D01*
X146915241Y-140376223D01*
X146934702Y-140444500D01*
X146914160Y-140512460D01*
X146861956Y-140557696D01*
X146822749Y-140575978D01*
X146635202Y-140707300D01*
X146635196Y-140707305D01*
X146473303Y-140869198D01*
X146473298Y-140869204D01*
X146341976Y-141056751D01*
X146245216Y-141264254D01*
X146245214Y-141264260D01*
X146209499Y-141397550D01*
X146185956Y-141485414D01*
X146166001Y-141713501D01*
X146185956Y-141941588D01*
X146209499Y-142029451D01*
X146245214Y-142162741D01*
X146245216Y-142162747D01*
X146341976Y-142370250D01*
X146430045Y-142496026D01*
X146473301Y-142557801D01*
X146635199Y-142719699D01*
X146822750Y-142851024D01*
X147030256Y-142947785D01*
X147251412Y-143007044D01*
X147479499Y-143026999D01*
X147707586Y-143007044D01*
X147928742Y-142947785D01*
X148136248Y-142851024D01*
X148169759Y-142827558D01*
X148237031Y-142804869D01*
X148305892Y-142822152D01*
X148331126Y-142841675D01*
X148890605Y-143401154D01*
X148896037Y-143407348D01*
X148918012Y-143435986D01*
X148918013Y-143435987D01*
X148947836Y-143458871D01*
X148947873Y-143458901D01*
X149045117Y-143533519D01*
X149045124Y-143533524D01*
X149193149Y-143594838D01*
X149212543Y-143597391D01*
X149312115Y-143610500D01*
X149312120Y-143610500D01*
X149352000Y-143615750D01*
X149387792Y-143611038D01*
X149396014Y-143610500D01*
X174086988Y-143610500D01*
X174095219Y-143611040D01*
X174107549Y-143612662D01*
X174131000Y-143615750D01*
X174170880Y-143610500D01*
X174170885Y-143610500D01*
X174248791Y-143600243D01*
X174270457Y-143597391D01*
X174274334Y-143596880D01*
X174289851Y-143594838D01*
X174437876Y-143533524D01*
X174533072Y-143460477D01*
X174533072Y-143460476D01*
X174541291Y-143454170D01*
X174541300Y-143454162D01*
X174564987Y-143435987D01*
X174586965Y-143407344D01*
X174592384Y-143401163D01*
X174978369Y-143015178D01*
X175040679Y-142981154D01*
X175100072Y-142982568D01*
X175191412Y-143007044D01*
X175419499Y-143026999D01*
X175647586Y-143007044D01*
X175868742Y-142947785D01*
X176076248Y-142851024D01*
X176263799Y-142719699D01*
X176425697Y-142557801D01*
X176557022Y-142370250D01*
X176575580Y-142330451D01*
X176622494Y-142277168D01*
X176690771Y-142257706D01*
X176758731Y-142278246D01*
X176803968Y-142330450D01*
X176822410Y-142369998D01*
X176953683Y-142557475D01*
X176953688Y-142557481D01*
X177115518Y-142719311D01*
X177115524Y-142719316D01*
X177303000Y-142850588D01*
X177510425Y-142947312D01*
X177510430Y-142947314D01*
X177705499Y-142999582D01*
X177705499Y-142225785D01*
X177725501Y-142157664D01*
X177779157Y-142111171D01*
X177849431Y-142101067D01*
X177851212Y-142101336D01*
X177928018Y-142113501D01*
X177928020Y-142113501D01*
X177990978Y-142113501D01*
X177990980Y-142113501D01*
X178067789Y-142101336D01*
X178138200Y-142110436D01*
X178192514Y-142156158D01*
X178213486Y-142223987D01*
X178213499Y-142225785D01*
X178213499Y-142999582D01*
X178408567Y-142947314D01*
X178408572Y-142947312D01*
X178615997Y-142850588D01*
X178803473Y-142719316D01*
X178803479Y-142719311D01*
X178965309Y-142557481D01*
X178965314Y-142557475D01*
X179096586Y-142369999D01*
X179115028Y-142330452D01*
X179161945Y-142277167D01*
X179230222Y-142257706D01*
X179298182Y-142278248D01*
X179343418Y-142330452D01*
X179361976Y-142370250D01*
X179450045Y-142496026D01*
X179493301Y-142557801D01*
X179655199Y-142719699D01*
X179842750Y-142851024D01*
X180050256Y-142947785D01*
X180271412Y-143007044D01*
X180499499Y-143026999D01*
X180727586Y-143007044D01*
X180948742Y-142947785D01*
X181156248Y-142851024D01*
X181343799Y-142719699D01*
X181414908Y-142648589D01*
X181477216Y-142614567D01*
X181548032Y-142619631D01*
X181604868Y-142662177D01*
X181629679Y-142728697D01*
X181630000Y-142737687D01*
X181630000Y-145655914D01*
X181609998Y-145724035D01*
X181556342Y-145770528D01*
X181503915Y-145781914D01*
X134515915Y-145750085D01*
X134447807Y-145730037D01*
X134401351Y-145676350D01*
X134390000Y-145624085D01*
X134390000Y-98404000D01*
X136474501Y-98404000D01*
X136494461Y-98644887D01*
X136494463Y-98644896D01*
X136553795Y-98879193D01*
X136553798Y-98879200D01*
X136650889Y-99100545D01*
X136650891Y-99100549D01*
X136697723Y-99172230D01*
X136783095Y-99302902D01*
X136946792Y-99480725D01*
X136946797Y-99480729D01*
X136946799Y-99480731D01*
X137137541Y-99629191D01*
X137137542Y-99629192D01*
X137350119Y-99744233D01*
X137350121Y-99744234D01*
X137470150Y-99785439D01*
X137578732Y-99822716D01*
X137817145Y-99862500D01*
X137817149Y-99862500D01*
X138058851Y-99862500D01*
X138058855Y-99862500D01*
X138297268Y-99822716D01*
X138340137Y-99807999D01*
X175673449Y-99807999D01*
X175693622Y-100064325D01*
X175753644Y-100314338D01*
X175753645Y-100314340D01*
X175852040Y-100551887D01*
X175948901Y-100709950D01*
X175986385Y-100771117D01*
X175986386Y-100771119D01*
X176153368Y-100966631D01*
X176348880Y-101133613D01*
X176348884Y-101133616D01*
X176568113Y-101267960D01*
X176805660Y-101366355D01*
X177055674Y-101426378D01*
X177312000Y-101446551D01*
X177568326Y-101426378D01*
X177818340Y-101366355D01*
X178055887Y-101267960D01*
X178275116Y-101133616D01*
X178470631Y-100966631D01*
X178637616Y-100771116D01*
X178771960Y-100551887D01*
X178870355Y-100314340D01*
X178930378Y-100064326D01*
X178950551Y-99808000D01*
X178930378Y-99551674D01*
X178870355Y-99301660D01*
X178771960Y-99064113D01*
X178637616Y-98844884D01*
X178637613Y-98844880D01*
X178470631Y-98649368D01*
X178275119Y-98482386D01*
X178275117Y-98482385D01*
X178275116Y-98482384D01*
X178055887Y-98348040D01*
X177947832Y-98303282D01*
X177818338Y-98249644D01*
X177647310Y-98208584D01*
X177568326Y-98189622D01*
X177312000Y-98169449D01*
X177055674Y-98189622D01*
X176805661Y-98249644D01*
X176568114Y-98348039D01*
X176348882Y-98482385D01*
X176348880Y-98482386D01*
X176153368Y-98649368D01*
X175986386Y-98844880D01*
X175986385Y-98844882D01*
X175852039Y-99064114D01*
X175753644Y-99301661D01*
X175693622Y-99551674D01*
X175673449Y-99807999D01*
X138340137Y-99807999D01*
X138525881Y-99744233D01*
X138738458Y-99629192D01*
X138929201Y-99480731D01*
X139092906Y-99302900D01*
X139225109Y-99100549D01*
X139322203Y-98879197D01*
X139380403Y-98649369D01*
X139381536Y-98644896D01*
X139381538Y-98644887D01*
X139381539Y-98644884D01*
X139401499Y-98404000D01*
X139381539Y-98163116D01*
X139374472Y-98135210D01*
X139352371Y-98047935D01*
X140683669Y-98047935D01*
X140714135Y-98220711D01*
X140726616Y-98249645D01*
X140783624Y-98381807D01*
X140888387Y-98522527D01*
X140888389Y-98522528D01*
X140888390Y-98522530D01*
X140944268Y-98569417D01*
X141022784Y-98635301D01*
X141022786Y-98635302D01*
X141179567Y-98714040D01*
X141350279Y-98754500D01*
X141350281Y-98754500D01*
X141481712Y-98754500D01*
X141579618Y-98743055D01*
X141612255Y-98739241D01*
X141777117Y-98679237D01*
X141923696Y-98582830D01*
X142044092Y-98455218D01*
X142131812Y-98303281D01*
X142182130Y-98135210D01*
X142192331Y-97960065D01*
X142161865Y-97787289D01*
X142092377Y-97626196D01*
X142092376Y-97626195D01*
X142092375Y-97626192D01*
X141987612Y-97485472D01*
X141986533Y-97484567D01*
X141918800Y-97427731D01*
X141853215Y-97372698D01*
X141696434Y-97293960D01*
X141633152Y-97278962D01*
X141525721Y-97253500D01*
X141394291Y-97253500D01*
X141394288Y-97253500D01*
X141263745Y-97268758D01*
X141263743Y-97268759D01*
X141098887Y-97328761D01*
X141098874Y-97328768D01*
X140952306Y-97425167D01*
X140831909Y-97552780D01*
X140831906Y-97552784D01*
X140744188Y-97704717D01*
X140719798Y-97786185D01*
X140695592Y-97867040D01*
X140693870Y-97872791D01*
X140683749Y-98046570D01*
X140683669Y-98047935D01*
X139352371Y-98047935D01*
X139322204Y-97928806D01*
X139322201Y-97928799D01*
X139245527Y-97754000D01*
X139225109Y-97707451D01*
X139092906Y-97505100D01*
X139092905Y-97505099D01*
X139092904Y-97505097D01*
X138929207Y-97327274D01*
X138909462Y-97311906D01*
X138738458Y-97178808D01*
X138738457Y-97178807D01*
X138525880Y-97063766D01*
X138525878Y-97063765D01*
X138297272Y-96985285D01*
X138297265Y-96985283D01*
X138195230Y-96968256D01*
X138058855Y-96945500D01*
X137817145Y-96945500D01*
X137697832Y-96965409D01*
X137578734Y-96985283D01*
X137578727Y-96985285D01*
X137350121Y-97063765D01*
X137350119Y-97063766D01*
X137137542Y-97178807D01*
X137137541Y-97178808D01*
X136946792Y-97327274D01*
X136783095Y-97505097D01*
X136650889Y-97707454D01*
X136553798Y-97928799D01*
X136553795Y-97928806D01*
X136494463Y-98163103D01*
X136494461Y-98163112D01*
X136474501Y-98404000D01*
X134390000Y-98404000D01*
X134390000Y-96138000D01*
X134410002Y-96069879D01*
X134463658Y-96023386D01*
X134516000Y-96012000D01*
X146686000Y-96012000D01*
X146754121Y-96032002D01*
G37*
G04 #@! TD.AperFunction*
G04 #@! TA.AperFunction,Conductor*
G36*
X171678457Y-127038838D02*
G01*
X171723694Y-127091044D01*
X171741976Y-127130250D01*
X171873301Y-127317801D01*
X172035199Y-127479699D01*
X172222750Y-127611024D01*
X172430256Y-127707785D01*
X172651412Y-127767044D01*
X172879499Y-127786999D01*
X173107586Y-127767044D01*
X173328742Y-127707785D01*
X173536248Y-127611024D01*
X173719155Y-127482950D01*
X173786428Y-127460263D01*
X173855288Y-127477548D01*
X173880520Y-127497069D01*
X179854094Y-133470642D01*
X179888120Y-133532954D01*
X179890999Y-133559737D01*
X179890999Y-140476602D01*
X179870997Y-140544723D01*
X179837270Y-140579815D01*
X179655202Y-140707300D01*
X179655196Y-140707305D01*
X179493303Y-140869198D01*
X179493298Y-140869204D01*
X179361974Y-141056753D01*
X179343417Y-141096550D01*
X179296500Y-141149834D01*
X179228223Y-141169295D01*
X179160263Y-141148753D01*
X179115029Y-141096550D01*
X179096588Y-141057004D01*
X178965314Y-140869526D01*
X178965309Y-140869520D01*
X178803479Y-140707690D01*
X178803473Y-140707685D01*
X178615995Y-140576411D01*
X178531491Y-140537006D01*
X178478207Y-140490089D01*
X178458746Y-140421812D01*
X178479288Y-140353852D01*
X178531491Y-140308617D01*
X178597176Y-140277989D01*
X178779280Y-140150478D01*
X178936476Y-139993282D01*
X179063987Y-139811178D01*
X179157939Y-139609697D01*
X179215477Y-139394964D01*
X179234852Y-139173501D01*
X179215477Y-138952038D01*
X179157939Y-138737305D01*
X179063987Y-138535825D01*
X178936476Y-138353720D01*
X178779280Y-138196524D01*
X178779276Y-138196521D01*
X178779271Y-138196517D01*
X178597176Y-138069013D01*
X178597174Y-138069012D01*
X178395698Y-137975062D01*
X178395692Y-137975060D01*
X178353573Y-137963774D01*
X178180962Y-137917523D01*
X177959499Y-137898148D01*
X177959498Y-137898148D01*
X177898324Y-137903500D01*
X177738036Y-137917523D01*
X177657074Y-137939217D01*
X177523305Y-137975060D01*
X177523300Y-137975062D01*
X177321822Y-138069013D01*
X177139721Y-138196521D01*
X177139715Y-138196526D01*
X176982524Y-138353717D01*
X176982519Y-138353723D01*
X176855011Y-138535824D01*
X176767143Y-138724258D01*
X176761059Y-138737305D01*
X176703521Y-138952038D01*
X176684146Y-139173501D01*
X176703521Y-139394964D01*
X176749772Y-139567575D01*
X176761058Y-139609694D01*
X176761060Y-139609700D01*
X176855010Y-139811176D01*
X176855011Y-139811178D01*
X176982515Y-139993273D01*
X176982519Y-139993278D01*
X176982522Y-139993282D01*
X177139718Y-140150478D01*
X177139722Y-140150481D01*
X177139726Y-140150484D01*
X177214211Y-140202639D01*
X177321822Y-140277989D01*
X177321823Y-140277989D01*
X177321827Y-140277992D01*
X177387504Y-140308617D01*
X177440790Y-140355534D01*
X177460251Y-140423811D01*
X177439710Y-140491771D01*
X177387506Y-140537006D01*
X177303002Y-140576411D01*
X177115524Y-140707685D01*
X177115518Y-140707690D01*
X176953688Y-140869520D01*
X176953683Y-140869526D01*
X176822409Y-141057005D01*
X176803967Y-141096552D01*
X176757049Y-141149836D01*
X176688771Y-141169295D01*
X176620812Y-141148751D01*
X176575579Y-141096548D01*
X176557140Y-141057005D01*
X176557022Y-141056752D01*
X176425697Y-140869201D01*
X176263799Y-140707303D01*
X176240497Y-140690987D01*
X176076248Y-140575978D01*
X175868745Y-140479218D01*
X175868739Y-140479216D01*
X175775270Y-140454171D01*
X175647586Y-140419958D01*
X175419499Y-140400003D01*
X175191412Y-140419958D01*
X174970258Y-140479216D01*
X174970252Y-140479218D01*
X174762749Y-140575978D01*
X174575202Y-140707300D01*
X174575196Y-140707305D01*
X174413303Y-140869198D01*
X174413298Y-140869204D01*
X174281976Y-141056751D01*
X174263694Y-141095958D01*
X174216777Y-141149243D01*
X174148500Y-141168704D01*
X174080540Y-141148162D01*
X174035304Y-141095958D01*
X174028363Y-141081073D01*
X174017022Y-141056752D01*
X173885697Y-140869201D01*
X173723799Y-140707303D01*
X173700497Y-140690987D01*
X173536248Y-140575978D01*
X173328745Y-140479218D01*
X173328739Y-140479216D01*
X173235270Y-140454171D01*
X173107586Y-140419958D01*
X172879499Y-140400003D01*
X172651412Y-140419958D01*
X172430258Y-140479216D01*
X172430252Y-140479218D01*
X172222749Y-140575978D01*
X172035202Y-140707300D01*
X172035196Y-140707305D01*
X171873303Y-140869198D01*
X171873298Y-140869204D01*
X171741976Y-141056751D01*
X171723694Y-141095958D01*
X171676777Y-141149243D01*
X171608500Y-141168704D01*
X171540540Y-141148162D01*
X171495304Y-141095958D01*
X171488363Y-141081073D01*
X171477022Y-141056752D01*
X171345697Y-140869201D01*
X171183799Y-140707303D01*
X171160497Y-140690987D01*
X170996248Y-140575978D01*
X170788745Y-140479218D01*
X170788739Y-140479216D01*
X170695270Y-140454171D01*
X170567586Y-140419958D01*
X170339499Y-140400003D01*
X170111412Y-140419958D01*
X169890258Y-140479216D01*
X169890252Y-140479218D01*
X169682749Y-140575978D01*
X169495202Y-140707300D01*
X169495196Y-140707305D01*
X169333303Y-140869198D01*
X169333298Y-140869204D01*
X169201976Y-141056751D01*
X169183694Y-141095958D01*
X169136777Y-141149243D01*
X169068500Y-141168704D01*
X169000540Y-141148162D01*
X168955304Y-141095958D01*
X168948363Y-141081073D01*
X168937022Y-141056752D01*
X168805697Y-140869201D01*
X168643799Y-140707303D01*
X168620497Y-140690987D01*
X168456248Y-140575978D01*
X168248745Y-140479218D01*
X168248739Y-140479216D01*
X168155270Y-140454171D01*
X168027586Y-140419958D01*
X167799499Y-140400003D01*
X167571412Y-140419958D01*
X167350258Y-140479216D01*
X167350252Y-140479218D01*
X167142749Y-140575978D01*
X166955202Y-140707300D01*
X166955196Y-140707305D01*
X166793303Y-140869198D01*
X166793298Y-140869204D01*
X166661976Y-141056751D01*
X166643694Y-141095958D01*
X166596777Y-141149243D01*
X166528500Y-141168704D01*
X166460540Y-141148162D01*
X166415304Y-141095958D01*
X166408363Y-141081073D01*
X166397022Y-141056752D01*
X166265697Y-140869201D01*
X166103799Y-140707303D01*
X166080497Y-140690987D01*
X165916248Y-140575978D01*
X165708745Y-140479218D01*
X165708739Y-140479216D01*
X165615270Y-140454171D01*
X165487586Y-140419958D01*
X165259499Y-140400003D01*
X165259498Y-140400003D01*
X165227982Y-140402760D01*
X165203320Y-140404917D01*
X165133716Y-140390928D01*
X165082724Y-140341529D01*
X165066534Y-140272403D01*
X165090287Y-140205497D01*
X165103231Y-140190316D01*
X165914646Y-139378902D01*
X165976956Y-139344879D01*
X166003739Y-139342000D01*
X167806488Y-139342000D01*
X167814719Y-139342540D01*
X167827049Y-139344162D01*
X167850500Y-139347250D01*
X167890380Y-139342000D01*
X167890385Y-139342000D01*
X167968291Y-139331743D01*
X167989957Y-139328891D01*
X167993835Y-139328380D01*
X168009351Y-139326338D01*
X168157376Y-139265024D01*
X168252572Y-139191977D01*
X168252572Y-139191976D01*
X168260791Y-139185670D01*
X168260800Y-139185662D01*
X168284487Y-139167487D01*
X168306465Y-139138844D01*
X168311884Y-139132663D01*
X168821160Y-138623387D01*
X168827341Y-138617966D01*
X168855987Y-138595987D01*
X168874163Y-138572298D01*
X168874170Y-138572291D01*
X168902152Y-138535825D01*
X168953524Y-138468876D01*
X169014838Y-138320851D01*
X169030178Y-138204328D01*
X169030500Y-138201885D01*
X169030701Y-138200360D01*
X169030703Y-138200333D01*
X169035750Y-138162000D01*
X169031040Y-138126219D01*
X169030500Y-138117988D01*
X169030500Y-135590290D01*
X169050502Y-135522169D01*
X169062860Y-135505983D01*
X169161040Y-135396944D01*
X169256527Y-135231556D01*
X169315542Y-135049928D01*
X169335504Y-134860000D01*
X169315542Y-134670072D01*
X169256527Y-134488444D01*
X169161040Y-134323056D01*
X169161038Y-134323054D01*
X169161034Y-134323048D01*
X169033255Y-134181135D01*
X168878752Y-134068882D01*
X168704288Y-133991206D01*
X168517487Y-133951500D01*
X168326513Y-133951500D01*
X168139711Y-133991206D01*
X167965247Y-134068882D01*
X167833561Y-134164558D01*
X167766693Y-134188417D01*
X167697541Y-134172336D01*
X167648061Y-134121422D01*
X167633500Y-134062622D01*
X167633500Y-132702811D01*
X167634040Y-132694579D01*
X167638750Y-132658800D01*
X167638750Y-132658799D01*
X167633500Y-132618921D01*
X167633500Y-132618920D01*
X167633500Y-132618915D01*
X167617838Y-132499950D01*
X167613266Y-132488911D01*
X167556524Y-132351924D01*
X167483477Y-132256728D01*
X167483474Y-132256725D01*
X167478385Y-132250093D01*
X167458988Y-132224813D01*
X167430346Y-132202835D01*
X167424153Y-132197404D01*
X163800344Y-128573595D01*
X163766318Y-128511283D01*
X163771383Y-128440468D01*
X163813930Y-128383632D01*
X163880450Y-128358821D01*
X163889439Y-128358500D01*
X169018988Y-128358500D01*
X169027219Y-128359040D01*
X169039549Y-128360662D01*
X169063000Y-128363750D01*
X169102880Y-128358500D01*
X169102885Y-128358500D01*
X169180791Y-128348243D01*
X169202457Y-128345391D01*
X169206334Y-128344880D01*
X169221851Y-128342838D01*
X169369876Y-128281524D01*
X169465072Y-128208477D01*
X169465072Y-128208476D01*
X169473291Y-128202170D01*
X169473300Y-128202162D01*
X169496987Y-128183987D01*
X169518965Y-128155344D01*
X169524384Y-128149163D01*
X169898369Y-127775178D01*
X169960679Y-127741154D01*
X170020072Y-127742568D01*
X170111412Y-127767044D01*
X170339499Y-127786999D01*
X170567586Y-127767044D01*
X170788742Y-127707785D01*
X170996248Y-127611024D01*
X171183799Y-127479699D01*
X171345697Y-127317801D01*
X171477022Y-127130250D01*
X171495303Y-127091044D01*
X171542220Y-127037759D01*
X171610497Y-127018297D01*
X171678457Y-127038838D01*
G37*
G04 #@! TD.AperFunction*
G04 #@! TA.AperFunction,Conductor*
G36*
X156438457Y-127038838D02*
G01*
X156483694Y-127091044D01*
X156501976Y-127130250D01*
X156633301Y-127317801D01*
X156795199Y-127479699D01*
X156982750Y-127611024D01*
X157190256Y-127707785D01*
X157411412Y-127767044D01*
X157639499Y-127786999D01*
X157867586Y-127767044D01*
X157945519Y-127746161D01*
X158016491Y-127747849D01*
X158067223Y-127778772D01*
X159237605Y-128949154D01*
X159243037Y-128955348D01*
X159254607Y-128970426D01*
X159265013Y-128983987D01*
X159296925Y-129008474D01*
X159296928Y-129008477D01*
X159327584Y-129032000D01*
X159392123Y-129081523D01*
X159392126Y-129081525D01*
X159426600Y-129095804D01*
X159453438Y-129106920D01*
X159540150Y-129142838D01*
X159659115Y-129158500D01*
X159659122Y-129158500D01*
X159699000Y-129163750D01*
X159699000Y-129163749D01*
X159699001Y-129163750D01*
X159734781Y-129159040D01*
X159743012Y-129158500D01*
X162027761Y-129158500D01*
X162095882Y-129178502D01*
X162116856Y-129195405D01*
X165944595Y-133023144D01*
X165978621Y-133085456D01*
X165981500Y-133112239D01*
X165981500Y-134780257D01*
X165961498Y-134848378D01*
X165944593Y-134869355D01*
X165925844Y-134888102D01*
X165919646Y-134893539D01*
X165891011Y-134915511D01*
X165865459Y-134948810D01*
X165865440Y-134948837D01*
X165856818Y-134960072D01*
X165799482Y-135001941D01*
X165728611Y-135006165D01*
X165666707Y-134971402D01*
X165633424Y-134908690D01*
X165631647Y-134869260D01*
X165632296Y-134863501D01*
X165627896Y-134824450D01*
X165627500Y-134817391D01*
X165627500Y-134542500D01*
X164548500Y-134542500D01*
X164548500Y-135621500D01*
X164823391Y-135621500D01*
X164830450Y-135621896D01*
X164869500Y-135626295D01*
X164908550Y-135621896D01*
X164915609Y-135621500D01*
X165168085Y-135621500D01*
X165168097Y-135621499D01*
X165228593Y-135614994D01*
X165365464Y-135563944D01*
X165365465Y-135563944D01*
X165482403Y-135476404D01*
X165489630Y-135466751D01*
X165546465Y-135424204D01*
X165617281Y-135419138D01*
X165679594Y-135453163D01*
X165713619Y-135515475D01*
X165716499Y-135542259D01*
X165716499Y-135946351D01*
X165696497Y-136014472D01*
X165642841Y-136060965D01*
X165616697Y-136069597D01*
X165536215Y-136086704D01*
X165361747Y-136164382D01*
X165207244Y-136276635D01*
X165079465Y-136418548D01*
X165079458Y-136418558D01*
X164983976Y-136583938D01*
X164983973Y-136583945D01*
X164924957Y-136765572D01*
X164904996Y-136955499D01*
X164924957Y-137145427D01*
X164934435Y-137174596D01*
X164983973Y-137327056D01*
X164983976Y-137327061D01*
X165053229Y-137447011D01*
X165069967Y-137516006D01*
X165046747Y-137583098D01*
X164990940Y-137626985D01*
X164944110Y-137636011D01*
X163692508Y-137636011D01*
X163684276Y-137635471D01*
X163648490Y-137630760D01*
X163648489Y-137630760D01*
X163489639Y-137651672D01*
X163341614Y-137712986D01*
X163341606Y-137712991D01*
X163265979Y-137771023D01*
X163246418Y-137786033D01*
X163246414Y-137786036D01*
X163244117Y-137787799D01*
X163244110Y-137787803D01*
X163214500Y-137810524D01*
X163192524Y-137839164D01*
X163187086Y-137845364D01*
X160620629Y-140411820D01*
X160558317Y-140445846D01*
X160498923Y-140444432D01*
X160407586Y-140419958D01*
X160179499Y-140400003D01*
X159951412Y-140419958D01*
X159730258Y-140479216D01*
X159730252Y-140479218D01*
X159522749Y-140575978D01*
X159335202Y-140707300D01*
X159335196Y-140707305D01*
X159173303Y-140869198D01*
X159173298Y-140869204D01*
X159041976Y-141056751D01*
X159023694Y-141095958D01*
X158976777Y-141149243D01*
X158908500Y-141168704D01*
X158840540Y-141148162D01*
X158795304Y-141095958D01*
X158788363Y-141081073D01*
X158777022Y-141056752D01*
X158645697Y-140869201D01*
X158483799Y-140707303D01*
X158460497Y-140690987D01*
X158296248Y-140575978D01*
X158088745Y-140479218D01*
X158088739Y-140479216D01*
X157995270Y-140454171D01*
X157867586Y-140419958D01*
X157639499Y-140400003D01*
X157411412Y-140419958D01*
X157190258Y-140479216D01*
X157190252Y-140479218D01*
X156982749Y-140575978D01*
X156795202Y-140707300D01*
X156795196Y-140707305D01*
X156633303Y-140869198D01*
X156633298Y-140869204D01*
X156501976Y-141056751D01*
X156483694Y-141095958D01*
X156436777Y-141149243D01*
X156368500Y-141168704D01*
X156300540Y-141148162D01*
X156255304Y-141095958D01*
X156248363Y-141081073D01*
X156237022Y-141056752D01*
X156105697Y-140869201D01*
X155943799Y-140707303D01*
X155920497Y-140690987D01*
X155756248Y-140575978D01*
X155548745Y-140479218D01*
X155548739Y-140479216D01*
X155455270Y-140454171D01*
X155327586Y-140419958D01*
X155099499Y-140400003D01*
X154871412Y-140419958D01*
X154650258Y-140479216D01*
X154650252Y-140479218D01*
X154442749Y-140575978D01*
X154255202Y-140707300D01*
X154255196Y-140707305D01*
X154093303Y-140869198D01*
X154093298Y-140869204D01*
X153961976Y-141056751D01*
X153943694Y-141095958D01*
X153896777Y-141149243D01*
X153828500Y-141168704D01*
X153760540Y-141148162D01*
X153715304Y-141095958D01*
X153708363Y-141081073D01*
X153697022Y-141056752D01*
X153565697Y-140869201D01*
X153403799Y-140707303D01*
X153380497Y-140690987D01*
X153216248Y-140575978D01*
X153008745Y-140479218D01*
X153008739Y-140479216D01*
X152915270Y-140454171D01*
X152787586Y-140419958D01*
X152559499Y-140400003D01*
X152331412Y-140419958D01*
X152110258Y-140479216D01*
X152110252Y-140479218D01*
X151902749Y-140575978D01*
X151715202Y-140707300D01*
X151715196Y-140707305D01*
X151553303Y-140869198D01*
X151553298Y-140869204D01*
X151421976Y-141056751D01*
X151403694Y-141095958D01*
X151356777Y-141149243D01*
X151288500Y-141168704D01*
X151220540Y-141148162D01*
X151175304Y-141095958D01*
X151168363Y-141081073D01*
X151157022Y-141056752D01*
X151025697Y-140869201D01*
X150863799Y-140707303D01*
X150840497Y-140690987D01*
X150676248Y-140575978D01*
X150468745Y-140479218D01*
X150468739Y-140479216D01*
X150375270Y-140454171D01*
X150247586Y-140419958D01*
X150019499Y-140400003D01*
X149791412Y-140419958D01*
X149570258Y-140479216D01*
X149570248Y-140479220D01*
X149377749Y-140568983D01*
X149307558Y-140579644D01*
X149242745Y-140550664D01*
X149203889Y-140491244D01*
X149198500Y-140454788D01*
X149198500Y-135934010D01*
X149199040Y-135925778D01*
X149200653Y-135913524D01*
X149203750Y-135890000D01*
X149198500Y-135850122D01*
X149198500Y-135850115D01*
X149182838Y-135731150D01*
X149121524Y-135583125D01*
X149064146Y-135508349D01*
X149048477Y-135487928D01*
X149048476Y-135487927D01*
X149047118Y-135486157D01*
X149047097Y-135486131D01*
X149039633Y-135476404D01*
X149023987Y-135456013D01*
X149020273Y-135453163D01*
X148995346Y-135434035D01*
X148989153Y-135428604D01*
X148565308Y-135004759D01*
X148531282Y-134942447D01*
X148536347Y-134871632D01*
X148540622Y-134863499D01*
X162956704Y-134863499D01*
X162961104Y-134902549D01*
X162961500Y-134909608D01*
X162961500Y-135162097D01*
X162968005Y-135222593D01*
X163019055Y-135359464D01*
X163019055Y-135359465D01*
X163106595Y-135476404D01*
X163223534Y-135563944D01*
X163360406Y-135614994D01*
X163420902Y-135621499D01*
X163420915Y-135621500D01*
X163673391Y-135621500D01*
X163680450Y-135621896D01*
X163719500Y-135626295D01*
X163758550Y-135621896D01*
X163765609Y-135621500D01*
X164040500Y-135621500D01*
X164040500Y-134542500D01*
X162961500Y-134542500D01*
X162961500Y-134817391D01*
X162961104Y-134824450D01*
X162956704Y-134863499D01*
X148540622Y-134863499D01*
X148551191Y-134843392D01*
X148616586Y-134749999D01*
X148616587Y-134749998D01*
X148713310Y-134542574D01*
X148713312Y-134542569D01*
X148765581Y-134347501D01*
X147975523Y-134347501D01*
X147907402Y-134327499D01*
X147860909Y-134273843D01*
X147850805Y-134203569D01*
X147853377Y-134190577D01*
X147853945Y-134188331D01*
X147853945Y-134188327D01*
X147853947Y-134188324D01*
X147864448Y-134061603D01*
X147847944Y-133996431D01*
X147850611Y-133925486D01*
X147891211Y-133867244D01*
X147956854Y-133840198D01*
X147970088Y-133839501D01*
X148765581Y-133839501D01*
X148731819Y-133713499D01*
X162956704Y-133713499D01*
X162961104Y-133752549D01*
X162961500Y-133759608D01*
X162961500Y-134034500D01*
X164040500Y-134034500D01*
X164548500Y-134034500D01*
X165627500Y-134034500D01*
X165627500Y-133759608D01*
X165627896Y-133752549D01*
X165632295Y-133713499D01*
X165627896Y-133674450D01*
X165627500Y-133667391D01*
X165627500Y-133414914D01*
X165627499Y-133414902D01*
X165620994Y-133354406D01*
X165569944Y-133217535D01*
X165569944Y-133217534D01*
X165482404Y-133100595D01*
X165365465Y-133013055D01*
X165228593Y-132962005D01*
X165168097Y-132955500D01*
X164915609Y-132955500D01*
X164908550Y-132955104D01*
X164869500Y-132950704D01*
X164830450Y-132955104D01*
X164823391Y-132955500D01*
X164548500Y-132955500D01*
X164548500Y-134034500D01*
X164040500Y-134034500D01*
X164040500Y-132955500D01*
X163765609Y-132955500D01*
X163758550Y-132955104D01*
X163719500Y-132950704D01*
X163680450Y-132955104D01*
X163673391Y-132955500D01*
X163420902Y-132955500D01*
X163360406Y-132962005D01*
X163223535Y-133013055D01*
X163223534Y-133013055D01*
X163106595Y-133100595D01*
X163019055Y-133217534D01*
X163019055Y-133217535D01*
X162968005Y-133354406D01*
X162961500Y-133414902D01*
X162961500Y-133667391D01*
X162961104Y-133674450D01*
X162956704Y-133713499D01*
X148731819Y-133713499D01*
X148713312Y-133644432D01*
X148713310Y-133644427D01*
X148616586Y-133437002D01*
X148485314Y-133249526D01*
X148485309Y-133249520D01*
X148323479Y-133087690D01*
X148323473Y-133087685D01*
X148135996Y-132956412D01*
X148096448Y-132937970D01*
X148043164Y-132891052D01*
X148023704Y-132822774D01*
X148044247Y-132754815D01*
X148096449Y-132709582D01*
X148136248Y-132691024D01*
X148323799Y-132559699D01*
X148485697Y-132397801D01*
X148617022Y-132210250D01*
X148713783Y-132002744D01*
X148773042Y-131781588D01*
X148792997Y-131553501D01*
X148773042Y-131325414D01*
X148713783Y-131104258D01*
X148617022Y-130896752D01*
X148485697Y-130709201D01*
X148323799Y-130547303D01*
X148323795Y-130547300D01*
X148136246Y-130415976D01*
X148097040Y-130397694D01*
X148043755Y-130350777D01*
X148024295Y-130282499D01*
X148044837Y-130214540D01*
X148097041Y-130169306D01*
X148136248Y-130151024D01*
X148323799Y-130019699D01*
X148485697Y-129857801D01*
X148617022Y-129670250D01*
X148713783Y-129462744D01*
X148773042Y-129241588D01*
X148792997Y-129013501D01*
X148773042Y-128785414D01*
X148713783Y-128564258D01*
X148617022Y-128356752D01*
X148485697Y-128169201D01*
X148323799Y-128007303D01*
X148229823Y-127941500D01*
X148136246Y-127875976D01*
X148097040Y-127857694D01*
X148043755Y-127810777D01*
X148024295Y-127742499D01*
X148044837Y-127674540D01*
X148097041Y-127629306D01*
X148136248Y-127611024D01*
X148289277Y-127503871D01*
X148356549Y-127481184D01*
X148425409Y-127498469D01*
X148450641Y-127517990D01*
X149881205Y-128948554D01*
X149886637Y-128954748D01*
X149888267Y-128956872D01*
X149908613Y-128983387D01*
X149931941Y-129001287D01*
X149938436Y-129006271D01*
X149938473Y-129006301D01*
X150035717Y-129080919D01*
X150035724Y-129080924D01*
X150183749Y-129142238D01*
X150263174Y-129152694D01*
X150342599Y-129163151D01*
X150342600Y-129163151D01*
X150342601Y-129163151D01*
X150378389Y-129158440D01*
X150386620Y-129157900D01*
X153978161Y-129157900D01*
X154046282Y-129177902D01*
X154071794Y-129199586D01*
X154074747Y-129202866D01*
X154229248Y-129315118D01*
X154403712Y-129392794D01*
X154590513Y-129432500D01*
X154781487Y-129432500D01*
X154968288Y-129392794D01*
X155142752Y-129315118D01*
X155297253Y-129202866D01*
X155297256Y-129202863D01*
X155297257Y-129202863D01*
X155425034Y-129060951D01*
X155425035Y-129060949D01*
X155425040Y-129060944D01*
X155520527Y-128895556D01*
X155579542Y-128713928D01*
X155599504Y-128524000D01*
X155598699Y-128516342D01*
X155611471Y-128446504D01*
X155624046Y-128426468D01*
X155631023Y-128417377D01*
X155692337Y-128269352D01*
X155700351Y-128208477D01*
X155707999Y-128150386D01*
X155707999Y-128150380D01*
X155713249Y-128110501D01*
X155708539Y-128074720D01*
X155707999Y-128066489D01*
X155707999Y-127710400D01*
X155728001Y-127642279D01*
X155761728Y-127607187D01*
X155861062Y-127537632D01*
X155943799Y-127479699D01*
X156105697Y-127317801D01*
X156237022Y-127130250D01*
X156255303Y-127091044D01*
X156302220Y-127037759D01*
X156370497Y-127018297D01*
X156438457Y-127038838D01*
G37*
G04 #@! TD.AperFunction*
G04 #@! TA.AperFunction,Conductor*
G36*
X180391212Y-126861336D02*
G01*
X180468018Y-126873501D01*
X180468020Y-126873501D01*
X180530978Y-126873501D01*
X180530980Y-126873501D01*
X180607789Y-126861336D01*
X180678200Y-126870436D01*
X180732514Y-126916158D01*
X180753486Y-126983987D01*
X180753499Y-126985785D01*
X180753499Y-127781501D01*
X181348084Y-127781501D01*
X181348096Y-127781500D01*
X181408593Y-127774995D01*
X181459966Y-127755834D01*
X181530782Y-127750768D01*
X181593095Y-127784793D01*
X181627120Y-127847105D01*
X181630000Y-127873889D01*
X181630000Y-140689313D01*
X181609998Y-140757434D01*
X181556342Y-140803927D01*
X181486068Y-140814031D01*
X181421488Y-140784537D01*
X181414905Y-140778409D01*
X181385954Y-140749458D01*
X181343799Y-140707303D01*
X181320497Y-140690987D01*
X181161728Y-140579815D01*
X181117400Y-140524358D01*
X181107999Y-140476602D01*
X181107999Y-133299517D01*
X181108539Y-133291285D01*
X181113250Y-133255499D01*
X181113250Y-133255497D01*
X181104536Y-133189310D01*
X181092337Y-133096649D01*
X181065685Y-133032304D01*
X181031024Y-132948623D01*
X180956400Y-132851372D01*
X180956370Y-132851335D01*
X180933485Y-132821511D01*
X180904845Y-132799534D01*
X180898652Y-132794103D01*
X175957514Y-127852965D01*
X175923488Y-127790653D01*
X175928553Y-127719838D01*
X175971100Y-127663002D01*
X175993360Y-127649675D01*
X176009221Y-127642279D01*
X176076248Y-127611024D01*
X176263799Y-127479699D01*
X176425697Y-127317801D01*
X176557022Y-127130250D01*
X176575303Y-127091044D01*
X176622220Y-127037759D01*
X176690497Y-127018297D01*
X176758457Y-127038838D01*
X176803694Y-127091044D01*
X176821976Y-127130250D01*
X176953301Y-127317801D01*
X177115199Y-127479699D01*
X177302750Y-127611024D01*
X177510256Y-127707785D01*
X177731412Y-127767044D01*
X177959499Y-127786999D01*
X178187586Y-127767044D01*
X178408742Y-127707785D01*
X178616248Y-127611024D01*
X178803799Y-127479699D01*
X178965697Y-127317801D01*
X178968442Y-127313879D01*
X179023895Y-127269549D01*
X179094514Y-127262235D01*
X179157877Y-127294262D01*
X179193866Y-127355461D01*
X179196936Y-127372669D01*
X179198003Y-127382591D01*
X179198003Y-127382592D01*
X179249054Y-127519465D01*
X179249054Y-127519466D01*
X179336594Y-127636405D01*
X179453533Y-127723945D01*
X179590405Y-127774995D01*
X179650901Y-127781500D01*
X179650914Y-127781501D01*
X180245499Y-127781501D01*
X180245499Y-126985785D01*
X180265501Y-126917664D01*
X180319157Y-126871171D01*
X180389431Y-126861067D01*
X180391212Y-126861336D01*
G37*
G04 #@! TD.AperFunction*
G04 #@! TA.AperFunction,Conductor*
G36*
X146120042Y-131740029D02*
G01*
X146176877Y-131782576D01*
X146197714Y-131825470D01*
X146234779Y-131963799D01*
X146245214Y-132002741D01*
X146245216Y-132002747D01*
X146341976Y-132210250D01*
X146441172Y-132351917D01*
X146473301Y-132397801D01*
X146635199Y-132559699D01*
X146822750Y-132691024D01*
X146855188Y-132706150D01*
X146862546Y-132709581D01*
X146915831Y-132756497D01*
X146935293Y-132824774D01*
X146914752Y-132892734D01*
X146862550Y-132937969D01*
X146823003Y-132956411D01*
X146635524Y-133087685D01*
X146635518Y-133087690D01*
X146473688Y-133249520D01*
X146473683Y-133249526D01*
X146342411Y-133437002D01*
X146245687Y-133644427D01*
X146245685Y-133644432D01*
X146193416Y-133839501D01*
X146983475Y-133839501D01*
X147051596Y-133859503D01*
X147098089Y-133913159D01*
X147108193Y-133983433D01*
X147105621Y-133996425D01*
X147105052Y-133998670D01*
X147105051Y-133998677D01*
X147105051Y-133998678D01*
X147094550Y-134125399D01*
X147111053Y-134190570D01*
X147108387Y-134261516D01*
X147067787Y-134319758D01*
X147002144Y-134346804D01*
X146988910Y-134347501D01*
X146193417Y-134347501D01*
X146245685Y-134542569D01*
X146245687Y-134542574D01*
X146269784Y-134594250D01*
X146280445Y-134664441D01*
X146251465Y-134729254D01*
X146192046Y-134768111D01*
X146155589Y-134773500D01*
X146049439Y-134773500D01*
X145981318Y-134753498D01*
X145960344Y-134736595D01*
X145551248Y-134327499D01*
X145139790Y-133916041D01*
X145134363Y-133909853D01*
X145112387Y-133881213D01*
X145101843Y-133873122D01*
X145059976Y-133815786D01*
X145055754Y-133744915D01*
X145085848Y-133687820D01*
X145093722Y-133679268D01*
X145216860Y-133490791D01*
X145307296Y-133284616D01*
X145362564Y-133066368D01*
X145381156Y-132842000D01*
X145362564Y-132617632D01*
X145334817Y-132508062D01*
X145337484Y-132437118D01*
X145367864Y-132388038D01*
X145986915Y-131768988D01*
X146049226Y-131734964D01*
X146120042Y-131740029D01*
G37*
G04 #@! TD.AperFunction*
M02*
